<svg width="100%" height="100%" viewBox="0 0 160 72" fill="none" xmlns="http://www.w3.org/2000/svg">
<path d="M41.4674 40.4023C41.7279 40.8358 42.2055 41.3994 42.9001 42.0931C43.5948 42.7435 44.2026 43.3938 44.7236 44.0441C45.2446 44.6945 45.5919 45.3448 45.7656 45.9951C45.7656 46.2986 45.6787 46.5804 45.5051 46.8406C45.3314 47.0573 45.136 47.2308 44.919 47.3608C44.7453 47.4475 44.4848 47.5993 44.1375 47.8161C43.7902 47.9895 43.5731 48.0979 43.4862 48.1412C43.1389 48.1846 42.6396 48.1846 41.9884 48.1412C41.3372 48.0979 40.9681 48.0328 40.8813 47.9461C40.0564 47.8161 39.3835 47.7944 38.8625 47.8811C38.3415 47.9678 37.9725 48.0112 37.7554 48.0112C37.5817 48.0112 37.4515 48.1412 37.3646 48.4014C37.2778 48.6181 37.2344 48.8349 37.2344 49.0517C37.2344 49.2685 37.191 49.637 37.1041 50.1573C37.0607 50.6775 36.9522 51.1978 36.7785 51.7181C36.8219 51.8915 36.8219 52.1516 36.7785 52.4985C36.7351 52.8453 36.67 53.2138 36.5831 53.604C36.4963 53.9942 36.4312 54.2327 36.3878 54.3194C36.3878 54.3194 36.3878 54.3411 36.3878 54.3844C36.3444 54.8613 36.2141 55.5984 35.997 56.5956C35.8234 57.5494 35.7148 58.2214 35.6714 58.6116C35.5846 59.1319 35.476 59.7172 35.3458 60.3675C35.259 61.0178 35.1721 61.5381 35.0853 61.9283C35.0419 62.3619 34.9768 62.8171 34.8899 63.294C34.8031 63.8143 34.738 64.2695 34.6946 64.6597C34.6077 64.7898 34.5643 65.0499 34.5643 65.4401C34.5643 65.8303 34.5209 66.0904 34.4341 66.2205C34.3907 66.3939 34.3038 66.6324 34.1736 66.9359C34.0433 67.2827 33.9565 67.4995 33.9131 67.5862C33.9999 67.5862 34.0216 67.6729 33.9782 67.8463C33.9348 68.0631 33.9131 68.1715 33.9131 68.1715C33.7394 68.7351 33.5875 69.3638 33.4572 70.0575C33.3704 70.7945 33.3053 71.2281 33.2618 71.3581C33.1316 71.3148 33.0665 71.163 33.0665 70.9029C33.0231 70.8595 33.0014 70.8595 33.0014 70.9029L32.9362 71.098C32.8928 71.0113 32.8494 71.0113 32.806 71.098C32.7626 71.1847 32.7192 71.163 32.6757 71.033C32.6757 70.9463 32.6106 70.9896 32.4804 71.163C32.3935 71.3365 32.3284 71.3365 32.285 71.163C32.1982 71.1197 32.1113 71.033 32.0245 70.9029C31.9811 70.8162 31.9377 70.7078 31.8943 70.5777C31.8943 70.491 31.8725 70.3826 31.8291 70.2526C31.8291 70.1225 31.8074 70.0358 31.764 69.9924C31.6338 69.5589 31.4601 68.9302 31.243 68.1065C31.0259 67.2827 30.874 66.7191 30.7872 66.4156C30.7437 66.1555 30.6786 65.6352 30.5918 64.8548C30.5049 64.0744 30.4398 63.5325 30.3964 63.229C30.3096 61.9283 30.2445 60.1941 30.201 58.0263C30.201 55.8152 30.1793 54.2977 30.1359 53.474C30.1793 53.0404 30.1793 52.4985 30.1359 51.8481C30.0925 51.1544 30.0708 50.5258 30.0708 49.9622C30.0708 49.3985 30.1793 48.9 30.3964 48.4664C30.2227 48.1196 29.9623 47.9028 29.6149 47.8161C29.2676 47.7294 28.8117 47.7294 28.2473 47.8161C27.7263 47.9028 27.4007 47.9245 27.2705 47.8811C26.5758 47.8811 25.5121 47.9245 24.0794 48.0112C22.6901 48.0545 21.7784 48.0762 21.3442 48.0762C21.1706 48.2496 20.8233 48.358 20.3023 48.4014C19.8247 48.4014 19.4339 48.3797 19.13 48.3363C18.8261 48.2496 18.6525 48.2713 18.6091 48.4014C18.913 48.4881 18.8478 48.5531 18.4137 48.5965H17.8276C17.7842 48.6832 17.7842 48.7482 17.8276 48.7916C17.9144 48.7916 18.0012 48.7916 18.0881 48.7916C18.2183 48.7916 18.2834 48.8132 18.2834 48.8566C17.7624 50.0706 17.2632 51.0461 16.7856 51.7831C16.6119 52.0866 16.308 52.6285 15.8739 53.4089C15.4831 54.146 15.0924 54.8397 14.7016 55.49C14.3543 56.097 14.0287 56.5956 13.7248 56.9858C13.638 57.2025 13.3992 57.6144 13.0084 58.2214C12.6177 58.8284 12.4223 59.1535 12.4223 59.1969C12.2921 59.3703 12.2269 59.4787 12.2269 59.5221C11.9664 59.7388 11.6625 60.129 11.3152 60.6927C10.9679 61.2996 10.664 61.7332 10.4035 61.9933L10.3384 62.1234H10.2732C10.3167 62.1668 10.2949 62.2535 10.2081 62.3835C10.0779 62.5136 10.0127 62.6003 10.0127 62.6437C9.83908 62.8171 9.68713 62.9472 9.55688 63.0339L9.622 63.0989C9.49176 63.0555 9.44834 63.0989 9.49176 63.229C9.49176 63.3157 9.47005 63.3807 9.42663 63.4241C9.3398 63.5108 9.27468 63.5541 9.23126 63.5541C9.27468 63.6408 9.23126 63.7492 9.10101 63.8793C8.84052 64.2261 8.64515 64.3996 8.5149 64.3996C8.5149 64.3996 8.53661 64.3779 8.58003 64.3345C8.58003 64.2912 8.58003 64.2695 8.58003 64.2695C8.44978 64.3562 8.38466 64.4646 8.38466 64.5947C8.38466 64.7247 8.38466 64.8114 8.38466 64.8548V64.9849H8.31953C8.2327 65.0282 8.21099 64.9415 8.25441 64.7247L8.12416 64.9198C8.03733 65.0065 7.99391 65.0282 7.99391 64.9849L8.25441 64.2695C8.42807 64.0094 8.42807 64.0527 8.25441 64.3996C8.21099 64.5296 8.18929 64.6163 8.18929 64.6597C8.27612 64.573 8.40636 64.3779 8.58003 64.0744C8.75369 63.7709 8.92735 63.4891 9.10101 63.229C9.23126 62.9688 9.31809 62.8388 9.36151 62.8388C9.36151 62.7954 9.38322 62.7304 9.42663 62.6437C9.47005 62.557 9.51346 62.4702 9.55688 62.3835C9.6003 62.2968 9.622 62.2101 9.622 62.1234C9.622 62.1234 9.6003 62.1668 9.55688 62.2535C9.47005 62.3402 9.38322 62.4269 9.29638 62.5136C9.16614 62.6003 9.07931 62.6437 9.03589 62.6437C8.73198 63.2073 8.58003 63.4891 8.58003 63.4891H8.5149C8.42807 63.359 8.36295 63.3157 8.31953 63.359C8.27612 63.4457 8.29782 63.5541 8.38466 63.6842C8.16758 64.2045 7.99391 64.573 7.86367 64.7898V64.5296C7.90708 64.3996 7.92879 64.3345 7.92879 64.3345C7.88538 64.3345 7.84196 64.3779 7.79854 64.4646C7.75513 64.5947 7.71171 64.6814 7.6683 64.7247C7.62488 64.8114 7.60317 64.8548 7.60317 64.8548C7.51634 64.7247 7.49463 64.638 7.53805 64.5947C7.58147 64.4212 7.62488 64.2478 7.6683 64.0744C7.71171 63.9443 7.77684 63.8143 7.86367 63.6842C7.90708 63.5975 7.92879 63.5325 7.92879 63.4891C7.92879 63.4024 7.97221 63.2073 8.05904 62.9038C8.14587 62.6437 8.18929 62.4702 8.18929 62.3835C8.2327 62.2101 8.29782 61.9933 8.38466 61.7332C8.42807 61.5164 8.47149 61.3647 8.5149 61.278C8.5149 61.1913 8.53661 61.0829 8.58003 60.9528C8.58003 60.8227 8.60173 60.7143 8.64515 60.6276C8.64515 60.5409 8.64515 60.4759 8.64515 60.4325C8.68857 60.3025 8.75369 60.1724 8.84052 60.0423C8.92735 59.9123 8.97077 59.8256 8.97077 59.7822V59.6521C9.01418 59.6088 9.0576 59.3703 9.10101 58.9368C9.14443 58.9368 9.18785 58.8934 9.23126 58.8067C9.23126 58.7633 9.23126 58.7417 9.23126 58.7417L9.36151 58.6766C9.40492 58.5032 9.47005 58.3081 9.55688 58.0913C9.64371 57.8746 9.70883 57.7011 9.75225 57.5711C9.79567 57.441 9.79567 57.3543 9.75225 57.3109C9.75225 57.2242 9.77396 57.1592 9.81737 57.1158L9.8825 57.0508C9.92591 57.1375 9.94762 57.1158 9.94762 56.9858C9.94762 56.9424 9.94762 56.8991 9.94762 56.8557C9.99104 56.4655 10.0562 56.2487 10.143 56.2054C10.3167 55.9452 10.4903 55.555 10.664 55.0348C10.8811 54.5145 10.9896 54.2327 10.9896 54.1893C11.033 54.1026 11.0981 53.9942 11.185 53.8642C11.2284 53.8208 11.2501 53.7775 11.2501 53.7341C11.3803 53.604 11.5106 53.3222 11.6408 52.8887C11.8145 52.4118 11.9447 52.1083 12.0316 51.9782C12.1184 51.8048 12.2269 51.6097 12.3572 51.3929C12.5309 51.1328 12.6394 50.9377 12.6828 50.8076C12.7262 50.6775 12.7479 50.5691 12.7479 50.4824C13.0518 49.8321 13.334 49.3335 13.5945 48.9867C13.4643 48.9867 13.2038 49.0083 12.8131 49.0517C12.4657 49.0951 12.2921 49.0951 12.2921 49.0517C11.8579 49.2685 11.033 49.3552 9.81737 49.3118C9.77396 49.3118 9.42663 49.2902 8.7754 49.2468C8.08075 49.1601 7.6683 49.1601 7.53805 49.2468C7.88538 49.3335 8.10245 49.4202 8.18929 49.5069C8.2327 49.5503 8.16758 49.6153 7.99391 49.702L7.34268 49.7671C6.99535 49.8104 6.79998 49.7671 6.75657 49.637C6.53949 49.8538 6.14875 50.0055 5.58434 50.0922C5.01994 50.1356 4.69432 50.1789 4.60749 50.2223C4.26016 50.2657 3.41356 50.3307 2.06767 50.4174C1.85059 50.4174 1.61181 50.4391 1.35131 50.4824C1.22107 50.4824 1.13423 50.4824 1.09082 50.4824C1.00399 50.4824 0.960572 50.4391 0.960572 50.3524C0.700078 50.4824 0.548122 50.4608 0.504707 50.2873C0.461291 50.2873 0.461291 50.244 0.504707 50.1573C0.461291 50.1139 0.37446 50.1139 0.244213 50.1573C0.244213 50.1573 0.222505 50.1573 0.179089 50.1573C0.309337 50.0706 0.396168 49.9838 0.439583 49.8971C0.396168 49.8971 0.352753 49.8971 0.309337 49.8971C0.135674 49.8971 0.0488425 49.8755 0.0488425 49.8321C-0.0814042 49.8321 0.0488425 49.702 0.439583 49.4419C0.700078 49.2685 0.808617 49.1818 0.765201 49.1818L0.960572 49.0517C1.26448 48.7916 1.54668 48.6615 1.80718 48.6615C1.93743 49.0951 2.08938 49.2034 2.26304 48.9867C2.17621 48.9433 2.1328 48.9216 2.1328 48.9216C2.08938 48.8783 2.1328 48.8349 2.26304 48.7916C2.30646 48.7049 2.39329 48.6181 2.52354 48.5314C2.65378 48.4447 2.76232 48.3797 2.84915 48.3363C2.93599 48.2496 3.02282 48.1846 3.10965 48.1412C3.15306 48.0545 3.17477 47.9895 3.17477 47.9461C3.13136 47.9461 2.9794 48.0112 2.71891 48.1412C2.37158 48.358 2.19792 48.423 2.19792 48.3363C2.1545 48.2496 2.17621 48.1412 2.26304 48.0112C2.26304 48.0112 2.32817 48.0762 2.45841 48.2063C2.45841 47.9028 2.65378 47.621 3.04453 47.3608C3.43527 47.1007 3.86942 46.8839 4.347 46.7105C4.78115 46.5371 5.04165 46.407 5.12848 46.3203C5.21531 46.3203 5.30214 46.2986 5.38897 46.2553C5.43239 46.2119 5.4758 46.1902 5.51922 46.1902C5.56264 46.1902 5.58434 46.2336 5.58434 46.3203C5.67118 46.1035 5.90996 45.9301 6.3007 45.8C6.69144 45.67 6.88681 45.5833 6.88681 45.5399C7.92879 45.1931 8.44978 45.0196 8.44978 45.0196C8.53661 44.8896 8.7754 44.7595 9.16614 44.6294C9.55688 44.456 9.77396 44.391 9.81737 44.4343C10.512 44.0875 11.4889 43.7407 12.7479 43.3938C14.007 43.0036 14.9838 42.6784 15.6785 42.4183C16.4166 42.1582 16.7639 41.8764 16.7205 41.5729C16.7639 41.5295 16.8073 41.5078 16.8507 41.5078C17.0244 41.0309 17.2849 40.424 17.6322 39.6869C17.9795 38.9499 18.2834 38.3212 18.5439 37.8009C18.8044 37.2373 18.9998 36.717 19.13 36.2401C19.5208 35.4164 19.7379 34.8961 19.7813 34.6793C19.8247 34.5059 19.8898 34.3108 19.9766 34.094C20.0635 33.8773 20.1503 33.7038 20.2371 33.5738C20.324 33.4003 20.4108 33.2269 20.4976 33.0535C20.5845 32.8367 20.6279 32.6633 20.6279 32.5332C21.062 31.7095 21.4745 30.7557 21.8652 29.6718C21.9955 29.2382 22.104 28.9564 22.1908 28.8263C22.4079 28.2194 22.7987 27.2655 23.3631 25.9649C23.9275 24.6642 24.3182 23.667 24.5353 22.9733C24.5787 22.8433 24.6004 22.7349 24.6004 22.6482C25.599 20.0035 26.337 18.1392 26.8146 17.0553C26.858 16.9686 26.9232 16.8819 27.01 16.7952L27.0751 16.6651C27.2054 16.535 27.3139 16.47 27.4007 16.47C27.531 16.4266 27.531 16.3399 27.4007 16.2099C27.531 16.2099 27.7698 16.2315 28.1171 16.2749C28.4644 16.2749 28.7249 16.2966 28.8986 16.3399C29.0722 16.3833 29.1591 16.4483 29.1591 16.535C29.9405 16.2749 30.5267 16.3183 30.9174 16.6651C31.3516 16.4483 31.7423 16.4266 32.0896 16.6001C32.4804 16.7735 32.7192 17.0553 32.806 17.4455C32.9362 17.0553 33.1099 16.6217 33.327 16.1448C33.7611 16.3183 34.0433 16.3833 34.1736 16.3399C34.8682 17.2938 35.259 17.7707 35.3458 17.7707C35.476 17.7707 35.5195 17.6189 35.476 17.3154C35.7365 17.3154 35.8885 17.1637 35.9319 16.8602C35.9753 16.5134 36.0187 16.2749 36.0622 16.1448C36.149 15.9714 36.4963 16.0148 37.1041 16.2749C37.3212 16.3183 37.4949 16.3833 37.6251 16.47C37.7988 16.5134 37.9507 16.5784 38.081 16.6651C38.2112 16.7518 38.2981 16.8168 38.3415 16.8602C38.4283 16.9036 38.5151 16.9903 38.602 17.1203C38.7322 17.207 38.7973 17.2721 38.7973 17.3154C38.8408 17.3588 38.9276 17.4672 39.0578 17.6406C39.1881 17.814 39.2749 17.9224 39.3183 17.9658C39.4052 18.0958 39.4052 18.2259 39.3183 18.356C39.2315 18.486 39.2098 18.5944 39.2532 18.6811C39.2966 18.8979 39.3835 19.1364 39.5137 19.3965C39.644 19.6133 39.6874 19.765 39.644 19.8517C39.8176 20.0685 39.8827 20.3503 39.8393 20.6972C39.8393 21.0007 39.7959 21.2174 39.7091 21.3475C39.7091 22.388 39.644 23.0601 39.5137 23.3635C39.6005 23.8405 39.6005 24.5341 39.5137 25.4446C39.4269 26.3551 39.4052 27.0054 39.4486 27.3956C39.492 27.6557 39.4703 28.111 39.3835 28.7613C39.2966 29.3683 39.2966 29.7585 39.3835 29.9319C39.2966 30.5389 39.1881 31.8612 39.0578 33.8989C38.8408 34.7227 38.7973 35.308 38.9276 35.6548C38.6237 37.0422 38.5151 37.8443 38.602 38.0611C38.602 38.1044 38.5586 38.3429 38.4717 38.7764C38.4283 39.21 38.45 39.4268 38.5369 39.4268C38.8408 39.4268 39.0361 39.4268 39.123 39.4268C39.2098 39.4268 39.34 39.5135 39.5137 39.6869C39.6874 39.8603 39.8176 39.9904 39.9044 40.0771C40.0347 40.1205 40.2952 40.1638 40.6859 40.2072C41.0767 40.2072 41.3372 40.2722 41.4674 40.4023ZM0.700078 49.637C0.656662 49.637 0.634955 49.6587 0.634955 49.702L0.700078 49.637ZM0.569831 50.2873L0.765201 50.4174C0.765201 50.374 0.743494 50.3307 0.700078 50.2873C0.656662 50.2873 0.613246 50.2873 0.569831 50.2873ZM0.569831 49.9622V50.0272C0.87374 49.9405 1.0257 49.8755 1.0257 49.8321C0.938864 49.8321 0.808618 49.8538 0.634955 49.8971C0.591539 49.9405 0.569831 49.9622 0.569831 49.9622ZM3.30502 49.4419C3.69576 49.3552 3.93455 49.2685 4.02138 49.1818C3.45697 49.3118 3.10965 49.3769 2.9794 49.3769C2.76232 49.4202 2.63208 49.4419 2.58866 49.4419C2.50183 49.3985 2.54525 49.3335 2.71891 49.2468C2.76232 49.2468 2.80574 49.2251 2.84915 49.1818L2.19792 49.3769C2.11109 49.4202 1.95913 49.4853 1.74205 49.572L1.22107 49.8971L1.28619 49.9622H1.35131C1.61181 49.9622 1.93743 49.9188 2.32817 49.8321C2.415 49.8321 2.58866 49.7671 2.84915 49.637C3.06623 49.5069 3.21819 49.4419 3.30502 49.4419ZM5.1936 49.1167L5.25873 49.1818L5.32385 49.1167C5.28043 49.1167 5.23702 49.1167 5.1936 49.1167ZM6.95194 48.7916V48.6615C6.95194 48.7049 6.95194 48.7265 6.95194 48.7265C6.95194 48.7699 6.95194 48.7916 6.95194 48.7916ZM6.62632 48.8566C6.88681 48.7699 6.90852 48.7049 6.69144 48.6615L6.49607 48.7265C6.40924 48.7699 6.36583 48.8349 6.36583 48.9216C6.45266 48.8783 6.51778 48.8566 6.5612 48.8566C6.60461 48.8566 6.62632 48.8566 6.62632 48.8566ZM6.3007 48.8566C6.25729 48.6398 6.21387 48.6398 6.17046 48.8566C6.21387 48.9 6.25729 48.9 6.3007 48.8566ZM6.04021 48.9867C5.95338 48.9 5.88825 48.9 5.84484 48.9867V49.0517L6.04021 48.9867ZM5.71459 49.4419C5.97508 49.5286 6.19216 49.572 6.36583 49.572C6.49607 49.5286 6.69144 49.4853 6.95194 49.4419C7.16902 49.3552 7.32097 49.3118 7.4078 49.3118C7.27756 49.1818 7.08218 49.1384 6.82169 49.1818C6.5612 49.2251 6.32241 49.2902 6.10533 49.3769C5.84484 49.4636 5.71459 49.4853 5.71459 49.4419ZM7.99391 48.7265C8.38466 48.6832 9.07931 48.5748 10.0779 48.4014V48.3363H10.0127C9.40492 48.3363 8.55832 48.4447 7.47293 48.6615C7.42951 48.7049 7.47293 48.7265 7.60317 48.7265C7.60317 48.7265 7.64659 48.7265 7.73342 48.7265C7.90708 48.6832 7.99391 48.6832 7.99391 48.7265ZM10.4035 44.4343L10.2732 44.4994C10.3601 44.4994 10.4035 44.4777 10.4035 44.4343ZM7.99391 63.7492C8.03733 63.7492 8.05904 63.7492 8.05904 63.7492H7.99391ZM8.05904 63.6192H8.12416L8.05904 63.5541V63.6192ZM8.44978 63.1639L8.38466 63.229C8.42807 63.1856 8.44978 63.1639 8.44978 63.1639ZM8.58003 61.343C8.53661 61.3864 8.53661 61.408 8.58003 61.408V61.343ZM8.58003 63.0339C8.62344 63.0339 8.64515 63.0555 8.64515 63.0989L8.58003 63.0339ZM8.64515 64.1394C8.64515 64.1828 8.66686 64.1828 8.71027 64.1394H8.64515ZM10.0779 56.7256L9.94762 56.8557L10.0127 56.9207C10.0562 56.8774 10.0779 56.834 10.0779 56.7907C10.0345 56.7473 10.0345 56.7256 10.0779 56.7256ZM10.5337 56.5305C10.5771 56.6172 10.6206 56.6172 10.664 56.5305H10.5337ZM11.5106 53.7341L11.4455 53.7991L11.5106 53.8642C11.554 53.8208 11.554 53.7775 11.5106 53.7341ZM11.5757 57.7662L11.5106 57.8312C11.554 57.8312 11.5757 57.8095 11.5757 57.7662ZM20.9535 48.0762C20.9535 48.0762 20.9535 48.0545 20.9535 48.0112V48.0762ZM21.4094 37.4758C21.4094 37.5191 21.4094 37.5408 21.4094 37.5408V37.4758ZM21.6699 37.0205C21.6699 36.9338 21.6916 36.8471 21.735 36.7604L21.6699 36.6954V36.8254C21.6264 36.8688 21.6047 36.9121 21.6047 36.9555C21.6481 36.9989 21.6699 37.0205 21.6699 37.0205ZM22.0606 38.1911C22.0172 38.2345 21.9955 38.2562 21.9955 38.2562L22.0606 38.1911ZM22.4513 39.2967C22.4513 39.2967 22.4513 39.3184 22.4513 39.3617C22.4513 39.4051 22.473 39.4268 22.5165 39.4268C22.6033 39.3834 22.5816 39.3401 22.4513 39.2967ZM28.3125 16.6651L28.4427 16.535C28.3559 16.5784 28.3125 16.6217 28.3125 16.6651ZM23.4282 40.0771L23.3631 40.0121C23.3197 40.1421 23.3414 40.1638 23.4282 40.0771ZM30.5918 32.143C30.6352 31.5361 30.7003 30.5606 30.7872 29.2165C30.874 27.8725 30.9608 26.832 31.0476 26.0949C31.0911 25.9649 31.0694 25.8998 30.9825 25.8998C30.8957 25.8998 30.8306 25.8782 30.7872 25.8348V25.5096C30.6569 25.6397 30.6352 25.8131 30.722 26.0299C30.8523 26.2033 30.8957 26.3334 30.8523 26.4201C30.722 26.4635 30.6135 26.4635 30.5267 26.4201C30.4832 26.3768 30.5049 26.29 30.5918 26.16C30.5918 26.0733 30.5701 26.0733 30.5267 26.16C30.4398 26.3768 30.4181 26.4851 30.4615 26.4851C30.5484 26.6152 30.5484 26.7236 30.4615 26.8103C30.4181 26.897 30.3964 26.9404 30.3964 26.9404C30.3964 27.0271 30.3313 27.1571 30.201 27.3306C30.1142 27.504 30.0491 27.6341 30.0057 27.7208C29.9623 27.8075 29.984 27.9159 30.0708 28.0459C29.8971 28.176 29.7452 28.3278 29.6149 28.5012C29.4847 28.6746 29.5064 28.8263 29.6801 28.9564C29.7235 29.0865 29.6366 29.2816 29.4196 29.5417C29.2459 29.8018 29.1591 29.9536 29.1591 29.9969C29.0722 30.1704 28.942 30.4305 28.7683 30.7773C28.5947 31.1242 28.4427 31.3843 28.3125 31.5577C28.2256 31.7312 28.0954 31.9479 27.9217 32.2081C27.7481 32.4248 27.5744 32.5983 27.4007 32.7283C27.3573 32.815 27.2922 32.9668 27.2054 33.1836C27.1619 33.4003 27.1185 33.5738 27.0751 33.7038C27.0317 33.8339 26.9666 33.9206 26.8797 33.964C26.9232 34.0073 26.9014 34.0724 26.8146 34.1591C26.7278 34.2458 26.6627 34.2891 26.6192 34.2891C26.5758 34.3325 26.5541 34.4192 26.5541 34.5493C26.5541 34.6793 26.5324 34.7444 26.489 34.7444C26.2285 35.0479 26.0331 35.4164 25.9029 35.8499C25.5556 36.1534 25.3819 36.3052 25.3819 36.3052C25.2951 36.4352 25.2734 36.5003 25.3168 36.5003C25.3602 36.5003 25.4036 36.5219 25.447 36.5653C25.447 36.6087 25.4253 36.6303 25.3819 36.6303C25.3385 36.587 25.3385 36.6087 25.3819 36.6954C25.3819 36.8254 25.3385 36.8905 25.2517 36.8905C25.2082 36.9338 25.2082 36.9555 25.2517 36.9555C25.2517 37.1723 25.0563 37.259 24.6655 37.2156C24.5787 37.2156 24.5353 37.2156 24.5353 37.2156C24.6655 37.4324 24.7307 37.5625 24.7307 37.6058C24.7307 37.6492 24.709 37.7142 24.6655 37.8009C24.6221 37.8009 24.6004 37.8226 24.6004 37.866C24.6004 37.866 24.6438 37.866 24.7307 37.866C24.6872 38.1261 24.6221 38.1911 24.5353 38.0611C24.4919 38.0611 24.4485 38.0827 24.405 38.1261C24.3616 38.1261 24.3182 38.1261 24.2748 38.1261C24.2748 38.1261 24.2748 38.1478 24.2748 38.1911C24.2748 38.2345 24.2748 38.2778 24.2748 38.3212C24.3182 38.3646 24.3182 38.3862 24.2748 38.3862C24.2748 38.4729 24.2748 38.5597 24.2748 38.6464C24.2748 38.7331 24.2314 38.7331 24.1446 38.6464C24.188 38.8198 24.1011 38.9932 23.8841 39.1666C23.8406 39.21 23.7972 39.2533 23.7538 39.2967C23.7972 39.4268 23.7538 39.5568 23.6236 39.6869C23.5367 39.7736 23.4933 39.8386 23.4933 39.882C23.4933 40.1421 23.3848 40.3156 23.1677 40.4023C23.1243 40.619 23.3414 40.6624 23.8189 40.5323C24.4268 40.4023 25.1214 40.2939 25.9029 40.2072C26.7278 40.0771 27.5093 39.947 28.2473 39.817C29.0288 39.6869 29.7018 39.5785 30.2662 39.4918C30.2227 39.3184 30.201 39.0799 30.201 38.7764C30.2445 38.4296 30.2662 38.2128 30.2662 38.1261C30.2662 38.0394 30.2879 37.8876 30.3313 37.6709C30.3747 37.4107 30.3964 37.2156 30.3964 37.0856C30.3964 36.9121 30.353 36.7604 30.2662 36.6303C30.4398 36.4569 30.4615 36.3052 30.3313 36.1751C30.4181 35.7849 30.4615 35.243 30.4615 34.5493C30.5049 33.8556 30.5267 33.4871 30.5267 33.4437C30.5701 33.3136 30.6135 33.1619 30.6569 32.9885C30.7003 32.7717 30.722 32.5983 30.722 32.4682C30.722 32.3381 30.6786 32.2298 30.5918 32.143ZM31.243 48.5314V48.5965C31.2864 48.5965 31.2864 48.5748 31.243 48.5314ZM31.1779 48.9867C31.1345 49.3335 31.1562 49.5286 31.243 49.572C31.243 49.6153 31.2864 49.5936 31.3733 49.5069L31.4384 49.3769C31.395 49.2468 31.3081 49.1167 31.1779 48.9867ZM31.8291 65.1149V65.18C31.8291 65.18 31.8291 65.1583 31.8291 65.1149ZM31.8291 64.8548V64.9849C31.8291 64.9415 31.8291 64.8982 31.8291 64.8548ZM31.8291 64.5947C31.8725 64.5513 31.8943 64.5296 31.8943 64.5296L31.8291 64.5947ZM32.4804 69.9274V69.9924C32.4804 69.9924 32.4804 69.9708 32.4804 69.9274ZM32.5455 70.2526C32.5455 70.2526 32.5455 70.2742 32.5455 70.3176C32.5455 70.4043 32.5455 70.4477 32.5455 70.4477C32.5889 70.4477 32.6106 70.426 32.6106 70.3826L32.5455 70.2526ZM32.6106 70.6428C32.6106 70.6861 32.6106 70.7078 32.6106 70.7078V70.6428ZM33.1316 69.5372C33.1316 69.4938 33.1316 69.4722 33.1316 69.4722V69.5372ZM33.0665 70.3826L33.1316 70.3176C33.1316 70.1875 33.1533 70.1442 33.1967 70.1875L33.1316 70.1225L33.0665 70.3826ZM33.1967 68.8869C33.1967 68.8869 33.2184 68.8652 33.2618 68.8218L33.1967 68.8869ZM33.9782 21.3475C33.9782 21.3475 33.9782 21.3258 33.9782 21.2825V21.3475ZM33.7828 63.0339C33.8263 62.8604 33.8697 62.6003 33.9131 62.2535C33.9999 61.9066 34.0433 61.6682 34.0433 61.5381C34.0433 61.4514 34.0216 61.4947 33.9782 61.6682C33.9782 61.7115 33.9565 61.8199 33.9131 61.9933C33.8697 62.1668 33.848 62.2535 33.848 62.2535C33.848 62.2968 33.848 62.3185 33.848 62.3185C33.7611 62.4052 33.696 62.7304 33.6526 63.294C33.7394 63.294 33.7828 63.229 33.7828 63.0989V63.0339ZM34.0433 61.2129C34.0867 61.2129 34.1085 61.2129 34.1085 61.2129H34.0433ZM34.1736 60.8878C34.1302 60.8878 34.1085 60.9094 34.1085 60.9528L34.1736 60.8878ZM34.0433 20.8923L34.1085 20.8272L34.1736 20.5671C34.1736 20.3937 34.1736 20.307 34.1736 20.307L34.0433 20.8923Z" class="secondary-color"/>
<path d="M82.5095 18.5508C83.508 18.8109 84.2244 19.1361 84.6586 19.5263C85.1361 19.8731 85.3532 20.2633 85.3098 20.6969C85.3098 21.1304 85.3098 21.629 85.3098 22.1926C85.2664 22.5395 85.1361 22.9947 84.919 23.5583C84.7454 24.1219 84.6586 24.6205 84.6586 25.0541C84.3112 25.7478 84.1376 26.2247 84.1376 26.4848C84.0073 26.7016 83.812 27.0268 83.5515 27.4603C83.291 27.8939 83.0956 28.1757 82.9653 28.3058C82.9653 28.4792 82.9436 28.5876 82.9002 28.6309C82.8134 28.761 82.7266 28.9344 82.6397 29.1512C82.5963 29.3246 82.5746 29.433 82.5746 29.4764C82.5312 29.5197 82.4444 29.6498 82.3141 29.8666C82.2273 30.04 82.1839 30.1484 82.1839 30.1917C82.1839 30.2351 82.2056 30.3001 82.249 30.3868C82.0753 30.5602 81.9017 30.6903 81.728 30.777C81.5977 30.8637 81.5109 30.9071 81.4675 30.9071C81.4675 30.9071 81.4458 30.9938 81.4024 31.1672C81.359 31.2973 81.359 31.5141 81.4024 31.8176C81.1853 32.0343 81.0768 32.1644 81.0768 32.2078C80.9899 32.2511 80.9248 32.2945 80.8814 32.3378C80.838 32.3812 80.7729 32.4896 80.686 32.663C80.6426 32.8364 80.5124 32.9882 80.2953 33.1182C80.3821 33.5084 80.1433 34.1804 79.5789 35.1343C79.0145 36.0447 78.6889 36.6083 78.6021 36.8251C78.2982 37.1286 77.9942 37.7139 77.6903 38.581C77.3864 38.8412 77.2128 39.0146 77.1693 39.1013C77.2562 39.2314 77.2562 39.3397 77.1693 39.4265C77.1259 39.5132 77.0608 39.5999 76.974 39.6866C76.8871 39.7733 76.8437 39.795 76.8437 39.7516C76.8871 39.8383 76.8654 39.925 76.7786 40.0118C76.7352 40.0551 76.7135 40.0985 76.7135 40.1418C76.1491 41.4858 75.5847 42.5697 75.0203 43.3935L75.0854 43.4585C74.8683 43.9354 74.7598 44.1739 74.7598 44.1739C74.6729 44.3473 74.5861 44.5207 74.4993 44.6942C74.4559 44.8242 74.4125 44.9543 74.369 45.0844C74.369 45.1711 74.3473 45.2578 74.3039 45.3445C74.3039 45.3878 74.2822 45.4095 74.2388 45.4095C74.1954 45.4962 74.0434 45.8214 73.7829 46.385C73.5658 46.9053 73.3922 47.2738 73.2619 47.4906C73.0883 47.8808 72.9797 48.1409 72.9363 48.271C72.7192 48.7045 72.2851 49.6584 71.6338 51.1325C70.9826 52.0429 70.3097 53.4086 69.615 55.2296C69.615 55.3163 69.6584 55.2729 69.7453 55.0995C69.7453 55.0995 69.767 55.0561 69.8104 54.9694L70.0058 54.5792C70.136 54.4925 70.1794 54.5142 70.136 54.6443L69.8104 55.0995C69.767 55.403 69.6584 55.6198 69.4848 55.7498L69.5499 55.4247C69.246 55.8582 69.1374 56.0967 69.2243 56.14C69.2243 56.14 69.2026 56.14 69.1592 56.14L69.2894 56.2051C69.4196 56.2051 69.4196 56.2701 69.2894 56.4002C69.246 56.4435 69.1809 56.4435 69.094 56.4002C69.1809 56.6169 69.0723 57.1372 68.7684 57.961C68.6816 58.2644 68.5296 58.633 68.3125 59.0665C68.1389 59.4567 68.0303 59.7385 67.9869 59.9119C67.8567 60.2154 67.683 60.5406 67.4659 60.8875C67.3357 61.0609 67.2272 61.2993 67.1403 61.6028C67.0535 61.9063 66.945 62.1448 66.8147 62.3182C66.5976 62.7951 66.2286 63.6622 65.7076 64.9195C65.23 66.1768 64.861 67.0873 64.6005 67.6509C64.5571 67.6509 64.5137 67.6726 64.4703 67.716C64.4703 67.8027 64.4703 67.8894 64.4703 67.9761C64.4703 68.0628 64.4485 68.1278 64.4051 68.1712C64.4051 68.2579 64.34 68.388 64.2098 68.5614C64.1663 68.6915 64.1446 68.7782 64.1446 68.8215L63.7539 69.5369L63.6888 69.4719C63.6454 69.3851 63.5802 69.4068 63.4934 69.5369C63.4066 69.4935 63.3632 69.3851 63.3632 69.2117C63.4066 69.0816 63.45 68.9299 63.4934 68.7565C63.5802 68.5831 63.6454 68.4096 63.6888 68.2362C63.7322 68.1061 63.7322 68.0194 63.6888 67.9761L63.298 69.2117C63.2546 69.2551 63.2329 69.2117 63.2329 69.0816C63.1895 69.2984 63.1461 69.4285 63.1027 69.4719C63.0592 69.4719 63.0592 69.4068 63.1027 69.2768V69.1467C63.0158 69.4068 62.9724 69.5369 62.9724 69.5369L62.9073 69.4719C62.8205 69.6019 62.777 69.6019 62.777 69.4719C62.777 69.1684 62.7988 68.8649 62.8422 68.5614C62.929 68.2579 63.0158 67.9544 63.1027 67.6509C63.1895 67.3908 63.2329 67.1957 63.2329 67.0656L63.298 67.0006C63.2112 66.9139 63.2112 66.8488 63.298 66.8055C63.4283 66.8055 63.4934 66.8272 63.4934 66.8705L63.298 66.6754H63.3632C63.5368 66.7188 63.6019 66.6971 63.5585 66.6104C63.5585 66.5237 63.5368 66.2635 63.4934 65.83C63.4934 65.4398 63.5151 65.223 63.5585 65.1796C63.7756 64.2692 64.0795 62.5133 64.4703 59.9119C64.9044 57.3106 65.3386 55.1645 65.7727 53.4737C65.7727 53.4737 65.7727 53.452 65.7727 53.4086C65.7727 53.3653 65.7944 53.2569 65.8379 53.0835C65.8813 52.8667 65.9247 52.7366 65.9681 52.6933C66.0115 52.6065 66.0984 52.5632 66.2286 52.5632C66.2286 52.5198 66.1852 52.4548 66.0984 52.3681C66.0549 52.2814 66.0766 52.2163 66.1635 52.173L66.0984 51.9779C66.0984 51.9345 66.1201 51.8695 66.1635 51.7828C66.2069 51.6527 66.2286 51.5443 66.2286 51.4576C66.272 51.3709 66.2937 51.3276 66.2937 51.3276C66.424 50.9374 66.4891 50.6122 66.4891 50.3521C66.4891 50.3521 66.4891 50.3304 66.4891 50.287C66.5325 50.2437 66.5542 50.1786 66.5542 50.0919C66.5976 50.0052 66.6193 49.9185 66.6193 49.8318C66.6628 49.7451 66.6845 49.7017 66.6845 49.7017C67.5094 46.4501 67.9869 44.3256 68.1172 43.3285C68.204 43.155 68.2691 42.9816 68.3125 42.8082C68.356 42.5914 68.3777 42.3963 68.3777 42.2229C68.3777 42.0495 68.3777 41.9194 68.3777 41.8327C68.2908 41.9194 68.2257 42.0061 68.1823 42.0928C68.1823 42.1795 68.1606 42.2662 68.1172 42.353C68.1172 42.3963 68.0955 42.4397 68.0521 42.483C67.9652 42.7432 67.7699 43.1117 67.4659 43.5886C67.162 44.0221 66.9884 44.304 66.945 44.434C66.2069 45.4746 65.7944 46.1032 65.7076 46.32C65.3169 46.5801 65.1432 46.7319 65.1866 46.7752C65.1432 46.7752 65.1432 46.8403 65.1866 46.9703L65.1215 47.0354C64.9478 47.2088 64.6873 47.5773 64.34 48.1409C63.9927 48.7045 63.7322 49.0514 63.5585 49.1815C63.3414 49.4416 63.1895 49.6367 63.1027 49.7668C63.0592 49.8535 63.0158 49.9619 62.9724 50.0919C62.9724 50.1786 62.929 50.287 62.8422 50.4171C62.7553 50.5905 62.6685 50.6339 62.5817 50.5472C62.4948 50.4604 62.4514 50.4171 62.4514 50.4171C62.4514 50.6339 62.408 50.8073 62.3212 50.9374C62.2778 51.0674 62.1909 51.1975 62.0607 51.3276C61.9739 51.4576 61.9087 51.5443 61.8653 51.5877H61.8002C61.7568 51.6744 61.6917 51.7828 61.6048 51.9129C61.518 51.9996 61.4529 52.0863 61.4095 52.173C61.366 52.2163 61.3009 52.2814 61.2141 52.3681C61.1707 52.4548 61.1273 52.4981 61.0838 52.4981C61.0404 52.4981 60.9753 52.4765 60.8885 52.4331C60.9319 52.6499 60.8885 52.78 60.7582 52.8233C60.7148 52.8667 60.6931 52.8884 60.6931 52.8884C60.6063 53.0184 60.5194 53.1485 60.4326 53.2786C60.3892 53.4086 60.3458 53.517 60.3024 53.6037C60.3024 53.6904 60.107 53.8205 59.7162 53.9939C59.8031 54.2974 59.6945 54.5575 59.3906 54.7743C59.0433 54.9911 58.7611 55.2946 58.544 55.6848L58.4138 55.4897C58.3704 55.7932 58.2618 56.075 58.0882 56.3351C57.9145 56.5519 57.7191 56.6386 57.502 56.5953C57.502 56.5953 57.4586 56.682 57.3718 56.8554C57.3284 57.0288 57.1981 57.0938 56.9811 57.0505C57.3284 57.3106 57.0028 57.6575 56.0042 58.091L55.7437 58.2211C55.7003 58.4812 55.4832 58.763 55.0925 59.0665C54.7451 59.37 54.3327 59.6301 53.8551 59.8469C53.3775 60.0637 52.9868 60.1721 52.6829 60.1721C52.3356 60.2588 52.0751 60.2371 51.9014 60.1071L51.8363 60.2371C51.8363 60.2805 51.8363 60.3455 51.8363 60.4322C51.5758 60.4322 51.2719 60.3455 50.9246 60.1721C50.5772 59.9987 50.3167 59.8903 50.1431 59.8469C49.3616 59.977 48.9057 59.977 48.7755 59.8469C48.3847 60.0637 47.9723 59.9987 47.5381 59.6518C47.4947 59.5651 47.4947 59.5218 47.5381 59.5218C47.2776 59.435 47.104 59.305 47.0172 59.1316C47.0172 59.0448 46.9303 59.0665 46.7567 59.1966C46.4093 58.9365 46.1923 58.5679 46.1054 58.091C45.9752 57.5708 45.9318 57.0938 45.9752 56.6603C46.0186 56.1834 45.9969 55.7065 45.91 55.2296C45.9535 55.0128 45.9752 54.7526 45.9752 54.4492C45.9752 54.1023 46.0186 53.7771 46.1054 53.4737C46.062 53.2135 46.1054 52.8884 46.2357 52.4981C46.3659 52.0646 46.431 51.7611 46.431 51.5877C46.735 50.1136 47.1691 48.3143 47.7335 46.1899C47.9506 45.5829 48.1243 45.2361 48.2545 45.1494C48.0808 44.976 48.0374 44.8459 48.1242 44.7592C48.4282 44.0655 48.7321 43.155 49.036 42.0278C49.3833 40.9005 49.6655 40.0551 49.8826 39.4915C49.9694 39.4048 50.0128 39.3397 50.0128 39.2964C50.0997 38.9495 50.2516 38.4943 50.4687 37.9307C50.6858 37.3237 50.816 36.9118 50.8594 36.6951C50.9463 36.565 51.0114 36.4566 51.0548 36.3699C51.0982 36.2398 51.1199 36.1748 51.1199 36.1748C51.1199 36.0881 51.1416 35.9797 51.1851 35.8496C51.2285 35.6762 51.2502 35.5461 51.2502 35.4594C51.2502 35.3727 51.2502 35.286 51.2502 35.1993C51.2936 35.1126 51.337 35.0692 51.3804 35.0692C51.4238 35.0259 51.489 35.0042 51.5758 35.0042C51.5324 34.7441 51.5758 34.5706 51.706 34.4839C51.8797 34.0937 52.3356 32.7714 53.0736 30.5169C53.3341 29.8232 53.7683 28.761 54.3761 27.3303C54.9839 25.8562 55.3964 24.7723 55.6135 24.0786C55.6569 24.0786 55.6786 24.0569 55.6786 24.0136C55.8957 23.6234 56.1562 23.0814 56.4601 22.3877C56.764 21.6507 56.9593 21.2171 57.0462 21.0871C57.0462 21.0871 57.0462 21.0654 57.0462 21.022C57.2198 20.6318 57.5889 19.8948 58.1533 18.8109C58.7611 17.727 59.1953 16.8816 59.4557 16.2746C59.586 15.711 59.9116 15.2557 60.4326 14.9089C60.7365 14.6921 60.8885 14.8005 60.8885 15.2341C60.845 15.3208 60.8885 15.3208 61.0187 15.2341C61.1924 15.1473 61.2792 15.1257 61.2792 15.169C61.4529 15.0823 61.5614 15.0606 61.6048 15.104C61.6482 15.104 61.6699 15.104 61.6699 15.104L61.7351 15.169H61.8002C61.9739 15.2124 61.9739 15.169 61.8002 15.039C61.7134 14.9089 61.6699 14.8222 61.6699 14.7788C62.1041 14.9522 62.7553 15.039 63.6236 15.039C64.492 14.9956 65.0781 15.0823 65.382 15.2991C65.3386 15.3858 65.2517 15.3641 65.1215 15.2341C65.2517 15.4508 65.3603 15.5592 65.4471 15.5592C65.6208 15.3858 65.7727 15.3424 65.903 15.4292C66.0766 15.5159 66.2286 15.6459 66.3588 15.8194C66.4891 15.9928 66.5542 16.1445 66.5542 16.2746C66.9884 17.4018 66.9232 18.7675 66.3588 20.3717C66.272 20.415 66.2069 20.5451 66.1635 20.7619C66.1635 20.9353 66.1418 21.1087 66.0984 21.2822C66.0549 21.4122 66.0115 21.4989 65.9681 21.5423C65.9247 21.6724 65.8596 21.9758 65.7727 22.4528C65.7293 22.9297 65.6208 23.2765 65.4471 23.4933C65.5774 23.6667 65.5991 23.8835 65.5122 24.1436C65.4254 24.3604 65.382 24.5338 65.382 24.6639C65.382 24.8373 65.2517 25.1625 64.9912 25.6394C64.7308 26.0729 64.6222 26.3548 64.6656 26.4848C64.709 26.6582 64.6873 26.8533 64.6005 27.0701C64.5571 27.2869 64.4703 27.5037 64.34 27.7205C64.2098 27.8939 64.1012 28.0673 64.0144 28.2407C63.9276 28.4141 63.8841 28.5442 63.8841 28.6309C63.7539 28.9778 63.5802 29.5631 63.3632 30.3868C63.1461 31.1672 62.9507 31.7092 62.777 32.0127C62.6468 32.4896 62.2561 33.5518 61.6048 35.1993C61.5614 35.286 61.4746 35.4594 61.3443 35.7196C61.2575 35.9363 61.1707 36.1314 61.0838 36.3049C60.997 36.4783 60.9536 36.63 60.9536 36.7601C60.6497 36.9769 60.5628 37.302 60.6931 37.7356C60.4326 38.1258 60.1721 38.6677 59.9116 39.3614C59.6511 40.0118 59.4775 40.4236 59.3906 40.597C59.3906 40.7705 59.3472 40.9005 59.2604 40.9873C59.217 41.074 59.1518 41.1173 59.065 41.1173C59.0216 41.1173 58.9999 41.139 58.9999 41.1824C58.9999 41.5292 58.8913 41.8977 58.6743 42.2879C58.5006 42.6781 58.3486 42.9383 58.2184 43.0683C58.1316 43.1984 58.1533 43.3501 58.2835 43.5236C57.7625 44.6074 57.0896 46.2333 56.2647 48.4011C55.4398 50.5688 54.8754 51.9779 54.5715 52.6282C54.5281 52.8016 54.4412 52.9967 54.311 53.2135C54.2242 53.3869 54.1807 53.517 54.1807 53.6037H54.2459C54.2893 53.6904 54.4195 53.6037 54.6366 53.3436C54.7234 53.2135 54.7451 53.1268 54.7017 53.0835C54.7017 53.0401 54.7234 53.0184 54.7668 53.0184C54.7234 52.7583 54.8754 52.5198 55.2227 52.3031C55.57 52.0429 55.722 51.8261 55.6786 51.6527C55.8957 51.3059 56.1996 50.959 56.5903 50.6122C57.0245 50.222 57.285 49.8968 57.3718 49.6367L57.4369 49.7017C57.4803 49.8318 57.5455 49.7884 57.6323 49.5717C57.6323 49.5717 57.6323 49.5283 57.6323 49.4416C57.6757 49.3115 57.6974 49.2465 57.6974 49.2465C57.7842 49.2031 57.8277 49.1815 57.8277 49.1815C57.8711 49.1381 57.8928 49.1164 57.8928 49.1164C58.1099 49.0297 58.3052 48.8129 58.4789 48.4661C58.6526 48.1192 58.7828 47.9025 58.8696 47.8158C58.9999 47.8591 59.1301 47.7507 59.2604 47.4906C59.3906 47.2305 59.4775 47.1004 59.5209 47.1004C59.7814 47.1004 59.9767 46.9053 60.107 46.5151C60.2806 46.0815 60.4109 45.8431 60.4977 45.7997C60.5411 45.6263 60.628 45.5613 60.7582 45.6046C60.8885 45.648 60.9536 45.648 60.9536 45.6046C60.8233 45.4312 60.8233 45.2578 60.9536 45.0844C61.1273 44.9109 61.3009 44.8025 61.4746 44.7592C61.4746 44.7592 61.4963 44.6942 61.5397 44.5641C61.5831 44.434 61.6482 44.304 61.7351 44.1739C61.8219 44.0438 61.9087 43.9788 61.9956 43.9788C62.1692 43.9354 62.2561 43.8487 62.2561 43.7187C62.3429 43.762 62.4731 43.7187 62.6468 43.5886C62.56 43.3718 62.56 43.1984 62.6468 43.0683C62.777 42.8949 62.929 42.7215 63.1027 42.5481C63.3197 42.3746 63.4717 42.2229 63.5585 42.0928C63.5585 42.0495 63.5802 42.0061 63.6236 41.9628C63.6671 41.9194 63.7105 41.8977 63.7539 41.8977C63.8407 41.8544 63.8841 41.7893 63.8841 41.7026C64.1446 41.6593 64.2315 41.5942 64.1446 41.5075C64.2749 41.5509 64.3834 41.5292 64.4703 41.4425C64.5571 41.3558 64.6222 41.2474 64.6656 41.1173C64.7525 40.9873 64.8393 40.9222 64.9261 40.9222C65.9681 40.1852 66.3806 39.6216 66.1635 39.2314C66.2069 39.1446 66.272 39.0579 66.3588 38.9712C66.4457 38.8845 66.424 38.8195 66.2937 38.7761C66.2069 38.7328 66.1852 38.6894 66.2286 38.6461C66.272 38.5593 66.3371 38.4726 66.424 38.3859C66.5542 38.2992 66.6193 38.2342 66.6193 38.1908C66.793 38.0608 66.9884 37.844 67.2054 37.5405C67.4225 37.237 67.6613 36.9985 67.9218 36.8251C67.8784 36.8685 67.8133 36.9552 67.7264 37.0853L67.5962 37.2804C67.9001 37.0202 68.0521 36.8251 68.0521 36.6951C68.1823 36.6951 68.2691 36.6734 68.3125 36.63C68.2257 36.5433 68.1606 36.5216 68.1172 36.565C68.0738 36.6083 68.0521 36.63 68.0521 36.63C68.0955 36.4566 68.1389 36.3699 68.1823 36.3699C68.2691 36.3699 68.3125 36.3482 68.3125 36.3049C68.3994 36.3916 68.4428 36.3916 68.4428 36.3049C68.3994 36.1748 68.3994 36.0881 68.4428 36.0447C68.573 36.1748 68.6599 36.2615 68.7033 36.3049L68.6382 36.0447H68.7684V35.9797V35.9147C68.7684 35.8713 68.8335 35.8713 68.9638 35.9147V35.7846L69.0289 35.7196H69.094C68.9204 35.5461 68.9421 35.4161 69.1592 35.3294C69.2026 35.286 69.2677 35.2426 69.3545 35.1993L69.4848 35.0692C69.5716 35.0692 69.615 34.9825 69.615 34.8091C70.0492 34.3322 70.3097 34.0937 70.3965 34.0937C70.4399 34.007 70.5485 33.7686 70.7221 33.3784C70.8958 32.9448 70.9826 32.6413 70.9826 32.4679C71.7641 29.8666 72.2417 28.219 72.4153 27.5254C72.5022 27.3953 72.5673 27.2002 72.6107 26.9401C72.6975 26.6366 72.8061 26.4631 72.9363 26.4198C72.8495 26.2464 72.8712 26.0296 73.0014 25.7695C73.1751 25.5093 73.2402 25.3142 73.1968 25.1842C73.7612 24.1003 74.1302 23.1031 74.3039 22.1926C74.6947 20.9353 75.1939 19.7214 75.8018 18.5508C76.0188 18.2039 76.1708 17.9871 76.2576 17.9004C76.3879 17.8137 76.6484 17.8137 77.0391 17.9004C77.2996 17.8571 77.712 17.8787 78.2765 17.9655C78.8409 18.0088 79.1882 18.0305 79.3184 18.0305C79.3618 18.0305 79.4053 18.0522 79.4487 18.0955C79.4921 18.0955 79.5138 18.0955 79.5138 18.0955C79.5572 18.0955 79.6006 18.0955 79.644 18.0955V18.1606C79.6875 18.1606 79.7092 18.1606 79.7092 18.1606C80.0999 18.2906 80.4472 18.2473 80.7511 18.0305C80.8814 18.0738 81.0116 18.1172 81.1419 18.1606C81.2721 18.2039 81.4024 18.2473 81.5326 18.2906C81.6629 18.2906 81.7714 18.3123 81.8582 18.3557C81.9885 18.3557 82.097 18.3773 82.1839 18.4207C82.3141 18.464 82.4227 18.5074 82.5095 18.5508ZM67.7916 12.8278C67.835 12.7845 67.8567 12.7628 67.8567 12.7628C67.8567 12.7194 67.8567 12.6761 67.8567 12.6327C67.8567 12.6327 67.8784 12.5894 67.9218 12.5027C68.0086 12.3726 68.0955 12.2208 68.1823 12.0474C68.2691 11.874 68.356 11.7223 68.4428 11.5922L68.5079 11.3321C68.5079 11.2887 68.5296 11.267 68.573 11.267C68.6165 11.2237 68.6165 11.202 68.573 11.202C68.6165 11.1586 68.6165 11.1153 68.573 11.0719C68.573 10.9852 68.5947 10.8768 68.6382 10.7468C68.6816 10.7034 68.7033 10.6384 68.7033 10.5517C68.5296 10.9852 68.4211 11.0502 68.3777 10.7468C68.4211 10.4866 68.5513 10.2915 68.7684 10.1615C68.8118 10.1181 68.8335 10.1615 68.8335 10.2915C68.7901 10.4216 68.7901 10.4649 68.8335 10.4216C68.877 10.3349 68.9421 10.2265 69.0289 10.0964C68.8552 10.0097 68.877 9.79294 69.094 9.44609C69.2677 9.31602 69.4848 9.18596 69.7453 9.05589C70.0492 8.88247 70.3097 8.66569 70.5267 8.40556C70.657 8.14542 71.1129 7.7769 71.8943 7.29999C72.6758 6.77972 73.1534 6.32449 73.3271 5.93429C73.4139 5.84758 73.5876 5.60912 73.8481 5.21892C74.152 4.82872 74.4342 4.54691 74.6946 4.37349C74.9551 4.15671 75.2374 4.07 75.5413 4.11336C75.5413 4.07 75.5413 4.04832 75.5413 4.04832C75.5413 3.70148 75.7149 3.52806 76.0622 3.52806C76.0622 3.39799 76.1708 3.24625 76.3879 3.07283C76.3445 3.07283 76.3227 3.05115 76.3227 3.00779C76.5398 2.79102 76.8003 2.55256 77.1042 2.29242C77.4516 2.03229 77.7989 1.79384 78.1462 1.57706C78.5369 1.36028 78.9277 1.18686 79.3184 1.05679C79.7092 0.883368 80.0565 0.753302 80.3604 0.666592C80.6209 0.536525 80.9248 0.471491 81.2721 0.471491C81.6629 0.428136 81.9885 0.406458 82.249 0.406458C82.5095 0.406458 82.8134 0.384781 83.1607 0.341426C83.508 0.298068 83.8119 0.211357 84.0724 0.0812921C84.2027 0.254715 84.3764 0.276392 84.5934 0.146325C84.8539 0.016257 85.071 -0.027098 85.2447 0.0162596C85.4617 0.0596146 85.5486 0.276392 85.5052 0.666592C85.5052 0.623237 85.5269 0.579881 85.5703 0.536523C85.7005 0.449813 85.744 0.49317 85.7005 0.666592C86.1781 1.23021 86.2432 1.81551 85.8959 2.42249C85.5486 2.98611 84.9842 3.44135 84.2027 3.78819C83.6383 4.56859 82.8785 5.11054 81.9234 5.41403C81.9234 5.45738 81.88 5.52241 81.7931 5.60912C81.7497 5.69584 81.6846 5.78255 81.5977 5.86926C81.5543 5.91261 81.4675 5.97765 81.3372 6.06436C81.2504 6.15107 81.1419 6.2161 81.0116 6.25946C81.0116 6.47624 80.7729 6.73637 80.2953 7.03986C79.8611 7.29999 79.4704 7.43006 79.1231 7.43006C78.9928 7.73355 78.7974 7.99368 78.5369 8.21046C78.3199 8.42724 77.9508 8.70905 77.4298 9.05589C76.9523 9.35938 76.6267 9.55448 76.453 9.64119C76.4096 9.68455 76.3445 9.74958 76.2576 9.83629C76.1708 9.923 76.0622 10.0097 75.932 10.0964C75.8452 10.1831 75.6932 10.2048 75.4761 10.1615C75.3459 10.2048 74.9117 10.4216 74.1737 10.8118C73.479 11.202 72.8929 11.3537 72.4153 11.267C72.2851 11.4838 72.0463 11.5922 71.699 11.5922C71.7858 11.5922 71.8509 11.6139 71.8943 11.6572C72.0246 11.7006 72.0246 11.7439 71.8943 11.7873C71.7641 11.8306 71.6556 11.809 71.5687 11.7223C71.3082 11.8957 70.9609 12.0474 70.5267 12.1775C70.136 12.3076 69.7887 12.4376 69.4848 12.5677C69.4414 12.6544 69.3762 12.7194 69.2894 12.7628C69.246 12.8061 69.1809 12.8495 69.094 12.8929C69.0506 12.8929 68.9855 12.9145 68.8987 12.9579C68.8118 13.0012 68.7467 13.088 68.7033 13.218C68.356 13.218 68.1606 13.1963 68.1172 13.153C68.0738 13.153 68.1389 13.088 68.3125 12.9579C68.573 12.7845 68.725 12.6327 68.7684 12.5027C68.725 12.5027 68.6165 12.5677 68.4428 12.6978C68.2691 12.8278 68.1172 12.8278 67.9869 12.6978C67.9435 12.6978 67.9001 12.7194 67.8567 12.7628C67.8567 12.7628 67.8567 12.7845 67.8567 12.8278C67.8567 12.8278 67.835 12.8278 67.7916 12.8278ZM60.4326 14.9739V15.039C60.476 14.9956 60.476 14.9739 60.4326 14.9739ZM46.8869 58.8064V58.9365C46.8869 58.8931 46.8869 58.8497 46.8869 58.8064ZM47.5381 59.1316V59.1966H47.6033L47.5381 59.1316ZM62.777 43.1984C62.8205 43.3285 62.9073 43.3068 63.0375 43.1334L62.777 43.1984ZM67.5311 37.4755V37.5405C67.5745 37.4538 67.5745 37.4321 67.5311 37.4755ZM68.3777 36.4349V36.5C68.3777 36.5 68.3777 36.4783 68.3777 36.4349ZM63.5585 67.2607H63.6236L63.5585 67.1307C63.5585 67.174 63.5585 67.2174 63.5585 67.2607ZM63.6236 67.0656L63.6888 66.7404L63.6236 66.8705C63.5802 67.0006 63.5802 67.0656 63.6236 67.0656ZM63.6888 67.5859C63.7756 67.3691 63.8407 67.2174 63.8841 67.1307C63.7973 67.0873 63.7322 67.1523 63.6888 67.3258V67.5859ZM66.2286 60.042L66.1635 60.4322C66.1635 60.4322 66.1852 60.3672 66.2286 60.2371C66.272 60.1071 66.272 60.042 66.2286 60.042Z" class="secondary-color"/>
<path d="M123.212 10.2267C123.212 10.3134 123.277 10.3784 123.407 10.4218V10.4868C123.407 10.6169 123.407 10.9854 123.407 11.5924C123.407 12.156 123.364 12.5462 123.277 12.763C123.06 14.0636 122.799 15.1259 122.495 15.9496C122.191 17.337 121.627 18.616 120.802 19.7866C120.107 21.4774 119.348 22.7998 118.523 23.7536C116.135 26.9186 114.746 28.3927 114.355 28.1759C114.268 28.2626 114.268 28.3276 114.355 28.371C114.485 28.4143 114.463 28.4794 114.29 28.5661C113.986 28.8696 113.639 29.2164 113.248 29.6066C112.857 29.9968 112.597 30.2569 112.466 30.387C112.423 30.5171 112.293 30.6688 112.076 30.8422C111.902 30.9723 111.793 31.059 111.75 31.1024C111.533 31.4492 111.272 31.7094 110.968 31.8828C110.925 32.0128 110.86 32.0345 110.773 31.9478C110.73 31.9478 110.708 31.9478 110.708 31.9478C110.708 32.0345 110.708 32.0779 110.708 32.0779C110.665 32.1212 110.599 32.1863 110.513 32.273C110.469 32.3597 110.404 32.4464 110.317 32.5331C110.274 32.6198 110.23 32.6632 110.187 32.6632C110.013 32.7065 109.84 32.8583 109.666 33.1184C109.492 33.3785 109.34 33.5086 109.21 33.5086C108.733 34.2457 108.125 34.6575 107.387 34.7442C107.517 34.8743 107.56 35.0044 107.517 35.1344C107.43 35.3079 107.365 35.3295 107.322 35.1995C107.322 35.1128 107.408 34.961 107.582 34.7442C107.452 34.7442 107.126 35.0911 106.605 35.7848C106.475 36.0449 106.236 36.3267 105.889 36.6302C105.542 36.8903 105.346 37.0421 105.303 37.0854C105.216 37.1288 105.042 37.2805 104.782 37.5407C104.565 37.7575 104.369 37.9092 104.196 37.9959C104.065 38.2127 103.805 38.4728 103.414 38.7763C103.067 39.0798 102.871 39.2315 102.828 39.2315C102.828 39.2315 102.828 39.2532 102.828 39.2966C102.828 39.3833 102.741 39.4483 102.568 39.4917C102.524 39.535 102.502 39.5567 102.502 39.5567C102.416 39.6434 102.329 39.6868 102.242 39.6868C101.938 39.9036 101.656 40.1854 101.395 40.5322C101.178 40.8357 101.005 41.0308 100.874 41.1175C100.744 41.1609 100.636 41.2476 100.549 41.3776C100.462 41.5511 100.223 41.7462 99.8323 41.9629C99.7021 42.1364 99.2245 42.5482 98.3996 43.1986C98.3562 43.3286 98.2477 43.437 98.074 43.5237C97.9438 43.6105 97.8569 43.6755 97.8135 43.7188C97.5096 44.0657 97.2491 44.2825 97.032 44.3692C95.9901 45.4097 95.3605 45.995 95.1434 46.1251C94.6225 46.6887 92.8858 48.2929 89.9336 50.9375C89.6297 51.111 89.2172 51.4578 88.6962 51.9781C88.1752 52.5417 87.7845 52.8885 87.524 53.0186C87.3503 53.1053 87.1984 53.2571 87.0681 53.4738C86.9379 53.6906 86.7859 53.799 86.6123 53.799V53.864C86.6123 53.9941 86.5906 54.0591 86.5471 54.0591C86.2432 54.2759 85.4618 54.9696 84.2027 56.1402C83.7685 56.5738 83.4212 56.8339 83.1607 56.9206C83.1173 56.964 83.0522 57.029 82.9653 57.1157C82.8785 57.2024 82.7917 57.2675 82.7048 57.3108C82.3141 57.8744 81.8365 58.2863 81.2721 58.5464C81.2287 58.6331 81.1419 58.7199 81.0116 58.8066V58.8716C80.8814 58.915 80.7729 58.98 80.686 59.0667C80.5558 59.1534 80.4689 59.2185 80.4255 59.2618C80.3821 59.3919 80.2953 59.4786 80.165 59.5219C80.0348 59.5653 79.948 59.5219 79.9045 59.3919V59.5219L79.9697 59.587C80.1433 59.6303 80.0782 59.717 79.7743 59.8471C79.5138 60.0205 79.2967 60.1723 79.1231 60.3023C78.906 60.4758 78.8191 60.5842 78.8626 60.6275C78.6021 60.5842 78.4067 60.7142 78.2764 61.0177C78.2764 61.1044 78.2547 61.1478 78.2113 61.1478C78.0377 61.2345 77.8857 61.3645 77.7555 61.538C77.5818 61.7547 77.4733 61.8848 77.4298 61.9282C77.3864 61.9282 77.3647 61.9499 77.3647 61.9932C77.0608 62.2533 76.7135 62.5352 76.3227 62.8386C75.932 63.1421 75.6064 63.3806 75.3459 63.554C75.0854 63.7708 74.9551 63.9225 74.9551 64.0092C74.9551 64.0526 74.9551 64.0743 74.9551 64.0743L74.5644 63.8792L74.6295 63.8141C74.369 63.9008 74.2171 64.0309 74.1737 64.2043H74.369C74.2388 64.3778 73.9783 64.5078 73.5876 64.5945C73.5007 64.5078 73.4139 64.5078 73.3271 64.5945C73.3271 64.5078 73.4356 64.3561 73.6527 64.1393C73.6961 64.1393 73.6527 64.1393 73.5224 64.1393C73.6093 64.0959 73.7829 63.9225 74.0434 63.619C74.2605 63.3589 74.3907 63.2505 74.4342 63.2939C74.521 63.1638 74.6295 63.0121 74.7598 62.8386C74.89 62.7086 74.9769 62.6002 75.0203 62.5135C75.1071 62.4268 75.1505 62.3834 75.1505 62.3834L75.2808 62.1883C75.4544 61.9715 75.6064 61.8415 75.7366 61.7981C75.6932 61.7547 75.6715 61.7331 75.6715 61.7331C75.6281 61.7764 75.6064 61.7981 75.6064 61.7981L75.6715 61.7331C75.7149 61.6897 76.3662 60.8226 77.6252 59.1317C77.712 59.0884 77.8206 58.98 77.9508 58.8066C78.0377 58.6332 78.1462 58.4814 78.2764 58.3513C78.3633 58.2646 78.4284 58.2213 78.4718 58.2213C78.6021 58.1779 78.6889 58.0912 78.7323 57.9611C78.7323 57.8744 78.754 57.8094 78.7974 57.766C78.8409 57.5926 78.9277 57.4842 79.0579 57.4409C79.1448 57.3975 79.2099 57.3542 79.2533 57.3108C79.427 56.8773 79.7743 56.4871 80.2953 56.1402C80.5124 55.75 80.8814 55.2948 81.4024 54.7745C81.88 54.2542 82.1404 53.9508 82.1839 53.864C82.2273 53.8207 82.2707 53.8207 82.3141 53.864C82.3141 53.9074 82.3141 53.9291 82.3141 53.9291C82.3575 54.0591 82.3792 54.0808 82.3792 53.9941V53.6039C82.5963 53.2571 82.9436 52.8452 83.4212 52.3683C83.8554 51.9347 84.0942 51.6963 84.1376 51.6529C84.2678 51.6529 84.3981 51.5012 84.5283 51.1977C84.6151 50.9375 84.7237 50.7858 84.8539 50.7424C84.9842 50.6557 85.1144 50.5257 85.2447 50.3522C85.3315 50.1788 85.4183 50.0488 85.5052 49.962C85.592 49.9187 85.6788 49.897 85.7657 49.897C85.8959 49.5935 86.0913 49.3334 86.3518 49.1166C86.482 49.16 86.5688 49.1383 86.6123 49.0516C86.5688 48.9215 86.634 48.7698 86.8076 48.5963C86.9379 48.4663 87.1115 48.3145 87.3286 48.1411C87.5457 47.9677 87.6977 47.8159 87.7845 47.6859C88.1752 47.4257 88.4357 47.1656 88.566 46.9055C88.6962 46.602 88.7831 46.2335 88.8265 45.7999C88.8265 45.3664 88.8699 45.0412 88.9567 44.8244C88.9567 44.6943 89.087 43.9573 89.3475 42.6133C89.3909 42.4399 89.5428 41.8979 89.8033 40.9874C89.8467 40.8574 89.8902 40.7273 89.9336 40.5972C89.9336 40.5539 89.9336 40.5322 89.9336 40.5322C89.977 40.4889 90.0204 40.4021 90.0638 40.2721C90.0638 40.0987 90.0855 39.9469 90.1289 39.8168C90.1289 39.6868 90.1507 39.6434 90.1941 39.6868C90.3243 39.6868 90.346 39.6217 90.2592 39.4917C90.2158 39.4483 90.1941 39.405 90.1941 39.3616C90.1507 39.3183 90.1507 39.2749 90.1941 39.2315C90.498 38.6679 90.5848 38.2777 90.4546 38.0609C90.8453 36.8036 91.2577 35.2862 91.6919 33.5086C92.2563 31.2108 93.168 28.0458 94.4271 24.0137C94.5139 23.797 94.5356 23.6452 94.4922 23.5585C94.6659 23.3851 94.7744 23.125 94.8178 22.7781C94.9047 22.3879 95.0132 22.1278 95.1434 21.9977C95.1869 21.304 95.3171 20.5887 95.5342 19.8516C95.7947 19.0712 96.0986 18.2475 96.4459 17.3803C96.8367 16.4699 97.0972 15.7762 97.2274 15.2993C97.4879 15.2559 97.6181 15.1692 97.6181 15.0391L97.4879 14.9741L97.4228 15.0391C97.3794 14.9958 97.3794 14.9308 97.4228 14.844C97.4662 14.714 97.5313 14.6273 97.6181 14.5839C97.705 14.4972 97.7484 14.4755 97.7484 14.5189C97.7484 14.3021 97.8135 14.0853 97.9438 13.8685C98.074 13.6518 98.2043 13.5 98.3345 13.4133C98.5082 13.2832 98.6384 13.1965 98.7253 13.1532C98.6818 13.0231 98.7252 12.8714 98.8555 12.6979C99.0292 12.5245 99.116 12.4378 99.116 12.4378C99.2028 12.3945 99.2245 12.3077 99.1811 12.1777H99.2462C99.2462 12.221 99.2679 12.2427 99.3114 12.2427C99.485 12.2427 99.5936 12.1777 99.637 12.0476L99.5718 11.9175C99.6153 11.8742 99.6804 11.8742 99.7672 11.9175C99.8975 11.9609 99.9626 11.9175 99.9626 11.7875C99.8323 11.7441 99.3765 11.8308 98.595 12.0476C97.2491 12.4378 96.5762 12.5245 96.5762 12.3077C96.4025 12.5245 96.2288 12.6763 96.0552 12.763C95.9249 12.8063 95.7513 12.8497 95.5342 12.893C95.3605 12.9364 95.1869 12.9798 95.0132 13.0231C94.1015 13.4567 93.2115 13.6734 92.3431 13.6734C92.2129 13.6734 92.0609 13.8252 91.8873 14.1287C91.7136 14.4322 91.5834 14.5839 91.4965 14.5839C91.1926 14.714 90.8019 14.9958 90.3243 15.4293C89.8467 15.8195 89.456 16.0146 89.1521 16.0146C88.9784 16.058 88.8265 15.9063 88.6962 15.5594C88.5226 15.2126 88.414 15.0175 88.3706 14.9741C88.4574 15.4944 88.3706 15.6895 88.1101 15.5594C88.0233 15.5161 87.893 15.386 87.7194 15.1692C87.6325 15.1259 87.5674 15.0825 87.524 15.0391C86.7859 14.8224 86.2432 14.6923 85.8959 14.6489C85.4617 14.172 85.223 13.9336 85.1795 13.9336C85.1795 13.9336 85.1361 13.8902 85.0493 13.8035C84.919 13.6734 84.8105 13.5217 84.7237 13.3483C84.6368 13.1749 84.5717 13.0448 84.5283 12.9581C84.4849 12.6546 84.55 12.4161 84.7237 12.2427C84.8539 12.0259 84.9191 11.8742 84.9191 11.7875C84.8756 11.5273 85.0059 11.1805 85.3098 10.7469C85.6137 10.3134 85.7657 10.0099 85.7657 9.83648C85.8525 9.74977 85.961 9.66305 86.0913 9.57634C86.2215 9.44627 86.3084 9.38124 86.3518 9.38124C86.3518 9.38124 86.4169 9.40292 86.5471 9.44627C86.7642 9.14279 87.0464 8.90433 87.3937 8.73091C87.7411 8.51413 87.9364 8.38406 87.9799 8.34071L88.3055 8.01554V8.14561C88.566 8.01554 88.7396 7.92883 88.8265 7.88548C88.9567 7.6687 89.2172 7.51695 89.6079 7.43024C89.6948 7.43024 89.7382 7.45192 89.7382 7.49527C89.7816 7.53863 89.8467 7.53863 89.9336 7.49527C90.0204 7.45192 90.0855 7.45192 90.1289 7.49527C90.1289 7.40856 90.1507 7.36521 90.1941 7.36521C90.2375 7.36521 90.2809 7.38689 90.3243 7.43024C90.3243 7.30018 90.3677 7.2785 90.4546 7.36521C90.5414 7.40856 90.5848 7.43024 90.5848 7.43024C90.6716 7.38689 90.8019 7.36521 90.9755 7.36521C91.2794 7.32185 91.4531 7.21346 91.4965 7.04004C91.5399 7.0834 91.5617 7.0834 91.5617 7.04004C91.6051 6.82326 91.6485 6.71488 91.6919 6.71488C91.7353 7.06172 91.8656 7.19179 92.0826 7.10507C92.1695 7.06172 92.1912 6.93165 92.1478 6.71488C92.2346 6.71488 92.3214 6.75823 92.4083 6.84494C92.5385 6.93165 92.6036 6.97501 92.6036 6.97501C92.9944 6.8883 93.168 6.82326 93.1246 6.77991C93.0378 6.6932 93.0378 6.58481 93.1246 6.45474C93.2549 6.32467 93.3634 6.28132 93.4502 6.32468C93.6239 6.19461 93.9278 6.17293 94.362 6.25964C94.4488 6.21629 94.5573 6.15125 94.6876 6.06454C94.8178 5.97783 94.9047 5.93447 94.9481 5.93447C94.9915 5.93447 95.1 5.93447 95.2737 5.93447C95.3171 5.93447 95.4039 5.89112 95.5342 5.80441C95.7079 5.7177 95.8381 5.65266 95.9249 5.60931C96.0118 5.56595 96.1203 5.58763 96.2505 5.67434C96.3808 5.7177 96.511 5.65267 96.6413 5.47924C96.7715 5.30582 96.8801 5.30582 96.9669 5.47924C98.3128 4.95898 99.2896 4.67716 99.8975 4.63381L99.7672 4.69884C99.8541 4.65549 99.9626 4.56878 100.093 4.43871C100.093 4.43871 100.136 4.43871 100.223 4.43871C100.484 4.43871 100.657 4.52542 100.744 4.69884C100.787 4.61213 100.853 4.56878 100.939 4.56878C101.07 4.52542 101.178 4.50374 101.265 4.50374C101.395 4.50374 101.504 4.50374 101.591 4.50374C101.721 4.50374 101.808 4.48206 101.851 4.43871C101.938 4.39535 101.96 4.33032 101.916 4.24361C101.96 4.02683 102.09 3.94012 102.307 3.98348C102.394 3.98348 102.459 3.9618 102.502 3.91844C102.502 4.04851 102.611 4.09186 102.828 4.04851C103.045 3.9618 103.175 3.91844 103.219 3.91844C103.566 4.00515 104.109 4.00515 104.847 3.91844C105.585 3.83173 106.062 3.78838 106.28 3.78838C106.497 3.70167 106.54 3.61495 106.41 3.52824C106.323 3.44153 106.432 3.31147 106.735 3.13804C106.909 3.05133 107.061 3.07301 107.191 3.20308C107.322 3.28979 107.408 3.33314 107.452 3.33314C107.539 3.15972 107.712 3.11637 107.973 3.20308C108.277 3.24643 108.472 3.24643 108.559 3.20308C108.819 3.11637 109.123 3.11637 109.471 3.20308C109.861 3.28979 110.122 3.20308 110.252 2.94294C110.426 2.94294 110.773 2.9863 111.294 3.07301C111.858 3.15972 112.293 3.1814 112.597 3.13804C112.814 3.22475 113.031 3.33314 113.248 3.46321C113.465 3.59328 113.639 3.67999 113.769 3.72334C113.942 3.7667 114.116 3.78838 114.29 3.78838C114.333 3.83173 114.398 3.85341 114.485 3.85341C114.529 3.89676 114.55 3.91844 114.55 3.91844C117.025 4.39535 118.696 4.87226 119.565 5.34917C119.565 5.34917 119.608 5.37085 119.695 5.41421C119.825 5.45756 119.89 5.50092 119.89 5.54428C120.194 5.67434 120.411 5.82609 120.542 5.99951C120.628 6.08622 120.802 6.23796 121.063 6.45474C121.323 6.62816 121.475 6.77991 121.518 6.90997C121.605 6.56313 121.888 6.82326 122.365 7.69037C122.409 7.77709 122.474 7.90715 122.56 8.08057L123.016 8.73091C123.06 8.77427 123.103 8.86098 123.147 8.99104C123.233 9.07775 123.277 9.12111 123.277 9.12111C123.364 9.29453 123.364 9.51131 123.277 9.77144C123.233 10.0316 123.212 10.1833 123.212 10.2267ZM85.8308 10.2917C85.8742 10.2917 85.8959 10.2917 85.8959 10.2917H85.8308ZM73.8481 64.0092V64.0743L73.9132 63.9442L73.8481 64.0092ZM75.3459 63.0988C75.3893 63.0554 75.411 63.0337 75.411 63.0337L75.3459 63.0988ZM74.4993 63.2939C74.2822 63.2505 74.152 63.3372 74.1085 63.554V63.619C74.369 63.4456 74.4993 63.3372 74.4993 63.2939ZM74.1085 64.0743C74.3256 63.7708 74.4559 63.6407 74.4993 63.6841C74.673 63.4673 74.7381 63.3589 74.6946 63.3589C74.6946 63.3156 74.6946 63.2939 74.6946 63.2939C74.1302 63.8141 73.9349 64.0743 74.1085 64.0743ZM74.6295 63.6841C74.6295 63.7274 74.6295 63.7491 74.6295 63.7491V63.6841ZM75.5413 63.2939C75.6281 63.2939 75.6715 63.2722 75.6715 63.2288C75.6715 63.2288 75.6715 63.2072 75.6715 63.1638C75.5847 63.1638 75.5413 63.1638 75.5413 63.1638L75.6064 63.0988C75.5196 63.0988 75.3025 63.1855 74.9551 63.3589C74.8683 63.4456 74.8466 63.5107 74.89 63.554C75.3242 63.2939 75.5413 63.2072 75.5413 63.2939ZM76.0622 61.7331L75.9971 61.7981L75.932 61.8631C76.0188 61.8631 76.0622 61.8198 76.0622 61.7331ZM75.932 62.3184L75.8669 62.3834V62.4484C75.9103 62.4484 75.932 62.4051 75.932 62.3184ZM75.8018 63.0988L76.0622 62.8386C75.9754 62.8386 75.9103 62.8603 75.8669 62.9037C75.8235 62.9904 75.8018 63.0554 75.8018 63.0988ZM76.1925 61.9282C76.1057 62.0582 76.0622 62.1666 76.0622 62.2533C76.1925 62.1233 76.2359 62.0149 76.1925 61.9282ZM76.3227 61.8631C76.2793 61.8631 76.2576 61.8848 76.2576 61.9282L76.3227 61.8631ZM76.3879 62.5785C76.3879 62.5785 76.4096 62.5568 76.453 62.5135H76.3879V62.5785ZM76.9089 60.1723C76.9523 60.1289 76.974 60.1072 76.974 60.1072L76.9089 60.1723ZM78.2113 59.5219L78.3416 59.4569V59.3268C78.2547 59.3268 78.2113 59.3919 78.2113 59.5219ZM88.9567 46.3852V46.5153C88.9133 46.4286 88.9133 46.3635 88.9567 46.3202V46.3852ZM88.9567 45.7999C88.9133 45.8866 88.9133 45.93 88.9567 45.93C89.0001 45.93 89.0435 45.9083 89.087 45.8649C89.087 45.8216 89.0652 45.7999 89.0218 45.7999C88.9784 45.7999 88.9567 45.7999 88.9567 45.7999ZM89.087 44.6293V44.6943C89.1304 44.6943 89.1304 44.6727 89.087 44.6293ZM102.242 4.17857L102.372 4.24361L102.437 4.11354L102.307 4.17857C102.307 4.17857 102.285 4.17857 102.242 4.17857ZM97.3577 15.9496C97.3577 15.9496 97.3359 15.9279 97.2925 15.8846L97.3577 15.9496ZM98.3345 43.1986V43.2636C98.3345 43.2636 98.3345 43.2419 98.3345 43.1986ZM100.939 34.6142C100.939 34.6575 100.961 34.6575 101.005 34.6142H100.939ZM103.675 34.289C103.675 34.3324 103.675 34.354 103.675 34.354V34.289ZM115.722 15.2342C115.896 14.9741 116.005 14.5189 116.048 13.8685C116.135 13.1749 116.287 12.8063 116.504 12.763C116.504 12.7196 116.439 12.4812 116.309 12.0476C116.178 11.5707 116.178 11.3106 116.309 11.2672C116.178 11.2239 116.135 11.0938 116.178 10.877C116.222 10.6602 116.222 10.5302 116.178 10.4868C116.092 10.4435 116.026 10.3784 115.983 10.2917C115.94 10.1616 115.918 10.0533 115.918 9.96654C115.918 9.87983 115.896 9.79312 115.853 9.70641C115.722 9.66305 115.636 9.53298 115.592 9.31621C115.592 9.05607 115.549 8.90433 115.462 8.86097C113.812 8.68755 112.618 8.70923 111.88 8.92601L111.815 8.86097L111.75 8.79594C111.75 9.09943 111.489 9.14279 110.968 8.92601C110.882 8.79594 110.817 8.70923 110.773 8.66587C110.643 8.66587 110.491 8.68755 110.317 8.73091C110.144 8.77427 109.992 8.79594 109.861 8.79594C109.731 8.79594 109.601 8.79594 109.471 8.79594C109.34 8.79594 109.232 8.79594 109.145 8.79594C108.971 8.88265 108.819 8.86098 108.689 8.73091C108.646 8.68755 108.581 8.77426 108.494 8.99104C108.407 9.16446 108.298 9.2295 108.168 9.18614H108.103C107.539 9.31621 106.953 9.46795 106.345 9.64138C105.737 9.77144 104.977 9.96654 104.065 10.2267C103.154 10.4868 102.437 10.7469 101.916 11.0071C101.439 11.2239 101.265 11.3973 101.395 11.5273C101.439 11.5273 101.482 11.5057 101.526 11.4623C101.612 11.419 101.678 11.3756 101.721 11.3322C101.808 11.2889 101.895 11.2672 101.981 11.2672C102.068 11.2239 102.155 11.2455 102.242 11.3322C102.372 11.1155 102.502 11.0938 102.633 11.2672C102.633 11.2239 102.611 11.1805 102.568 11.1371C102.698 11.1371 102.828 11.1371 102.958 11.1371C103.132 11.1371 103.262 11.1588 103.349 11.2022C103.436 11.2022 103.501 11.2022 103.544 11.2022C103.631 11.3322 103.696 11.3539 103.74 11.2672C103.87 11.3539 104 11.4406 104.13 11.5273C104.261 11.6141 104.369 11.7008 104.456 11.7875C104.586 11.8742 104.695 11.9609 104.782 12.0476C104.912 12.091 105.021 12.156 105.107 12.2427C105.107 12.2861 105.021 12.3077 104.847 12.3077C104.76 12.2644 104.76 12.2861 104.847 12.3728C104.847 12.4161 104.89 12.4812 104.977 12.5679C105.455 13.0881 105.628 14.042 105.498 15.4293C105.411 16.8167 105.129 17.8573 104.651 18.5509C104.695 18.8111 104.695 19.0712 104.651 19.3313C104.608 19.5481 104.543 19.7432 104.456 19.9166C104.413 20.0467 104.326 20.2635 104.196 20.567C104.109 20.8705 104.022 21.1306 103.935 21.3474C103.761 21.6942 103.61 22.0627 103.479 22.4529C103.349 22.7998 103.219 23.125 103.089 23.4284C102.958 23.7319 102.806 24.0354 102.633 24.3389C102.502 24.7291 102.242 25.2927 101.851 26.0298C101.504 26.7235 101.308 27.1137 101.265 27.2004C101.222 27.2871 101.026 27.764 100.679 28.6311C100.636 28.8045 100.527 28.9996 100.353 29.2164C100.18 29.3898 100.028 29.5632 99.8975 29.7367C99.8106 29.9101 99.7672 30.0618 99.7672 30.1919C99.5936 30.8856 99.2245 31.7527 98.6601 32.7932C98.0957 33.7904 97.7484 34.4624 97.6181 34.8093C97.5747 34.896 97.5313 35.0044 97.4879 35.1344V35.1995C97.2274 35.5897 96.9886 36.1099 96.7715 36.7603C96.7281 36.847 96.663 36.912 96.5762 36.9554H96.511C96.511 37.0421 96.511 37.1288 96.511 37.2155C96.4676 37.4323 96.3808 37.519 96.2505 37.4756C96.2071 37.519 96.1854 37.5624 96.1854 37.6057C96.0986 37.6491 95.9901 37.8008 95.8598 38.0609C95.773 38.3211 95.7296 38.4511 95.7296 38.4511C95.6861 38.4511 95.6427 38.4728 95.5993 38.5162C95.7296 38.6896 95.7079 38.8413 95.5342 38.9714C95.4039 39.1015 95.3388 39.2532 95.3388 39.4266C95.3822 39.5567 95.3822 39.6651 95.3388 39.7518C95.2954 39.7952 95.252 39.8385 95.2086 39.8819C95.1217 40.0119 95.1 40.077 95.1434 40.077L95.4691 39.8168C95.6861 39.5567 96.0552 39.2099 96.5762 38.7763C97.0972 38.3428 97.4228 38.0393 97.553 37.8658C97.6398 37.6924 97.7918 37.5407 98.0089 37.4106C98.2694 37.2372 98.443 37.0421 98.5299 36.8253C98.5733 36.7386 98.6384 36.7169 98.7253 36.7603C98.8989 36.5001 99.2679 36.1099 99.8323 35.5897C100.397 35.0261 100.766 34.6359 100.939 34.4191L101.2 34.224C101.243 34.1373 101.33 34.0939 101.46 34.0939C101.634 34.0506 101.699 33.9638 101.656 33.8338C101.699 33.8338 101.721 33.8121 101.721 33.7687C101.764 33.7254 101.808 33.682 101.851 33.6387C101.895 33.5086 101.938 33.4219 101.981 33.3785C102.025 33.3352 102.09 33.3569 102.177 33.4436C102.22 33.3135 102.285 33.2051 102.372 33.1184C102.459 32.9883 102.546 32.88 102.633 32.7932C102.719 32.7065 102.806 32.6415 102.893 32.5981C102.98 32.5114 103.067 32.4681 103.154 32.4681C103.24 32.4681 103.306 32.4897 103.349 32.5331C103.479 32.1429 103.935 31.5576 104.717 30.7772C105.542 29.9535 106.062 29.4115 106.28 29.1514C107.018 28.371 107.56 27.7857 107.908 27.3955C108.168 27.2221 108.537 26.9186 109.015 26.485C109.536 26.0515 109.883 25.7913 110.057 25.7046C110.1 25.3144 110.426 24.7508 111.034 24.0137C112.336 22.4096 113.378 20.8054 114.16 19.2013C114.333 18.8544 114.615 18.2258 115.006 17.3153C115.05 17.272 115.05 17.2286 115.006 17.1852C115.18 16.9251 115.31 16.6216 115.397 16.2748C115.614 15.9713 115.722 15.6244 115.722 15.2342ZM102.763 11.9826V11.9175C102.763 11.6141 102.785 11.484 102.828 11.5273C102.741 11.3973 102.698 11.3973 102.698 11.5273C102.698 11.5707 102.698 11.6357 102.698 11.7224C102.741 11.8092 102.763 11.8959 102.763 11.9826ZM104.521 11.9175C104.478 11.8742 104.456 11.8742 104.456 11.9175H104.521ZM119.825 5.60931C119.869 5.65266 119.89 5.67434 119.89 5.67434C119.89 5.63099 119.869 5.58763 119.825 5.54428C119.782 5.50092 119.782 5.5226 119.825 5.60931Z" class="secondary-color"/>
<path d="M129.724 26.2247C129.767 26.268 129.789 26.3331 129.789 26.4198C129.789 26.5065 129.789 26.5715 129.789 26.6149C129.833 26.875 129.724 26.9617 129.464 26.875C129.377 26.8317 129.312 26.8317 129.268 26.875C129.659 26.9617 129.811 27.6337 129.724 28.8911C129.637 30.1484 129.616 30.7987 129.659 30.8421C129.659 31.1022 129.572 31.4057 129.398 31.7525C129.268 32.056 129.116 32.3812 128.943 32.728C128.812 33.0315 128.747 33.3133 128.747 33.5735C128.443 33.9637 128.335 34.2455 128.422 34.4189C128.161 35.0259 127.814 35.9147 127.38 37.0853C126.945 38.2559 126.707 38.8845 126.663 38.9712C126.446 39.3181 126.381 39.5999 126.468 39.8167C126.424 39.9901 126.338 40.2285 126.207 40.532C126.121 40.8355 126.055 41.0523 126.012 41.1824C126.055 41.2257 126.055 41.2474 126.012 41.2474C125.969 41.3341 125.947 41.4208 125.947 41.5075C125.947 41.5075 125.947 41.5292 125.947 41.5726C125.86 41.7026 125.773 41.8977 125.686 42.1579C125.6 42.418 125.556 42.5697 125.556 42.6131C125.426 42.9599 125.296 43.3718 125.165 43.8487C125.035 44.1522 124.883 44.5641 124.71 45.0844C124.579 45.6046 124.492 45.9298 124.449 46.0599C124.449 46.1466 124.406 46.2766 124.319 46.4501C124.232 46.5801 124.189 46.6668 124.189 46.7102C123.494 48.7913 122.712 50.894 121.844 53.0184C121.801 53.1485 121.714 53.3869 121.584 53.7338L121.258 54.3841C121.171 54.3408 121.128 54.4058 121.128 54.5792C121.084 54.8827 121.019 55.0345 120.932 55.0345C120.846 55.2079 120.715 55.5114 120.542 55.9449C120.411 56.3351 120.325 56.5736 120.281 56.6603C119.804 57.5274 119.521 58.1777 119.435 58.6113C119.348 58.7847 119.239 59.0015 119.109 59.2616C119.022 59.4784 118.914 59.6735 118.783 59.8469C118.696 60.0203 118.61 60.1504 118.523 60.2371C118.566 60.4105 118.501 60.5189 118.327 60.5623C118.241 60.6056 118.175 60.6056 118.132 60.5623C118.175 60.7357 118.154 60.8658 118.067 60.9525C118.067 60.649 117.937 60.4973 117.676 60.4973C117.633 60.5406 117.568 60.649 117.481 60.8224C117.437 60.9958 117.394 61.1042 117.351 61.1476C117.133 61.5378 117.068 61.6028 117.155 61.3427L117.416 60.4973C117.329 60.5406 117.242 60.7357 117.155 61.0826C117.025 61.4294 117.003 61.6679 117.09 61.7979C116.786 62.8818 116.634 63.5321 116.634 63.7489C116.764 63.5755 116.938 63.2287 117.155 62.7084C117.329 62.1881 117.459 61.863 117.546 61.7329C117.806 61.5161 117.915 61.5161 117.872 61.7329C117.872 62.1231 117.763 62.4049 117.546 62.5783C117.329 63.0986 117.155 63.3804 117.025 63.4238C116.938 63.7272 116.851 64.0958 116.764 64.5293C116.721 64.616 116.656 64.7461 116.569 64.9195L116.504 65.1146C116.417 65.2447 116.33 65.4398 116.243 65.6999C116.157 65.9167 116.092 66.0684 116.048 66.1552C115.918 66.2852 115.831 66.3936 115.788 66.4803C115.744 66.5237 115.722 66.567 115.722 66.6104C115.722 66.6104 115.722 66.6321 115.722 66.6754C115.679 66.6754 115.636 66.7188 115.592 66.8055C115.505 66.9356 115.527 67.0006 115.657 67.0006C115.657 67.2174 115.614 67.3691 115.527 67.4558C115.44 67.5859 115.375 67.716 115.332 67.846C115.288 67.8894 115.245 67.9111 115.201 67.9111C115.158 67.9111 115.136 67.9111 115.136 67.9111C115.093 68.0411 115.006 68.0628 114.876 67.9761C114.832 67.9761 114.767 67.9544 114.681 67.9111C114.55 67.8243 114.463 67.781 114.42 67.781C114.377 67.781 114.333 67.8243 114.29 67.9111H113.834L113.899 67.846C113.942 67.6726 113.942 67.5209 113.899 67.3908C113.595 68.388 113.552 68.0194 113.769 66.2852C114.203 62.7734 114.463 60.9525 114.55 60.8224C114.594 60.6924 114.615 60.5406 114.615 60.3672C114.615 60.3238 114.615 60.3022 114.615 60.3022C114.659 60.2154 114.681 60.1071 114.681 59.977C114.681 59.8903 114.681 59.8252 114.681 59.7819C114.724 59.305 114.789 58.9148 114.876 58.6113C114.919 58.4379 115.223 56.1183 115.788 51.6527C115.788 51.6094 115.809 51.5227 115.853 51.3926C115.896 51.2192 115.94 51.0891 115.983 51.0024C115.983 50.9157 116.005 50.8506 116.048 50.8073C116.135 50.3304 116.265 49.2898 116.439 47.6857C116.613 46.0815 116.873 44.9543 117.22 44.304C117.177 43.1334 117.524 41.1173 118.262 38.2559C118.219 38.0824 118.219 37.9524 118.262 37.8657C118.306 37.7356 118.371 37.6272 118.458 37.5405C118.545 37.4538 118.588 37.3671 118.588 37.2804C118.588 37.1069 118.675 36.9118 118.848 36.6951L118.783 36.565C118.74 36.3482 118.762 36.0881 118.848 35.7846C118.979 35.4811 119.109 35.3294 119.239 35.3294C119.239 35.1559 119.217 35.0042 119.174 34.8741C119.174 34.8308 119.217 34.7441 119.304 34.614C119.304 34.5706 119.326 34.549 119.369 34.549L119.435 34.8091C119.565 34.4622 119.63 34.2888 119.63 34.2888C119.76 34.072 119.869 33.7469 119.956 33.3133C120.086 32.8798 120.194 32.598 120.281 32.4679C120.281 32.4245 120.303 32.3812 120.346 32.3378C120.39 31.2106 120.65 30.3651 121.128 29.8015C121.041 29.5847 120.997 29.4547 120.997 29.4113C120.997 29.3246 121.019 29.2379 121.063 29.1512C121.149 29.0211 121.193 28.9127 121.193 28.826C121.323 28.6092 121.518 28.2407 121.779 27.7205C122.039 27.2002 122.235 26.81 122.365 26.5499C122.626 25.9862 122.864 25.5527 123.081 25.2492C123.342 24.9023 123.646 24.6639 123.993 24.5338C124.384 24.3604 124.818 24.317 125.296 24.4038C125.339 24.4471 125.361 24.5338 125.361 24.6639C125.361 24.7506 125.361 24.8156 125.361 24.859C125.404 24.9023 125.448 24.924 125.491 24.924C125.491 24.794 125.578 24.7072 125.752 24.6639C125.795 24.6639 125.817 24.6639 125.817 24.6639C125.817 24.4905 125.925 24.4254 126.142 24.4688C127.401 24.4254 128.313 24.5555 128.877 24.859C128.877 24.859 128.877 24.8807 128.877 24.924C129.138 24.794 129.333 24.924 129.464 25.3142C129.507 25.4876 129.464 25.5744 129.333 25.5744C129.464 25.6611 129.55 25.7911 129.594 25.9646C129.637 26.138 129.681 26.2247 129.724 26.2247ZM114.55 62.9685C114.594 62.9685 114.594 62.9468 114.55 62.9035V62.9685ZM114.811 67.716C114.767 67.7593 114.767 67.781 114.811 67.781V67.716ZM114.55 65.9601C114.55 66.3069 114.594 66.2419 114.681 65.765C114.724 65.6782 114.767 65.5699 114.811 65.4398V65.2447C114.811 65.158 114.789 65.1146 114.746 65.1146C114.702 65.158 114.702 65.0713 114.746 64.8545C114.746 64.7678 114.746 64.7244 114.746 64.7244C114.702 64.8111 114.681 64.9412 114.681 65.1146C114.637 65.288 114.615 65.4615 114.615 65.6349C114.572 65.8083 114.55 65.9167 114.55 65.9601ZM116.243 60.1071L116.374 60.042L116.309 59.912C116.309 59.9987 116.309 60.042 116.309 60.042C116.265 60.0854 116.243 60.1071 116.243 60.1071ZM117.22 43.8487C117.264 43.8487 117.264 43.827 117.22 43.7837V43.8487ZM116.764 47.2955C116.764 47.5123 116.808 47.6423 116.895 47.6857L116.764 47.2955ZM116.83 46.7752C116.873 46.992 116.982 46.9053 117.155 46.5151L117.285 46.255C117.372 46.255 117.372 46.1466 117.285 45.9298C117.285 45.8864 117.264 45.8431 117.22 45.7997C117.22 45.7564 117.22 45.7347 117.22 45.7347C117.177 45.6913 117.134 45.6697 117.09 45.6697C117.09 45.7997 117.09 45.9515 117.09 46.1249C117.047 46.255 117.025 46.3633 117.025 46.4501C117.025 46.4934 117.003 46.5368 116.96 46.5801C116.873 46.6235 116.83 46.6885 116.83 46.7752ZM117.351 45.7997C117.394 45.6697 117.394 45.5179 117.351 45.3445C117.307 45.1711 117.329 45.0844 117.416 45.0844C117.459 44.9976 117.459 44.9543 117.416 44.9543C117.372 44.8676 117.307 44.8893 117.22 45.0193C117.22 45.0627 117.22 45.106 117.22 45.1494V45.4746C117.264 45.5179 117.307 45.6263 117.351 45.7997ZM117.676 43.9138C117.676 43.8704 117.698 43.7837 117.741 43.6536V43.5886C117.698 43.5886 117.676 43.697 117.676 43.9138ZM125.426 25.0541V25.1191H125.491L125.426 25.0541ZM127.38 24.4688C127.336 24.4688 127.314 24.4905 127.314 24.5338L127.38 24.4688ZM127.314 24.5989C127.314 24.5989 127.336 24.6205 127.38 24.6639C127.423 24.7506 127.445 24.7506 127.445 24.6639C127.445 24.5772 127.401 24.5555 127.314 24.5989ZM129.333 26.6799C129.42 26.7233 129.442 26.7016 129.398 26.6149C129.398 26.5715 129.398 26.5499 129.398 26.5499C129.355 26.3331 129.333 26.3114 129.333 26.4848C129.29 26.6149 129.29 26.6799 129.333 26.6799Z" class="secondary-color"/>
<path d="M159.681 23.1034C159.985 23.9272 160.072 24.9243 159.941 26.0949C159.985 28.2194 159.876 29.6718 159.616 30.4522C159.703 30.5822 159.659 30.9941 159.486 31.6878C159.355 32.3381 159.312 32.7283 159.355 32.8584C159.225 33.1619 159.117 33.5521 159.03 34.029C158.943 34.5059 158.856 34.9395 158.769 35.3297C158.682 35.7199 158.574 36.045 158.444 36.3052C158.226 36.9555 157.879 37.996 157.402 39.4268C156.924 40.8575 156.555 41.9414 156.294 42.6784C155.947 43.3288 155.535 44.1525 155.057 45.1497C154.623 46.1469 154.211 46.9923 153.82 47.686C153.472 48.3363 153.038 48.965 152.517 49.572C152.517 50.2223 152.43 50.5908 152.257 50.6775C151.692 51.7614 151.106 52.6502 150.498 53.3439C150.498 53.3439 150.477 53.3439 150.433 53.3439C150.433 53.604 150.368 53.8642 150.238 54.1243C150.151 54.3411 149.977 54.6012 149.717 54.9047C149.456 55.2082 149.326 55.3599 149.326 55.3599C148.675 56.5739 147.828 57.6795 146.786 58.6766C146.048 59.8906 144.92 61.0395 143.4 62.1234C141.924 63.2073 140.535 63.7276 139.232 63.6842C139.232 63.6408 139.276 63.6192 139.362 63.6192C139.319 63.5758 139.297 63.5325 139.297 63.4891C139.21 63.5758 138.885 63.5325 138.32 63.359C137.756 63.1856 137.365 63.1206 137.148 63.1639C136.54 63.294 135.563 63.3374 134.218 63.294C132.915 63.2506 132.177 62.9688 132.003 62.4486C131.656 62.3619 131.461 62.2101 131.417 61.9933C131.374 61.7766 131.287 61.6248 131.157 61.5381C130.853 61.4947 130.636 61.408 130.506 61.278C130.419 61.1479 130.375 60.9528 130.375 60.6927C130.375 60.4325 130.354 60.2374 130.31 60.1074C129.919 60.0207 129.724 59.7822 129.724 59.392C129.681 58.9584 129.594 58.72 129.464 58.6766C129.42 58.5466 129.377 58.3515 129.333 58.0913C129.246 57.8312 129.203 57.6361 129.203 57.506C129.16 57.2459 129.116 56.769 129.073 56.0753C129.029 55.3383 129.008 54.7963 129.008 54.4495C128.964 54.1026 128.943 53.6907 128.943 53.2138C128.986 53.2138 129.029 53.2138 129.073 53.2138C128.812 50.5258 129.312 47.4042 130.571 43.849C131.265 41.6813 131.634 40.4023 131.678 40.0121C131.721 39.9687 131.743 39.9687 131.743 40.0121C131.83 39.8386 131.96 39.5568 132.134 39.1666C132.307 38.7331 132.438 38.4296 132.524 38.2562C132.655 38.0394 132.763 38.0177 132.85 38.1911C132.893 38.1478 132.893 37.996 132.85 37.7359V37.6058C132.937 37.866 133.002 37.931 133.045 37.8009C133.089 37.6709 133.089 37.5842 133.045 37.5408C133.002 37.4107 133.002 37.3457 133.045 37.3457L133.176 37.4107C133.262 37.194 133.306 36.9338 133.306 36.6303C133.349 36.3268 133.414 36.0884 133.501 35.915C133.588 35.6982 133.762 35.5898 134.022 35.5898C133.935 35.2863 133.914 35.0695 133.957 34.9395C134.001 34.8094 134.109 34.636 134.283 34.4192C134.456 34.2024 134.565 34.0507 134.608 33.964C134.652 33.7038 134.76 33.422 134.934 33.1185C135.151 32.815 135.281 32.6633 135.325 32.6633C135.368 32.5766 135.39 32.5116 135.39 32.4682C135.607 32.2948 135.715 32.078 135.715 31.8179C135.846 31.8179 135.911 31.7745 135.911 31.6878C135.911 31.6444 135.911 31.6011 135.911 31.5577C136.128 31.6011 136.258 31.5361 136.302 31.3626C136.215 31.2759 136.128 31.2326 136.041 31.2326C135.998 31.1892 136.041 31.1242 136.171 31.0375C136.345 30.9074 136.497 30.799 136.627 30.7123C136.801 30.6256 136.866 30.5606 136.823 30.5172C136.562 30.6473 136.432 30.6906 136.432 30.6473C136.432 30.5172 136.562 30.3655 136.823 30.192C136.953 29.8018 137.061 29.6067 137.148 29.6067C137.278 29.6067 137.387 29.6718 137.474 29.8018C137.43 29.6284 137.409 29.52 137.409 29.4767C137.452 29.39 137.517 29.2599 137.604 29.0865C137.691 28.913 137.756 28.8047 137.799 28.7613C137.973 28.8914 138.06 28.8697 138.06 28.6963C137.973 28.6963 137.973 28.6746 138.06 28.6312H137.865C137.995 28.5879 138.103 28.5229 138.19 28.4361C138.277 28.3061 138.364 28.1977 138.451 28.111C138.537 28.0243 138.624 27.9159 138.711 27.7858C138.798 27.6557 138.863 27.5473 138.906 27.4606C138.993 27.3739 139.08 27.2872 139.167 27.2005C139.297 27.1138 139.406 27.0488 139.493 27.0054C139.579 26.8753 139.775 26.4635 140.079 25.7698C140.383 25.0761 140.643 24.6208 140.86 24.4041C140.947 24.3174 141.012 24.1439 141.056 23.8838C141.142 23.7104 141.229 23.5803 141.316 23.4936C141.403 23.3635 141.468 23.2768 141.511 23.2335C141.598 23.1468 141.663 23.06 141.707 22.9733C141.75 22.8866 141.794 22.7999 141.837 22.7132C141.924 22.5831 142.011 22.5181 142.098 22.5181C142.098 22.4747 142.119 22.4097 142.163 22.323C142.206 22.2363 142.228 22.1713 142.228 22.1279C142.271 22.0412 142.315 21.9978 142.358 21.9978C142.358 21.8678 142.38 21.7811 142.423 21.7377C142.467 21.651 142.532 21.5426 142.619 21.4125C142.749 21.2825 142.836 21.1958 142.879 21.1524C142.922 21.109 142.988 21.0657 143.074 21.0223C143.161 20.9356 143.248 20.9139 143.335 20.9573C143.205 20.5237 143.574 20.0468 144.442 19.5266C144.485 19.2231 144.594 19.0713 144.768 19.0713C144.985 19.028 145.115 18.8762 145.158 18.6161C145.375 18.6595 145.506 18.6161 145.549 18.486L145.81 18.356C145.94 18.4427 146.005 18.4644 146.005 18.421C146.005 18.2909 146.005 18.2259 146.005 18.2259C146.048 18.1825 146.092 18.1825 146.135 18.2259C146.222 18.2693 146.287 18.2693 146.331 18.2259C146.331 18.1825 146.352 18.1609 146.396 18.1609C146.396 18.1609 146.417 18.0742 146.461 17.9007C146.548 17.7273 146.678 17.6406 146.852 17.6406C146.895 17.5972 146.938 17.5756 146.982 17.5756C147.503 17.6623 147.807 17.5322 147.894 17.1854C147.937 17.2287 148.024 17.2504 148.154 17.2504C148.328 17.2504 148.501 17.2504 148.675 17.2504C148.849 17.2504 148.979 17.2504 149.066 17.2504C150.976 16.9903 152.756 16.9252 154.406 17.0553C154.797 17.0553 155.122 17.0987 155.383 17.1854C155.643 17.2721 155.991 17.4238 156.425 17.6406C156.859 17.8574 157.098 17.9874 157.141 18.0308C158.444 18.9846 159.182 20.1552 159.355 21.5426C159.355 21.6727 159.399 21.8244 159.486 21.9978C159.572 22.1713 159.616 22.323 159.616 22.4531C159.659 22.5398 159.681 22.6698 159.681 22.8433C159.724 22.9733 159.724 23.06 159.681 23.1034ZM137.213 30.192C137.257 30.192 137.278 30.1704 137.278 30.127C137.322 30.0836 137.344 30.062 137.344 30.062L137.213 30.192ZM145.354 50.8726C145.31 50.8726 145.289 50.8726 145.289 50.8726C145.289 50.8726 145.289 50.8943 145.289 50.9377L145.354 50.8726ZM146.135 49.572C146.179 49.572 146.222 49.5503 146.265 49.5069L146.135 49.572ZM154.21 27.9809C154.254 27.8075 154.254 27.5907 154.21 27.3306C154.21 27.0704 154.232 26.897 154.276 26.8103C154.319 26.3767 154.276 25.5747 154.145 24.4041C154.059 23.537 153.755 22.6482 153.234 21.7377C152.713 20.7839 152.235 20.3937 151.801 20.5671C151.627 20.7405 151.302 20.8272 150.824 20.8272C150.824 20.9139 150.564 21.1307 150.043 21.4776C149.348 21.7811 148.458 22.388 147.373 23.2985C146.331 24.209 145.723 24.7076 145.549 24.7943L145.744 25.2495C145.788 25.2495 145.81 25.2061 145.81 25.1194C146.634 25.3796 147.155 25.6614 147.373 25.9649C147.373 25.9649 147.373 25.9866 147.373 26.0299L147.307 26.0949C147.481 26.2684 147.503 26.4418 147.373 26.6152C147.329 26.6586 147.307 26.6152 147.307 26.4851C147.307 26.4851 147.286 26.4418 147.242 26.3551C147.242 26.1816 147.242 26.0949 147.242 26.0949C147.155 26.1816 147.112 26.3551 147.112 26.6152C147.025 26.832 147.112 26.9404 147.373 26.9404C147.459 26.9837 147.503 27.0054 147.503 27.0054C147.459 27.0921 147.459 27.2222 147.503 27.3956C147.546 27.5257 147.568 27.5907 147.568 27.5907C147.568 27.6341 147.568 27.6774 147.568 27.7208C147.655 27.7208 147.698 27.7641 147.698 27.8508C147.785 28.0676 147.763 28.176 147.633 28.176C147.546 28.176 147.481 28.1977 147.438 28.241C147.004 27.9809 146.765 27.9809 146.721 28.241C146.374 28.7179 146.027 29.3249 145.679 30.062C145.375 30.799 145.072 31.3843 144.768 31.8179C144.724 31.9479 144.659 32.1647 144.572 32.4682C144.529 32.7717 144.442 33.0318 144.312 33.2486C144.225 33.422 144.073 33.5738 143.856 33.7038L143.791 33.7689C143.964 34.1157 143.943 34.3975 143.726 34.6143C143.509 34.7877 143.422 34.9395 143.465 35.0695C143.378 35.373 143.313 35.5464 143.27 35.5898C143.313 35.6332 143.27 35.6982 143.14 35.7849C143.053 35.8716 143.031 35.9366 143.074 35.98C142.901 36.3268 142.792 36.5653 142.749 36.6954C142.488 37.1289 142.423 37.5191 142.553 37.866C142.38 38.2128 142.119 38.8631 141.772 39.817C141.468 40.7708 141.208 41.4862 140.99 41.9631C140.383 43.8274 139.905 45.3014 139.558 46.3853C139.254 47.4692 138.95 48.8566 138.646 50.5475C138.342 52.2383 138.212 53.7775 138.255 55.1648C138.125 55.6851 138.082 56.4005 138.125 57.3109C138.212 58.178 138.407 58.6983 138.711 58.8717L138.646 58.8067C138.689 58.5032 138.82 58.2864 139.037 58.1564C139.254 57.9829 139.384 57.8529 139.427 57.7662C139.514 57.6361 139.645 57.5927 139.818 57.6361C139.992 57.6361 140.079 57.5927 140.079 57.506C140.252 57.0725 140.404 56.834 140.535 56.7907C140.708 56.7473 140.882 56.6172 141.056 56.4005C141.142 56.4872 141.208 56.5089 141.251 56.4655C141.338 56.3788 141.381 56.2487 141.381 56.0753C141.425 55.8585 141.468 55.7285 141.511 55.6851C141.598 55.5984 141.685 55.49 141.772 55.3599C141.859 55.2299 141.924 55.1432 141.967 55.0998C142.011 55.0131 142.054 54.9914 142.098 55.0348C142.184 54.9481 142.249 54.8613 142.293 54.7746C142.38 54.6446 142.423 54.5579 142.423 54.5145C142.467 54.4711 142.51 54.4495 142.553 54.4495C142.64 54.4061 142.727 54.3844 142.814 54.3844C142.944 54.4278 142.988 54.3844 142.944 54.2544C142.901 54.211 142.879 54.1893 142.879 54.1893C142.836 54.146 142.857 54.0376 142.944 53.8642C143.031 53.6474 143.14 53.474 143.27 53.3439C143.443 53.1705 143.574 53.1054 143.66 53.1488C143.704 52.8887 143.812 52.5852 143.986 52.2383C144.203 51.8481 144.442 51.6097 144.702 51.523C144.789 51.3929 144.92 51.2195 145.093 51.0027C145.31 50.7426 145.462 50.5258 145.549 50.3524C145.679 50.1356 145.701 49.9622 145.614 49.8321C145.527 49.8755 145.506 49.8755 145.549 49.8321C145.679 49.7887 145.788 49.8321 145.875 49.9622C145.831 50.0489 145.831 50.1139 145.875 50.1573C145.918 49.9838 145.962 49.7887 146.005 49.572C146.048 49.3118 146.07 49.1384 146.07 49.0517C146.113 48.9216 146.179 48.8349 146.265 48.7916C146.309 49.0951 146.461 49.03 146.721 48.5965C146.852 48.3363 146.938 48.1846 146.982 48.1412C147.503 47.2308 147.785 46.6671 147.828 46.4504L147.894 46.2553C147.894 46.342 147.915 46.407 147.959 46.4504C147.959 46.3203 148.024 46.1686 148.154 45.9951C148.284 45.7784 148.306 45.6049 148.219 45.4749C148.219 45.3014 148.284 45.3014 148.415 45.4749C148.501 45.5182 148.566 45.4532 148.61 45.2798C148.697 45.1063 148.697 44.998 148.61 44.9546C148.61 44.8245 148.653 44.6511 148.74 44.4343C148.87 44.2176 149.001 44.0225 149.131 43.849C149.261 43.6323 149.348 43.4805 149.391 43.3938C149.565 43.1337 149.739 42.8085 149.912 42.4183C150.086 41.9847 150.238 41.6379 150.368 41.3778C150.498 41.0743 150.629 40.8141 150.759 40.5974C150.889 40.3806 151.019 40.2505 151.15 40.2072C151.193 39.6869 151.302 39.4051 151.475 39.3617C151.388 39.145 151.432 38.8198 151.606 38.3862C151.823 37.9527 151.931 37.7142 151.931 37.6709C152.365 36.6737 152.843 35.243 153.364 33.3787C153.407 33.1619 153.494 32.7283 153.624 32.078C153.885 31.2976 154.015 30.6039 154.015 29.9969C153.972 29.9969 153.972 29.9753 154.015 29.9319C154.059 29.7151 154.08 29.4333 154.08 29.0865C154.124 28.7396 154.167 28.5012 154.21 28.3711C154.21 28.241 154.21 28.1327 154.21 28.0459C154.21 28.0459 154.21 28.0243 154.21 27.9809ZM146.852 26.5502C146.895 26.5502 146.917 26.5718 146.917 26.6152L146.852 26.5502ZM146.917 27.7208C146.96 27.7641 146.982 27.7641 146.982 27.7208H146.917ZM147.112 27.7208C147.112 27.8075 147.112 27.8508 147.112 27.8508H147.177C147.134 27.7641 147.112 27.7208 147.112 27.7208ZM147.438 27.2655V27.3956C147.438 27.3522 147.438 27.3089 147.438 27.2655ZM147.373 27.7858L147.438 27.8508V27.7858H147.373ZM147.503 28.111V28.0459L147.438 27.9809L147.503 28.111Z" class="secondary-color"/>
</svg>
