<svg width="42" height="42" viewBox="0 0 42 42" fill="none" xmlns="http://www.w3.org/2000/svg">
<g filter="url(#filter0_d_346_3486)">
<path fill-rule="evenodd" clip-rule="evenodd" d="M27.261 18.7077C27.4628 18.7754 27.6606 18.8522 27.8539 18.9379C28.7788 19.3477 29.6009 19.9589 30.2596 20.7266C30.4383 20.9348 30.6049 21.1545 30.7583 21.3848C31.1702 22.0031 31.4748 22.6799 31.6651 23.3868C31.8777 24.1766 31.9477 25.004 31.8652 25.8298C31.8459 26.0234 31.8184 26.2155 31.7828 26.4055C31.5941 27.4134 31.1802 28.3638 30.5744 29.1864C30.3902 29.4366 30.1882 29.6749 29.9694 29.8995C29.947 29.9225 29.9243 29.9455 29.9015 29.9683C29.6453 30.2193 29.4986 30.5615 29.4935 30.9202C29.4939 31.0181 29.5049 31.1155 29.5262 31.2107C29.5439 31.2903 29.5688 31.3683 29.6007 31.4438C29.6708 31.6095 29.773 31.7597 29.9015 31.8856L29.9694 31.9536H25.0878C23.7873 31.9513 22.5207 31.5762 21.4347 30.881C21.2074 30.7355 20.9879 30.576 20.7778 30.4029C19.9864 29.751 19.3582 28.9335 18.9325 28.0158C18.8912 27.9267 18.8517 27.8367 18.8143 27.7458C18.6456 27.3365 18.5162 26.9094 18.4296 26.4698C18.4219 26.4308 18.4145 26.3918 18.4075 26.3527C18.3881 26.2441 18.3713 26.1352 18.3572 26.0261C18.3168 25.7134 18.2983 25.3994 18.3014 25.0864C18.3015 25.0827 18.3015 25.0789 18.3016 25.0752C18.3142 23.987 18.5881 22.9106 19.109 21.9397C19.4321 21.3375 19.8415 20.7921 20.3206 20.3186C20.9441 19.7023 21.6855 19.2079 22.5077 18.8687C23.3321 18.5287 24.2089 18.3567 25.0878 18.3552C25.3829 18.3546 25.6781 18.3733 25.9717 18.4112C26.0758 18.4247 26.1798 18.4406 26.2834 18.4589C26.5524 18.5065 26.8195 18.5704 27.0831 18.6508C27.1427 18.669 27.202 18.688 27.261 18.7077ZM28.8348 15.6694C28.8952 15.9141 28.9471 16.1613 28.9904 16.4105C29.0706 16.4466 29.1503 16.4838 29.2294 16.522C30.4315 17.1031 31.4989 17.9312 32.3613 18.9531C32.6065 19.2437 32.8334 19.5479 33.0412 19.8641C33.6123 20.7331 34.0386 21.6921 34.3008 22.7036C34.5884 23.813 34.6727 24.9629 34.5521 26.098C34.5227 26.3745 34.4811 26.6502 34.4274 26.9241C34.1834 28.1686 33.6934 29.3502 32.988 30.4003C32.9465 30.4621 32.9042 30.5235 32.8612 30.5844C32.8138 30.6516 32.7654 30.7182 32.7162 30.7842L34.2119 32.28C34.4006 32.4712 34.5284 32.7141 34.5793 32.9779C34.6301 33.2417 34.6016 33.5146 34.4975 33.7622C34.3955 34.0106 34.2223 34.2232 33.9996 34.3732C33.777 34.5232 33.515 34.604 33.2465 34.6053H25.0878C25.0863 34.6053 25.0847 34.6053 25.0831 34.6053C23.2869 34.6007 21.5286 34.0879 20.0115 33.1261C19.6885 32.9214 19.3794 32.6981 19.0853 32.4578C18.1399 31.6854 17.3504 30.737 16.7617 29.6633C16.6723 29.5004 16.5876 29.3345 16.5077 29.1659H8.77052C8.50207 29.1646 8.24001 29.0838 8.01739 28.9338C7.79477 28.7838 7.62154 28.5712 7.51952 28.3228C7.41539 28.0752 7.38694 27.8023 7.43776 27.5385C7.48858 27.2747 7.6164 27.0318 7.80508 26.8406L9.69517 24.964C9.64483 24.8995 9.59525 24.8344 9.54644 24.7688C9.46554 24.6601 9.38675 24.55 9.3101 24.4386C8.88171 23.8157 8.52011 23.1509 8.23047 22.4553C7.97162 21.8336 7.77024 21.1873 7.63004 20.5243C7.47399 19.7864 7.3956 19.0366 7.39466 18.2871C7.39466 18.2835 7.39466 18.2798 7.39465 18.2762C7.39443 17.3864 7.50335 16.4972 7.72104 15.6286C8.12298 14.0249 8.88518 12.5338 9.94971 11.2688C10.1509 11.0297 10.3618 10.7999 10.5819 10.5799C11.5264 9.63559 12.6387 8.87136 13.8646 8.32795C15.254 7.71203 16.7557 7.3947 18.2725 7.39465C18.278 7.39465 18.2835 7.39466 18.289 7.39467C18.4167 7.39486 18.5446 7.3973 18.6725 7.402C20.3247 7.46274 21.9413 7.89929 23.3995 8.67848C23.8054 8.89541 24.1962 9.13732 24.5696 9.40239C25.5373 10.0894 26.3888 10.932 27.0878 11.8988C27.7057 12.7533 28.1942 13.6905 28.5405 14.6799C28.654 15.0045 28.7523 15.3346 28.8348 15.6694ZM36.932 30.2345C37.3013 29.3838 37.579 28.4931 37.7586 27.5774C38.1307 25.6801 38.072 23.7234 37.5869 21.8519C37.1017 19.9803 36.2025 18.2415 34.9556 16.7639C34.0887 15.7365 33.0691 14.8536 31.9355 14.1444C31.4779 12.63 30.7704 11.1982 29.8387 9.9097C28.5676 8.15183 26.9126 6.70682 24.9993 5.68447C23.0861 4.66212 20.965 4.08933 18.7972 4.00964C16.6294 3.92994 14.472 4.34544 12.4888 5.22455C10.5057 6.10367 8.74905 7.42326 7.35233 9.08305C5.95561 10.7428 4.95559 12.6992 4.42822 14.8034C3.90086 16.9076 3.86003 19.1043 4.30884 21.2266C4.5447 22.342 4.91252 23.4214 5.40209 24.4428C5.3976 24.4473 5.39312 24.4518 5.38865 24.4564C4.72895 25.125 4.28208 25.974 4.1044 26.8963C3.9276 27.814 4.02522 28.7634 4.3849 29.6259C4.74226 30.4884 5.34574 31.2269 6.12021 31.7488C6.89861 32.2734 7.81489 32.5559 8.75357 32.5606L8.77052 32.5606H14.5773C15.5442 33.9231 16.7708 35.091 18.1939 35.9932C20.2539 37.2991 22.6417 37.9949 25.0808 38L25.0878 38H33.2465L33.2635 38C34.2021 37.9953 35.1184 37.7128 35.8968 37.1882C36.6712 36.6663 37.2746 35.9281 37.632 35.0656C37.9918 34.2031 38.0895 33.2535 37.9126 32.3357C37.7637 31.5628 37.4258 30.8414 36.932 30.2345ZM18.289 10.128C17.1359 10.128 16.0081 10.3721 14.9745 10.8317C14.0683 11.2346 13.2346 11.803 12.5199 12.5178C12.3542 12.6835 12.1964 12.8555 12.0467 13.0334C11.2468 13.9839 10.6781 15.1004 10.3774 16.2944C10.2146 16.9406 10.1303 17.6095 10.1303 18.2871C10.128 18.8505 10.1848 19.4111 10.2988 19.96C10.4018 20.4554 10.5514 20.9413 10.7463 21.411C11.0261 22.085 11.3954 22.7165 11.8432 23.2887C11.9096 23.3736 11.9778 23.4572 12.0476 23.5394C12.1113 23.6145 12.1764 23.6883 12.2429 23.7611C12.3339 23.8606 12.4274 23.9579 12.5235 24.0529C12.651 24.1793 12.7521 24.3297 12.8211 24.4954C12.8902 24.6611 12.9257 24.8389 12.9257 25.0184C12.9257 25.0411 12.9252 25.0638 12.924 25.0864C12.9238 25.09 12.9236 25.0936 12.9234 25.0972C12.9146 25.2498 12.8801 25.4 12.8211 25.5414C12.7876 25.622 12.7464 25.6989 12.6983 25.7713C12.6475 25.8477 12.589 25.919 12.5235 25.9839L12.0476 26.4462H15.6782C15.6431 26.2223 15.6164 25.9971 15.5983 25.7713C15.58 25.5435 15.5703 25.3151 15.5694 25.0864C15.5694 25.0637 15.5695 25.0411 15.5696 25.0184C15.5729 24.558 15.6096 24.1011 15.6782 23.6511C15.6972 23.5263 15.7187 23.402 15.7426 23.2784C15.767 23.1523 15.794 23.0268 15.8234 22.902C16.0096 22.112 16.2961 21.3497 16.6749 20.6338C17.115 19.8021 17.6798 19.033 18.3573 18.3555C19.2497 17.463 20.3012 16.766 21.445 16.2921C21.769 16.1579 22.1004 16.0416 22.4377 15.9438C23.2914 15.6963 24.183 15.5674 25.0878 15.5674H25.9717C25.9029 15.3685 25.8266 15.1728 25.7431 14.9808C25.5589 14.5579 25.3395 14.1529 25.0878 13.7699C25.0248 13.6739 24.9597 13.5793 24.8926 13.4861C24.5673 13.0341 24.1953 12.616 23.7822 12.2389C23.5371 12.0153 23.2775 11.806 23.0046 11.6128C22.7211 11.4121 22.4262 11.2308 22.1219 11.0694C21.0293 10.4899 19.815 10.1674 18.5722 10.1313C18.4779 10.1286 18.3835 10.1275 18.289 10.128ZM13.6048 19.1796C13.5506 18.8905 13.5237 18.5963 13.5249 18.3008L13.525 18.2871C13.525 17.0235 14.0269 15.8116 14.9204 14.9181C15.8138 14.0246 17.0255 13.5227 18.289 13.5227L18.3094 13.5226C18.6051 13.5209 18.8987 13.5471 19.1865 13.6002C18.005 14.2072 16.9136 14.9984 15.9568 15.9552C15.0016 16.9105 14.2114 18.0001 13.6048 19.1796ZM27.5102 27.5588C27.2067 27.8589 26.9477 28.1957 26.7376 28.559H25.0915C24.3049 28.557 23.5432 28.2827 22.9359 27.7825C22.328 27.2819 21.9125 26.5859 21.7601 25.8131C21.6077 25.0403 21.728 24.2387 22.1003 23.5446C22.4727 22.8506 23.0741 22.3072 23.8021 22.007C24.5301 21.7067 25.3397 21.6681 26.0929 21.8978C26.8461 22.1275 27.4965 22.6113 27.9331 23.2668C28.3697 23.9223 28.5656 24.7089 28.4874 25.4926C28.4094 26.2735 28.0642 27.0033 27.5102 27.5588Z" fill="white"/>
</g>
<path d="M32.7161 30.7843C33.5682 29.6419 34.153 28.3228 34.4273 26.9242C34.7016 25.5257 34.6583 24.0834 34.3007 22.7038C33.9431 21.3241 33.2803 20.0424 32.3611 18.9532C31.442 17.864 30.2901 16.9951 28.9903 16.4107C28.7072 14.7817 28.0565 13.2387 27.0877 11.8989C26.1189 10.5591 24.8575 9.45779 23.3993 8.6786C21.9411 7.89941 20.3245 7.46286 18.6724 7.40212C17.0202 7.34138 15.3759 7.65805 13.8644 8.32807C12.353 8.99809 11.0141 10.0038 9.94959 11.2689C8.88505 12.5339 8.12286 14.025 7.72091 15.6287C7.31897 17.2325 7.28785 18.9068 7.62992 20.5244C7.97199 22.142 8.67826 23.6604 9.69505 24.9641L7.80496 26.8407C7.61628 27.032 7.48846 27.2748 7.43764 27.5386C7.38682 27.8024 7.41527 28.0753 7.5194 28.323C7.62141 28.5713 7.79465 28.7839 8.01727 28.9339C8.23989 29.0839 8.50194 29.1647 8.7704 29.1661H16.5075C17.278 30.7905 18.4929 32.1636 20.0113 33.1262C21.5298 34.0889 23.2899 34.6017 25.0877 34.6055H33.2464C33.5148 34.6041 33.7769 34.5233 33.9995 34.3733C34.2221 34.2233 34.3954 34.0107 34.4974 33.7624C34.6015 33.5147 34.63 33.2418 34.5791 32.978C34.5283 32.7142 34.4005 32.4714 34.2118 32.2801L32.7161 30.7843ZM15.5693 25.0865C15.5711 25.5419 15.6075 25.9965 15.6781 26.4464H12.0475L12.5234 25.984C12.6508 25.8576 12.752 25.7072 12.821 25.5415C12.8901 25.3758 12.9256 25.198 12.9256 25.0185C12.9256 24.839 12.8901 24.6613 12.821 24.4956C12.752 24.3298 12.6508 24.1794 12.5234 24.053C11.7613 23.2993 11.1571 22.4011 10.7462 21.4111C10.3353 20.4211 10.1259 19.3592 10.1302 18.2873C10.1302 16.1233 10.9897 14.048 12.5198 12.5179C14.0498 10.9878 16.125 10.1282 18.2888 10.1282C19.9773 10.118 21.6264 10.6373 23.0044 11.6129C24.3825 12.5886 25.4202 13.9716 25.9716 15.5676C25.6724 15.5676 25.3869 15.5676 25.0877 15.5676C22.5633 15.5676 20.1422 16.5704 18.3572 18.3556C16.5721 20.1407 15.5693 22.5619 15.5693 25.0865ZM29.9013 31.8858L29.9693 31.9538H25.0877C23.5149 31.9509 21.9917 31.4029 20.7777 30.403C19.5636 29.4031 18.7337 28.0131 18.4294 26.47C18.1251 24.9268 18.3653 23.3258 19.1089 21.9398C19.8525 20.5539 21.0536 19.4686 22.5076 18.8689C23.9616 18.2692 25.5785 18.1921 27.083 18.6509C28.5874 19.1097 29.8862 20.0759 30.7582 21.3849C31.6302 22.694 32.0214 24.2648 31.8651 25.8299C31.7089 27.3951 31.0149 28.8576 29.9013 29.9684C29.6451 30.2194 29.4985 30.5616 29.4934 30.9203C29.4941 31.1002 29.5306 31.2782 29.6006 31.4439C29.6706 31.6096 29.7728 31.7598 29.9013 31.8858V31.8858Z" fill="#F3701F"/>
<defs>
<filter id="filter0_d_346_3486" x="0" y="0" width="42" height="42" filterUnits="userSpaceOnUse" color-interpolation-filters="sRGB">
<feFlood flood-opacity="0" result="BackgroundImageFix"/>
<feColorMatrix in="SourceAlpha" type="matrix" values="0 0 0 0 0 0 0 0 0 0 0 0 0 0 0 0 0 0 127 0" result="hardAlpha"/>
<feOffset/>
<feGaussianBlur stdDeviation="2"/>
<feComposite in2="hardAlpha" operator="out"/>
<feColorMatrix type="matrix" values="0 0 0 0 0 0 0 0 0 0 0 0 0 0 0 0 0 0 0.15 0"/>
<feBlend mode="normal" in2="BackgroundImageFix" result="effect1_dropShadow_346_3486"/>
<feBlend mode="normal" in="SourceGraphic" in2="effect1_dropShadow_346_3486" result="shape"/>
</filter>
</defs>
</svg>
