<svg width="44" height="44" viewBox="0 0 44 44" fill="none" xmlns="http://www.w3.org/2000/svg">
<g filter="url(#filter0_d_346_3474)">
<path fill-rule="evenodd" clip-rule="evenodd" d="M31.163 11.3916H31.2824C31.634 11.3916 31.9713 11.5313 32.22 11.78C32.2373 11.7973 32.2541 11.8151 32.2704 11.8332C32.4875 12.0757 32.6084 12.3904 32.6084 12.7176V16.6958H25.8588L27.4235 15.1311L31.163 11.3916ZM25.8588 12.9563L22.1193 16.6958H16.5765L21.8807 11.3916H27.4235L25.8588 12.9563ZM31.2824 8.73949C32.3374 8.73949 33.3493 9.15862 34.0953 9.90467C34.1126 9.92195 34.1297 9.93937 34.1467 9.95694C34.8606 10.6976 35.2605 11.687 35.2605 12.7176V31.2824C35.2605 32.3374 34.8414 33.3493 34.0953 34.0953C33.3493 34.8414 32.3374 35.2605 31.2824 35.2605H12.7176C11.6626 35.2605 10.6507 34.8414 9.90467 34.0953C9.15862 33.3493 8.73949 32.3374 8.73949 31.2824V12.7176C8.73949 11.6626 9.15862 10.6507 9.90467 9.90467C10.6507 9.15862 11.6626 8.73949 12.7176 8.73949H31.2824ZM12.7176 11.3916C12.366 11.3916 12.0287 11.5313 11.78 11.78C11.5313 12.0287 11.3916 12.366 11.3916 12.7176V16.6958H12.837L18.1412 11.3916H12.7176ZM11.3916 19.3479V31.2824C11.3916 31.634 11.5313 31.9713 11.78 32.22C12.0287 32.4687 12.366 32.6084 12.7176 32.6084H31.2824C31.634 32.6084 31.9713 32.4687 32.22 32.22C32.4687 31.9713 32.6084 31.634 32.6084 31.2824V19.3479H11.3916ZM15.1311 23.0874H28.8689V28.8689H15.1311V23.0874ZM12.7176 5H31.2824C33.3292 5 35.2922 5.81311 36.7396 7.26045C38.1869 8.70779 39 10.6708 39 12.7176V31.2824C39 33.3292 38.1869 35.2922 36.7396 36.7396C35.2922 38.1869 33.3292 39 31.2824 39H12.7176C10.6708 39 8.70779 38.1869 7.26045 36.7396C5.81311 35.2922 5 33.3292 5 31.2824V12.7176C5 10.6708 5.81311 8.70779 7.26045 7.26045C8.70779 5.81311 10.6708 5 12.7176 5Z" fill="white"/>
</g>
<path d="M31.1732 8.62988H12.6085C11.5535 8.62988 10.5416 9.04901 9.79554 9.79506C9.0495 10.5411 8.63037 11.553 8.63037 12.608V31.1727C8.63037 32.2278 9.0495 33.2397 9.79554 33.9857C10.5416 34.7318 11.5535 35.1509 12.6085 35.1509H31.1732C32.2283 35.1509 33.2402 34.7318 33.9862 33.9857C34.7323 33.2397 35.1514 32.2278 35.1514 31.1727V12.608C35.1514 11.553 34.7323 10.5411 33.9862 9.79506C33.2402 9.04901 32.2283 8.62988 31.1732 8.62988ZM27.3144 11.282L22.0102 16.5862H16.4673L21.7715 11.282H27.3144ZM11.2825 12.608C11.2825 12.2563 11.4222 11.9191 11.6709 11.6704C11.9195 11.4217 12.2568 11.282 12.6085 11.282H18.0321L12.7279 16.5862H11.2825V12.608ZM32.4993 31.1727C32.4993 31.5244 32.3596 31.8617 32.1109 32.1104C31.8622 32.3591 31.5249 32.4988 31.1732 32.4988H12.6085C12.2568 32.4988 11.9195 32.3591 11.6709 32.1104C11.4222 31.8617 11.2825 31.5244 11.2825 31.1727V19.2383H32.4993V31.1727ZM32.4993 16.5862H25.7497L31.0539 11.282H31.1732C31.5249 11.282 31.8622 11.4217 32.1109 11.6704C32.3596 11.9191 32.4993 12.2563 32.4993 12.608V16.5862Z" fill="#F3701F"/>
<defs>
<filter id="filter0_d_346_3474" x="0" y="0" width="44" height="44" filterUnits="userSpaceOnUse" color-interpolation-filters="sRGB">
<feFlood flood-opacity="0" result="BackgroundImageFix"/>
<feColorMatrix in="SourceAlpha" type="matrix" values="0 0 0 0 0 0 0 0 0 0 0 0 0 0 0 0 0 0 127 0" result="hardAlpha"/>
<feOffset/>
<feGaussianBlur stdDeviation="2.5"/>
<feComposite in2="hardAlpha" operator="out"/>
<feColorMatrix type="matrix" values="0 0 0 0 0 0 0 0 0 0 0 0 0 0 0 0 0 0 0.15 0"/>
<feBlend mode="normal" in2="BackgroundImageFix" result="effect1_dropShadow_346_3474"/>
<feBlend mode="normal" in="SourceGraphic" in2="effect1_dropShadow_346_3474" result="shape"/>
</filter>
</defs>
</svg>
