<svg width="42" height="40" viewBox="0 0 42 40" fill="none" xmlns="http://www.w3.org/2000/svg">
<g filter="url(#filter0_d_346_3477)">
<path fill-rule="evenodd" clip-rule="evenodd" d="M7.5656 20.2533C7.54875 20.5293 7.54025 20.8065 7.54025 21.0847L7.54025 30.5657C7.54025 30.925 7.68206 31.2695 7.93447 31.5235C8.18689 31.7775 8.52925 31.9202 8.88622 31.9202H12.9241C13.9951 31.9202 15.0221 31.4921 15.7794 30.7301C15.7834 30.7261 15.7873 30.722 15.7913 30.718C16.5411 29.9572 16.9621 28.9289 16.9621 27.8569V25.148C16.9621 24.076 16.5411 23.0477 15.7913 22.2868C15.7873 22.2828 15.7834 22.2788 15.7794 22.2748C15.0221 21.5127 13.9951 21.0847 12.9241 21.0847H10.2322C10.2322 20.8062 10.2428 20.5289 10.2639 20.2533C10.3349 19.3245 10.5242 18.4145 10.8231 17.5444C11.3512 16.0073 12.2215 14.5946 13.386 13.4228C13.39 13.4188 13.394 13.4148 13.398 13.4108C14.408 12.3976 15.5971 11.6067 16.8904 11.0693C18.1814 10.5329 19.5762 10.2491 21 10.2491C23.8502 10.2491 26.5838 11.3862 28.602 13.4108C28.606 13.4148 28.61 13.4188 28.614 13.4228C29.7785 14.5946 30.6488 16.0073 31.1769 17.5444C31.4758 18.4145 31.6651 19.3245 31.7361 20.2533C31.7572 20.5289 31.7678 20.8062 31.7678 21.0847H29.0758C28.0049 21.0847 26.9779 21.5127 26.2206 22.2748C26.2166 22.2788 26.2127 22.2828 26.2087 22.2868C25.4589 23.0477 25.0379 24.076 25.0379 25.148V27.8569C25.0379 28.9289 25.4589 29.9572 26.2087 30.718C26.2127 30.722 26.2166 30.7261 26.2206 30.7301C26.9779 31.4921 28.0049 31.9202 29.0758 31.9202H33.1138C33.4707 31.9202 33.8131 31.7775 34.0655 31.5235C34.3179 31.2695 34.4598 30.925 34.4598 30.5657V21.0847C34.4598 20.8065 34.4513 20.5293 34.4344 20.2533C34.2339 16.97 32.851 13.8614 30.5294 11.5193C30.5254 11.5153 30.5215 11.5113 30.5175 11.5073C27.9933 8.96724 24.5697 7.54025 21 7.54025C19.2324 7.54025 17.4822 7.89058 15.8492 8.57125C14.2162 9.25192 12.7324 10.2496 11.4825 11.5073C11.4785 11.5113 11.4746 11.5153 11.4706 11.5193C9.14902 13.8614 7.76612 16.97 7.5656 20.2533ZM27.4174 17.7287C26.0218 18.0428 24.7329 18.7494 23.7094 19.7793C22.2907 21.2069 21.4977 23.1385 21.4977 25.148V27.8569C21.4977 29.8663 22.2907 31.7979 23.7094 33.2255C25.1289 34.6539 27.0588 35.4604 29.0758 35.4604H33.1138C34.4169 35.4604 35.6621 34.9393 36.5767 34.0189C37.4906 33.0993 38 31.8567 38 30.5657V21.0847C38 16.5607 36.2143 12.2175 33.0286 9.01184C29.8423 5.80541 25.5159 4 21 4C18.7644 4 16.5513 4.44312 14.4871 5.30351C12.423 6.16388 10.5489 7.42434 8.97135 9.01184C5.78571 12.2175 4 16.5607 4 21.0847L4 30.5657C4 31.8567 4.50944 33.0993 5.42331 34.0189C6.33792 34.9393 7.58313 35.4604 8.88622 35.4604H12.9241C14.9412 35.4604 16.8711 34.6539 18.2906 33.2255C19.7093 31.7979 20.5023 29.8663 20.5023 27.8569V25.148C20.5023 23.1385 19.7093 21.2069 18.2906 19.7793C17.2671 18.7494 15.9782 18.0428 14.5826 17.7287C14.9228 17.066 15.3645 16.4543 15.8972 15.9183C17.2543 14.5526 19.0903 13.7894 21 13.7894C22.9097 13.7894 24.7457 14.5526 26.1028 15.9183C26.6355 16.4543 27.0772 17.066 27.4174 17.7287ZM31.7678 23.7935H29.0758C28.7655 23.7935 28.4663 23.9014 28.2276 24.0964C28.196 24.1222 28.1655 24.1495 28.1361 24.1783C28.1321 24.1823 28.1281 24.1862 28.1241 24.1902C27.8717 24.4442 27.7299 24.7888 27.7299 25.148V27.8569C27.7299 28.2161 27.8717 28.5606 28.1241 28.8146C28.1281 28.8186 28.1321 28.8226 28.1361 28.8265C28.1655 28.8553 28.196 28.8826 28.2276 28.9084C28.4663 29.1035 28.7655 29.2113 29.0758 29.2113H31.7678V23.7935ZM10.2322 23.7935V29.2113H12.9241C13.2345 29.2113 13.5337 29.1035 13.7724 28.9084C13.804 28.8826 13.8345 28.8553 13.8639 28.8265C13.8679 28.8226 13.8719 28.8186 13.8759 28.8146C14.1283 28.5606 14.2701 28.2161 14.2701 27.8569V25.148C14.2701 24.7888 14.1283 24.4442 13.8759 24.1902C13.8719 24.1862 13.8679 24.1823 13.8639 24.1783C13.8345 24.1495 13.804 24.1222 13.7724 24.0964C13.5337 23.9014 13.2345 23.7935 12.9241 23.7935H10.2322Z" fill="white"/>
</g>
<path d="M20.9993 7.54028C19.2317 7.54028 17.4815 7.89062 15.8485 8.57129C14.2155 9.25196 12.7317 10.2496 11.4818 11.5073C8.95763 14.0474 7.53955 17.4925 7.53955 21.0847L7.53955 30.5658C7.53955 30.925 7.68136 31.2695 7.93378 31.5235C8.1862 31.7775 8.52855 31.9202 8.88553 31.9202H12.9235C13.9944 31.9202 15.0214 31.4921 15.7787 30.7301C16.536 29.9681 16.9614 28.9345 16.9614 27.8569V25.148C16.9614 24.0703 16.536 23.0368 15.7787 22.2748C15.0214 21.5128 13.9944 21.0847 12.9235 21.0847H10.2315C10.2315 18.2109 11.366 15.4549 13.3853 13.4228C15.4047 11.3908 18.1435 10.2492 20.9993 10.2492C23.8551 10.2492 26.5939 11.3908 28.6133 13.4228C30.6326 15.4549 31.7671 18.2109 31.7671 21.0847H29.0752C28.0042 21.0847 26.9772 21.5128 26.2199 22.2748C25.4627 23.0368 25.0372 24.0703 25.0372 25.148V27.8569C25.0372 28.9345 25.4627 29.9681 26.2199 30.7301C26.9772 31.4921 28.0042 31.9202 29.0752 31.9202H33.1131C33.4701 31.9202 33.8124 31.7775 34.0648 31.5235C34.3172 31.2695 34.4591 30.925 34.4591 30.5658V21.0847C34.4591 17.4925 33.041 14.0474 30.5168 11.5073C27.9926 8.96728 24.5691 7.54028 20.9993 7.54028ZM12.9235 23.7936C13.2804 23.7936 13.6228 23.9363 13.8752 24.1903C14.1276 24.4443 14.2694 24.7888 14.2694 25.148V27.8569C14.2694 28.2161 14.1276 28.5606 13.8752 28.8146C13.6228 29.0686 13.2804 29.2113 12.9235 29.2113H10.2315V23.7936H12.9235ZM31.7671 29.2113H29.0752C28.7182 29.2113 28.3758 29.0686 28.1234 28.8146C27.871 28.5606 27.7292 28.2161 27.7292 27.8569V25.148C27.7292 24.7888 27.871 24.4443 28.1234 24.1903C28.3758 23.9363 28.7182 23.7936 29.0752 23.7936H31.7671V29.2113Z" fill="#F3701F"/>
<defs>
<filter id="filter0_d_346_3477" x="0" y="0" width="42" height="39.4604" filterUnits="userSpaceOnUse" color-interpolation-filters="sRGB">
<feFlood flood-opacity="0" result="BackgroundImageFix"/>
<feColorMatrix in="SourceAlpha" type="matrix" values="0 0 0 0 0 0 0 0 0 0 0 0 0 0 0 0 0 0 127 0" result="hardAlpha"/>
<feOffset/>
<feGaussianBlur stdDeviation="2"/>
<feComposite in2="hardAlpha" operator="out"/>
<feColorMatrix type="matrix" values="0 0 0 0 0 0 0 0 0 0 0 0 0 0 0 0 0 0 0.15 0"/>
<feBlend mode="normal" in2="BackgroundImageFix" result="effect1_dropShadow_346_3477"/>
<feBlend mode="normal" in="SourceGraphic" in2="effect1_dropShadow_346_3477" result="shape"/>
</filter>
</defs>
</svg>
