<svg width="42" height="43" viewBox="0 0 42 43" fill="none" xmlns="http://www.w3.org/2000/svg">
<g filter="url(#filter0_d_346_3480)">
<path fill-rule="evenodd" clip-rule="evenodd" d="M33.2885 6.38173L33.2963 6.3896L36.5169 9.60982L34.4664 11.6604C34.4668 11.6612 34.4672 11.6621 34.4675 11.6629L36.5247 9.61772C37.4696 10.5681 38 11.8538 38 13.1941C38 14.5344 37.4696 15.8201 36.5247 16.7705L36.5169 16.7784L33.7544 19.5406C33.7909 19.5749 33.8269 19.6099 33.8624 19.6454C34.8138 20.5967 35.3483 21.887 35.3483 23.2325C35.3483 25.2909 34.9428 27.3291 34.1551 29.2309C33.3673 31.1326 32.2126 32.8605 30.757 34.316C29.3014 35.7714 27.5733 36.926 25.6715 37.7136C23.7697 38.5013 21.7314 38.9067 19.673 38.9067H9.07043L9.05173 38.9067C8.0503 38.9017 7.07273 38.6004 6.24221 38.0408C5.4159 37.4839 4.77193 36.6962 4.39058 35.7758C4.00705 34.8558 3.903 33.8431 4.09162 32.8642C4.28124 31.8801 4.75812 30.9742 5.46204 30.2609C5.47828 30.2444 5.49468 30.2281 5.51123 30.2119L5.62292 30.1029C4.84645 28.5108 4.34177 26.791 4.13846 25.0145C3.80327 22.0859 4.3008 19.1221 5.57389 16.4634C6.84699 13.8047 8.84403 11.5588 11.3357 9.98369C13.8274 8.40854 16.7128 7.56789 19.6606 7.5582L19.673 11.3057C19.2525 11.3071 18.8338 11.3307 18.4183 11.376C18.1193 11.4086 17.822 11.4525 17.527 11.5075C16.0454 11.7836 14.623 12.3391 13.3382 13.1513C13.244 13.2109 13.1507 13.2717 13.0584 13.3337C11.2926 14.5205 9.87447 16.1593 8.95389 18.0818C8.85911 18.2798 8.76997 18.48 8.68653 18.6821C7.91717 20.5459 7.63158 22.5781 7.86167 24.5884C7.89874 24.9123 7.94898 25.2337 8.01207 25.5519C8.30886 27.0488 8.89014 28.4744 9.7237 29.7513C9.7739 29.8282 9.82502 29.9046 9.87705 29.9804C9.96423 30.1075 10.054 30.2329 10.1462 30.3568C10.2274 30.4658 10.3106 30.5736 10.3957 30.6801L8.12946 32.8931C7.94556 33.0795 7.82098 33.3161 7.77145 33.5732C7.72192 33.8303 7.74965 34.0963 7.85114 34.3376C7.95057 34.5796 8.11941 34.7868 8.33639 34.933C8.55337 35.0792 8.80878 35.1579 9.07043 35.1592H19.673C21.2393 35.1592 22.7904 34.8507 24.2375 34.2513C25.6846 33.652 26.9995 32.7735 28.107 31.6661C28.107 31.6662 28.1071 31.6661 28.107 31.6661C29.2146 30.5586 30.0934 29.2437 30.6928 27.7966C31.0167 27.0149 31.2556 26.2028 31.4069 25.3743C31.4603 25.0818 31.5027 24.7873 31.5342 24.4914C31.5785 24.074 31.6008 23.6538 31.6008 23.2325C31.6008 22.881 31.4612 22.5439 31.2126 22.2954C31.1768 22.2596 31.1392 22.226 31.0999 22.1949C30.8666 22.0095 30.5763 21.9073 30.2755 21.9073C29.924 21.9073 29.5869 22.0469 29.3383 22.2954C29.0898 22.5439 28.9502 22.881 28.9502 23.2325C28.9502 23.4802 28.9403 23.7269 28.9207 23.972C28.9202 23.9782 28.9197 23.9844 28.9192 23.9905C28.9079 24.1283 28.8935 24.2655 28.8762 24.4022C28.8648 24.4918 28.8521 24.5811 28.8381 24.6701C28.8145 24.8206 28.7872 24.9703 28.7563 25.1191C28.6378 25.6895 28.4661 26.2463 28.244 26.7822C27.7822 27.8971 27.103 28.9218 26.2331 29.7917C26.233 29.7917 26.2332 29.7916 26.2331 29.7917C25.3632 30.6615 24.3382 31.3409 23.2233 31.8026C22.1083 32.2645 20.9032 32.5088 19.673 32.5088H12.2644L13.1126 31.674C13.1919 31.5953 13.2608 31.5072 13.3177 31.4117C13.35 31.3576 13.3784 31.3011 13.4027 31.2427C13.47 31.0812 13.5047 30.908 13.5047 30.7331C13.5047 30.5581 13.47 30.3849 13.4027 30.2234C13.3355 30.0619 13.2369 29.9154 13.1126 29.7922C12.8748 29.5544 12.6509 29.3047 12.4416 29.0443C12.3813 28.9693 12.3223 28.8935 12.2644 28.8168C11.4272 27.7063 10.8469 26.4171 10.5734 25.0424C10.5238 24.7931 10.4846 24.5427 10.4557 24.2915C10.2762 22.7294 10.4963 21.1428 11.1013 19.6825C11.1673 19.5231 11.2376 19.3659 11.3121 19.2111C12.0301 17.7187 13.1362 16.4427 14.5185 15.5192C14.5927 15.4696 14.6676 15.4211 14.7431 15.3738C15.6803 14.786 16.7113 14.373 17.7861 14.1498C17.9354 14.1188 18.0855 14.0915 18.2363 14.0679C18.325 14.054 18.414 14.0414 18.5032 14.03C18.6402 14.0126 18.7777 13.9983 18.9156 13.987C18.9218 13.9865 18.9279 13.986 18.9341 13.9855C19.1793 13.9659 19.4257 13.9561 19.673 13.9561C19.6759 13.9561 19.6788 13.9561 19.6817 13.9561C20.03 13.9538 20.3636 13.8144 20.6101 13.5679C20.8586 13.3194 20.9983 12.9824 20.9983 12.6309C20.9983 12.3301 20.896 12.0398 20.7107 11.8066C20.6795 11.7673 20.6459 11.7296 20.6101 11.6938C20.3616 11.4454 20.0244 11.3057 19.673 11.3057C19.6729 11.3057 19.673 11.3057 19.673 11.3057V7.55818C21.0182 7.55818 22.3085 8.09254 23.2599 9.04382C23.2956 9.07951 23.3307 9.11566 23.3652 9.15229L26.1281 6.3896L26.136 6.38173C27.0865 5.43697 28.3722 4.90674 29.7122 4.90674C31.0523 4.90674 32.338 5.43697 33.2885 6.38173ZM16.8533 28.7613C16.5974 28.1547 16.2258 27.6037 15.7593 27.139C14.9875 26.3662 14.462 25.3822 14.2489 24.3111C14.0355 23.2386 14.145 22.127 14.5635 21.1167C14.982 20.1064 15.6908 19.2429 16.6002 18.6353C16.8092 18.4957 17.0266 18.3711 17.2508 18.2619V20.5821C17.2508 21.9275 17.7853 23.2178 18.7367 24.1691C19.688 25.1204 20.9783 25.6548 22.3236 25.6548H24.6437C24.3776 26.2008 24.0208 26.7042 23.5832 27.1418C22.5462 28.1787 21.1396 28.7613 19.673 28.7613H16.8533ZM20.9983 20.5821C20.9983 20.9335 21.1379 21.2706 21.3864 21.5191C21.635 21.7676 21.9721 21.9073 22.3236 21.9073H25.5309C25.7053 21.9083 25.8782 21.8748 26.0396 21.8089C26.2011 21.7429 26.348 21.6458 26.4718 21.523L33.8671 14.1284C34.1139 13.8801 34.2525 13.5442 34.2525 13.1941C34.2525 12.844 34.1139 12.5081 33.8671 12.2598L30.6466 9.03961C30.3983 8.79279 30.0624 8.65425 29.7122 8.65425C29.3621 8.65425 29.0262 8.79279 28.7779 9.03961L21.3826 16.4342C21.2598 16.558 21.1626 16.7049 21.0966 16.8663C21.0307 17.0278 20.9973 17.2007 20.9983 17.3751V20.5821ZM23.6489 19.2569H24.974L31.044 13.1876L29.7189 11.8623L23.649 17.9316L23.6489 19.2569Z" fill="white"/>
</g>
<path d="M33.8676 12.2599L30.6471 9.03965C30.3988 8.79284 30.0629 8.6543 29.7128 8.6543C29.3626 8.6543 29.0267 8.79284 28.7784 9.03965L21.3831 16.4342C21.2603 16.5581 21.1631 16.7049 21.0972 16.8664C21.0312 17.0278 20.9978 17.2007 20.9988 17.3751V20.5821C20.9988 20.9336 21.1384 21.2706 21.387 21.5192C21.6355 21.7677 21.9726 21.9073 22.3241 21.9073H25.5314C25.7058 21.9083 25.8787 21.8749 26.0402 21.8089C26.2017 21.743 26.3485 21.6458 26.4724 21.523L33.8676 14.1284C34.1145 13.8801 34.253 13.5442 34.253 13.1941C34.253 12.844 34.1145 12.5082 33.8676 12.2599ZM24.9747 19.2569H23.6494V17.9317L29.7194 11.8623L31.0447 13.1875L24.9747 19.2569ZM30.276 21.9073C29.9245 21.9073 29.5874 22.0469 29.3389 22.2954C29.0903 22.544 28.9507 22.881 28.9507 23.2325C28.9507 25.6927 27.9733 28.0522 26.2335 29.7919C24.4936 31.5315 22.134 32.5089 19.6735 32.5089H12.265L13.1132 31.674C13.2374 31.5508 13.336 31.4042 13.4033 31.2427C13.4706 31.0813 13.5052 30.9081 13.5052 30.7331C13.5052 30.5582 13.4706 30.385 13.4033 30.2235C13.336 30.062 13.2374 29.9154 13.1132 29.7922C11.8156 28.4949 10.9319 26.8419 10.5739 25.0424C10.2159 23.2429 10.3996 21.3776 11.1018 19.6825C11.8041 17.9874 12.9932 16.5386 14.519 15.5193C16.0447 14.5 17.8385 13.956 19.6735 13.9561C20.025 13.9561 20.3621 13.8165 20.6106 13.568C20.8592 13.3195 20.9988 12.9824 20.9988 12.6309C20.9988 12.2795 20.8592 11.9424 20.6106 11.6939C20.3621 11.4454 20.025 11.3057 19.6735 11.3057C17.4303 11.3131 15.2347 11.9528 13.3387 13.1514C11.4427 14.35 9.92312 16.0589 8.95442 18.0819C7.98572 20.1049 7.60716 22.3601 7.8622 24.5885C8.11724 26.8169 8.99554 28.9282 10.3963 30.6801L8.12998 32.8932C7.94609 33.0795 7.82151 33.3162 7.77198 33.5732C7.72245 33.8303 7.75018 34.0963 7.85167 34.3376C7.95109 34.5796 8.11994 34.7868 8.33692 34.933C8.5539 35.0792 8.80931 35.158 9.07096 35.1593H19.6735C21.2399 35.1593 22.7909 34.8508 24.2381 34.2514C25.6852 33.652 27.0001 32.7735 28.1077 31.666C29.2153 30.5585 30.0939 29.2437 30.6934 27.7967C31.2928 26.3497 31.6013 24.7987 31.6013 23.2325C31.6013 22.881 31.4617 22.544 31.2132 22.2954C30.9646 22.0469 30.6275 21.9073 30.276 21.9073Z" fill="#0093CE"/>
<defs>
<filter id="filter0_d_346_3480" x="0" y="0.906738" width="42" height="42" filterUnits="userSpaceOnUse" color-interpolation-filters="sRGB">
<feFlood flood-opacity="0" result="BackgroundImageFix"/>
<feColorMatrix in="SourceAlpha" type="matrix" values="0 0 0 0 0 0 0 0 0 0 0 0 0 0 0 0 0 0 127 0" result="hardAlpha"/>
<feOffset/>
<feGaussianBlur stdDeviation="2"/>
<feComposite in2="hardAlpha" operator="out"/>
<feColorMatrix type="matrix" values="0 0 0 0 0 0 0 0 0 0 0 0 0 0 0 0 0 0 0.15 0"/>
<feBlend mode="normal" in2="BackgroundImageFix" result="effect1_dropShadow_346_3480"/>
<feBlend mode="normal" in="SourceGraphic" in2="effect1_dropShadow_346_3480" result="shape"/>
</filter>
</defs>
</svg>
