<svg width="42" height="42" viewBox="0 0 42 42" fill="none" xmlns="http://www.w3.org/2000/svg">
<g filter="url(#filter0_d_346_3461)">
<path fill-rule="evenodd" clip-rule="evenodd" d="M29.9074 37.5022C29.89 37.5025 29.8726 37.5026 29.8552 37.5026H11.6474C9.6192 37.5026 7.67405 36.6969 6.23988 35.2627C4.80571 33.8285 4 31.8834 4 29.8552L4 11.6474C4 9.6192 4.80571 7.67405 6.23988 6.23988C7.67405 4.80571 9.6192 4 11.6474 4L29.8552 4C31.8834 4 33.8285 4.80571 35.2627 6.23988C36.6969 7.67405 37.5026 9.6192 37.5026 11.6474V29.8552C37.5026 29.915 37.5012 29.9748 37.4983 30.0345C37.4807 30.4019 37.4347 30.7671 37.3608 31.1268C37.3391 31.3998 37.2876 31.6699 37.2069 31.9322C37.2059 31.9354 37.2025 31.9466 37.1919 31.9839C37.1844 32.0103 37.1652 32.0781 37.1472 32.1395C37.1131 32.2554 37.0513 32.4593 36.957 32.6952C36.8989 32.8452 36.8338 32.9924 36.7617 33.1361C36.6335 33.4225 36.4854 33.6997 36.3186 33.9657C36.2886 34.0136 36.2575 34.0607 36.2253 34.1072L36.1083 34.2763C36.0959 34.2941 36.0834 34.3119 36.0707 34.3295C35.9013 34.5653 35.718 34.7906 35.5217 35.0042C35.4169 35.1364 35.3033 35.2614 35.1817 35.3782C34.9081 35.6412 34.6175 35.8858 34.3119 36.1107C34.2882 36.1281 34.2643 36.1453 34.2402 36.1622C34.0009 36.3297 33.7856 36.4483 33.6897 36.5009C33.679 36.5067 33.6685 36.5124 33.6588 36.5177C33.6451 36.5252 33.6328 36.5318 33.6237 36.5367L33.5916 36.5542C33.5498 36.5788 33.5075 36.6027 33.4648 36.6257L33.2957 36.7167C33.1503 36.795 32.9999 36.8636 32.8455 36.922L32.3643 37.1041C32.0477 37.2239 31.717 37.3 31.381 37.3308L31.3436 37.3396C31.2952 37.3509 31.2466 37.3612 31.1978 37.3705C30.7723 37.4521 30.3405 37.4962 29.9074 37.5022ZM30.3986 33.7085C30.2189 33.7381 30.0373 33.7543 29.8552 33.7568H11.6474C10.6126 33.7568 9.62023 33.3458 8.88853 32.6141C8.15683 31.8824 7.74576 30.89 7.74576 29.8552L7.74576 11.6474C7.74576 10.6126 8.15683 9.62023 8.88853 8.88853C9.62023 8.15683 10.6126 7.74576 11.6474 7.74576L29.8552 7.74576C30.89 7.74576 31.8824 8.15683 32.6141 8.88853C33.3458 9.62023 33.7568 10.6126 33.7568 11.6474V29.8552C33.7565 29.8618 33.7562 29.8684 33.7558 29.875C33.742 30.1326 33.6987 30.3877 33.6268 30.6355V30.8306C33.6109 30.8821 33.5963 30.9335 33.5818 30.9847C33.553 31.086 33.5246 31.1858 33.488 31.2814C33.4825 31.2959 33.4767 31.3104 33.4707 31.3248C33.4574 31.3607 33.4426 31.396 33.4262 31.4306C33.4119 31.4609 33.3963 31.4907 33.3797 31.5199C33.3242 31.6549 33.259 31.7856 33.1846 31.911C33.1719 31.9325 33.1589 31.9539 33.1456 31.9751L33.0285 32.1441C32.9632 32.235 32.8937 32.3227 32.82 32.4068C32.774 32.4594 32.7265 32.5106 32.6774 32.5603L32.5863 32.6774C32.4309 32.8267 32.2658 32.9658 32.0921 33.0935C32.0112 33.1502 31.9252 33.1968 31.8404 33.2427C31.789 33.2706 31.7381 33.2982 31.6889 33.3276L31.5199 33.4187L31.0387 33.6008H30.8826L30.4924 33.6918C30.4612 33.6978 30.4299 33.7034 30.3986 33.7085ZM26.8769 22.5591C26.756 22.4372 26.6122 22.3404 26.4537 22.2744C26.2952 22.2084 26.1252 22.1744 25.9535 22.1744C25.7818 22.1744 25.6118 22.2084 25.4533 22.2744C25.2982 22.339 25.1571 22.4331 25.0378 22.5514C25.0352 22.5539 25.0327 22.5565 25.0301 22.5591L23.8856 23.7035L30.0285 29.8464L30.8436 30.6615C30.8491 30.6553 30.8545 30.6491 30.8598 30.6427C30.8619 30.6403 30.8639 30.6379 30.8659 30.6355C30.8716 30.6287 30.8771 30.6219 30.8826 30.6151C30.8847 30.6124 30.8868 30.6098 30.8889 30.6071C30.8973 30.5964 30.9055 30.5856 30.9135 30.5747C30.9261 30.5574 30.9383 30.5399 30.95 30.522C30.9536 30.5165 30.9571 30.511 30.9606 30.5054C30.965 30.499 30.9694 30.4926 30.9736 30.4861C30.9758 30.4827 30.978 30.4793 30.9802 30.476C30.9925 30.457 31.0042 30.4377 31.0154 30.4181C31.0234 30.4041 31.0312 30.39 31.0387 30.3757C31.0477 30.3585 31.0564 30.341 31.0647 30.3234C31.0648 30.3231 31.0649 30.3227 31.065 30.3224C31.0787 30.2878 31.0909 30.2526 31.1015 30.217C31.1164 30.1669 31.1283 30.116 31.1371 30.0645C31.1454 30.0161 31.151 29.9671 31.1537 29.9179C31.1549 29.8971 31.1556 29.8761 31.1557 29.8552V26.8509L26.8769 22.5591ZM27.6572 31.1557L16.4725 19.958C16.3516 19.8361 16.2077 19.7393 16.0492 19.6733C15.8908 19.6072 15.7208 19.5733 15.5491 19.5733C15.3774 19.5733 15.2074 19.6072 15.0489 19.6733C14.8904 19.7393 14.7466 19.8361 14.6257 19.958L10.3469 24.2498V29.8552C10.3469 30.2001 10.4839 30.5309 10.7278 30.7748C10.9717 31.0187 11.3025 31.1557 11.6474 31.1557H27.6572ZM18.6216 27.41L15.5507 24.3355L14.0926 25.798V27.41H18.6216ZM12.7919 18.1502C12.7938 18.1484 12.7957 18.1466 12.7976 18.1448C12.7992 18.1433 12.8008 18.1418 12.8024 18.1402C13.1745 17.7897 13.6066 17.517 14.0735 17.332C14.0799 17.3294 14.0862 17.3269 14.0926 17.3244C14.5527 17.1449 15.0462 17.0503 15.5491 17.0503C16.0589 17.0503 16.5591 17.1475 17.0247 17.332C17.2763 17.4317 17.5178 17.5568 17.7452 17.7059C17.9392 17.8331 18.1229 17.9776 18.294 18.1386C18.2962 18.1406 18.2984 18.1427 18.3006 18.1448C18.3025 18.1466 18.3044 18.1484 18.3063 18.1502L22.0518 21.8958L23.1963 20.7513C23.1982 20.7495 23.2001 20.7477 23.202 20.7459C23.2046 20.7435 23.2071 20.7411 23.2097 20.7387C23.2799 20.6727 23.3521 20.6095 23.4263 20.5492C23.7452 20.2899 24.1001 20.0828 24.4779 19.9331C24.5666 19.8979 24.6566 19.8659 24.7477 19.8372C25.0991 19.7263 25.4666 19.6635 25.8404 19.653C25.8781 19.6519 25.9158 19.6514 25.9535 19.6514C26.4564 19.6514 26.9498 19.746 27.41 19.9255C27.4163 19.928 27.4227 19.9306 27.4291 19.9331C27.896 20.1181 28.3281 20.3909 28.7001 20.7413C28.7018 20.7429 28.7034 20.7444 28.705 20.7459C28.7069 20.7477 28.7088 20.7495 28.7107 20.7513L31.1557 23.1703V11.6474C31.1557 11.3025 31.0187 10.9717 30.7748 10.7278C30.5309 10.4839 30.2001 10.3469 29.8552 10.3469H11.6474C11.3025 10.3469 10.9717 10.4839 10.7278 10.7278C10.4839 10.9717 10.3469 11.3025 10.3469 11.6474V20.5692L12.7919 18.1502ZM20.8066 15.3601C20.8164 15.4004 20.8275 15.4404 20.8399 15.48C20.8506 15.5142 20.8622 15.5482 20.8747 15.5817C20.9721 15.8421 21.1244 16.0799 21.3227 16.2782C21.5782 16.5338 21.8993 16.7129 22.2499 16.7965C22.2723 16.8018 22.2948 16.8068 22.3174 16.8113C22.3188 16.8116 22.3202 16.8119 22.3215 16.8121C22.7 16.8874 23.0922 16.8488 23.4487 16.7011C23.7616 16.5715 24.0346 16.363 24.2416 16.097C24.2704 16.06 24.298 16.0218 24.3242 15.9826C24.5385 15.6618 24.653 15.2846 24.653 14.8988C24.653 14.618 24.5924 14.3435 24.4786 14.0926C24.3827 13.8812 24.2489 13.6867 24.0816 13.5194C23.7157 13.1535 23.2195 12.948 22.7021 12.948C22.3163 12.948 21.9391 13.0624 21.6183 13.2767C21.3155 13.4791 21.0758 13.7618 20.9257 14.0926C20.9167 14.1123 20.9081 14.1322 20.8998 14.1523C20.7521 14.5087 20.7135 14.901 20.7888 15.2794C20.7942 15.3064 20.8001 15.3333 20.8066 15.3601Z" fill="white"/>
</g>
<path d="M29.855 7.74658L11.6473 7.74658C10.6125 7.74658 9.62008 8.15765 8.88837 8.88935C8.15667 9.62105 7.74561 10.6135 7.74561 11.6482L7.74561 29.856C7.74561 30.8908 8.15667 31.8832 8.88837 32.6149C9.62008 33.3466 10.6125 33.7576 11.6473 33.7576H29.855C30.0689 33.7547 30.2822 33.7329 30.4923 33.6926L30.8824 33.6016H30.9735H31.0385L31.5197 33.4195L31.6888 33.3285C31.8188 33.2504 31.9619 33.1854 32.092 33.0944C32.2656 32.9666 32.4307 32.8276 32.5862 32.6782L32.6772 32.5611C32.8049 32.4317 32.9223 32.2926 33.0284 32.145L33.1454 31.9759C33.2362 31.8311 33.3146 31.6788 33.3795 31.5207C33.4152 31.4583 33.4456 31.393 33.4705 31.3256C33.5356 31.1695 33.5746 31.0005 33.6266 30.8314V30.6363C33.7003 30.3822 33.744 30.1203 33.7567 29.856V11.6482C33.7567 10.6135 33.3456 9.62105 32.6139 8.88935C31.8822 8.15765 30.8898 7.74658 29.855 7.74658ZM11.6473 31.1565C11.3023 31.1565 10.9715 31.0195 10.7276 30.7756C10.4837 30.5317 10.3467 30.2009 10.3467 29.856V24.2506L14.6255 19.9588C14.7464 19.8369 14.8903 19.7401 15.0488 19.6741C15.2072 19.6081 15.3772 19.5741 15.5489 19.5741C15.7206 19.5741 15.8906 19.6081 16.0491 19.6741C16.2076 19.7401 16.3514 19.8369 16.4723 19.9588L27.6571 31.1565H11.6473ZM31.1556 29.856C31.1543 30.0163 31.1235 30.1751 31.0645 30.3242C31.0348 30.3876 31 30.4485 30.9605 30.5063C30.9257 30.5613 30.8865 30.6135 30.8434 30.6623L23.8855 23.7044L25.03 22.5599C25.1509 22.438 25.2947 22.3412 25.4532 22.2752C25.6117 22.2092 25.7817 22.1752 25.9533 22.1752C26.125 22.1752 26.295 22.2092 26.4535 22.2752C26.612 22.3412 26.7558 22.438 26.8767 22.5599L31.1556 26.8517V29.856ZM31.1556 23.1711L28.7105 20.7521C27.9662 20.0459 26.9793 19.6522 25.9533 19.6522C24.9273 19.6522 23.9405 20.0459 23.1962 20.7521L22.0517 21.8966L18.3061 18.151C17.5618 17.4448 16.5749 17.0511 15.5489 17.0511C14.5229 17.0511 13.536 17.4448 12.7918 18.151L10.3467 20.57V11.6482C10.3467 11.3033 10.4837 10.9725 10.7276 10.7286C10.9715 10.4847 11.3023 10.3477 11.6473 10.3477H29.855C30.1999 10.3477 30.5307 10.4847 30.7746 10.7286C31.0185 10.9725 31.1556 11.3033 31.1556 11.6482V23.1711ZM22.702 12.9488C22.3161 12.9488 21.939 13.0632 21.6181 13.2776C21.2973 13.4919 21.0473 13.7966 20.8996 14.1531C20.752 14.5095 20.7133 14.9018 20.7886 15.2802C20.8639 15.6586 21.0497 16.0062 21.3225 16.2791C21.5953 16.5519 21.943 16.7377 22.3214 16.813C22.6998 16.8882 23.092 16.8496 23.4485 16.702C23.805 16.5543 24.1097 16.3043 24.324 15.9834C24.5384 15.6626 24.6528 15.2855 24.6528 14.8996C24.6528 14.3822 24.4473 13.886 24.0814 13.5202C23.7156 13.1543 23.2194 12.9488 22.702 12.9488Z" fill="#0093CE"/>
<defs>
<filter id="filter0_d_346_3461" x="0" y="0" width="41.5024" height="41.5024" filterUnits="userSpaceOnUse" color-interpolation-filters="sRGB">
<feFlood flood-opacity="0" result="BackgroundImageFix"/>
<feColorMatrix in="SourceAlpha" type="matrix" values="0 0 0 0 0 0 0 0 0 0 0 0 0 0 0 0 0 0 127 0" result="hardAlpha"/>
<feOffset/>
<feGaussianBlur stdDeviation="2"/>
<feComposite in2="hardAlpha" operator="out"/>
<feColorMatrix type="matrix" values="0 0 0 0 0 0 0 0 0 0 0 0 0 0 0 0 0 0 0.15 0"/>
<feBlend mode="normal" in2="BackgroundImageFix" result="effect1_dropShadow_346_3461"/>
<feBlend mode="normal" in="SourceGraphic" in2="effect1_dropShadow_346_3461" result="shape"/>
</filter>
</defs>
</svg>
