<svg width="42" height="43" viewBox="0 0 42 43" fill="none" xmlns="http://www.w3.org/2000/svg">
<g filter="url(#filter0_d_346_3483)">
<path fill-rule="evenodd" clip-rule="evenodd" d="M28.4292 26.9322C28.3076 26.8093 28.1635 26.7121 28.0049 26.6462C27.8975 26.6015 27.785 26.5717 27.6703 26.5575C27.6157 26.5507 27.5607 26.5474 27.5054 26.5478H11.8924C11.5636 26.5478 11.2476 26.4209 11.0074 26.1939C10.9955 26.1827 10.9839 26.1712 10.9724 26.1595C10.7284 25.9109 10.5913 25.5737 10.5913 25.2222V11.966C10.5913 11.6144 10.7284 11.2772 10.9724 11.0286C10.9839 11.0169 10.9955 11.0055 11.0074 10.9943C11.2476 10.7672 11.5636 10.6404 11.8924 10.6404H30.1076C30.4364 10.6404 30.7524 10.7672 30.9926 10.9943C31.0045 11.0055 31.0161 11.0169 31.0276 11.0286C31.2716 11.2772 31.4087 11.6144 31.4087 11.966V29.9811L28.4292 26.9322ZM34.0109 33.1759C34.0096 33.4376 33.9323 33.693 33.7887 33.9101C33.6452 34.1271 33.4418 34.296 33.2042 34.3954C33.0498 34.4696 32.8805 34.506 32.7098 34.5015C32.5385 34.5025 32.3688 34.469 32.2103 34.4031C32.0518 34.3371 31.9076 34.2399 31.786 34.117L26.972 29.199H11.8924C10.8572 29.199 9.86438 28.78 9.13237 28.0342C9.12091 28.0225 9.10953 28.0108 9.09823 27.999C8.38759 27.2567 7.98913 26.2604 7.98913 25.2222V11.966C7.98913 10.9278 8.38759 9.93142 9.09823 9.18915C9.10953 9.17735 9.12091 9.1656 9.13237 9.15393C9.86438 8.40812 10.8572 7.98913 11.8924 7.98913L30.1076 7.98913C31.1428 7.98913 32.1356 8.40812 32.8676 9.15393C32.8791 9.1656 32.8905 9.17735 32.9018 9.18915C33.6124 9.93142 34.0109 10.9278 34.0109 11.966V33.1759ZM25.2946 33.1881H11.8924C9.7749 33.1881 7.75954 32.3304 6.28541 30.8285C4.81376 29.3291 4 27.3111 4 25.2222L4 11.966C4 9.87707 4.81376 7.85904 6.28541 6.35965C7.75954 4.85773 9.7749 4 11.8924 4L30.1076 4C32.2251 4 34.2405 4.85773 35.7146 6.35965C37.1862 7.85904 38 9.87707 38 11.966V33.1759L38 33.1954C37.9949 34.2283 37.6902 35.2426 37.1159 36.1108C36.5592 36.9525 35.7704 37.6239 34.8358 38.0359C34.1583 38.3443 33.4195 38.5004 32.6714 38.4905C31.9858 38.4865 31.3088 38.3487 30.6776 38.086C30.0276 37.8155 29.4413 37.419 28.9505 36.9229L28.9353 36.9075L25.2946 33.1881ZM27.6657 22.5608C27.9517 22.5247 28.2195 22.3925 28.4254 22.1827C28.6694 21.9341 28.8065 21.5969 28.8065 21.2453C28.8065 21.1953 28.8037 21.1457 28.7983 21.0965C28.7654 20.7997 28.6348 20.5212 28.4254 20.308C28.1814 20.0593 27.8505 19.9197 27.5054 19.9197H14.4946C14.1495 19.9197 13.8186 20.0593 13.5746 20.308C13.3652 20.5212 13.2346 20.7997 13.2017 21.0965C13.1962 21.1457 13.1935 21.1953 13.1935 21.2453C13.1935 21.5969 13.3306 21.9341 13.5746 22.1827C13.7765 22.3884 14.038 22.5196 14.3178 22.5586C14.3761 22.5668 14.4351 22.5709 14.4946 22.5709H27.5054C27.5593 22.5709 27.6128 22.5675 27.6657 22.5608ZM13.2017 16.0916C13.2346 16.3884 13.3652 16.6669 13.5746 16.8802C13.8186 17.1288 14.1495 17.2685 14.4946 17.2685H27.5054C27.8505 17.2685 28.1814 17.1288 28.4254 16.8802C28.6348 16.6669 28.7654 16.3884 28.7983 16.0916C28.8037 16.0425 28.8065 15.9928 28.8065 15.9428C28.8065 15.5913 28.6694 15.2541 28.4254 15.0055C28.2235 14.7997 27.962 14.6686 27.6822 14.6295C27.6239 14.6214 27.5649 14.6172 27.5054 14.6172H14.4946C14.4351 14.6172 14.3761 14.6214 14.3178 14.6295C14.038 14.6686 13.7765 14.7997 13.5746 15.0055C13.3306 15.2541 13.1935 15.5913 13.1935 15.9428C13.1935 15.9928 13.1962 16.0425 13.2017 16.0916Z" fill="white"/>
</g>
<path d="M27.5046 14.6169H14.4937C14.1486 14.6169 13.8177 14.7565 13.5737 15.0051C13.3297 15.2537 13.1926 15.5909 13.1926 15.9425C13.1926 16.294 13.3297 16.6312 13.5737 16.8798C13.8177 17.1284 14.1486 17.2681 14.4937 17.2681H27.5046C27.8496 17.2681 28.1806 17.1284 28.4246 16.8798C28.6686 16.6312 28.8057 16.294 28.8057 15.9425C28.8057 15.5909 28.6686 15.2537 28.4246 15.0051C28.1806 14.7565 27.8496 14.6169 27.5046 14.6169ZM27.5046 19.9193H14.4937C14.1486 19.9193 13.8177 20.059 13.5737 20.3076C13.3297 20.5562 13.1926 20.8934 13.1926 21.2449C13.1926 21.5965 13.3297 21.9337 13.5737 22.1823C13.8177 22.4309 14.1486 22.5706 14.4937 22.5706H27.5046C27.8496 22.5706 28.1806 22.4309 28.4246 22.1823C28.6686 21.9337 28.8057 21.5965 28.8057 21.2449C28.8057 20.8934 28.6686 20.5562 28.4246 20.3076C28.1806 20.059 27.8496 19.9193 27.5046 19.9193ZM30.1068 7.98877L11.8915 7.98877C10.8563 7.98877 9.86352 8.40776 9.13152 9.15356C8.39952 9.89937 7.98828 10.9109 7.98828 11.9656L7.98828 25.2218C7.98828 26.2765 8.39952 27.288 9.13152 28.0338C9.86352 28.7797 10.8563 29.1986 11.8915 29.1986H26.9711L31.7852 34.1167C31.9067 34.2395 32.0509 34.3367 32.2094 34.4027C32.368 34.4687 32.5377 34.5021 32.7089 34.5011C32.8796 34.5056 33.0489 34.4693 33.2033 34.3951C33.4409 34.2956 33.6443 34.1267 33.7879 33.9097C33.9314 33.6927 34.0087 33.4372 34.01 33.1755V11.9656C34.01 10.9109 33.5988 9.89937 32.8668 9.15356C32.1348 8.40776 31.142 7.98877 30.1068 7.98877ZM31.4078 29.9808L28.4284 26.9318C28.3068 26.809 28.1626 26.7118 28.0041 26.6458C27.8456 26.5798 27.6758 26.5464 27.5046 26.5474H11.8915C11.5465 26.5474 11.2155 26.4077 10.9715 26.1591C10.7275 25.9105 10.5905 25.5734 10.5905 25.2218V11.9656C10.5905 11.614 10.7275 11.2769 10.9715 11.0283C11.2155 10.7797 11.5465 10.64 11.8915 10.64H30.1068C30.4518 10.64 30.7828 10.7797 31.0268 11.0283C31.2708 11.2769 31.4078 11.614 31.4078 11.9656V29.9808Z" fill="#0093CE"/>
<defs>
<filter id="filter0_d_346_3483" x="0" y="0" width="42" height="42.491" filterUnits="userSpaceOnUse" color-interpolation-filters="sRGB">
<feFlood flood-opacity="0" result="BackgroundImageFix"/>
<feColorMatrix in="SourceAlpha" type="matrix" values="0 0 0 0 0 0 0 0 0 0 0 0 0 0 0 0 0 0 127 0" result="hardAlpha"/>
<feOffset/>
<feGaussianBlur stdDeviation="2"/>
<feComposite in2="hardAlpha" operator="out"/>
<feColorMatrix type="matrix" values="0 0 0 0 0 0 0 0 0 0 0 0 0 0 0 0 0 0 0.15 0"/>
<feBlend mode="normal" in2="BackgroundImageFix" result="effect1_dropShadow_346_3483"/>
<feBlend mode="normal" in="SourceGraphic" in2="effect1_dropShadow_346_3483" result="shape"/>
</filter>
</defs>
</svg>
