<svg width="161" height="75" viewBox="0 0 161 75" fill="none" xmlns="http://www.w3.org/2000/svg">
<path d="M50.5014 11.8247C50.5014 11.8682 50.5014 11.89 50.5014 11.89C50.5865 12.0642 50.5014 12.2385 50.2461 12.4127C50.2461 12.1949 50.2035 12.086 50.1184 12.086C50.0759 12.0425 50.0333 12.1078 49.9908 12.282C50.0759 12.4562 49.8844 12.6522 49.4163 12.87C48.5228 13.3926 48.0334 13.5451 47.9483 13.3273C47.9483 13.2838 47.9696 13.2184 48.0122 13.1313C47.9271 13.0878 47.7781 13.1531 47.5654 13.3273C47.3526 13.458 47.225 13.5015 47.1824 13.458C46.9697 13.4144 46.7356 13.458 46.4803 13.5886C46.225 13.6757 46.0548 13.7193 45.9697 13.7193C44.0975 13.8935 42.3316 13.9153 40.6721 13.7846C40.587 13.7411 40.5232 13.7846 40.4807 13.9153C40.4807 14.0024 40.4594 14.0459 40.4168 14.0459C40.3743 14.0895 40.2892 14.1113 40.1615 14.1113C40.0339 14.0677 39.9275 14.0459 39.8424 14.0459C39.7573 14.0024 39.6935 14.0024 39.6509 14.0459C39.268 14.0895 38.3957 14.0677 37.034 13.9806C35.9277 14.2855 34.8214 14.2855 33.7151 13.9806C33.3747 14.1113 32.9492 14.1766 32.4386 14.1766C31.9279 14.1766 31.6088 14.1984 31.4812 14.2419C31.1833 14.1548 30.8004 14.1548 30.3323 14.2419C29.8642 14.2855 29.5238 14.3073 29.3111 14.3073C29.1834 14.3073 29.0345 14.2419 28.8643 14.1113C28.4813 13.9806 28.2686 14.0242 28.226 14.2419C27.8856 14.1984 27.6516 14.2419 27.5239 14.3726C27.3963 14.4597 27.2899 14.6339 27.2048 14.8953C27.1623 15.113 27.1197 15.2655 27.0772 15.3526C27.0346 15.4397 26.9708 15.6139 26.8857 15.8752C26.8006 16.1365 26.758 16.3325 26.758 16.4632C26.6304 16.7245 26.5665 16.8987 26.5665 16.9859C25.1624 20.9928 23.6518 25.2176 22.0349 29.6601C22.0349 29.965 21.886 30.4223 21.5881 31.0321C21.3328 31.6418 21.2051 32.0338 21.2051 32.208C20.4392 33.9502 19.7584 35.6706 19.1627 37.3692C18.95 37.8047 18.801 38.1532 18.7159 38.4145C18.4606 39.0678 18.2479 39.4816 18.0777 39.6558C17.4394 40.7446 17.0139 41.7028 16.8011 42.5304C16.6309 42.8788 16.3331 43.5757 15.9076 44.621C15.4821 45.6227 15.1629 46.3631 14.9502 46.8422C14.9076 46.9729 14.9715 46.9076 15.1417 46.6462C15.2693 46.5591 15.3331 46.6027 15.3331 46.7769L15.014 47.4955C14.2481 49.4555 13.8013 50.5879 13.6737 50.8928C13.5034 51.2848 13.3332 51.655 13.163 52.0034C13.0354 52.3518 12.8865 52.6785 12.7163 52.9834C12.5886 53.2882 12.4822 53.5714 12.3971 53.8327C12.312 53.9633 12.2482 54.1158 12.2056 54.29C12.2056 54.4207 12.1631 54.5295 12.078 54.6167C11.9503 55.0522 11.7376 55.5531 11.4397 56.1193C11.1419 56.6419 10.9504 56.9686 10.8653 57.0992C10.5674 57.709 10.4185 58.0574 10.4185 58.1445C10.3334 58.2316 10.2696 58.3188 10.227 58.4059C10.227 58.4494 10.227 58.4712 10.227 58.4712C10.1419 58.5583 10.1207 58.6236 10.1632 58.6672C10.2058 58.7543 10.1632 58.885 10.0356 59.0592C9.95046 59.1898 9.90791 59.2552 9.90791 59.2552C9.90791 59.2987 9.86536 59.3858 9.78025 59.5165C9.7377 59.6036 9.67388 59.7125 9.58878 59.8431C9.54622 59.9303 9.52495 59.9956 9.52495 60.0391C9.52495 60.0827 9.41857 60.3658 9.20582 60.8884C9.12072 61.0627 8.97179 61.3458 8.75904 61.7378C8.71648 61.8684 8.69521 61.9338 8.69521 61.9338C8.69521 61.8902 8.71648 61.8684 8.75904 61.8684C8.75904 61.8249 8.75904 61.8031 8.75904 61.8031C8.71648 61.8031 8.69521 61.7813 8.69521 61.7378C8.90796 61.8249 8.88669 61.9555 8.63138 62.1297C8.54628 62.2169 8.50373 62.2169 8.50373 62.1297C8.54628 62.1297 8.54628 62.1515 8.50373 62.1951L8.31225 62.4564C8.2697 62.4564 8.20587 62.4128 8.12077 62.3257C7.99312 62.108 7.90802 62.108 7.86547 62.3257C7.82292 62.3693 7.82292 62.4128 7.86547 62.4564C7.86547 62.4999 7.75909 62.5435 7.54634 62.5871C7.37613 62.5435 7.31231 62.3693 7.35486 62.0644C7.35486 61.7595 7.39741 61.3893 7.48251 60.9538C7.56761 60.5182 7.61016 60.2787 7.61016 60.2351C7.69526 60.1045 7.75909 59.9303 7.80164 59.7125C7.92929 59.5383 8.01439 59.3205 8.05695 59.0592C8.05695 58.7543 8.05695 58.4494 8.05695 58.1445C8.01439 57.7961 7.99312 57.6001 7.99312 57.5566C7.95057 57.2952 8.03567 56.3588 8.24842 54.7473C8.33353 54.1376 8.50373 53.3536 8.75904 52.3954C8.97179 51.4372 9.09944 50.8274 9.14199 50.5661C9.26964 50.2612 9.37602 49.8475 9.46112 49.3248C9.54622 48.8022 9.58878 48.5191 9.58878 48.4755C9.75898 48.04 9.92918 47.4084 10.0994 46.5809C10.3121 45.7098 10.5036 45.0783 10.6738 44.6863C10.7589 44.6427 10.7802 44.5339 10.7376 44.3596C10.6951 44.1854 10.6951 44.0548 10.7376 43.9677C10.7802 43.837 10.8227 43.7063 10.8653 43.5757C10.9079 43.4015 10.9504 43.2708 10.993 43.1837C11.0355 43.053 11.0568 42.9441 11.0568 42.857C11.0993 42.7264 11.1206 42.6393 11.1206 42.5957C11.1632 42.5086 11.1844 42.4215 11.1844 42.3344C11.227 42.2473 11.2483 42.1602 11.2483 42.073C11.2908 41.9859 11.3121 41.8771 11.3121 41.7464C11.3546 41.6157 11.3972 41.5286 11.4397 41.4851C11.7801 39.8736 12.0142 38.85 12.1418 38.4145C12.2695 37.6741 12.5461 36.3892 12.9716 34.56C13.4396 32.6871 13.7375 31.2716 13.8651 30.3134C13.9077 30.1392 13.9502 29.9868 13.9928 29.8561C14.0353 29.6819 14.0779 29.5295 14.1204 29.3988C14.163 29.2681 14.2055 29.1375 14.2481 29.0068C14.2906 28.789 14.4608 28.0922 14.7587 26.9162C15.0991 25.6967 15.3757 24.782 15.5884 24.1723C15.6735 23.6061 15.8437 22.8439 16.099 21.8857C16.3544 20.884 16.5033 20.2089 16.5458 19.8604C16.6309 19.6427 16.8437 19.0547 17.1841 18.0965C17.5671 17.1383 17.7798 16.3979 17.8224 15.8752C18.2053 15.309 18.2479 15.0041 17.95 14.9606C17.6947 14.917 17.3756 15.0041 16.9926 15.2219C16.1841 15.1784 14.9927 15.2872 13.4183 15.5486C11.844 15.7663 10.6951 15.897 9.97173 15.9406H9.20582H9.26964L9.14199 16.0712C8.88669 16.2019 8.73776 16.2019 8.69521 16.0712C8.56756 16.1148 8.41863 16.1365 8.24842 16.1365C8.03567 16.1365 7.88674 16.1365 7.80164 16.1365C7.67399 16.093 7.58889 16.093 7.54634 16.1365H7.41868L7.35486 16.2672C7.31231 16.093 7.18465 16.0494 6.9719 16.1365C6.92935 16.1365 6.90807 16.1148 6.90807 16.0712C6.90807 16.0277 6.92935 15.9841 6.9719 15.9406C6.84425 15.897 6.78042 15.9841 6.78042 16.2019C6.78042 16.2454 6.78042 16.289 6.78042 16.3325C6.82297 16.3325 6.75915 16.3979 6.58894 16.5285C6.46129 16.5285 6.16343 16.5721 5.69538 16.6592C5.18477 16.7028 4.84436 16.7028 4.67416 16.6592L4.41885 16.7899H4.48268L4.61033 16.8552C4.39758 16.8552 4.26992 16.8116 4.22737 16.7245C4.22737 16.8116 4.18482 16.877 4.09972 16.9205C3.97207 16.9641 3.82314 16.9859 3.65294 16.9859C3.48273 16.9859 3.37636 16.9859 3.33381 16.9859C2.9934 17.1165 2.52534 17.2254 1.92963 17.3125C1.29137 17.3996 0.972237 17.4432 0.972237 17.4432L0.716932 17.5085C0.58928 17.4214 0.504178 17.3561 0.461627 17.3125C0.546729 17.1818 0.525454 17.1165 0.397801 17.1165L0.333974 16.9859C-0.304288 16.8116 -0.0277073 16.485 1.16372 16.0059C1.24882 15.9623 1.35519 15.9188 1.48285 15.8752L2.05728 15.6139C2.14238 15.6139 2.22749 15.6139 2.31259 15.6139C2.39769 15.5703 2.44024 15.5268 2.44024 15.4832C2.52534 15.4832 2.67427 15.4397 2.88702 15.3526C3.09978 15.2655 3.26998 15.2001 3.39763 15.1566C3.48273 15.113 3.54656 15.113 3.58911 15.1566C3.67421 15.1566 3.80187 15.1348 3.97207 15.0912C4.14227 15.0041 4.24865 14.9606 4.2912 14.9606C4.33375 14.9606 4.39758 15.0041 4.48268 15.0912C4.82308 14.8299 4.88691 14.6775 4.67416 14.6339C4.58906 14.6339 4.48268 14.6775 4.35503 14.7646C4.31248 14.721 4.39758 14.6557 4.61033 14.5686C4.82309 14.4379 5.05711 14.3291 5.31242 14.2419C5.52517 14.1548 5.6741 14.0895 5.7592 14.0459C6.09961 13.9153 6.54639 13.7193 7.09955 13.458C7.61016 13.1531 8.0144 12.9571 8.31225 12.87C8.90796 12.6522 9.31219 12.478 9.52495 12.3473C9.90791 12.2602 10.3972 12.1296 10.993 11.9553C11.6312 11.7376 12.078 11.5851 12.3333 11.498C12.5035 11.4545 12.695 11.4109 12.9077 11.3674C13.1205 11.3238 13.2907 11.2803 13.4183 11.2367C13.546 11.1932 13.6524 11.1496 13.7375 11.106C14.0779 10.9754 14.6098 10.8012 15.3331 10.5834C16.0565 10.3221 16.6735 10.1261 17.1841 9.99541C17.7373 9.86475 18.3117 9.75586 18.9074 9.66876L19.0351 9.60342L19.3542 9.3421C19.652 9.25499 19.8861 9.10255 20.0563 8.88478C20.3541 8.75412 20.6945 8.68879 21.0775 8.68879C21.2051 8.73234 21.3541 8.75412 21.5243 8.75412C21.6945 8.75412 21.8434 8.75412 21.9711 8.75412C22.1413 8.71056 22.2902 8.68879 22.4178 8.68879C22.5455 8.64523 22.6731 8.60168 22.8008 8.55812C22.971 8.51457 23.0774 8.49279 23.1199 8.49279C25.8006 8.0137 27.4814 7.70882 28.1622 7.57816C28.375 7.62171 28.6303 7.55638 28.9281 7.38216C29.2685 7.20795 29.5451 7.14261 29.7579 7.18617C29.8004 7.22972 29.8642 7.27328 29.9493 7.31683C30.0344 7.44749 30.0983 7.42572 30.1408 7.2515C30.1408 7.16439 30.1408 7.07728 30.1408 6.99018C30.311 7.03373 30.4599 7.01195 30.5876 6.92485C30.7153 6.83774 30.7791 6.7724 30.7791 6.72885C30.8216 6.64174 30.9067 6.64174 31.0344 6.72885C31.0769 6.6853 31.1195 6.64174 31.162 6.59819C31.2897 6.64174 31.3748 6.66352 31.4173 6.66352C31.4599 6.66352 31.5237 6.64174 31.6088 6.59819C31.7365 6.51108 31.8216 6.46752 31.8641 6.46752C31.9492 6.46752 32.1407 6.4893 32.4386 6.53286C32.779 6.53286 32.9917 6.53286 33.0768 6.53286C33.247 6.40219 33.4811 6.31509 33.7789 6.27153C34.0768 6.22798 34.3746 6.18442 34.6725 6.14087C34.9703 6.05376 35.2044 5.96665 35.3746 5.87954C35.5873 5.87954 35.715 5.87954 35.7575 5.87954C36.0554 5.87954 36.332 5.85777 36.5873 5.81421C36.8851 5.77066 37.1191 5.7271 37.2894 5.68355C37.4596 5.63999 37.5659 5.61822 37.6085 5.61822C37.7787 5.61822 38.1404 5.61822 38.6935 5.61822C39.2467 5.61822 39.736 5.59644 40.1615 5.55289C40.6296 5.46578 40.9487 5.33512 41.1189 5.1609C41.4168 5.42223 41.6721 5.40045 41.8848 5.09557C42.2252 5.18268 42.5444 5.1609 42.8422 5.03024C43.0124 4.98668 43.4167 4.94313 44.0549 4.89958C44.7357 4.81247 45.2038 4.6818 45.4591 4.50759C45.6719 4.5947 45.991 4.61647 46.4165 4.57292C46.842 4.48581 47.1824 4.48581 47.4377 4.57292C47.4803 4.74714 47.6292 5.03024 47.8845 5.42223C48.1824 5.81421 48.3738 6.09731 48.4589 6.27153C48.4164 6.57641 48.5228 6.88129 48.7781 7.18617C49.0759 7.44749 49.2461 7.62171 49.2887 7.70882C49.7142 8.05725 50.0333 8.62346 50.2461 9.40743C50.5014 10.1479 50.5652 10.7794 50.4375 11.302C50.3524 11.3456 50.3099 11.3891 50.3099 11.4327C50.3099 11.4763 50.3312 11.5634 50.3737 11.694C50.4588 11.7811 50.5014 11.8247 50.5014 11.8247ZM4.16355 15.0912C4.121 15.1784 4.14227 15.2437 4.22737 15.2872L4.16355 15.0912ZM4.22737 15.4179C4.22737 15.4179 4.24865 15.4179 4.2912 15.4179H4.22737ZM4.61033 15.2872C4.65288 15.2872 4.75926 15.2655 4.92946 15.2219L5.05711 15.1566C5.14222 15.2001 5.18477 15.1784 5.18477 15.0912C4.84436 15.0477 4.65288 15.113 4.61033 15.2872ZM7.99312 14.5033C7.78037 14.4597 7.69526 14.3944 7.73782 14.3073L7.41868 14.4379L7.54634 14.5033C7.63144 14.5468 7.69526 14.5686 7.73782 14.5686L7.67399 14.5033C7.71654 14.5468 7.82292 14.5904 7.99312 14.6339C8.24842 14.5468 8.29098 14.5033 8.12077 14.5033H7.99312ZM6.78042 14.7646L7.03573 14.6993C6.90807 14.6993 6.82297 14.721 6.78042 14.7646ZM5.7592 14.9606L6.46129 14.6993C6.46129 14.6993 6.37619 14.721 6.20599 14.7646L5.7592 14.9606ZM5.88686 15.9406H6.01451C6.01451 15.9406 5.99323 15.9406 5.95068 15.9406C5.90813 15.9406 5.88686 15.9406 5.88686 15.9406ZM6.65277 16.2019L6.58894 16.2672H6.65277V16.2019ZM7.67399 15.6139V15.6792L7.80164 15.6139C7.80164 15.6139 7.78037 15.6139 7.73782 15.6139H7.67399ZM7.09955 15.9406C7.1421 15.6792 7.41868 15.4832 7.92929 15.3526C8.14205 15.3526 8.24842 15.3308 8.24842 15.2872C8.24842 15.2437 8.1846 15.2219 8.05695 15.2219C7.97184 15.0912 8.01439 15.0041 8.1846 14.9606H8.12077C8.07822 14.9606 8.01439 14.9606 7.92929 14.9606C7.97184 14.917 7.99312 14.8953 7.99312 14.8953C7.90802 14.9388 7.84419 14.9606 7.80164 14.9606H7.73782C7.65271 15.0041 7.54634 15.0477 7.41868 15.0912C7.29103 15.0912 7.18465 15.113 7.09955 15.1566C7.01445 15.1566 6.92935 15.1784 6.84425 15.2219C6.7166 15.2219 6.65277 15.2219 6.65277 15.2219C6.48257 15.309 6.22726 15.4179 5.88686 15.5486L5.5039 15.6792C5.63155 15.6792 6.07833 15.6139 6.84425 15.4832C7.01445 15.5268 7.03573 15.5703 6.90807 15.6139C6.61022 15.6575 6.46129 15.7446 6.46129 15.8752C6.54639 16.0059 6.67404 16.0059 6.84425 15.8752C6.9719 15.7446 7.057 15.7663 7.09955 15.9406ZM8.95051 15.8752C8.90796 15.8752 8.90796 15.9188 8.95051 16.0059C9.03561 16.0059 9.07817 15.9841 9.07817 15.9406C9.03561 15.897 8.99306 15.8752 8.95051 15.8752ZM9.01434 15.6792C8.92924 15.5921 8.92924 15.5268 9.01434 15.4832C9.09944 15.4832 9.14199 15.4615 9.14199 15.4179L8.50373 15.4832C8.50373 15.5268 8.52501 15.5703 8.56756 15.6139H8.50373C8.50373 15.6575 8.50373 15.6792 8.50373 15.6792C8.54628 15.6792 8.61011 15.6575 8.69521 15.6139C8.73776 15.5268 8.78031 15.5486 8.82286 15.6792C8.86541 15.7663 8.92924 15.7663 9.01434 15.6792ZM11.0568 12.2167L10.993 12.282C11.0781 12.282 11.0993 12.2602 11.0568 12.2167ZM7.35486 62.1297C7.39741 62.1297 7.41868 62.1297 7.41868 62.1297H7.35486ZM8.24842 61.8031L8.31225 61.7378C8.3548 61.6071 8.37608 61.5418 8.37608 61.5418L8.24842 61.7378C8.24842 61.7378 8.24842 61.7595 8.24842 61.8031ZM8.4399 57.1646V57.2299H8.50373L8.4399 57.1646ZM8.82286 55.8579V55.9233C8.82286 55.9233 8.82286 55.9015 8.82286 55.8579ZM10.61 45.209C10.61 45.2525 10.61 45.2743 10.61 45.2743V45.209ZM11.6312 50.6314C11.6738 50.9363 11.7376 50.9799 11.8227 50.7621C11.7801 50.7186 11.7163 50.675 11.6312 50.6314ZM11.8865 49.7168L11.8227 49.8475C11.8652 49.8039 11.8865 49.7604 11.8865 49.7168ZM11.9503 49.3248C11.9503 49.2813 11.9503 49.2595 11.9503 49.2595H11.8865L11.9503 49.3248ZM14.5672 47.6262C14.5672 47.844 14.6098 47.844 14.6949 47.6262L14.631 47.4955L14.5672 47.6262ZM47.5654 5.61822C47.5228 5.57466 47.5015 5.55289 47.5015 5.55289L47.5654 5.94487V5.81421C47.5228 5.77066 47.5015 5.7271 47.5015 5.68355C47.5441 5.63999 47.5654 5.61822 47.5654 5.61822ZM47.9483 6.27153V6.33686C47.9909 6.33686 47.9909 6.31509 47.9483 6.27153ZM49.9908 11.3674C49.9482 11.3238 49.9057 11.2803 49.8631 11.2367C49.8631 11.3238 49.9057 11.3674 49.9908 11.3674Z" fill="#0093CE"/>
<path d="M64.605 17.8352C64.9454 17.8787 65.2645 18.0747 65.5624 18.4231C65.6049 18.5103 65.5411 18.5756 65.3709 18.6191C65.3283 18.6191 65.2432 18.6409 65.1156 18.6845H64.9879L64.605 18.8805H64.7326C64.8177 18.8805 64.8603 18.8805 64.8603 18.8805L64.4773 19.0111C64.3922 19.0547 64.2859 19.12 64.1582 19.2071L64.0305 19.2724C63.7752 19.4031 63.6263 19.4467 63.5838 19.4031C63.4987 19.4467 63.371 19.4902 63.2008 19.5338C63.0732 19.5773 62.9455 19.6427 62.8178 19.7298C62.7327 19.7733 62.6689 19.8169 62.6264 19.8604C62.4562 19.8604 62.3285 19.904 62.2434 19.9911C62.1583 20.0782 62.0519 20.1218 61.9243 20.1218C61.6264 20.2524 61.2222 20.4266 60.7116 20.6444C60.2435 20.8622 59.8393 21.0364 59.4989 21.1671C59.201 21.2977 58.9457 21.3848 58.733 21.4284C58.5628 21.6026 58.4138 21.6679 58.2862 21.6244C58.0309 21.6679 57.733 21.7768 57.3926 21.951C57.0948 22.0817 56.7969 22.2124 56.4991 22.343C56.2438 22.4737 55.9884 22.6043 55.7331 22.735C55.5204 22.8221 55.3289 22.8657 55.1587 22.8657C55.0311 22.8657 54.9459 22.8003 54.9034 22.6697L54.5204 22.6043C54.5204 22.5608 54.563 22.5172 54.6481 22.4737C50.4356 24.9998 47.1591 26.5895 44.8189 27.2429C43.3721 27.8526 42.436 28.1575 42.0105 28.1575C41.2446 28.593 40.9042 29.1375 40.9893 29.7908C40.9042 29.7908 40.8404 29.8343 40.7978 29.9214C40.7553 29.965 40.7765 30.0303 40.8616 30.1174C40.9042 30.2481 40.8829 30.4223 40.7978 30.6401C40.7127 30.8143 40.734 30.9232 40.8616 30.9667C40.7765 31.3587 40.6702 31.7507 40.5425 32.1427C40.4148 32.4911 40.351 32.7525 40.351 32.9267C40.3085 33.1009 40.2446 33.2751 40.1595 33.4493C40.117 33.58 40.0957 33.6453 40.0957 33.6453C40.1383 33.8195 39.9893 34.4293 39.6489 35.4746C39.5213 35.9101 39.5851 36.1279 39.8404 36.1279C39.883 36.0844 39.9468 36.0626 40.0319 36.0626C41.0106 35.9319 41.7339 35.9537 42.202 36.1279C42.9679 35.9972 43.3934 35.9755 43.4785 36.0626C43.5211 35.9755 44.3295 35.9101 45.9039 35.8666L46.9251 35.7359C46.9251 35.7359 46.8826 35.7359 46.7975 35.7359C46.5847 35.6924 46.6485 35.6488 46.9889 35.6053C47.0741 35.6053 47.1592 35.627 47.2443 35.6706C47.3294 35.7141 47.3932 35.7795 47.4357 35.8666C47.5208 35.9101 47.5847 35.9319 47.6272 35.9319C47.5847 36.019 47.6059 36.0626 47.691 36.0626C47.8187 36.0626 47.9038 36.0844 47.9463 36.1279C47.9889 36.1279 48.0102 36.1497 48.0102 36.1932C48.0527 36.1932 48.0953 36.2368 48.1378 36.3239C48.2229 36.4546 48.2655 36.4981 48.2655 36.4546C48.1804 36.6723 48.1165 36.6723 48.074 36.4546C48.0314 36.5417 48.074 36.6506 48.2016 36.7812C48.3719 36.8683 48.2655 36.999 47.8825 37.1732C47.4996 37.4781 46.7336 38.1532 45.5848 39.1985C44.4359 40.2438 43.5211 40.9624 42.8402 41.3544C42.5849 41.4851 42.3296 41.6375 42.0743 41.8117C41.819 41.9424 41.585 42.0731 41.3722 42.2037C41.202 42.2908 41.0318 42.3779 40.8616 42.465C40.8616 42.5086 40.8616 42.5304 40.8616 42.5304C40.4361 42.661 40.0106 42.857 39.5851 43.1184C39.2021 43.3361 38.883 43.4668 38.6277 43.5103C38.3299 43.5539 38.0107 43.7281 37.6703 44.033C37.3299 44.3379 37.0959 44.4903 36.9682 44.4903C36.4151 45.4049 35.7343 46.7769 34.9258 48.6062C34.1599 50.4355 33.7556 51.4154 33.7131 51.5461C33.628 51.851 33.4365 52.1776 33.1387 52.5261C32.8834 52.8309 32.777 53.0705 32.8195 53.2447C32.777 53.3754 32.6919 53.506 32.5642 53.6367C32.4366 53.7238 32.3515 53.7891 32.3089 53.8327C32.2664 53.8762 32.2876 53.9416 32.3727 54.0287C32.3302 54.1593 32.2451 54.2464 32.1174 54.29C31.9898 54.3336 31.8834 54.4207 31.7983 54.5513C31.7132 54.7691 31.6281 54.9869 31.543 55.2046C31.4579 55.3789 31.3515 55.5313 31.2239 55.662C31.1388 55.7926 31.0324 55.9668 30.9047 56.1846C30.8196 56.3588 30.7345 56.533 30.6494 56.7073C30.5218 56.8815 30.4154 57.0339 30.3303 57.1646C30.2452 57.2952 30.1814 57.4041 30.1388 57.4912C30.0963 57.5783 30.0324 57.6872 29.9473 57.8179C29.9048 57.9485 29.8622 58.0574 29.8197 58.1445C29.8197 58.1881 29.7559 58.297 29.6282 58.4712C29.5431 58.6019 29.4793 58.7543 29.4367 58.9285C29.3942 59.0592 29.3729 59.1681 29.3729 59.2552C29.5431 59.2116 29.6282 59.2116 29.6282 59.2552C29.5431 59.4294 29.458 59.4947 29.3729 59.4512C29.2878 59.3641 29.2453 59.3423 29.2453 59.3858C29.2027 59.5165 29.2027 59.5818 29.2453 59.5818L29.4367 59.6472C29.3091 59.9956 29.2027 60.0827 29.1176 59.9085C29.0751 59.8214 29.0325 59.7996 28.99 59.8431C28.99 59.8867 29.0325 59.952 29.1176 60.0391C29.2453 60.1698 29.2453 60.2569 29.1176 60.3005C29.0325 60.3876 28.99 60.4965 28.99 60.6271C28.99 60.7142 28.9049 60.6925 28.7346 60.5618V61.0844L28.6708 61.0191C28.5857 61.0627 28.5432 61.0844 28.5432 61.0844C28.7134 61.2151 28.7134 61.3022 28.5432 61.3458C28.4155 61.3458 28.373 61.3675 28.4155 61.4111C28.373 61.4982 28.3091 61.6289 28.224 61.8031C28.1389 61.9338 28.0751 62.0426 28.0326 62.1297C28.0326 62.1733 28.0113 62.2822 27.9687 62.4564C27.9262 62.5871 27.9262 62.6959 27.9687 62.7831C28.0538 62.7831 28.0964 62.7395 28.0964 62.6524C28.1389 62.6088 28.224 62.5871 28.3517 62.5871C28.5219 62.5435 28.6283 62.5653 28.6708 62.6524C28.5432 62.5217 28.5006 62.4128 28.5432 62.3257C28.5857 62.1951 28.6283 62.108 28.6708 62.0644C28.7559 62.0209 28.8623 61.9773 28.99 61.9338C29.1176 61.8466 29.2027 61.7813 29.2453 61.7378C29.458 61.6942 29.6495 61.5418 29.8197 61.2804C30.0324 61.0191 30.1814 60.8667 30.2665 60.8231C30.3516 60.8231 30.4154 60.7796 30.458 60.6925C30.5431 60.6053 30.5856 60.54 30.5856 60.4965C30.6282 60.4529 30.692 60.4529 30.7771 60.4965C30.8622 60.3658 30.926 60.2787 30.9686 60.2351C31.0537 60.1916 31.16 60.1698 31.2877 60.1698C31.4153 60.1698 31.5005 60.1698 31.543 60.1698C31.6281 59.8649 31.8621 59.6472 32.2451 59.5165C32.628 59.3423 32.7982 59.1027 32.7557 58.7979C32.7557 58.8414 32.7344 58.8632 32.6919 58.8632C32.7344 58.8196 32.7557 58.8414 32.7557 58.9285C32.7982 59.0156 32.7982 59.0592 32.7557 59.0592C32.8408 59.0592 32.8834 59.0374 32.8834 58.9939C32.8834 58.9067 32.8834 58.8632 32.8834 58.8632C33.011 58.8196 33.0748 58.7979 33.0748 58.7979C33.1174 58.885 33.1599 58.885 33.2025 58.7979C33.245 58.6672 33.3089 58.6236 33.394 58.6672C33.3514 58.5365 33.4365 58.4276 33.6493 58.3405C33.862 58.2099 33.9684 58.1445 33.9684 58.1445C34.5641 57.317 35.096 56.8379 35.5641 56.7073C35.6492 56.6637 35.7343 56.5766 35.8194 56.4459C35.947 56.2717 36.0534 56.1846 36.1385 56.1846C36.5214 55.8362 36.7129 55.662 36.7129 55.662C36.798 55.6184 36.8406 55.5966 36.8406 55.5966C36.8831 55.5095 36.9895 55.466 37.1597 55.466C37.1597 55.466 37.181 55.4224 37.2235 55.3353C37.2661 55.2482 37.2874 55.2046 37.2874 55.2046C37.3299 55.1611 37.3937 55.1611 37.4788 55.2046C37.5214 54.9869 37.6278 54.8344 37.798 54.7473L37.8618 54.682H37.9256C38.1809 54.4642 38.415 54.3553 38.6277 54.3553C38.7554 54.2247 38.9043 54.0504 39.0745 53.8327C39.2447 53.6585 39.3298 53.6367 39.3298 53.7673C39.8404 53.0269 40.3085 52.6567 40.734 52.6567C40.8191 52.6567 40.8616 52.6785 40.8616 52.722V52.6567C40.734 52.5261 40.7978 52.4172 41.0531 52.3301C41.3084 52.243 41.3722 52.1123 41.2446 51.9381C41.585 51.8945 41.7552 51.8945 41.7552 51.9381C41.7126 51.8074 41.7126 51.7203 41.7552 51.6767C41.8403 51.5896 41.9254 51.5461 42.0105 51.5461C42.0956 51.5025 42.1382 51.459 42.1382 51.4154C42.1382 51.2848 42.2233 51.1977 42.3935 51.1541C42.5637 51.1105 42.6488 51.0888 42.6488 51.0888C42.7764 51.0017 42.9041 50.9145 43.0317 50.8274C43.1594 50.6968 43.2658 50.6097 43.3509 50.5661C43.436 50.479 43.5211 50.4355 43.6062 50.4355C44.2019 49.9999 44.6699 49.6515 45.0103 49.3902C45.138 49.303 45.2444 49.2159 45.3295 49.1288C45.4146 49.0417 45.4997 48.9764 45.5848 48.9328C45.6699 48.8893 45.7337 48.8457 45.7762 48.8022C45.8614 48.7586 45.9465 48.6933 46.0316 48.6062C46.1167 48.5191 46.2018 48.432 46.2869 48.3449C46.6273 48.3013 46.84 48.1924 46.9251 48.0182C47.0528 47.844 47.1804 47.7569 47.3081 47.7569C47.3506 47.5827 47.4145 47.4955 47.4996 47.4955C47.5847 47.4955 47.6272 47.4738 47.6272 47.4302C48.2229 46.9947 48.5421 46.7769 48.5846 46.7769C48.6272 46.6898 48.691 46.6027 48.7761 46.5156C48.8612 46.3849 48.925 46.2978 48.9676 46.2543C49.1803 46.1236 49.4356 46.1018 49.7335 46.1889C50.0313 46.0583 50.2228 46.1671 50.3079 46.5156C49.8399 46.9511 49.5845 47.1689 49.542 47.1689C49.542 47.1253 49.542 47.0818 49.542 47.0382C49.3718 47.2124 49.2229 47.4084 49.0952 47.6262C49.0101 47.8004 48.925 47.9093 48.8399 47.9529C48.8399 48.04 48.7335 48.1489 48.5208 48.2795C48.308 48.4102 48.2016 48.4755 48.2016 48.4755C48.2016 48.5191 48.2229 48.5626 48.2655 48.6062C48.308 48.6497 48.2868 48.6715 48.2016 48.6715C48.074 48.7151 47.9463 48.8675 47.8187 49.1288C47.2655 49.8257 46.7762 50.3048 46.3507 50.5661V50.7621C46.3507 50.8057 46.3294 50.8492 46.2869 50.8928C46.0741 51.1977 45.9465 51.3065 45.9039 51.2194C45.8188 51.1323 45.7762 51.0888 45.7762 51.0888C45.7337 51.0888 45.7124 51.1323 45.7124 51.2194C45.755 51.263 45.755 51.2848 45.7124 51.2848L45.5848 51.1541L45.6486 51.4808V51.6114C45.606 51.6114 45.5422 51.6768 45.4571 51.8074C45.372 51.8945 45.2656 52.0034 45.138 52.1341C45.0529 52.2647 44.9465 52.3518 44.8189 52.3954C44.7763 52.4389 44.7125 52.5043 44.6274 52.5914C44.5848 52.6349 44.5423 52.7003 44.4997 52.7874C44.4572 52.8309 44.4146 52.8527 44.3721 52.8527C43.3934 54.2464 42.3296 55.2046 41.1808 55.7273C40.968 55.5095 40.8616 55.466 40.8616 55.5966C40.8616 55.6837 40.8404 55.7491 40.7978 55.7926C40.7978 55.8362 40.8404 55.8797 40.9255 55.9233C41.0957 56.0975 41.1382 56.2282 41.0531 56.3153C40.7978 56.5766 40.6702 56.7073 40.6702 56.7073C40.5851 56.925 40.5212 56.925 40.4787 56.7073C40.4361 56.6637 40.4148 56.6201 40.4148 56.5766L40.351 56.7073C40.3936 56.9686 40.3723 57.121 40.2872 57.1646C40.2021 57.1646 40.1383 57.2081 40.0957 57.2952C39.9681 57.3388 39.7553 57.4912 39.4575 57.7525C39.2021 57.9703 39.0107 58.0792 38.883 58.0792C38.7979 58.1228 38.7554 58.1445 38.7554 58.1445C38.6703 58.0139 38.6277 58.0357 38.6277 58.2099C38.5852 58.1228 38.5639 58.1445 38.5639 58.2752C38.5213 58.493 38.4788 58.6019 38.4362 58.6019C38.3086 58.689 38.2235 58.6454 38.1809 58.4712C38.3086 58.8196 38.3299 59.0592 38.2448 59.1898C38.1597 59.3205 37.9469 59.4947 37.6065 59.7125C37.3086 59.9303 37.1172 60.0609 37.0321 60.1045C36.9044 60.1916 36.798 60.2787 36.7129 60.3658C36.6278 60.4529 36.5214 60.5618 36.3938 60.6925C36.3087 60.8231 36.2236 60.932 36.1385 61.0191C36.0534 61.1062 35.9683 61.1716 35.8832 61.2151C35.7555 61.3022 35.6279 61.3893 35.5002 61.4764C35.3726 61.5635 35.2875 61.6289 35.2449 61.6724C35.2024 61.6724 35.1598 61.716 35.1173 61.8031C35.0747 61.8466 35.0322 61.912 34.9896 61.9991C34.8194 62.0426 34.6918 62.1297 34.6067 62.2604C34.5216 62.3911 34.479 62.4782 34.479 62.5217C33.5429 63.3057 32.7344 63.8501 32.0536 64.155C32.0111 64.1986 32.0111 64.2421 32.0536 64.2857C31.9685 64.3292 31.9047 64.3292 31.8621 64.2857C31.7345 64.1115 31.7132 64.0026 31.7983 63.959C31.8834 63.9155 31.9472 63.9808 31.9898 64.155C32.0323 63.8937 31.9898 63.763 31.8621 63.763C31.777 63.763 31.6494 63.8066 31.4792 63.8937C31.309 63.9808 31.2239 64.0244 31.2239 64.0244C30.7984 64.2857 30.5643 64.4599 30.5218 64.547C30.6494 64.547 30.6494 64.6559 30.5218 64.8737C30.4792 65.0479 30.5005 65.135 30.5856 65.135C30.5856 65.0914 30.6282 65.0479 30.7133 65.0043L30.9686 64.8083C31.1813 64.5906 31.3728 64.5688 31.543 64.743C31.6707 64.8301 31.6281 64.9172 31.4154 65.0043C31.2451 65.135 30.9473 65.2874 30.5218 65.4616C30.0963 65.6794 29.7984 65.919 29.6282 66.1803C29.5431 66.3109 29.0963 66.5505 28.2879 66.8989C28.1177 66.986 28.0964 67.0514 28.224 67.0949C28.1815 67.2691 28.0751 67.2909 27.9049 67.1603C27.7347 67.0296 27.6496 66.9643 27.6496 66.9643C27.8198 67.2691 27.756 67.4434 27.4581 67.4869C27.2028 67.574 27.0752 67.6394 27.0752 67.6829C27.2879 67.6394 27.4156 67.6394 27.4581 67.6829C27.5007 67.7265 27.4581 67.77 27.3305 67.8136C27.2028 67.9007 27.0964 67.9442 27.0113 67.9442C26.8837 67.9442 26.5858 68.0096 26.1178 68.1402C25.6497 68.3144 25.3944 68.2927 25.3519 68.0749C25.3944 68.2055 25.3944 68.2927 25.3519 68.3362C25.3093 68.3798 25.2668 68.4015 25.2242 68.4015C25.2242 68.4015 25.2029 68.4015 25.1604 68.4015C25.0753 68.2709 24.9051 68.162 24.6498 68.0749C24.437 67.9878 24.3094 67.9007 24.2668 67.8136C22.6073 67.8136 21.5648 67.5522 21.1393 67.0296C20.7138 66.5505 20.7351 65.6141 21.2032 64.2203C21.0755 64.1332 21.0542 63.9372 21.1393 63.6324C21.2244 63.2839 21.267 63.0879 21.267 63.0444C21.3095 62.9137 21.3734 62.7613 21.4585 62.5871C21.501 62.4128 21.5223 62.3257 21.5223 62.3257C21.8201 61.4547 22.2669 59.952 22.8626 57.8179C23.2456 56.8161 23.4584 56.2935 23.5009 56.2499C23.4584 56.0757 23.4371 55.9668 23.4371 55.9233C23.4796 55.8362 23.5222 55.7273 23.5647 55.5966C23.6498 55.4224 23.6924 55.3135 23.6924 55.27C25.0966 51.3065 25.9263 49.0853 26.1816 48.6062C25.9688 48.4755 25.8625 48.3884 25.8625 48.3449V48.2142C25.6497 48.1706 25.5008 48.1271 25.4157 48.0835C25.3306 47.9964 25.2455 47.8658 25.1604 47.6915C25.0753 47.5173 24.9689 47.3867 24.8413 47.2996C24.7136 47.2124 24.4157 47.0818 23.9477 46.9076C23.4796 46.7334 23.1392 46.5591 22.9265 46.3849C22.7137 46.2107 22.6924 46.0147 22.8626 45.7969C22.9477 45.6227 22.9265 45.5792 22.7988 45.6663L22.4159 45.9929C21.8627 45.5138 21.5861 45.2525 21.5861 45.209C21.5436 45.1218 21.4797 45.013 21.3946 44.8823C21.1819 44.5774 21.1606 44.3814 21.3308 44.2943C21.3308 44.2072 21.3734 44.1201 21.4585 44.033C21.501 43.9023 21.5223 43.8152 21.5223 43.7717C21.6074 43.5103 21.8414 43.249 22.2244 42.9877C22.6073 42.6828 22.8626 42.4433 22.9903 42.2691C22.9903 42.1384 23.0967 42.0077 23.3094 41.8771C23.5222 41.7464 23.6286 41.6593 23.6286 41.6157C23.6711 41.5286 23.7349 41.4851 23.82 41.4851C23.8626 41.4851 23.8839 41.4633 23.8839 41.4197C25.7561 40.2438 27.3092 39.5034 28.5432 39.1985C28.5857 39.1114 28.6495 39.0678 28.7346 39.0678C28.8623 39.0243 28.99 39.0025 29.1176 39.0025C29.2878 38.9589 29.3942 38.9154 29.4367 38.8718C29.7346 38.7412 29.9261 38.4798 30.0112 38.0878C30.0963 37.6959 30.1601 37.4781 30.2027 37.4345C30.5431 36.7812 30.7345 36.3239 30.7771 36.0626C30.8196 36.019 30.8409 35.9537 30.8409 35.8666C30.8835 35.7795 30.9047 35.7141 30.9047 35.6706C30.9047 35.5835 30.926 35.5399 30.9686 35.5399C31.2664 34.9737 31.5643 34.168 31.8621 33.1227C32.2025 32.0774 32.4791 31.2934 32.6919 30.7708C32.4791 30.8143 32.2025 30.7707 31.8621 30.6401C31.5643 30.5094 31.3515 30.4659 31.2239 30.5094C30.7984 30.6401 30.4367 30.6183 30.1388 30.4441C29.8835 30.2699 29.6495 30.0086 29.4367 29.6601C29.224 29.2681 29.0538 29.0068 28.9261 28.8761C28.841 28.7019 28.7134 28.5713 28.5432 28.4842C28.373 28.3535 28.1815 28.2446 27.9687 28.1575C27.756 28.0704 27.6071 27.9615 27.522 27.8308C27.2241 27.5695 26.9901 27.3517 26.8199 27.1775C26.6922 27.0033 26.5646 26.8509 26.4369 26.7202C26.3093 26.5896 26.288 26.4589 26.3731 26.3282C26.4582 26.154 26.5007 26.0451 26.5007 26.0016C26.5433 25.9145 26.6709 25.7402 26.8837 25.4789C27.139 25.174 27.3305 24.9563 27.4581 24.8256C27.5007 24.782 27.5432 24.7385 27.5858 24.6949C28.0538 24.5643 28.3091 24.4772 28.3517 24.4336C28.5219 24.3465 28.6495 24.2812 28.7346 24.2376C28.8623 24.1941 28.9687 24.1723 29.0538 24.1723C29.1389 24.1287 29.2027 24.0852 29.2453 24.0416C29.4155 23.9981 29.5431 23.9327 29.6282 23.8456C29.7133 23.7585 29.7771 23.715 29.8197 23.715C30.2027 23.8892 30.4792 23.8892 30.6494 23.715C30.8622 23.5408 31.0749 23.4754 31.2877 23.519C31.5005 23.4319 31.5005 23.3665 31.2877 23.323C31.3302 23.1488 31.4153 23.0399 31.543 22.9963C31.7132 22.9528 31.8621 22.9746 31.9898 23.0617C32.1174 23.1052 32.1813 23.1705 32.1813 23.2577L32.3089 23.1923C32.3089 23.0617 32.3727 22.9528 32.5004 22.8657C32.6281 22.735 32.777 22.6479 32.9472 22.6043C33.1174 22.5172 33.3089 22.4519 33.5216 22.4083C33.7769 22.3212 33.9897 22.2559 34.1599 22.2124C34.3301 22.1688 34.479 22.147 34.6067 22.147C34.7769 22.1035 34.862 22.0817 34.862 22.0817C36.3087 21.6462 37.3086 21.4284 37.8618 21.4284C38.2022 21.3848 38.8192 21.1671 39.7128 20.7751C41.6275 20.5573 42.7339 20.4049 43.0317 20.3178C43.0317 20.492 43.1381 20.5573 43.3509 20.5137L43.4147 20.4484C43.5423 20.5355 43.7338 20.5791 43.9891 20.5791C44.287 20.5355 44.4572 20.5355 44.4997 20.5791C44.8827 20.1435 45.5635 19.9693 46.5422 20.0564C46.5422 20.1871 46.5847 20.2306 46.6698 20.1871C46.7549 20.1 46.7975 20.0782 46.7975 20.1218C46.84 20.1218 46.9038 20.1435 46.9889 20.1871C47.1166 20.1871 47.2017 20.2089 47.2443 20.2524C47.2868 20.2089 47.3506 20.1435 47.4357 20.0564C47.5208 19.9693 47.5847 19.904 47.6272 19.8604C47.7123 19.8169 47.7974 19.7733 47.8825 19.7298C47.9676 19.6862 48.0314 19.6862 48.074 19.7298C48.1591 19.7298 48.2229 19.7733 48.2655 19.8604C48.7335 19.6427 49.308 19.4902 49.9888 19.4031C50.7121 19.316 51.2653 19.316 51.6483 19.4031C51.6908 19.4031 51.7334 19.4249 51.7759 19.4684C51.8185 19.3378 51.9461 19.2289 52.1589 19.1418C52.3716 19.0547 52.5206 19.0547 52.6057 19.1418C52.9886 19.2724 53.1801 19.3378 53.1801 19.3378C53.2652 19.2507 53.3928 19.1636 53.563 19.0765C53.7332 18.9458 53.8822 18.8805 54.0098 18.8805C54.0949 18.8369 54.2013 18.8151 54.329 18.8151C54.4566 18.7716 54.563 18.7716 54.6481 18.8151C54.7332 18.8151 54.797 18.8369 54.8396 18.8805C54.9247 18.8805 54.9885 18.8805 55.031 18.8805C55.1161 18.8805 55.3289 18.8369 55.6693 18.7498C56.0097 18.6191 56.2437 18.5756 56.3714 18.6191C56.6693 18.7498 56.882 18.7716 57.0097 18.6845C57.1373 18.5538 57.2862 18.4885 57.4564 18.4885C58.1373 18.4885 58.7542 18.4667 59.3074 18.4231C59.8606 18.336 60.3074 18.3143 60.6478 18.3578C60.7754 18.532 60.9882 18.5538 61.286 18.4231V18.2925C61.2009 18.1183 61.2435 18.0747 61.4137 18.1618C61.7115 18.336 61.8605 18.4231 61.8605 18.4231C61.8605 18.4231 61.8392 18.4014 61.7966 18.3578C61.4988 18.2271 61.4988 18.1618 61.7966 18.1618C61.9243 18.1618 62.0307 18.1618 62.1158 18.1618C62.2009 18.0747 62.52 18.0094 63.0732 17.9658C63.6689 17.9223 64.0093 17.8787 64.0944 17.8352C64.0944 17.8787 64.1156 17.8787 64.1582 17.8352C64.2859 17.8787 64.3497 17.8787 64.3497 17.8352C64.3922 17.7916 64.4773 17.7916 64.605 17.8352ZM31.6707 23.3883C31.7132 23.3883 31.7345 23.3883 31.7345 23.3883H31.6707ZM49.6697 46.7769C49.6271 46.7769 49.6058 46.7769 49.6058 46.7769H49.6697ZM48.5846 47.4955H48.5208C48.4357 47.5827 48.4144 47.6262 48.457 47.6262C48.457 47.6262 48.4995 47.5827 48.5846 47.4955ZM47.9463 48.2142C47.9463 48.2142 47.9251 48.2577 47.8825 48.3449C47.84 48.3884 47.8187 48.4102 47.8187 48.4102L48.5208 47.6915H48.457L47.9463 48.2142ZM40.7978 56.1193C40.7978 56.0757 40.7978 56.0539 40.7978 56.0539C40.7978 56.0539 40.7765 56.0539 40.734 56.0539L40.7978 56.1193ZM38.4362 54.486C38.3511 54.4424 38.3086 54.4207 38.3086 54.4207V54.5513H38.3724L38.4362 54.486ZM37.6065 56.4459L37.9894 55.9886C37.9894 55.9886 37.9469 56.0104 37.8618 56.0539C37.6065 56.2717 37.5214 56.4024 37.6065 56.4459ZM37.7341 57.8179C37.5214 57.905 37.3725 58.0357 37.2874 58.2099C37.2874 58.2534 37.3086 58.2752 37.3512 58.2752C37.5639 58.1881 37.6916 58.0357 37.7341 57.8179ZM36.8406 58.6019C36.798 58.6019 36.7555 58.6454 36.7129 58.7325C36.6704 58.7761 36.6491 58.7979 36.6491 58.7979L36.7129 58.8632L37.0321 58.5365C36.9895 58.5365 36.9257 58.5583 36.8406 58.6019ZM30.2027 65.3963C30.4154 65.2221 30.5005 65.135 30.458 65.135C30.4154 65.135 30.2878 65.1568 30.075 65.2003C30.0324 65.2874 30.075 65.3528 30.2027 65.3963ZM47.2443 35.8013C47.2443 35.7577 47.223 35.7141 47.1804 35.6706L47.2443 35.8013ZM43.6062 38.6105C43.6062 38.5669 43.6062 38.5452 43.6062 38.5452C43.6062 38.5452 43.5849 38.5452 43.5423 38.5452L43.6062 38.6105ZM43.287 38.8065V38.8718C43.3296 38.8718 43.3296 38.85 43.287 38.8065ZM54.0098 20.0564V19.9911C53.9673 19.9911 53.9673 20.0129 54.0098 20.0564ZM54.0098 19.9258C53.9673 19.9258 53.946 19.9258 53.946 19.9258H54.0098ZM53.6269 22.2777C53.6694 22.2341 53.712 22.2124 53.7545 22.2124C53.7545 21.951 53.6481 21.9075 53.4354 22.0817C53.3503 22.1252 53.3503 22.1688 53.4354 22.2124C53.4779 22.2559 53.5418 22.2777 53.6269 22.2777ZM56.0523 19.6644C56.0948 19.708 56.1161 19.7298 56.1161 19.7298L56.0523 19.6644ZM57.7756 19.4684L58.2862 19.4031C58.4989 19.4031 58.6053 19.4031 58.6053 19.4031L58.733 19.3378C58.5202 19.3378 58.2011 19.3813 57.7756 19.4684Z" fill="#0093CE"/>
<path d="M78.2 26.9815C78.7531 26.938 79.2212 27.0686 79.6041 27.3735C79.9871 27.6784 80.1573 28.0704 80.1147 28.5495C80.1999 28.7237 80.2211 28.8979 80.1786 29.0721C80.1786 29.2463 80.1573 29.3988 80.1147 29.5295C80.0722 29.6601 80.0084 29.7908 79.9233 29.9214C79.8807 30.0085 79.8594 30.0521 79.8594 30.0521C79.7743 30.1392 79.6892 30.2481 79.6041 30.3788C79.519 30.4659 79.4339 30.553 79.3488 30.6401C79.3063 30.6836 79.2637 30.7272 79.2212 30.7707C79.3488 30.8579 79.3276 30.9885 79.1574 31.1627C79.0297 31.337 78.8595 31.5329 78.6467 31.7507C78.434 31.9249 78.3276 32.0556 78.3276 32.1427C76.7107 34.5817 74.6044 37.5434 72.0088 41.0277C71.7961 41.202 71.6684 41.3762 71.6259 41.5504C71.5833 41.6811 71.5833 41.8335 71.6259 42.0077C71.711 42.1384 71.7961 42.269 71.8812 42.3997C71.9663 42.5304 72.0726 42.6828 72.2003 42.857C72.3279 43.0312 72.3918 43.2055 72.3918 43.3797C72.4769 43.5974 72.6471 43.9459 72.9024 44.425C73.2002 44.8605 73.3704 45.2743 73.413 45.6663C73.5832 45.6227 73.8385 46.08 74.1789 47.0382C74.3491 47.3867 74.5406 47.8222 74.7533 48.3448C75.0087 48.8239 75.2214 49.2595 75.3916 49.6515C75.5618 50.0435 75.7107 50.4355 75.8384 50.8274C75.9235 51.1759 76.0724 51.6332 76.2852 52.1994C76.4979 52.722 76.6681 53.2229 76.7958 53.702C76.966 54.1376 77.1362 54.6384 77.3064 55.2046C77.5191 55.7708 77.6893 56.2935 77.817 56.7726C77.9872 57.2517 78.1361 57.7743 78.2638 58.3405C78.434 58.8632 78.5616 59.3641 78.6467 59.8431C78.6893 59.9303 78.6893 60.0174 78.6467 60.1045C78.6467 60.1916 78.6467 60.2569 78.6467 60.3005C78.6893 60.3005 78.6893 60.344 78.6467 60.4311C78.6467 60.4747 78.668 60.5182 78.7106 60.5618C78.7106 60.5618 78.7106 60.5836 78.7106 60.6271H78.6467C78.6467 60.7578 78.668 60.9973 78.7106 61.3458C78.7957 61.6506 78.8595 61.9773 78.902 62.3257C78.9871 62.6742 79.051 63.0226 79.0935 63.371C79.1786 63.7195 79.1999 64.0026 79.1574 64.2203C79.1574 64.4381 79.1148 64.5252 79.0297 64.4817C79.0297 64.4817 79.0297 64.4599 79.0297 64.4163C78.9446 64.2421 78.9233 64.2203 78.9659 64.351C78.9659 64.3946 78.9871 64.4817 79.0297 64.6123V64.6777C78.902 64.6777 78.8169 64.6994 78.7744 64.743C78.7318 64.743 78.7318 64.7865 78.7744 64.8737C78.7318 64.7865 78.6893 64.6777 78.6467 64.547C78.6042 64.4163 78.5616 64.3074 78.5191 64.2203C78.4765 64.0897 78.434 64.0026 78.3914 63.959C78.3489 63.9155 78.3063 63.8501 78.2638 63.763C78.2212 63.763 78.2 63.7412 78.2 63.6977C78.2851 63.8719 78.3702 64.0026 78.4553 64.0897C78.4127 64.1768 78.4127 64.2421 78.4553 64.2857C78.4978 64.3292 78.5191 64.3728 78.5191 64.4163C78.5616 64.7212 78.5404 64.8954 78.4553 64.939C78.4553 65.0261 78.434 65.0043 78.3914 64.8737V64.6123C78.434 64.6123 78.434 64.6123 78.3914 64.6123C78.3914 64.5688 78.3914 64.5252 78.3914 64.4817L78.2638 64.6123V64.6777C78.2638 64.5905 78.2425 64.4817 78.2 64.351C78.1574 64.2203 78.1149 64.155 78.0723 64.155C78.0723 64.1115 78.1149 64.0679 78.2 64.0243C78.1574 63.9808 78.1149 63.8719 78.0723 63.6977L77.9446 63.6324C77.8595 63.4581 77.8383 63.3493 77.8808 63.3057C77.9659 63.4364 77.9659 63.4146 77.8808 63.2404C77.8808 63.1968 77.8596 63.1315 77.817 63.0444C77.6042 62.7395 77.5191 62.5871 77.5617 62.5871C77.4341 62.4564 77.4766 62.3693 77.6894 62.3257C77.6468 62.2386 77.5617 62.108 77.434 61.9337C77.3489 61.716 77.3064 61.5853 77.3064 61.5418V61.4111L77.5617 61.9991C77.5617 61.3458 77.3915 60.7796 77.0511 60.3005L77.1149 60.6271C77.0724 60.6271 77.0298 60.5836 76.9873 60.4965L76.7958 60.3005C77.0511 60.7796 77.1149 61.0409 76.9873 61.0844C76.9447 61.0409 76.8809 60.9538 76.7958 60.8231C76.6256 60.4747 76.4554 60.344 76.2852 60.4311C76.3277 60.3005 76.3277 60.2134 76.2852 60.1698C76.2426 60.1263 76.1788 60.0827 76.0937 60.0391C76.0086 59.9956 75.9448 59.9303 75.9022 59.8431C75.8171 59.756 75.6469 59.4947 75.3916 59.0592L75.0086 58.4712C75.0086 58.5147 75.0725 58.6672 75.2001 58.9285C75.0725 58.7978 74.8384 58.5147 74.498 58.0792C74.2002 57.6001 74.03 57.3388 73.9874 57.2952L73.9236 57.3606C74.0087 57.4912 74.0725 57.5566 74.1151 57.5566C74.0725 57.6437 73.9662 57.5783 73.796 57.3606C73.7109 57.2734 73.6683 57.1646 73.6683 57.0339C73.5406 56.9903 73.413 56.925 73.2853 56.8379C73.2002 56.7508 73.1151 56.6419 73.03 56.5112C72.9449 56.337 72.9024 56.2499 72.9024 56.2499C72.7747 56.2064 72.7322 56.2717 72.7747 56.4459H72.6471C72.562 56.141 72.5194 56.141 72.5194 56.4459C72.4769 56.2717 72.3705 56.1193 72.2003 55.9886C72.0301 55.8579 71.9663 55.7273 72.0088 55.5966C71.9663 55.5531 71.9237 55.5531 71.8812 55.5966C71.8386 55.5966 71.7961 55.5313 71.7535 55.4006C71.6259 55.1829 71.6471 55.1393 71.8173 55.27C71.9024 55.3135 72.0514 55.466 72.2641 55.7273C72.4769 55.945 72.5833 56.0104 72.5833 55.9233C72.2854 55.5313 71.6897 54.9215 70.7961 54.094C69.9451 53.2229 69.4558 52.6349 69.3281 52.3301C69.0303 52.1558 68.8601 51.9381 68.8175 51.6767C68.8175 51.3719 68.775 51.1976 68.6899 51.1541C68.6473 51.1105 68.5622 51.067 68.4345 51.0234C68.3069 50.9363 68.2218 50.8928 68.1793 50.8928C68.1367 50.8492 68.0941 50.7839 68.0516 50.6968C68.009 50.6097 67.9878 50.5226 67.9878 50.4354C67.9452 50.479 67.9027 50.479 67.8601 50.4354C67.8176 50.3919 67.7537 50.3266 67.6686 50.2394C67.6261 50.1523 67.5835 50.1306 67.541 50.1741C67.4984 50.087 67.4133 49.9346 67.2857 49.7168C67.158 49.499 67.0729 49.3466 67.0304 49.2595C66.9453 49.2595 66.8602 49.2377 66.7751 49.1942C66.7325 49.107 66.69 49.0417 66.6474 48.9982C66.6049 48.9546 66.5623 48.8893 66.5198 48.8022C66.4772 48.6715 66.4559 48.6062 66.4559 48.6062C66.3708 48.6062 66.2432 48.7586 66.073 49.0635C65.9028 49.3248 65.7964 49.4773 65.7539 49.5208C65.3283 50.1741 64.9667 50.6314 64.6688 50.8928C64.4561 51.3283 64.3497 51.5461 64.3497 51.5461C63.6689 52.2429 63.2008 52.8745 62.9455 53.4407C62.2221 54.2682 61.286 55.5095 60.1371 57.1646C59.7967 57.6001 59.2649 58.3188 58.5415 59.3205C57.8181 60.2787 57.265 60.9538 56.882 61.3458C56.7118 61.6506 56.3501 62.1515 55.797 62.8484C55.2438 63.5453 54.9034 64.0026 54.7757 64.2203C54.6906 64.3946 54.6055 64.5252 54.5204 64.6123C54.4353 64.6994 54.3715 64.7648 54.329 64.8083C54.2864 64.8083 54.2226 64.8519 54.1375 64.939C54.0524 64.9825 53.9673 65.0479 53.8822 65.135C53.7971 65.3092 53.712 65.4834 53.6269 65.6576C53.4992 65.8318 53.3503 66.0496 53.1801 66.3109C52.9673 66.5723 52.8184 66.7247 52.7333 66.7683C52.6057 66.8118 52.478 66.7683 52.3503 66.6376C52.3078 66.8118 52.244 66.8989 52.1589 66.8989C52.0738 66.8554 52.0312 66.8554 52.0312 66.8989C52.1589 66.986 52.2227 67.0949 52.2227 67.2256C52.1801 67.3562 52.1376 67.4651 52.095 67.5522C52.0099 67.5958 51.9036 67.6611 51.7759 67.7482C51.6483 67.8353 51.5844 67.9007 51.5844 67.9442C51.4142 68.2055 51.1589 68.4886 50.8185 68.7935C50.4781 69.0984 50.2866 69.2944 50.2441 69.3815C50.2015 69.4251 50.1377 69.4686 50.0526 69.5122C49.9675 69.7735 49.776 70.0566 49.4782 70.3615C49.1378 70.6664 48.9463 70.8841 48.9037 71.0148C48.9037 71.0148 48.8399 71.0801 48.7122 71.2108L48.6484 71.1455C48.6484 71.1455 48.5846 71.189 48.457 71.2761C48.3293 71.4503 48.2655 71.5592 48.2655 71.6028C48.308 71.6028 48.3293 71.6028 48.3293 71.6028C48.3293 71.6899 48.2229 71.7334 48.0102 71.7334H48.1378C48.1378 71.9512 48.0314 72.169 47.8187 72.3867C47.691 72.4303 47.6485 72.4739 47.691 72.5174C47.7336 72.6045 47.691 72.6481 47.5634 72.6481C47.5634 72.6916 47.457 72.8441 47.2442 73.1054C47.0315 73.3667 46.8187 73.5845 46.606 73.7587C46.3507 73.9765 46.2443 74.0636 46.2869 74.02L46.223 74.0854V74.1507C46.1805 74.2378 46.1592 74.3031 46.1592 74.3467C46.1167 74.3902 46.0316 74.4338 45.9039 74.4773C45.7762 74.5645 45.6911 74.6516 45.6486 74.7387C45.5209 74.8693 45.3933 74.9129 45.2656 74.8693C45.0954 74.8258 44.9891 74.8693 44.9465 75V74.8693C44.8189 74.7387 44.7125 74.6951 44.6274 74.7387C44.4572 74.8258 44.4146 74.7822 44.4997 74.608C44.6274 74.3031 44.6912 74.1289 44.6912 74.0854C44.7763 74.0854 44.8189 74.0418 44.8189 73.9547C44.7763 73.9111 44.7976 73.8676 44.8827 73.824C45.0954 73.3885 45.3295 73.0183 45.5848 72.7134L45.7124 72.4521C45.7975 72.4085 45.8613 72.3432 45.9039 72.2561C45.9464 72.2125 45.989 72.169 46.0316 72.1254C46.0316 72.0819 46.0528 72.0383 46.0954 71.9948H46.0316L45.9677 71.9294C46.0103 71.8859 46.0528 71.8205 46.0954 71.7334C46.1379 71.6463 46.1805 71.5592 46.223 71.4721C46.223 71.385 46.223 71.2979 46.223 71.2108C46.223 71.1672 46.2443 71.1019 46.2869 71.0148C46.2869 70.9712 46.3081 70.9277 46.3507 70.8841C46.3932 70.797 46.4783 70.6664 46.606 70.4921C46.6485 70.3615 46.7124 70.209 46.7975 70.0348C46.84 69.8606 46.8826 69.7299 46.9251 69.6428C46.9677 69.5557 47.0528 69.4904 47.1804 69.4468C47.0528 69.2291 47.1166 68.9677 47.3719 68.6629C47.457 68.6193 47.5208 68.6193 47.5634 68.6629L47.6272 68.5975V68.4669C47.5421 68.1184 47.7761 67.5958 48.3293 66.8989C48.3293 66.6376 48.4144 66.3545 48.5846 66.0496C48.7548 65.7447 48.8612 65.5487 48.9037 65.4616C48.9463 65.3745 48.9888 65.2874 49.0314 65.2003C49.0314 65.1132 49.0527 65.0479 49.0952 65.0043C49.1378 64.9608 49.2016 64.9172 49.2867 64.8737C49.2016 64.3946 49.2654 64.1768 49.4782 64.2203C49.5207 64.1768 49.5633 64.1332 49.6058 64.0897C49.776 63.8719 49.925 63.6324 50.0526 63.371C50.1377 63.0662 50.1803 62.9137 50.1803 62.9137C50.4356 62.6524 50.627 62.2822 50.7547 61.8031C50.8823 61.6289 51.01 61.4764 51.1376 61.3458C51.2653 61.1715 51.3504 61.0409 51.393 60.9538C51.4355 60.8667 51.4993 60.7796 51.5844 60.6925C51.5844 60.7796 51.6057 60.8231 51.6483 60.8231L51.5844 60.4965C51.9674 59.8867 52.244 59.3858 52.4142 58.9938C52.7546 58.3405 53.2439 57.6001 53.8822 56.7726C54.0524 56.3806 54.2013 56.0757 54.329 55.8579C54.4141 55.6402 54.563 55.4006 54.7757 55.1393C54.9459 54.8344 55.1161 54.6166 55.2864 54.486C55.4566 54.3553 55.648 54.3118 55.8608 54.3553C55.3502 53.9198 55.5417 53.3754 56.4352 52.722C56.4778 52.722 56.5203 52.7003 56.5629 52.6567C56.648 52.6567 56.6905 52.6132 56.6905 52.5261C56.5629 52.5261 56.5416 52.4172 56.6267 52.1994C56.6267 52.1123 56.6267 52.0687 56.6267 52.0687C56.7544 51.851 56.9246 51.5679 57.1373 51.2194C57.3501 50.871 57.5203 50.5661 57.6479 50.3048C57.8181 49.9999 57.9671 49.7386 58.0947 49.5208C58.2649 49.303 58.3926 49.1942 58.4777 49.1942C58.5628 49.1506 58.6053 49.107 58.6053 49.0635C58.6479 48.9764 58.6904 48.9328 58.733 48.9328C58.7755 48.6715 58.8181 48.5408 58.8606 48.5408C58.9032 48.5408 58.9457 48.5191 58.9883 48.4755C59.1159 48.3448 59.2223 48.1489 59.3074 47.8875C59.3925 47.5826 59.4563 47.3431 59.4989 47.1689C59.584 46.9947 59.6904 46.9293 59.818 46.9729C59.9031 46.7551 60.0095 46.6898 60.1371 46.7769C60.1797 46.6027 60.2435 46.5591 60.3286 46.6462C60.3286 46.6027 60.3499 46.4502 60.3925 46.1889C60.4776 45.884 60.5627 45.6663 60.6478 45.5356C60.7329 45.2307 61.0094 44.7299 61.4775 44.033C61.9456 43.3361 62.1583 42.7917 62.1158 42.3997C61.9456 41.9642 61.7328 41.7464 61.4775 41.7464C61.4349 41.7028 61.3924 41.6375 61.3498 41.5504C61.3498 41.4197 61.3286 41.3326 61.286 41.2891C61.2435 41.202 61.1796 41.1584 61.0945 41.1584C61.0945 40.9406 61.0307 40.7446 60.9031 40.5704C60.818 40.3962 60.6903 40.222 60.5201 40.0478C60.3924 39.8736 60.3074 39.7647 60.2648 39.7211C59.7967 38.7629 59.4776 38.1967 59.3074 38.0225C59.3074 37.9354 59.3074 37.8918 59.3074 37.8918C58.7542 36.8465 58.2862 35.8884 57.9032 35.0173C57.6479 34.5382 57.4352 34.0591 57.265 33.58C57.1373 33.1009 57.0309 32.7525 56.9458 32.5347C56.8607 32.3169 56.7331 32.1863 56.5629 32.1427C56.5203 31.7072 56.3501 31.2063 56.0523 30.6401C56.0097 30.553 55.9459 30.4223 55.8608 30.2481C55.7757 30.0303 55.7119 29.8779 55.6693 29.7908C55.5842 29.6601 55.4991 29.4859 55.414 29.2681C55.3289 29.0504 55.2651 28.8761 55.2225 28.7455C55.18 28.6148 55.1374 28.4624 55.0949 28.2882C55.0523 28.0704 55.0523 27.8962 55.0949 27.7655C55.0949 27.6348 55.1162 27.5042 55.1587 27.3735C55.2013 27.2429 55.2864 27.134 55.414 27.0469C55.4991 26.9598 55.6055 26.8726 55.7331 26.7855C56.2437 26.5242 56.9458 26.3064 57.8394 26.1322C58.733 25.958 59.2223 25.958 59.3074 26.1322C59.35 26.0887 59.3925 26.0451 59.4351 26.0016V25.9362C59.7329 26.0233 60.1584 26.0887 60.7116 26.1322C61.3073 26.1322 61.7541 26.1976 62.0519 26.3282C62.1796 26.5024 62.3072 26.6767 62.4349 26.8509C62.6051 27.0251 62.7327 27.1775 62.8178 27.3082C62.9455 27.4388 63.0306 27.6131 63.0732 27.8308C63.371 27.9179 63.5838 28.1575 63.7114 28.5495C63.8816 28.8979 64.0305 29.1157 64.1582 29.2028C64.2433 29.377 64.3497 29.5077 64.4773 29.5948C64.605 29.6819 64.6901 29.7472 64.7326 29.7908C64.7326 30.1392 64.7752 30.4005 64.8603 30.5748C64.9879 30.749 65.1369 30.8143 65.3071 30.7707C65.2645 30.8143 65.2858 30.9014 65.3709 31.0321C65.456 31.1192 65.4985 31.1627 65.4985 31.1627C65.5411 31.337 65.7113 31.6854 66.0092 32.208C66.3496 32.6871 66.4985 33.1227 66.4559 33.5147C66.6261 33.6889 66.7751 33.7978 66.9027 33.8413C67.0304 33.8413 67.1368 33.7978 67.2219 33.7106C67.307 33.6235 67.3708 33.5147 67.4133 33.384C67.4984 33.2533 67.5623 33.1227 67.6048 32.992C67.6899 32.8178 67.7537 32.6871 67.7963 32.6C67.8388 32.4694 67.8601 32.3823 67.8601 32.3387C67.9027 32.2951 67.9665 32.2951 68.0516 32.3387C68.0941 32.3823 68.1792 32.3387 68.3069 32.208C68.3494 32.208 68.392 32.1863 68.4345 32.1427C68.3494 31.9685 68.4133 31.7507 68.626 31.4894C68.8813 31.2281 68.9877 31.0103 68.9452 30.8361C68.9877 30.7054 69.0515 30.5747 69.1366 30.4441C69.2217 30.3134 69.2856 30.2045 69.3281 30.1174C69.3707 30.0303 69.4345 29.9432 69.5196 29.8561C69.6047 29.7254 69.6685 29.6601 69.7111 29.6601C69.7962 29.6166 69.8813 29.5948 69.9664 29.5948C70.094 29.5512 70.2217 29.5512 70.3493 29.5948C70.4344 29.5512 70.477 29.4859 70.477 29.3988C70.5195 29.2681 70.5408 29.1592 70.5408 29.0721C70.5408 28.9415 70.5621 28.8544 70.6046 28.8108C70.6472 28.7673 70.711 28.7673 70.7961 28.8108C70.8812 28.7237 70.9238 28.6584 70.9238 28.6148C71.2216 28.4841 71.3493 28.4406 71.3067 28.4841C71.3067 28.4406 71.3067 28.2664 71.3067 27.9615L71.562 28.0268C72.6684 27.8962 73.7108 27.7437 74.6895 27.5695C75.115 27.2211 75.7107 27.0033 76.4767 26.9162C77.2426 26.7855 77.817 26.8073 78.2 26.9815ZM45.7124 72.9747H45.7762C45.8188 72.8876 45.8401 72.8441 45.8401 72.8441C45.7975 72.8441 45.755 72.8876 45.7124 72.9747ZM46.0954 74.02L46.1592 73.9547V73.8894C46.1167 73.9329 46.0954 73.9765 46.0954 74.02ZM47.7549 72.2561V72.3214C47.7549 72.2779 47.7549 72.2561 47.7549 72.2561ZM54.2651 56.9032L54.329 56.8379C54.329 56.7944 54.3077 56.7726 54.2651 56.7726C54.2651 56.8161 54.2651 56.8597 54.2651 56.9032ZM54.5204 56.3153V56.3806H54.5843L54.5204 56.3153ZM56.882 52.1341L56.9458 52.2647C56.9884 52.2647 56.9884 52.2429 56.9458 52.1994C56.9033 52.1558 56.882 52.1341 56.882 52.1341ZM60.8392 46.1889C60.7967 46.4067 60.818 46.472 60.9031 46.3849C60.9031 46.3414 60.8818 46.276 60.8392 46.1889ZM61.0945 45.7316C61.1371 45.7316 61.1584 45.7316 61.1584 45.7316H61.0945ZM78.8382 63.8937L78.9659 64.2203C78.9659 64.2203 78.9446 64.1768 78.902 64.0897C78.8595 63.959 78.8382 63.8937 78.8382 63.8937ZM78.902 64.6123L78.8382 64.4163C78.8382 64.4599 78.8595 64.5034 78.902 64.547C78.902 64.5906 78.902 64.6123 78.902 64.6123ZM78.7106 64.351C78.7957 64.351 78.7744 64.2421 78.6467 64.0243C78.6042 64.0679 78.6042 64.1332 78.6467 64.2203C78.6893 64.2639 78.7106 64.3074 78.7106 64.351ZM76.2852 60.0391L76.349 60.1045C76.349 60.1045 76.3277 60.0827 76.2852 60.0391ZM75.5193 55.5313C75.4767 55.6184 75.498 55.7491 75.5831 55.9233C75.7107 56.0975 75.8171 56.1628 75.9022 56.1193L75.5193 55.27L75.4554 55.4006V55.466L75.5193 55.5313ZM75.2001 54.4207L75.3916 54.878C75.3916 54.878 75.3703 54.8126 75.3278 54.682C75.2427 54.5078 75.2001 54.4207 75.2001 54.4207ZM75.2001 54.3553C74.9023 53.6149 74.7321 53.2229 74.6895 53.1794C74.647 53.2229 74.647 53.31 74.6895 53.4407C74.7321 53.5278 74.7746 53.6149 74.8172 53.702C74.8597 53.7891 74.9023 53.8762 74.9448 53.9633C74.9874 54.0504 75.0086 54.094 75.0086 54.094C75.0512 54.094 75.0725 54.1158 75.0725 54.1593C75.115 54.2464 75.1576 54.3118 75.2001 54.3553Z" fill="#0093CE"/>
<path d="M124.665 7.3171C124.665 7.36066 124.665 7.38243 124.665 7.38243C124.751 7.55665 124.665 7.73087 124.41 7.90508C124.41 7.68731 124.368 7.57843 124.282 7.57843C124.24 7.53487 124.197 7.6002 124.155 7.77442C124.24 7.94864 124.048 8.14463 123.58 8.3624C122.687 8.88505 122.197 9.03749 122.112 8.81972C122.112 8.77617 122.134 8.71083 122.176 8.62372C122.091 8.58017 121.942 8.6455 121.729 8.81972C121.517 8.95038 121.389 8.99393 121.346 8.95038C121.134 8.90683 120.9 8.95038 120.644 9.08105C120.389 9.16815 120.219 9.21171 120.134 9.21171C118.262 9.38592 116.496 9.4077 114.836 9.27704C114.751 9.23348 114.687 9.27704 114.645 9.4077C114.645 9.49481 114.623 9.53836 114.581 9.53836C114.538 9.58192 114.453 9.60369 114.326 9.60369C114.198 9.56014 114.092 9.53836 114.006 9.53836C113.921 9.49481 113.858 9.49481 113.815 9.53836C113.432 9.58192 112.56 9.56014 111.198 9.47303C110.092 9.77791 108.985 9.77791 107.879 9.47303C107.539 9.6037 107.113 9.66903 106.603 9.66903C106.092 9.66903 105.773 9.6908 105.645 9.73436C105.347 9.64725 104.964 9.64725 104.496 9.73436C104.028 9.77791 103.688 9.79969 103.475 9.79969C103.347 9.79969 103.199 9.73436 103.028 9.60369C102.645 9.47303 102.433 9.51659 102.39 9.73436C102.05 9.6908 101.816 9.73436 101.688 9.86502C101.56 9.95213 101.454 10.1263 101.369 10.3877C101.326 10.6054 101.284 10.7579 101.241 10.845C101.199 10.9321 101.135 11.1063 101.05 11.3676C100.965 11.629 100.922 11.825 100.922 11.9556C100.794 12.2169 100.731 12.3912 100.731 12.4783C99.3264 16.4853 97.8159 20.71 96.199 25.1525C96.199 25.4574 96.05 25.9147 95.7522 26.5245C95.4969 27.1342 95.3692 27.5262 95.3692 27.7004C94.6033 29.4426 93.9225 31.163 93.3268 32.8616C93.114 33.2972 92.9651 33.6456 92.88 33.9069C92.6247 34.5602 92.4119 34.974 92.2417 35.1482C91.6035 36.2371 91.178 37.1953 90.9652 38.0228C90.795 38.3712 90.4971 39.0681 90.0716 40.1134C89.6461 41.1151 89.327 41.8555 89.1142 42.3346C89.0717 42.4653 89.1355 42.4 89.3057 42.1386C89.4334 42.0515 89.4972 42.0951 89.4972 42.2693L89.1781 42.988C88.4122 44.9479 87.9654 46.0803 87.8377 46.3852C87.6675 46.7772 87.4973 47.1474 87.3271 47.4958C87.1995 47.8442 87.0505 48.1709 86.8803 48.4758C86.7527 48.7807 86.6463 49.0638 86.5612 49.3251C86.4761 49.4558 86.4123 49.6082 86.3697 49.7824C86.3697 49.9131 86.3272 50.022 86.2421 50.1091C86.1144 50.5446 85.9017 51.0455 85.6038 51.6117C85.3059 52.1343 85.1145 52.461 85.0294 52.5917C84.7315 53.2014 84.5826 53.5498 84.5826 53.637C84.4975 53.7241 84.4337 53.8112 84.3911 53.8983C84.3911 53.9418 84.3911 53.9636 84.3911 53.9636C84.306 54.0507 84.2847 54.116 84.3273 54.1596C84.3698 54.2467 84.3273 54.3774 84.1996 54.5516C84.1145 54.6823 84.072 54.7476 84.072 54.7476C84.072 54.7911 84.0294 54.8782 83.9443 55.0089C83.9018 55.096 83.8379 55.2049 83.7528 55.3356C83.7103 55.4227 83.689 55.488 83.689 55.5316C83.689 55.5751 83.5826 55.8582 83.3699 56.3809C83.2848 56.5551 83.1358 56.8382 82.9231 57.2302C82.8805 57.3608 82.8593 57.4262 82.8593 57.4262C82.8593 57.3826 82.8805 57.3608 82.9231 57.3608C82.9231 57.3173 82.9231 57.2955 82.9231 57.2955C82.8805 57.2955 82.8593 57.2737 82.8593 57.2302C83.072 57.3173 83.0508 57.4479 82.7954 57.6222C82.7104 57.7093 82.6678 57.7093 82.6678 57.6222C82.7103 57.6222 82.7103 57.6439 82.6678 57.6875L82.4763 57.9488C82.4338 57.9488 82.3699 57.9053 82.2848 57.8181C82.1572 57.6004 82.0721 57.6004 82.0295 57.8181C81.987 57.8617 81.987 57.9053 82.0295 57.9488C82.0295 57.9924 81.9232 58.0359 81.7104 58.0795C81.5402 58.0359 81.4764 57.8617 81.5189 57.5568C81.5189 57.2519 81.5615 56.8817 81.6466 56.4462C81.7317 56.0107 81.7742 55.7711 81.7742 55.7276C81.8593 55.5969 81.9231 55.4227 81.9657 55.2049C82.0934 55.0307 82.1785 54.8129 82.221 54.5516C82.221 54.2467 82.221 53.9418 82.221 53.637C82.1785 53.2885 82.1572 53.0925 82.1572 53.049C82.1146 52.7876 82.1997 51.8512 82.4125 50.2397C82.4976 49.63 82.6678 48.846 82.9231 47.8878C83.1358 46.9296 83.2635 46.3199 83.3061 46.0585C83.4337 45.7536 83.5401 45.3399 83.6252 44.8172C83.7103 44.2946 83.7528 44.0115 83.7528 43.9679C83.923 43.5324 84.0932 42.9008 84.2635 42.0733C84.4762 41.2022 84.6677 40.5707 84.8379 40.1787C84.923 40.1352 84.9443 40.0263 84.9017 39.8521C84.8592 39.6778 84.8592 39.5472 84.9017 39.4601C84.9443 39.3294 84.9868 39.1987 85.0294 39.0681C85.0719 38.8939 85.1145 38.7632 85.157 38.6761C85.1996 38.5454 85.2209 38.4365 85.2209 38.3494C85.2634 38.2188 85.2847 38.1317 85.2847 38.0881C85.3272 38.001 85.3485 37.9139 85.3485 37.8268C85.391 37.7397 85.4123 37.6526 85.4123 37.5655C85.4549 37.4784 85.4762 37.3695 85.4762 37.2388C85.5187 37.1081 85.5613 37.021 85.6038 36.9775C85.9442 35.366 86.1782 34.3425 86.3059 33.9069C86.4335 33.1665 86.7101 31.8816 87.1356 30.0524C87.6037 28.1795 87.9016 26.764 88.0292 25.8058C88.0718 25.6316 88.1143 25.4792 88.1569 25.3485C88.1994 25.1743 88.242 25.0219 88.2845 24.8912C88.3271 24.7605 88.3696 24.6299 88.4122 24.4992C88.4547 24.2814 88.6249 23.5846 88.9228 22.4086C89.2632 21.1891 89.5397 20.2745 89.7525 19.6647C89.8376 19.0985 90.0078 18.3363 90.2631 17.3781C90.5184 16.3764 90.6673 15.7013 90.7099 15.3528C90.795 15.1351 91.0078 14.5471 91.3482 13.5889C91.7311 12.6307 91.9439 11.8903 91.9864 11.3676C92.3694 10.8014 92.4119 10.4966 92.1141 10.453C91.8588 10.4094 91.5396 10.4966 91.1567 10.7143C90.3482 10.6708 89.1568 10.7797 87.5824 11.041C86.008 11.2588 84.8592 11.3894 84.1358 11.433H83.3699H83.4337L83.3061 11.5636C83.0508 11.6943 82.9018 11.6943 82.8593 11.5636C82.7316 11.6072 82.5827 11.629 82.4125 11.629C82.1997 11.629 82.0508 11.629 81.9657 11.629C81.8381 11.5854 81.753 11.5854 81.7104 11.629H81.5828L81.5189 11.7596C81.4764 11.5854 81.3487 11.5419 81.136 11.629C81.0934 11.629 81.0721 11.6072 81.0721 11.5636C81.0721 11.5201 81.0934 11.4765 81.136 11.433C81.0083 11.3894 80.9445 11.4765 80.9445 11.6943C80.9445 11.7378 80.9445 11.7814 80.9445 11.825C80.987 11.825 80.9232 11.8903 80.753 12.0209C80.6254 12.0209 80.3275 12.0645 79.8594 12.1516C79.3488 12.1952 79.0084 12.1952 78.8382 12.1516L78.5829 12.2823H78.6468L78.7744 12.3476C78.5616 12.3476 78.434 12.3041 78.3914 12.2169C78.3914 12.3041 78.3489 12.3694 78.2638 12.4129C78.1361 12.4565 77.9872 12.4783 77.817 12.4783C77.6468 12.4783 77.5404 12.4783 77.4979 12.4783C77.1575 12.6089 76.6894 12.7178 76.0937 12.8049C75.4554 12.892 75.1363 12.9356 75.1363 12.9356L74.881 13.0009C74.7533 12.9138 74.6683 12.8485 74.6257 12.8049C74.7108 12.6743 74.6895 12.6089 74.5619 12.6089L74.498 12.4783C73.8598 12.3041 74.1364 11.9774 75.3278 11.4983C75.4129 11.4547 75.5193 11.4112 75.6469 11.3676L76.2214 11.1063C76.3065 11.1063 76.3915 11.1063 76.4767 11.1063C76.5618 11.0628 76.6043 11.0192 76.6043 10.9757C76.6894 10.9757 76.8383 10.9321 77.0511 10.845C77.2639 10.7579 77.4341 10.6925 77.5617 10.649C77.6468 10.6054 77.7106 10.6054 77.7532 10.649C77.8383 10.649 77.9659 10.6272 78.1361 10.5837C78.3063 10.4966 78.4127 10.453 78.4553 10.453C78.4978 10.453 78.5617 10.4966 78.6468 10.5837C78.9872 10.3223 79.051 10.1699 78.8382 10.1263C78.7531 10.1263 78.6468 10.1699 78.5191 10.257C78.4765 10.2135 78.5616 10.1481 78.7744 10.061C78.9872 9.93035 79.2212 9.82146 79.4765 9.73436C79.6892 9.64725 79.8382 9.58192 79.9233 9.53836C80.2637 9.4077 80.7105 9.21171 81.2636 8.95038C81.7742 8.6455 82.1785 8.44951 82.4763 8.3624C83.072 8.14463 83.4763 7.97041 83.689 7.83975C84.072 7.75264 84.5613 7.62198 85.157 7.44776C85.7953 7.22999 86.2421 7.07755 86.4974 6.99045C86.6676 6.94689 86.8591 6.90333 87.0718 6.85978C87.2846 6.81623 87.4548 6.77267 87.5824 6.72912C87.7101 6.68557 87.8164 6.64201 87.9015 6.59846C88.242 6.46779 88.7738 6.29358 89.4972 6.07581C90.2206 5.81448 90.8375 5.61849 91.3482 5.48783C91.9013 5.35716 92.4758 5.24828 93.0715 5.16117L93.1991 5.09584L93.5182 4.83452C93.8161 4.74741 94.0501 4.59497 94.2203 4.37719C94.5182 4.24653 94.8586 4.1812 95.2416 4.1812C95.3692 4.22476 95.5181 4.24653 95.6883 4.24653C95.8585 4.24653 96.0075 4.24653 96.1351 4.24653C96.3053 4.20298 96.4543 4.1812 96.5819 4.1812C96.7096 4.13765 96.8372 4.09409 96.9649 4.05054C97.1351 4.00699 97.2414 3.98521 97.284 3.98521C99.9647 3.50611 101.645 3.20123 102.326 3.07057C102.539 3.11413 102.794 3.04879 103.092 2.87458C103.433 2.70036 103.709 2.63503 103.922 2.67858C103.964 2.72214 104.028 2.76569 104.113 2.80925C104.199 2.93991 104.262 2.91813 104.305 2.74392C104.305 2.65681 104.305 2.5697 104.305 2.48259C104.475 2.52614 104.624 2.50437 104.752 2.41726C104.879 2.33015 104.943 2.26482 104.943 2.22126C104.986 2.13415 105.071 2.13415 105.198 2.22126C105.241 2.17771 105.284 2.13416 105.326 2.0906C105.454 2.13416 105.539 2.15593 105.581 2.15593C105.624 2.15593 105.688 2.13416 105.773 2.0906C105.901 2.00349 105.986 1.95994 106.028 1.95994C106.113 1.95994 106.305 1.98172 106.603 2.02527C106.943 2.02527 107.156 2.02527 107.241 2.02527C107.411 1.89461 107.645 1.8075 107.943 1.76394C108.241 1.72039 108.539 1.67684 108.837 1.63328C109.134 1.54617 109.368 1.45906 109.539 1.37196C109.751 1.37196 109.879 1.37196 109.922 1.37196C110.219 1.37196 110.496 1.35018 110.751 1.30663C111.049 1.26307 111.283 1.21952 111.453 1.17596C111.624 1.13241 111.73 1.11063 111.773 1.11063C111.943 1.11063 112.304 1.11063 112.858 1.11063C113.411 1.11063 113.9 1.08886 114.326 1.0453C114.794 0.958195 115.113 0.827533 115.283 0.653316C115.581 0.91464 115.836 0.892862 116.049 0.587981C116.389 0.675091 116.708 0.653314 117.006 0.522651C117.176 0.479097 117.581 0.435544 118.219 0.39199C118.9 0.30488 119.368 0.174217 119.623 0C119.836 0.0871098 120.155 0.108888 120.581 0.0653343C121.006 -0.0217755 121.346 -0.0217755 121.602 0.0653343C121.644 0.239551 121.793 0.522654 122.049 0.914641C122.346 1.30663 122.538 1.58973 122.623 1.76394C122.58 2.06882 122.687 2.3737 122.942 2.67858C123.24 2.93991 123.41 3.11413 123.453 3.20123C123.878 3.54967 124.197 4.11587 124.41 4.89985C124.665 5.64026 124.729 6.2718 124.602 6.79445C124.517 6.838 124.474 6.88156 124.474 6.92511C124.474 6.96867 124.495 7.05578 124.538 7.18644C124.623 7.27355 124.665 7.3171 124.665 7.3171ZM78.3276 10.5837C78.2851 10.6708 78.3063 10.7361 78.3914 10.7797L78.3276 10.5837ZM78.3914 10.9103C78.3914 10.9103 78.4127 10.9103 78.4553 10.9103H78.3914ZM78.7744 10.7797C78.8169 10.7797 78.9233 10.7579 79.0935 10.7143L79.2212 10.649C79.3063 10.6925 79.3488 10.6708 79.3488 10.5837C79.0084 10.5401 78.8169 10.6054 78.7744 10.7797ZM82.1572 9.99568C81.9444 9.95213 81.8593 9.8868 81.9019 9.79969L81.5828 9.93035L81.7104 9.99568C81.7955 10.0392 81.8593 10.061 81.9019 10.061L81.8381 9.99568C81.8806 10.0392 81.987 10.0828 82.1572 10.1263C82.4125 10.0392 82.455 9.99568 82.2848 9.99568H82.1572ZM80.9445 10.257L81.1998 10.1917C81.0721 10.1917 80.987 10.2135 80.9445 10.257ZM79.9233 10.453L80.6254 10.1917C80.6254 10.1917 80.5403 10.2135 80.37 10.257L79.9233 10.453ZM80.0509 11.433H80.1786C80.1786 11.433 80.1573 11.433 80.1147 11.433C80.0722 11.433 80.0509 11.433 80.0509 11.433ZM80.8168 11.6943L80.753 11.7596H80.8168V11.6943ZM81.8381 11.1063V11.1716L81.9657 11.1063C81.9657 11.1063 81.9444 11.1063 81.9019 11.1063H81.8381ZM81.2636 11.433C81.3062 11.1716 81.5827 10.9756 82.0934 10.845C82.3061 10.845 82.4125 10.8232 82.4125 10.7797C82.4125 10.7361 82.3487 10.7143 82.221 10.7143C82.1359 10.5837 82.1785 10.4966 82.3487 10.453H82.2848C82.2423 10.453 82.1785 10.453 82.0934 10.453C82.1359 10.4094 82.1572 10.3877 82.1572 10.3877C82.0721 10.4312 82.0083 10.453 81.9657 10.453H81.9019C81.8168 10.4966 81.7104 10.5401 81.5828 10.5837C81.4551 10.5837 81.3487 10.6054 81.2636 10.649C81.1785 10.649 81.0934 10.6708 81.0083 10.7143C80.8807 10.7143 80.8168 10.7143 80.8168 10.7143C80.6466 10.8014 80.3913 10.9103 80.0509 11.041L79.668 11.1716C79.7956 11.1716 80.2424 11.1063 81.0083 10.9757C81.1785 11.0192 81.1998 11.0628 81.0721 11.1063C80.7743 11.1499 80.6254 11.237 80.6254 11.3676C80.7105 11.4983 80.8381 11.4983 81.0083 11.3676C81.136 11.237 81.2211 11.2588 81.2636 11.433ZM83.1146 11.3676C83.072 11.3676 83.072 11.4112 83.1146 11.4983C83.1997 11.4983 83.2422 11.4765 83.2422 11.433C83.1997 11.3894 83.1571 11.3676 83.1146 11.3676ZM83.1784 11.1716C83.0933 11.0845 83.0933 11.0192 83.1784 10.9757C83.2635 10.9757 83.3061 10.9539 83.3061 10.9103L82.6678 10.9757C82.6678 11.0192 82.6891 11.0628 82.7316 11.1063H82.6678C82.6678 11.1499 82.6678 11.1716 82.6678 11.1716C82.7103 11.1716 82.7742 11.1499 82.8593 11.1063C82.9018 11.0192 82.9444 11.041 82.9869 11.1716C83.0295 11.2588 83.0933 11.2588 83.1784 11.1716ZM85.2209 7.70909L85.157 7.77442C85.2421 7.77442 85.2634 7.75264 85.2209 7.70909ZM81.5189 57.6222C81.5615 57.6222 81.5828 57.6222 81.5828 57.6222H81.5189ZM82.4125 57.2955L82.4763 57.2302C82.5189 57.0995 82.5402 57.0342 82.5402 57.0342L82.4125 57.2302C82.4125 57.2302 82.4125 57.2519 82.4125 57.2955ZM82.604 52.657V52.7223H82.6678L82.604 52.657ZM82.9869 51.3504V51.4157C82.9869 51.4157 82.9869 51.3939 82.9869 51.3504ZM84.7741 40.7014C84.7741 40.7449 84.7741 40.7667 84.7741 40.7667V40.7014ZM85.7953 46.1239C85.8378 46.4287 85.9016 46.4723 85.9868 46.2545C85.9442 46.211 85.8804 46.1674 85.7953 46.1239ZM86.0506 45.2092L85.9868 45.3399C86.0293 45.2963 86.0506 45.2528 86.0506 45.2092ZM86.1144 44.8172C86.1144 44.7737 86.1144 44.7519 86.1144 44.7519H86.0506L86.1144 44.8172ZM88.7313 43.1186C88.7313 43.3364 88.7738 43.3364 88.8589 43.1186L88.7951 42.988L88.7313 43.1186ZM121.729 1.11063C121.687 1.06708 121.666 1.0453 121.666 1.0453L121.729 1.43729V1.30663C121.687 1.26307 121.666 1.21952 121.666 1.17596C121.708 1.13241 121.729 1.11063 121.729 1.11063ZM122.112 1.76394V1.82928C122.155 1.82928 122.155 1.8075 122.112 1.76394ZM124.155 6.85978C124.112 6.81623 124.07 6.77267 124.027 6.72912C124.027 6.81623 124.07 6.85978 124.155 6.85978Z" fill="#0093CE"/>
<path d="M123.453 26.0669C123.751 26.8944 123.836 27.8962 123.708 29.0721C123.751 31.2063 123.644 32.6654 123.389 33.4493C123.474 33.58 123.431 33.9938 123.261 34.6906C123.134 35.3439 123.091 35.7359 123.134 35.8666C123.006 36.1715 122.9 36.5634 122.814 37.0425C122.729 37.5216 122.644 37.9572 122.559 38.3492C122.474 38.7412 122.368 39.0678 122.24 39.3291C122.027 39.9825 121.687 41.0278 121.219 42.465C120.751 43.9023 120.389 44.9912 120.134 45.7316C119.793 46.3849 119.389 47.2124 118.921 48.2142C118.496 49.2159 118.091 50.0652 117.708 50.7621C117.368 51.4154 116.942 52.047 116.432 52.6567C116.432 53.31 116.347 53.6802 116.177 53.7673C115.623 54.8562 115.049 55.7491 114.453 56.4459C114.453 56.4459 114.432 56.4459 114.389 56.4459C114.389 56.7072 114.326 56.9686 114.198 57.2299C114.113 57.4477 113.943 57.709 113.687 58.0139C113.432 58.3188 113.304 58.4712 113.304 58.4712C112.666 59.6907 111.836 60.8013 110.815 61.8031C110.092 63.0226 108.985 64.1768 107.496 65.2656C106.049 66.3545 104.688 66.8771 103.411 66.8336C103.411 66.79 103.454 66.7683 103.539 66.7683C103.496 66.7247 103.475 66.6812 103.475 66.6376C103.39 66.7247 103.071 66.6812 102.518 66.5069C101.965 66.3327 101.582 66.2674 101.369 66.3109C100.773 66.4416 99.8158 66.4852 98.4967 66.4416C97.2202 66.398 96.4968 66.1149 96.3266 65.5923C95.9862 65.5052 95.7947 65.3527 95.7522 65.135C95.7096 64.9172 95.6245 64.7648 95.4969 64.6777C95.199 64.6341 94.9863 64.547 94.8586 64.4163C94.7735 64.2857 94.7309 64.0897 94.7309 63.8284C94.7309 63.567 94.7097 63.371 94.6671 63.2404C94.2842 63.1533 94.0927 62.9137 94.0927 62.5217C94.0501 62.0862 93.965 61.8466 93.8374 61.8031C93.7948 61.6724 93.7523 61.4764 93.7097 61.2151C93.6246 60.9538 93.5821 60.7578 93.5821 60.6271C93.5395 60.3658 93.497 59.8867 93.4544 59.1898C93.4119 58.4494 93.3906 57.905 93.3906 57.5566C93.3481 57.2081 93.3268 56.7944 93.3268 56.3153C93.3693 56.3153 93.4119 56.3153 93.4544 56.3153C93.1991 53.6149 93.6885 50.479 94.9224 46.9076C95.6032 44.7299 95.9649 43.445 96.0075 43.053C96.05 43.0095 96.0713 43.0095 96.0713 43.053C96.1564 42.8788 96.2841 42.5957 96.4543 42.2037C96.6245 41.7682 96.7521 41.4633 96.8372 41.2891C96.9649 41.0713 97.0713 41.0495 97.1563 41.2237C97.1989 41.1802 97.1989 41.0278 97.1563 40.7664V40.6358C97.2415 40.8971 97.3053 40.9624 97.3478 40.8318C97.3904 40.7011 97.3904 40.614 97.3478 40.5704C97.3053 40.4398 97.3053 40.3744 97.3478 40.3744L97.4755 40.4398C97.5606 40.222 97.6031 39.9607 97.6031 39.6558C97.6457 39.3509 97.7095 39.1114 97.7946 38.9372C97.8797 38.7194 98.0499 38.6105 98.3052 38.6105C98.2201 38.3056 98.1988 38.0878 98.2414 37.9572C98.2839 37.8265 98.3903 37.6523 98.5605 37.4345C98.7307 37.2168 98.8371 37.0643 98.8797 36.9772C98.9222 36.7159 99.0286 36.4328 99.1988 36.1279C99.4115 35.823 99.5392 35.6706 99.5817 35.6706C99.6243 35.5835 99.6456 35.5181 99.6456 35.4746C99.8583 35.3004 99.9647 35.0826 99.9647 34.8213C100.092 34.8213 100.156 34.7777 100.156 34.6906C100.156 34.6471 100.156 34.6035 100.156 34.56C100.369 34.6035 100.497 34.5382 100.539 34.364C100.454 34.2769 100.369 34.2333 100.284 34.2333C100.241 34.1898 100.284 34.1244 100.411 34.0373C100.582 33.9066 100.731 33.7978 100.858 33.7106C101.028 33.6235 101.092 33.5582 101.05 33.5147C100.794 33.6453 100.667 33.6889 100.667 33.6453C100.667 33.5147 100.794 33.3622 101.05 33.188C101.177 32.796 101.284 32.6 101.369 32.6C101.497 32.6 101.603 32.6654 101.688 32.796C101.645 32.6218 101.624 32.5129 101.624 32.4694C101.667 32.3823 101.731 32.2516 101.816 32.0774C101.901 31.9032 101.965 31.7943 102.007 31.7507C102.177 31.8814 102.262 31.8596 102.262 31.6854C102.177 31.6854 102.177 31.6636 102.262 31.6201H102.071C102.199 31.5765 102.305 31.5112 102.39 31.4241C102.475 31.2934 102.56 31.1845 102.645 31.0974C102.731 31.0103 102.816 30.9014 102.901 30.7708C102.986 30.6401 103.05 30.5312 103.092 30.4441C103.177 30.357 103.262 30.2699 103.347 30.1828C103.475 30.0957 103.582 30.0303 103.667 29.9868C103.752 29.8561 103.943 29.4423 104.241 28.7455C104.539 28.0486 104.794 27.5913 105.007 27.3735C105.092 27.2864 105.156 27.1122 105.198 26.8509C105.284 26.6767 105.369 26.546 105.454 26.4589C105.539 26.3282 105.603 26.2411 105.645 26.1976C105.73 26.1105 105.794 26.0233 105.837 25.9362C105.879 25.8491 105.922 25.762 105.964 25.6749C106.049 25.5442 106.135 25.4789 106.22 25.4789C106.22 25.4354 106.241 25.37 106.284 25.2829C106.326 25.1958 106.347 25.1305 106.347 25.0869C106.39 24.9998 106.432 24.9563 106.475 24.9563C106.475 24.8256 106.496 24.7385 106.539 24.6949C106.581 24.6078 106.645 24.4989 106.73 24.3683C106.858 24.2376 106.943 24.1505 106.986 24.107C107.028 24.0634 107.092 24.0198 107.177 23.9763C107.262 23.8892 107.347 23.8674 107.432 23.911C107.305 23.4754 107.666 22.9963 108.517 22.4737C108.56 22.1688 108.666 22.0164 108.837 22.0164C109.049 21.9728 109.177 21.8204 109.22 21.559C109.432 21.6026 109.56 21.559 109.602 21.4284L109.858 21.2977C109.985 21.3848 110.049 21.4066 110.049 21.363C110.049 21.2324 110.049 21.1671 110.049 21.1671C110.092 21.1235 110.134 21.1235 110.177 21.1671C110.262 21.2106 110.326 21.2106 110.368 21.1671C110.368 21.1235 110.39 21.1017 110.432 21.1017C110.432 21.1017 110.453 21.0146 110.496 20.8404C110.581 20.6662 110.709 20.5791 110.879 20.5791C110.922 20.5355 110.964 20.5137 111.007 20.5137C111.517 20.6009 111.815 20.4702 111.9 20.1218C111.943 20.1653 112.028 20.1871 112.156 20.1871C112.326 20.1871 112.496 20.1871 112.666 20.1871C112.836 20.1871 112.964 20.1871 113.049 20.1871C114.921 19.9258 116.666 19.8604 118.283 19.9911C118.666 19.9911 118.985 20.0346 119.24 20.1218C119.496 20.2089 119.836 20.3613 120.261 20.5791C120.687 20.7968 120.921 20.9275 120.964 20.9711C122.24 21.9293 122.963 23.1052 123.134 24.4989C123.134 24.6296 123.176 24.782 123.261 24.9563C123.346 25.1305 123.389 25.2829 123.389 25.4136C123.431 25.5007 123.453 25.6314 123.453 25.8056C123.495 25.9362 123.495 26.0233 123.453 26.0669ZM101.433 33.188C101.475 33.188 101.497 33.1662 101.497 33.1227C101.539 33.0791 101.56 33.0573 101.56 33.0573L101.433 33.188ZM109.411 53.9633C109.368 53.9633 109.347 53.9633 109.347 53.9633C109.347 53.9633 109.347 53.9851 109.347 54.0287L109.411 53.9633ZM110.177 52.6567C110.219 52.6567 110.262 52.6349 110.305 52.5914L110.177 52.6567ZM118.091 30.9667C118.134 30.7925 118.134 30.5748 118.091 30.3134C118.091 30.0521 118.113 29.8779 118.155 29.7908C118.198 29.3552 118.155 28.5495 118.028 27.3735C117.942 26.5024 117.645 25.6096 117.134 24.6949C116.623 23.7367 116.155 23.3448 115.73 23.519C115.56 23.6932 115.24 23.7803 114.772 23.7803C114.772 23.8674 114.517 24.0852 114.006 24.4336C113.326 24.7385 112.453 25.3483 111.39 26.2629C110.368 27.1775 109.773 27.6784 109.602 27.7655L109.794 28.2228C109.836 28.2228 109.858 28.1793 109.858 28.0922C110.666 28.3535 111.177 28.6366 111.39 28.9415C111.39 28.9415 111.39 28.9633 111.39 29.0068L111.326 29.0721C111.496 29.2464 111.517 29.4206 111.39 29.5948C111.347 29.6383 111.326 29.5948 111.326 29.4641C111.326 29.4641 111.304 29.4206 111.262 29.3335C111.262 29.1592 111.262 29.0721 111.262 29.0721C111.177 29.1592 111.134 29.3335 111.134 29.5948C111.049 29.8126 111.134 29.9214 111.39 29.9214C111.475 29.965 111.517 29.9868 111.517 29.9868C111.475 30.0739 111.475 30.2045 111.517 30.3788C111.56 30.5094 111.581 30.5748 111.581 30.5748C111.581 30.6183 111.581 30.6619 111.581 30.7054C111.666 30.7054 111.709 30.749 111.709 30.8361C111.794 31.0538 111.773 31.1627 111.645 31.1627C111.56 31.1627 111.496 31.1845 111.453 31.2281C111.028 30.9667 110.794 30.9667 110.751 31.2281C110.411 31.7072 110.071 32.3169 109.73 33.0573C109.432 33.7978 109.134 34.3857 108.837 34.8213C108.794 34.9519 108.73 35.1697 108.645 35.4746C108.603 35.7795 108.517 36.0408 108.39 36.2586C108.305 36.4328 108.156 36.5852 107.943 36.7159L107.879 36.7812C108.049 37.1297 108.028 37.4128 107.815 37.6305C107.603 37.8047 107.517 37.9572 107.56 38.0878C107.475 38.3927 107.411 38.5669 107.369 38.6105C107.411 38.654 107.369 38.7194 107.241 38.8065C107.156 38.8936 107.135 38.9589 107.177 39.0025C107.007 39.3509 106.9 39.5905 106.858 39.7211C106.603 40.1567 106.539 40.5487 106.666 40.8971C106.496 41.2455 106.241 41.8988 105.901 42.857C105.603 43.8152 105.347 44.5339 105.135 45.013C104.539 46.8858 104.071 48.3666 103.73 49.4555C103.433 50.5443 103.135 51.9381 102.837 53.6367C102.539 55.3353 102.411 56.8815 102.454 58.2752C102.326 58.7979 102.284 59.5165 102.326 60.4311C102.411 61.3022 102.603 61.8249 102.901 61.9991L102.837 61.9338C102.879 61.6289 103.007 61.4111 103.22 61.2804C103.433 61.1062 103.56 60.9756 103.603 60.8884C103.688 60.7578 103.816 60.7142 103.986 60.7578C104.156 60.7578 104.241 60.7142 104.241 60.6271C104.411 60.1916 104.56 59.952 104.688 59.9085C104.858 59.8649 105.028 59.7343 105.198 59.5165C105.284 59.6036 105.347 59.6254 105.39 59.5818C105.475 59.4947 105.518 59.364 105.518 59.1898C105.56 58.9721 105.603 58.8414 105.645 58.7978C105.73 58.7107 105.815 58.6019 105.901 58.4712C105.986 58.3405 106.049 58.2534 106.092 58.2099C106.135 58.1228 106.177 58.101 106.22 58.1445C106.305 58.0574 106.369 57.9703 106.411 57.8832C106.496 57.7525 106.539 57.6654 106.539 57.6219C106.581 57.5783 106.624 57.5566 106.666 57.5566C106.752 57.513 106.837 57.4912 106.922 57.4912C107.049 57.5348 107.092 57.4912 107.049 57.3606C107.007 57.317 106.986 57.2952 106.986 57.2952C106.943 57.2517 106.964 57.1428 107.049 56.9686C107.135 56.7508 107.241 56.5766 107.369 56.4459C107.539 56.2717 107.666 56.2064 107.751 56.2499C107.794 55.9886 107.9 55.6837 108.071 55.3353C108.283 54.9433 108.517 54.7038 108.773 54.6167C108.858 54.486 108.985 54.3118 109.156 54.094C109.368 53.8327 109.517 53.6149 109.602 53.4407C109.73 53.2229 109.751 53.0487 109.666 52.918C109.581 52.9616 109.56 52.9616 109.602 52.918C109.73 52.8745 109.836 52.918 109.922 53.0487C109.879 53.1358 109.879 53.2011 109.922 53.2447C109.964 53.0705 110.007 52.8745 110.049 52.6567C110.092 52.3954 110.113 52.2212 110.113 52.1341C110.156 52.0034 110.219 51.9163 110.305 51.8727C110.347 52.1776 110.496 52.1123 110.751 51.6767C110.879 51.4154 110.964 51.263 111.007 51.2194C111.517 50.3048 111.794 49.7386 111.836 49.5208L111.9 49.3248C111.9 49.4119 111.921 49.4773 111.964 49.5208C111.964 49.3901 112.028 49.2377 112.156 49.0635C112.283 48.8457 112.304 48.6715 112.219 48.5408C112.219 48.3666 112.283 48.3666 112.411 48.5408C112.496 48.5844 112.56 48.5191 112.602 48.3448C112.687 48.1706 112.687 48.0617 112.602 48.0182C112.602 47.8875 112.645 47.7133 112.73 47.4955C112.858 47.2778 112.985 47.0818 113.113 46.9076C113.241 46.6898 113.326 46.5373 113.368 46.4502C113.538 46.1889 113.709 45.8623 113.879 45.4703C114.049 45.0347 114.198 44.6863 114.326 44.425C114.453 44.1201 114.581 43.8588 114.709 43.641C114.836 43.4232 114.964 43.2926 115.092 43.249C115.134 42.7264 115.24 42.4433 115.411 42.3997C115.326 42.1819 115.368 41.8553 115.538 41.4197C115.751 40.9842 115.857 40.7446 115.857 40.7011C116.283 39.6993 116.751 38.2621 117.262 36.3892C117.304 36.1715 117.389 35.7359 117.517 35.0826C117.772 34.2986 117.9 33.6018 117.9 32.992C117.857 32.992 117.857 32.9702 117.9 32.9267C117.942 32.7089 117.964 32.4258 117.964 32.0774C118.006 31.7289 118.049 31.4894 118.091 31.3587C118.091 31.2281 118.091 31.1192 118.091 31.0321C118.091 31.0321 118.091 31.0103 118.091 30.9667ZM110.879 29.5295C110.922 29.5295 110.943 29.5512 110.943 29.5948L110.879 29.5295ZM110.943 30.7054C110.985 30.749 111.007 30.749 111.007 30.7054H110.943ZM111.134 30.7054C111.134 30.7925 111.134 30.8361 111.134 30.8361H111.198C111.156 30.749 111.134 30.7054 111.134 30.7054ZM111.453 30.2481V30.3788C111.453 30.3352 111.453 30.2916 111.453 30.2481ZM111.39 30.7708L111.453 30.8361V30.7708H111.39ZM111.517 31.0974V31.0321L111.453 30.9667L111.517 31.0974Z" fill="#0093CE"/>
<path d="M160.362 15.3526C160.617 15.7446 160.83 16.3543 161 17.1819C160.915 17.5738 160.894 18.0965 160.936 18.7498C160.894 18.9676 160.809 19.1636 160.681 19.3378C160.596 19.512 160.511 19.6644 160.426 19.7951C160.383 19.9258 160.34 20.0564 160.298 20.1871C160.17 20.2742 160.106 20.4049 160.106 20.5791C160.149 20.7097 160.149 20.8186 160.106 20.9057C159.894 21.08 159.723 21.2759 159.596 21.4937C159.511 21.6679 159.426 21.8857 159.341 22.147C159.255 22.4084 159.17 22.6261 159.085 22.8003C159.128 22.8003 159.149 22.8003 159.149 22.8003C159.362 22.8003 159.213 23.127 158.702 23.7803C158.617 23.911 158.575 23.9763 158.575 23.9763C158.532 24.0199 158.511 24.1287 158.511 24.303C158.511 24.3465 158.511 24.3683 158.511 24.3683C158.341 24.499 158.149 24.7167 157.936 25.0216C157.724 25.2829 157.532 25.5007 157.362 25.6749C157.234 25.8491 157.043 26.0451 156.787 26.2629C156.575 26.4371 156.319 26.5678 156.022 26.6549C155.511 26.9162 155.192 26.938 155.064 26.7202C154.937 26.4589 154.851 26.2411 154.809 26.0669C154.809 25.8927 154.788 25.8927 154.745 26.0669C154.617 26.2411 154.532 26.1976 154.49 25.9362C154.49 25.8927 154.49 25.8491 154.49 25.8056C154.405 25.6749 154.383 25.7185 154.426 25.9362C154.468 26.154 154.468 26.2629 154.426 26.2629C154.341 26.2629 154.277 26.2629 154.234 26.2629C154.107 26.1758 154.022 26.0669 153.979 25.9362C153.979 25.8056 153.958 25.7185 153.915 25.6749C153.66 25.7185 153.49 25.6531 153.405 25.4789C153.32 25.3047 153.234 25.0434 153.149 24.6949C153.149 24.3901 153.107 24.0416 153.022 23.6497C152.937 23.2141 152.894 22.9092 152.894 22.735C152.894 22.5608 152.915 22.2341 152.958 21.755C152.83 21.5373 152.788 21.276 152.83 20.9711C152.873 20.6226 152.83 20.4049 152.703 20.3178C152.958 19.8822 153.064 19.512 153.022 19.2071C153.022 18.9022 152.852 18.6191 152.511 18.3578C152.639 18.3578 152.66 18.2489 152.575 18.0312C152.49 18.0747 152.405 18.1618 152.32 18.2925C150.575 18.9458 149.256 19.8604 148.362 21.0364C148.235 21.1235 148.043 21.2324 147.788 21.3631C147.533 21.4937 147.341 21.6244 147.214 21.755C147.086 21.8857 147.043 22.0599 147.086 22.2777C146.873 22.4519 146.49 22.735 145.937 23.127C145.384 23.519 145.001 23.8456 144.788 24.107C144.831 24.2376 144.66 24.4336 144.278 24.6949C143.895 24.9127 143.767 25.1305 143.895 25.3483C143.554 25.6096 142.618 26.546 141.086 28.1575C140.788 28.5931 140.363 29.1375 139.81 29.7908C139.299 30.4441 138.852 31.0321 138.469 31.5547C138.086 32.0774 137.81 32.5783 137.64 33.0574C137.129 33.8413 136.789 34.4293 136.618 34.8213C136.491 35.2133 136.491 35.4528 136.618 35.5399C136.746 35.5835 136.959 35.5835 137.257 35.5399C137.597 35.4528 137.959 35.3657 138.342 35.2786C138.767 35.1915 139.193 35.2133 139.618 35.3439C139.831 35.3875 140.108 35.4093 140.448 35.4093C140.788 35.4093 141.022 35.4528 141.15 35.5399C141.193 35.627 141.256 35.5835 141.342 35.4093C141.299 35.3657 141.299 35.3222 141.342 35.2786L141.533 35.4093C141.788 35.3222 142.001 35.3657 142.171 35.5399C143.107 35.2351 143.682 35.2786 143.895 35.6706C143.98 35.5835 144.129 35.5617 144.341 35.6053C144.597 35.6053 144.809 35.6488 144.98 35.7359C145.192 35.7795 145.405 35.8666 145.618 35.9973C145.873 36.0844 146.043 36.1279 146.128 36.1279C146.341 36.215 146.639 36.3239 147.022 36.4546C147.405 36.5852 147.745 36.7159 148.043 36.8466C148.341 36.9337 148.575 37.0208 148.745 37.1079C148.873 37.1514 148.958 37.195 149.001 37.2385C149.043 37.2385 149.064 37.2385 149.064 37.2385C149.192 37.4128 149.511 37.6088 150.022 37.8265C150.575 38.0443 150.724 38.1967 150.469 38.2838C150.724 38.371 151.001 38.5887 151.298 38.9372C151.639 39.242 151.873 39.5687 152.001 39.9171C152.128 40.222 152.128 40.3962 152.001 40.4398C152.213 40.8753 152.32 41.3326 152.32 41.8117C152.362 42.2908 152.298 42.7917 152.128 43.3144C152.001 43.7935 151.852 44.2508 151.681 44.6863C151.554 45.0783 151.298 45.5356 150.915 46.0583C150.575 46.5809 150.298 46.9947 150.086 47.2996C149.916 47.5609 149.639 47.9311 149.256 48.4102C149.171 48.4973 149.001 48.6933 148.745 48.9982C148.533 49.2595 148.362 49.3902 148.235 49.3902C148.065 49.6515 147.958 49.8039 147.916 49.8475C147.873 49.891 147.831 49.8693 147.788 49.7821L147.724 49.9128C147.682 49.9999 147.66 50.0435 147.66 50.0435C147.618 50.087 147.575 50.1524 147.533 50.2395C147.49 50.3266 147.426 50.4137 147.341 50.5008C147.256 50.5443 147.171 50.5879 147.086 50.6315C147.043 50.6315 147.022 50.6315 147.022 50.6315C147.022 50.4137 147.107 50.2395 147.277 50.1088C147.065 49.9781 146.745 50.1741 146.32 50.6968C146.277 50.8274 146.277 50.8928 146.32 50.8928C146.405 50.8928 146.469 50.871 146.511 50.8274C146.597 50.7839 146.66 50.7403 146.703 50.6968C146.745 50.6097 146.767 50.5661 146.767 50.5661C147.022 50.6968 147.022 50.8492 146.767 51.0234C146.682 51.067 146.618 51.1105 146.575 51.1541C146.405 51.2848 146.235 51.3283 146.065 51.2848C145.894 51.1977 145.746 51.1759 145.618 51.2194C145.66 51.3065 145.767 51.3719 145.937 51.4154C146.065 51.4154 146.128 51.459 146.128 51.5461C144.639 52.9834 143.831 53.5278 143.703 53.1794C143.575 52.918 143.32 52.918 142.937 53.1794C142.724 53.3536 142.448 53.5931 142.107 53.898C141.724 54.0722 141.512 54.3336 141.469 54.682C141.299 54.7255 141.15 54.8562 141.022 55.074C140.98 55.3353 140.852 55.4877 140.639 55.5313C140.469 55.5313 140.363 55.5531 140.32 55.5966C140.235 55.6402 140.193 55.6402 140.193 55.5966C140.235 55.7273 140.193 55.8362 140.065 55.9233C139.98 56.0104 139.788 56.0757 139.491 56.1193C139.235 56.1628 139.086 56.1846 139.044 56.1846C139.001 56.7508 138.703 56.9904 138.15 56.9032C138.235 57.121 138.044 57.3388 137.576 57.5566C137.15 57.8179 136.682 58.0357 136.172 58.2099C135.704 58.4277 135.47 58.6019 135.47 58.7325C135.384 58.6019 135.257 58.6019 135.087 58.7325C134.959 58.8632 134.874 58.9067 134.831 58.8632C134.576 58.8632 134.427 58.9067 134.384 58.9939C134.342 59.0374 134.257 59.0374 134.129 58.9939C134.044 58.9503 134.002 58.9721 134.002 59.0592C133.746 59.1463 133.619 59.2116 133.619 59.2552L133.938 59.3858H134.002C133.959 59.5601 133.831 59.6254 133.619 59.5818C133.491 59.5818 133.448 59.5165 133.491 59.3858C133.448 59.7778 132.938 60.0174 131.959 60.1045C131.874 60.1916 131.768 60.2569 131.64 60.3005C131.512 60.344 131.406 60.3658 131.321 60.3658C131.236 60.4094 131.172 60.4529 131.129 60.4965C131.087 60.54 131.066 60.6054 131.066 60.6925L130.746 60.8231L130.81 60.8885C130.853 60.9756 130.831 61.0409 130.746 61.0844C130.066 61.3893 129.002 61.8249 127.555 62.3911C126.108 62.9573 125.108 63.371 124.555 63.6324C124.47 63.6324 124.385 63.6324 124.3 63.6324C124.172 63.6759 124.066 63.6977 123.981 63.6977C123.896 63.7413 123.811 63.763 123.725 63.763C123.598 63.8066 123.491 63.8284 123.406 63.8284C123.321 63.8719 123.257 63.8937 123.215 63.8937C123.13 63.9372 123.066 63.9808 123.023 64.0244C122.981 64.0679 122.96 64.1332 122.96 64.2204C122.789 64.2639 122.513 64.3292 122.13 64.4163C121.747 64.5034 121.47 64.6123 121.3 64.743C121.045 64.8737 120.662 64.9608 120.151 65.0043C119.598 65.0479 119.215 65.135 119.002 65.2656C118.577 65.2221 118.3 65.2221 118.173 65.2656C117.917 65.2656 117.598 65.2656 117.215 65.2656C116.79 65.2656 116.513 65.2656 116.385 65.2656C116.3 65.2221 116.173 65.2003 116.003 65.2003C115.832 65.2439 115.726 65.2656 115.683 65.2656C115.641 65.2221 115.534 65.2003 115.364 65.2003L114.662 65.135C114.705 65.0914 114.79 65.0914 114.917 65.135C114.662 65.0914 114.513 65.0479 114.471 65.0043C114.428 64.9172 114.407 64.8737 114.407 64.8737C114.364 64.8737 114.3 64.8737 114.215 64.8737C114.088 64.9172 113.96 64.939 113.832 64.939C113.492 64.5906 113.726 64.351 114.535 64.2204C115.13 64.0897 115.471 64.0026 115.556 63.959C115.641 63.9155 115.747 63.8284 115.875 63.6977C116.003 63.6106 116.088 63.567 116.13 63.567C116.13 63.567 116.151 63.5888 116.194 63.6324C116.279 63.5888 116.385 63.5235 116.513 63.4364C116.598 63.3493 116.705 63.2839 116.832 63.2404C116.917 63.1968 117.045 63.1533 117.215 63.1097C117.556 63.2839 117.832 63.3275 118.045 63.2404C118.215 63.1968 118.3 63.2186 118.3 63.3057C118.3 63.2622 118.577 63.1097 119.13 62.8484C119.3 62.7613 119.385 62.7177 119.385 62.7177L118.939 62.7831C118.641 62.9137 118.47 62.9355 118.428 62.8484C118.385 62.7613 118.385 62.6742 118.428 62.5871C118.47 62.5 118.534 62.4129 118.619 62.3257C119.045 62.1951 119.343 61.9773 119.513 61.6724C119.726 61.6289 120.343 61.324 121.364 60.7578C121.534 60.6707 121.832 60.54 122.257 60.3658C122.64 60.2351 122.981 60.0827 123.279 59.9085C123.577 59.7778 123.789 59.6472 123.917 59.5165C123.96 59.5165 123.981 59.4947 123.981 59.4512C124.194 59.3205 124.3 59.277 124.3 59.3205C124.428 59.1463 124.577 59.0374 124.747 58.9939C124.917 58.9503 125.066 58.8632 125.193 58.7325L125.257 58.9285C125.257 58.885 125.193 58.8632 125.066 58.8632C125.151 58.7761 125.3 58.7325 125.513 58.7325C125.47 58.8632 125.534 58.8414 125.704 58.6672C125.789 58.6236 125.853 58.6019 125.896 58.6019C126.023 58.5583 126.087 58.4712 126.087 58.3405C126.087 58.2534 126.13 58.2317 126.215 58.2752C126.768 57.8397 127.151 57.6219 127.364 57.6219C127.406 57.6654 127.47 57.6437 127.555 57.5566C127.64 57.4695 127.704 57.4259 127.747 57.4259C127.959 57.4259 128.193 57.2735 128.449 56.9686C128.746 56.7073 128.959 56.5548 129.087 56.5113C129.3 56.5113 129.534 56.4242 129.789 56.2499C130.044 56.0757 130.236 56.0104 130.363 56.054C130.704 55.7055 131.151 55.3789 131.704 55.074C132.257 54.7691 132.555 54.5949 132.597 54.5513C132.768 54.5078 132.938 54.4207 133.108 54.29C133.278 54.1593 133.406 54.0505 133.491 53.9633C133.619 53.8762 133.746 53.8109 133.874 53.7674C134.002 53.7238 134.108 53.7238 134.193 53.7674C134.321 53.4189 134.618 53.3536 135.087 53.5714C135.087 53.5714 135.193 53.3971 135.406 53.0487C135.618 52.7003 135.852 52.5478 136.108 52.5914C136.661 51.8074 137.214 51.4154 137.767 51.4154C137.937 50.8928 138.32 50.6097 138.916 50.5661C138.831 50.3048 138.916 50.1741 139.171 50.1741C139.469 49.7821 140.108 49.2595 141.086 48.6062C141.129 48.5626 141.15 48.5191 141.15 48.4755C141.448 48.1706 141.618 48.0835 141.661 48.2142C141.661 48.2142 141.724 48.1271 141.852 47.9529L141.916 48.0182C141.873 48.1924 141.937 48.1924 142.107 48.0182C142.32 47.7569 142.469 47.6044 142.554 47.5609C142.639 47.5173 142.661 47.4084 142.618 47.2342C142.576 47.06 142.661 46.9511 142.873 46.9076C143.001 46.9947 143.065 46.9947 143.065 46.9076L143.129 46.6462C143.895 45.7752 144.405 45.2525 144.66 45.0783C144.746 44.9476 144.895 44.7734 145.107 44.5556C145.32 44.2943 145.49 44.0983 145.618 43.9677C145.746 43.7935 145.894 43.5975 146.065 43.3797C146.277 43.1184 146.426 42.9006 146.511 42.7264C146.639 42.5086 146.745 42.2908 146.831 42.0731C146.958 41.8117 147.043 41.5722 147.086 41.3544C147.128 41.1366 147.15 40.8971 147.15 40.6358C147.15 40.3744 147.107 40.1349 147.022 39.9171C146.852 39.9171 146.448 39.9171 145.809 39.9171C145.214 39.9171 144.895 39.9389 144.852 39.9825C144.682 39.6776 144.533 39.5905 144.405 39.7211C144.278 39.8518 144.15 39.9389 144.022 39.9825C143.895 40.026 143.767 40.0696 143.639 40.1131C143.512 40.1131 143.405 40.1349 143.32 40.1785C142.98 40.3091 142.597 40.3527 142.171 40.3091C141.746 40.2656 141.363 40.2873 141.022 40.3745C139.576 40.9407 138.81 40.9842 138.725 40.5051C138.767 40.5051 138.831 40.5269 138.916 40.5704C139.001 40.5704 139.086 40.5922 139.171 40.6358C139.257 40.6358 139.342 40.6576 139.427 40.7011C139.554 40.7447 139.639 40.7664 139.682 40.7664C139.682 40.6358 139.618 40.5704 139.491 40.5704C139.405 40.5704 139.342 40.5487 139.299 40.5051C139.384 40.4616 139.469 40.4398 139.554 40.4398C139.639 40.4398 139.703 40.418 139.746 40.3745C139.831 40.2873 139.788 40.2438 139.618 40.2438C139.533 40.2438 139.384 40.2656 139.171 40.3091C138.788 40.3527 138.554 40.3527 138.469 40.3091C138.384 40.2656 138.32 40.3091 138.278 40.4398C138.32 40.614 138.384 40.7229 138.469 40.7664C138.384 40.8971 138.214 40.9624 137.959 40.9624C137.746 40.9189 137.448 40.8753 137.065 40.8318C136.682 40.7447 136.448 40.7011 136.363 40.7011C135.682 40.9624 135.044 40.9407 134.448 40.6358C134.236 40.5051 134.257 40.3745 134.512 40.2438C134.555 40.2002 134.597 40.1567 134.64 40.1131C134.342 40.1567 134.087 40.1349 133.874 40.0478C133.704 39.9171 133.512 39.7647 133.299 39.5905C133.129 39.4163 132.98 39.2856 132.853 39.1985C132.725 39.1114 132.491 39.0243 132.151 38.9372C131.81 38.8501 131.619 38.7412 131.576 38.6105C131.491 38.5234 131.3 38.4363 131.002 38.3492C130.746 38.2621 130.576 38.175 130.491 38.0879C130.363 38.0443 130.257 38.0443 130.172 38.0879C130.087 38.1314 130.002 38.1314 129.917 38.0879C129.874 38.0443 129.725 37.9136 129.47 37.6959C129.427 37.5216 129.385 37.4781 129.342 37.5652C129.257 37.6088 129.193 37.6305 129.151 37.6305C129.108 37.6305 129.023 37.6088 128.895 37.5652C128.81 37.4781 128.725 37.4128 128.64 37.3692C128.598 37.2821 128.534 37.2168 128.449 37.1732C128.406 37.0861 128.385 37.0426 128.385 37.0426C128.47 36.9119 128.449 36.803 128.321 36.7159C128.449 36.8901 128.512 36.8901 128.512 36.7159C128.512 36.4546 128.491 36.3239 128.449 36.3239C128.491 36.2368 128.491 36.019 128.449 35.6706C128.449 35.2786 128.491 35.0391 128.576 34.952C128.364 34.6906 128.342 34.3422 128.512 33.9067C128.555 33.4276 128.661 32.9702 128.832 32.5347C129.002 32.0556 129.215 31.5547 129.47 31.0321C129.725 30.5094 129.917 30.1174 130.044 29.8561C130.129 29.769 130.214 29.6166 130.3 29.3988C130.385 29.181 130.512 29.0504 130.683 29.0068C130.64 28.8326 130.704 28.6584 130.874 28.4842C131.044 28.2664 131.108 28.114 131.066 28.0268C131.236 27.8526 131.406 27.5695 131.576 27.1775C131.789 26.7855 131.98 26.4589 132.151 26.1976C132.363 25.9362 132.576 25.7838 132.789 25.7402C133.129 24.9998 133.448 24.6078 133.746 24.5643C133.746 24.3901 133.767 24.2376 133.81 24.107C133.895 23.9763 133.98 23.8456 134.065 23.715C134.193 23.5843 134.257 23.4972 134.257 23.4537C134.342 23.4101 134.491 23.2359 134.704 22.931C134.916 22.5826 135.087 22.3866 135.214 22.343C135.938 21.2542 136.427 20.5573 136.682 20.2524C136.98 20.0782 136.852 20.3178 136.299 20.9711C136.214 21.1017 136.087 21.2759 135.916 21.4937C135.789 21.6679 135.704 21.755 135.661 21.755C135.789 21.7115 135.852 21.7115 135.852 21.755C135.852 21.7986 135.895 21.8204 135.98 21.8204C136.065 21.8204 136.129 21.8421 136.172 21.8857C136.299 21.7986 136.448 21.6026 136.618 21.2977C136.831 20.9928 137.023 20.7533 137.193 20.5791C137.193 20.5355 137.214 20.492 137.257 20.4484C137.384 20.7097 137.469 20.688 137.512 20.3831C137.512 20.2089 137.533 20.1218 137.576 20.1218C137.746 20.2089 137.831 20.1653 137.831 19.9911C137.831 19.8169 137.895 19.7516 138.023 19.7951C138.108 19.7951 138.15 19.7516 138.15 19.6644C138.193 19.5773 138.235 19.4902 138.278 19.4031C138.363 19.316 138.469 19.2942 138.597 19.3378C138.597 19.2071 138.703 19.0765 138.916 18.9458C139.129 18.8151 139.214 18.7063 139.171 18.6191C139.214 18.4885 139.342 18.336 139.554 18.1618C139.81 17.9876 139.937 17.8787 139.937 17.8352C140.108 17.661 140.256 17.5085 140.384 17.3779C140.512 17.2036 140.597 17.073 140.639 16.9859C140.682 16.8988 140.703 16.8116 140.703 16.7245C140.746 16.6374 140.767 16.5939 140.767 16.5939C140.81 16.5503 140.852 16.5285 140.895 16.5285C140.937 16.5285 141.001 16.5503 141.086 16.5939C141.044 16.289 141.022 16.1366 141.022 16.1366C141.065 16.093 141.193 16.0494 141.405 16.0059C141.32 15.7881 141.427 15.6575 141.724 15.6139C141.512 15.4832 141.661 15.2219 142.171 14.8299C142.171 14.5251 142.235 14.3073 142.363 14.1766C142.533 14.0024 142.767 13.9806 143.065 14.1113C143.065 14.0242 143.086 13.9806 143.129 13.9806H143.256C143.044 13.7629 143.022 13.5669 143.192 13.3926C143.363 13.1749 143.533 13.066 143.703 13.066C143.831 12.9789 143.916 12.9571 143.958 13.0007C144.001 12.9571 144.086 12.8918 144.214 12.8047C144.341 12.7176 144.405 12.6958 144.405 12.7393C144.405 12.7393 144.49 12.7393 144.66 12.7393C144.788 12.7393 144.916 12.6304 145.043 12.4127C145.214 12.1949 145.32 12.0642 145.363 12.0207C145.363 11.7594 145.49 11.5634 145.746 11.4327C145.916 11.3456 146.107 11.2803 146.32 11.2367C146.533 11.1496 146.724 11.1061 146.894 11.1061C147.065 11.0625 147.235 11.0407 147.405 11.0407C147.618 10.9972 147.767 10.9536 147.852 10.9101C147.979 10.8665 148.128 10.7576 148.299 10.5834C148.469 10.3656 148.639 10.235 148.809 10.1914C149.064 10.4527 149.277 10.5181 149.447 10.3874C149.618 10.2567 149.83 10.2567 150.086 10.3874C150.341 10.3874 150.469 10.3439 150.469 10.2567C150.724 9.86476 151.171 9.93009 151.809 10.4527C151.894 10.5398 152.064 10.6052 152.32 10.6487C152.575 10.6923 152.766 10.7576 152.894 10.8447C153.064 10.8883 153.107 10.9754 153.022 11.1061C153.575 11.2803 153.894 11.3892 153.979 11.4327C155.894 11.8247 157.83 12.6522 159.787 13.9153C160.085 14.1331 160.234 14.4162 160.234 14.7646C160.277 15.113 160.319 15.309 160.362 15.3526ZM131.066 33.972V34.364C131.108 34.1898 131.108 34.0591 131.066 33.972ZM133.682 39.6558C133.767 39.6994 133.853 39.7211 133.938 39.7211C133.98 39.7647 134.002 39.7865 134.002 39.7865H134.129C133.831 39.6558 133.682 39.6123 133.682 39.6558ZM134.576 24.0416C134.533 24.0852 134.512 24.107 134.512 24.107C134.597 24.1505 134.661 24.107 134.704 23.9763C134.704 23.8892 134.661 23.911 134.576 24.0416ZM135.15 23.4537C135.193 23.4101 135.235 23.3448 135.278 23.2577C135.363 23.127 135.406 23.0399 135.406 22.9963C135.193 23.0834 135.023 23.2359 134.895 23.4537C134.81 23.5843 134.895 23.5843 135.15 23.4537ZM135.533 22.735C135.533 22.7786 135.533 22.8003 135.533 22.8003L136.044 22.2124C136.001 22.1688 135.938 22.1906 135.852 22.2777C135.81 22.3213 135.746 22.4084 135.661 22.539C135.618 22.6261 135.576 22.6915 135.533 22.735ZM114.024 64.743C113.896 64.743 113.896 64.7648 114.024 64.8083C114.152 64.7648 114.152 64.743 114.024 64.743ZM118.875 63.175C118.917 63.1315 118.96 63.1097 119.002 63.1097C119.045 63.1097 119.066 63.0879 119.066 63.0444L118.619 63.2404L118.875 63.175ZM121.428 60.9538C121.428 60.9538 121.449 60.9538 121.492 60.9538H121.428ZM133.108 59.6472C133.108 59.6036 133.129 59.6036 133.172 59.6472H133.108ZM134.002 58.9285H134.065C134.065 58.885 134.044 58.885 134.002 58.9285ZM143.831 52.918C143.831 52.9616 143.831 52.9834 143.831 52.9834C143.916 53.0269 143.958 53.0269 143.958 52.9834C143.958 52.8963 143.916 52.8745 143.831 52.918ZM152.064 40.8318L152.001 40.7011C152.001 40.7882 152.001 40.8318 152.001 40.8318C152.001 40.8318 152.022 40.8318 152.064 40.8318ZM147.405 49.7821L147.469 49.7168C147.426 49.6733 147.405 49.695 147.405 49.7821ZM139.363 18.9458C139.32 18.9458 139.278 18.9458 139.235 18.9458C139.235 18.9458 139.235 18.924 139.235 18.8805L139.363 18.9458ZM138.597 19.8604C138.597 19.904 138.576 19.9258 138.533 19.9258C138.491 19.9258 138.469 19.9258 138.469 19.9258C138.427 20.0129 138.448 20.0564 138.533 20.0564H138.661C138.618 19.9693 138.597 19.904 138.597 19.8604ZM136.618 23.1923C136.576 23.2794 136.618 23.3448 136.746 23.3883C136.789 23.3012 136.746 23.2359 136.618 23.1923ZM137.065 23.4537C137.108 23.4537 137.108 23.4537 137.065 23.4537V23.4537ZM137.193 23.2577C137.32 23.2577 137.427 23.1706 137.512 22.9963C137.554 22.9528 137.576 22.931 137.576 22.931C137.533 22.9746 137.491 22.9963 137.448 22.9963C137.363 22.9963 137.32 22.9528 137.32 22.8657C137.363 22.7786 137.469 22.735 137.64 22.735L137.576 22.931C137.618 22.8439 137.555 22.7786 137.384 22.735C137.299 22.735 137.15 22.735 136.938 22.735C136.682 22.9528 136.661 23.0835 136.874 23.127C137.086 23.1706 137.193 23.2141 137.193 23.2577ZM140.129 19.6644C140.171 19.6209 140.214 19.5773 140.256 19.5338C140.299 19.4467 140.32 19.3813 140.32 19.3378C140.363 19.2942 140.405 19.2507 140.448 19.2071C140.618 19.12 140.639 19.0547 140.512 19.0111C140.469 19.0547 140.405 19.12 140.32 19.2071C140.235 19.2507 140.15 19.316 140.065 19.4031C140.022 19.4467 139.98 19.4902 139.937 19.5338C139.895 19.5773 139.852 19.5773 139.81 19.5338C139.767 19.6644 139.703 19.7733 139.618 19.8604C139.533 19.904 139.469 19.9258 139.427 19.9258C139.427 19.8822 139.405 19.8604 139.363 19.8604C139.363 19.8604 139.384 19.8822 139.427 19.9258C139.299 19.9693 139.193 20.1 139.108 20.3178C139.023 20.492 138.959 20.6009 138.916 20.6444C138.916 20.688 138.874 20.7533 138.788 20.8404C138.661 20.884 138.512 20.9711 138.342 21.1017C138.214 21.1888 138.108 21.2977 138.023 21.4284C137.937 21.5591 137.81 21.7333 137.64 21.951C137.512 22.1253 137.406 22.2559 137.32 22.343C137.278 22.4301 137.299 22.4737 137.384 22.4737C137.469 22.4737 137.512 22.4955 137.512 22.539C137.554 22.539 137.597 22.539 137.64 22.539C137.767 22.5826 137.852 22.5826 137.895 22.539C138.023 22.3648 138.193 22.147 138.406 21.8857C138.661 21.6244 138.874 21.4066 139.044 21.2324C139.214 21.0146 139.299 20.8404 139.299 20.7097C139.299 20.6662 139.32 20.6226 139.363 20.5791C139.448 20.492 139.512 20.4484 139.554 20.4484C139.512 20.3613 139.576 20.2742 139.746 20.1871C139.746 20.1871 139.746 20.1653 139.746 20.1218C139.746 20.0347 139.788 20.0129 139.874 20.0564C139.916 20.0129 139.959 19.9258 140.001 19.7951C140.086 19.708 140.129 19.6644 140.129 19.6644ZM141.022 18.6191C141.065 18.6191 141.107 18.5974 141.15 18.5538C141.193 18.4667 141.235 18.4232 141.278 18.4232C141.193 18.336 141.107 18.336 141.022 18.4232C140.937 18.4667 140.852 18.532 140.767 18.6191C140.639 18.7934 140.576 18.9022 140.576 18.9458C140.618 18.9458 140.767 18.8369 141.022 18.6191ZM154.937 19.6644C154.979 19.8387 155 19.9258 155 19.9258V19.5338C154.958 19.4467 154.937 19.4902 154.937 19.6644ZM154.554 25.0216C154.554 25.0652 154.554 25.0869 154.554 25.0869V25.0216ZM154.809 25.6096H154.873L154.937 25.4789L154.809 25.6096ZM154.681 24.4336C154.639 24.7821 154.639 24.9345 154.681 24.8909L154.873 24.2376V24.0416L154.681 24.4336ZM155.064 21.1017C155.149 21.1017 155.171 21.0582 155.128 20.9711C155.128 20.4484 155.064 20.2089 154.937 20.2524C154.724 22.1253 154.681 23.127 154.809 23.2577C154.639 23.3012 154.617 23.3883 154.745 23.519C154.788 23.5625 154.809 23.6061 154.809 23.6497C154.724 23.6497 154.702 23.715 154.745 23.8456V23.911L154.873 23.3883C154.915 23.2141 154.937 23.127 154.937 23.127C155.022 22.9092 155.064 22.539 155.064 22.0164C155.064 21.4502 155.064 21.1453 155.064 21.1017Z" fill="#0093CE"/>
</svg>
