<svg width="113" height="114" viewBox="0 0 113 114" fill="none" xmlns="http://www.w3.org/2000/svg">
<g filter="url(#filter0_d_346_346)">
<mask id="path-1-outside-1_346_346" maskUnits="userSpaceOnUse" x="-0.301586" y="-1.28212" width="110.565" height="110.565" fill="black">
<rect fill="white" x="-0.301586" y="-1.28212" width="110.565" height="110.565"/>
<path d="M44.3975 56.3862L53.7284 57.6839C54.2354 57.7574 54.752 57.7301 55.2485 57.6035C55.7449 57.477 56.2115 57.2537 56.6215 56.9464L72.3448 45.0627C73.1634 44.4401 73.7024 43.5189 73.844 42.5003C73.9857 41.4817 73.7185 40.4484 73.1009 39.6261L65.0568 29.0748C64.4343 28.2562 63.5131 27.7172 62.4944 27.5755C61.4758 27.4338 60.4425 27.701 59.6202 28.3187L43.8969 40.2024C43.0714 40.8133 42.5207 41.7256 42.3648 42.7406L41.0779 51.9943C40.9357 53.0169 41.2055 54.0541 41.8281 54.8777C42.4506 55.7014 43.3748 56.244 44.3975 56.3862ZM49.8619 45.3553L61.221 36.8735L64.5406 41.2654L53.22 49.7526L49.3642 49.2164L49.8619 45.3553ZM88.5495 66.4567L84.6938 65.9205L90.0559 27.3634L93.9117 27.8996C94.9343 28.0418 95.9715 27.772 96.7952 27.1495C97.6188 26.527 98.1615 25.6027 98.3037 24.5801C98.4459 23.5575 98.176 22.5203 97.5535 21.6967C96.931 20.873 96.0067 20.3304 94.9841 20.1882L25.5804 10.5362C24.5578 10.394 23.5205 10.6638 22.6969 11.2864C21.8732 11.9089 21.3306 12.8331 21.1884 13.8557C21.0462 14.8783 21.316 15.9155 21.9386 16.7392C22.5611 17.5628 23.4853 18.1054 24.5079 18.2476L28.3637 18.7839L23.0016 57.341L19.1458 56.8047C18.1232 56.6625 17.086 56.9324 16.2623 57.5549C15.4387 58.1774 14.896 59.1016 14.7538 60.1242C14.6116 61.1468 14.8815 62.184 15.504 63.0077C16.1265 63.8313 17.0508 64.3739 18.0734 64.5162L48.9195 68.8059L48.3028 73.24L29.1505 82.3673C28.3688 82.7127 27.7225 83.3058 27.3113 84.055C26.9001 84.8042 26.7469 85.6678 26.8752 86.5128C27.0036 87.3577 27.4065 88.1369 28.0217 88.7301C28.6368 89.3233 29.4301 89.6977 30.2791 89.7953C31.036 89.9094 31.8095 89.7833 32.491 89.4348L47.0159 82.4937L46.2384 88.0845C46.0962 89.1071 46.366 90.1443 46.9886 90.9679C47.6111 91.7916 48.5353 92.3342 49.558 92.4764C50.5806 92.6186 51.6178 92.3488 52.4415 91.7263C53.2651 91.1038 53.8077 90.1795 53.9499 89.1569L54.7275 83.5661L66.8073 94.2071C67.3677 94.7284 68.0775 95.0608 68.8368 95.1575C69.6614 95.2657 70.4991 95.107 71.2269 94.7045C71.9548 94.302 72.5346 93.677 72.8815 92.9211C73.2283 92.1651 73.3239 91.318 73.1542 90.5037C72.9846 89.6895 72.5586 88.951 71.9387 88.3965L56.0036 74.3896L56.631 69.8784L87.4771 74.1682C88.4997 74.3104 89.537 74.0405 90.3606 73.418C91.1843 72.7955 91.7269 71.8713 91.8691 70.8487C92.0113 69.8261 91.7415 68.7889 91.1189 67.9652C90.4964 67.1416 89.5722 66.5989 88.5495 66.4567ZM76.9823 64.8481L30.7131 58.4134L36.0752 19.8563L82.3444 26.291L76.9823 64.8481Z"/>
</mask>
<path d="M44.3975 56.3862L53.7284 57.6839C54.2354 57.7574 54.752 57.7301 55.2485 57.6035C55.7449 57.477 56.2115 57.2537 56.6215 56.9464L72.3448 45.0627C73.1634 44.4401 73.7024 43.5189 73.844 42.5003C73.9857 41.4817 73.7185 40.4484 73.1009 39.6261L65.0568 29.0748C64.4343 28.2562 63.5131 27.7172 62.4944 27.5755C61.4758 27.4338 60.4425 27.701 59.6202 28.3187L43.8969 40.2024C43.0714 40.8133 42.5207 41.7256 42.3648 42.7406L41.0779 51.9943C40.9357 53.0169 41.2055 54.0541 41.8281 54.8777C42.4506 55.7014 43.3748 56.244 44.3975 56.3862ZM49.8619 45.3553L61.221 36.8735L64.5406 41.2654L53.22 49.7526L49.3642 49.2164L49.8619 45.3553ZM88.5495 66.4567L84.6938 65.9205L90.0559 27.3634L93.9117 27.8996C94.9343 28.0418 95.9715 27.772 96.7952 27.1495C97.6188 26.527 98.1615 25.6027 98.3037 24.5801C98.4459 23.5575 98.176 22.5203 97.5535 21.6967C96.931 20.873 96.0067 20.3304 94.9841 20.1882L25.5804 10.5362C24.5578 10.394 23.5205 10.6638 22.6969 11.2864C21.8732 11.9089 21.3306 12.8331 21.1884 13.8557C21.0462 14.8783 21.316 15.9155 21.9386 16.7392C22.5611 17.5628 23.4853 18.1054 24.5079 18.2476L28.3637 18.7839L23.0016 57.341L19.1458 56.8047C18.1232 56.6625 17.086 56.9324 16.2623 57.5549C15.4387 58.1774 14.896 59.1016 14.7538 60.1242C14.6116 61.1468 14.8815 62.184 15.504 63.0077C16.1265 63.8313 17.0508 64.3739 18.0734 64.5162L48.9195 68.8059L48.3028 73.24L29.1505 82.3673C28.3688 82.7127 27.7225 83.3058 27.3113 84.055C26.9001 84.8042 26.7469 85.6678 26.8752 86.5128C27.0036 87.3577 27.4065 88.1369 28.0217 88.7301C28.6368 89.3233 29.4301 89.6977 30.2791 89.7953C31.036 89.9094 31.8095 89.7833 32.491 89.4348L47.0159 82.4937L46.2384 88.0845C46.0962 89.1071 46.366 90.1443 46.9886 90.9679C47.6111 91.7916 48.5353 92.3342 49.558 92.4764C50.5806 92.6186 51.6178 92.3488 52.4415 91.7263C53.2651 91.1038 53.8077 90.1795 53.9499 89.1569L54.7275 83.5661L66.8073 94.2071C67.3677 94.7284 68.0775 95.0608 68.8368 95.1575C69.6614 95.2657 70.4991 95.107 71.2269 94.7045C71.9548 94.302 72.5346 93.677 72.8815 92.9211C73.2283 92.1651 73.3239 91.318 73.1542 90.5037C72.9846 89.6895 72.5586 88.951 71.9387 88.3965L56.0036 74.3896L56.631 69.8784L87.4771 74.1682C88.4997 74.3104 89.537 74.0405 90.3606 73.418C91.1843 72.7955 91.7269 71.8713 91.8691 70.8487C92.0113 69.8261 91.7415 68.7889 91.1189 67.9652C90.4964 67.1416 89.5722 66.5989 88.5495 66.4567ZM76.9823 64.8481L30.7131 58.4134L36.0752 19.8563L82.3444 26.291L76.9823 64.8481Z" fill="#0093CE"/>
<path d="M53.7284 57.6839L55.1631 47.7873C55.144 47.7846 55.1249 47.7818 55.1059 47.7792L53.7284 57.6839ZM56.6215 56.9464L62.6185 64.9487C62.6294 64.9405 62.6403 64.9323 62.6511 64.9241L56.6215 56.9464ZM72.3448 45.0627L78.3744 53.0404C78.3823 53.0344 78.3902 53.0284 78.3981 53.0224L72.3448 45.0627ZM73.1009 39.6261L81.0964 33.6202C81.0821 33.6012 81.0678 33.5822 81.0534 33.5633L73.1009 39.6261ZM65.0568 29.0748L57.0972 35.1282L57.1043 35.1375L65.0568 29.0748ZM62.4944 27.5755L63.8719 17.6708L62.4944 27.5755ZM59.6202 28.3187L53.6143 20.3231C53.6064 20.329 53.5985 20.335 53.5906 20.341L59.6202 28.3187ZM43.8969 40.2024L49.8453 48.2409C49.8725 48.2208 49.8995 48.2005 49.9265 48.1802L43.8969 40.2024ZM42.3648 42.7406L32.4808 41.2222C32.4736 41.2691 32.4667 41.3161 32.4601 41.3631L42.3648 42.7406ZM49.8619 45.3553L43.8788 37.3426C41.7097 38.9623 40.29 41.3921 39.9439 44.077L49.8619 45.3553ZM61.221 36.8735L69.1986 30.8438C65.8822 26.456 59.645 25.5701 55.238 28.8608L61.221 36.8735ZM64.5406 41.2654L70.5391 49.2665C72.6665 47.6716 74.0712 45.295 74.4425 42.6621C74.8139 40.0293 74.1214 37.3569 72.5182 35.2357L64.5406 41.2654ZM53.22 49.7526L51.8425 59.6573C54.456 60.0207 57.1073 59.3365 59.2185 57.7537L53.22 49.7526ZM49.3642 49.2164L39.4463 47.938C38.7452 53.3769 42.5552 58.3657 47.9868 59.1211L49.3642 49.2164ZM84.6938 65.9205L74.7891 64.5431C74.0284 70.0133 77.8461 75.0644 83.3163 75.8252L84.6938 65.9205ZM90.0559 27.3634L91.4334 17.4587C85.9632 16.698 80.912 20.5158 80.1513 25.986L90.0559 27.3634ZM93.9117 27.8996L92.5342 37.8043L93.9117 27.8996ZM94.9841 20.1882L96.3616 10.2835L94.9841 20.1882ZM25.5804 10.5362L26.9578 0.631544L25.5804 10.5362ZM21.1884 13.8557L11.2837 12.4783L21.1884 13.8557ZM24.5079 18.2476L23.1305 28.1523L24.5079 18.2476ZM28.3637 18.7839L38.2684 20.1613C39.0291 14.6911 35.2114 9.63993 29.7412 8.87919L28.3637 18.7839ZM23.0016 57.341L21.6241 67.2456C27.0943 68.0064 32.1455 64.1886 32.9062 58.7184L23.0016 57.341ZM14.7538 60.1242L4.84915 58.7468L14.7538 60.1242ZM48.9195 68.8059L58.8242 70.1834C59.5849 64.7132 55.7671 59.662 50.2969 58.9013L48.9195 68.8059ZM48.3028 73.24L52.6049 82.2673C55.6395 80.8211 57.7445 77.947 58.2075 74.6174L48.3028 73.24ZM29.1505 82.3673L33.1923 91.5141C33.2796 91.4755 33.3664 91.4357 33.4526 91.3946L29.1505 82.3673ZM30.2791 89.7953L31.7697 79.907C31.654 79.8896 31.538 79.8742 31.4218 79.8608L30.2791 89.7953ZM32.491 89.4348L28.1793 80.412C28.0981 80.4509 28.0174 80.4908 27.9372 80.5318L32.491 89.4348ZM47.0159 82.4937L56.9206 83.8711C57.4276 80.2255 55.8909 76.5961 52.9203 74.4228C49.9496 72.2496 46.0252 71.884 42.7042 73.471L47.0159 82.4937ZM54.7275 83.5661L61.3375 76.0623C58.5755 73.6293 54.7003 72.9103 51.2494 74.1905C47.7985 75.4706 45.3298 78.5431 44.8228 82.1887L54.7275 83.5661ZM66.8073 94.2071L73.6175 86.8845C73.5516 86.8232 73.4849 86.7628 73.4173 86.7033L66.8073 94.2071ZM68.8368 95.1575L70.1377 85.2425C70.1255 85.2409 70.1132 85.2393 70.1009 85.2377L68.8368 95.1575ZM71.9387 88.3965L78.606 80.9435C78.5843 80.9241 78.5626 80.9048 78.5408 80.8856L71.9387 88.3965ZM56.0036 74.3896L46.099 73.0121C45.6359 76.3417 46.8768 79.6811 49.4016 81.9004L56.0036 74.3896ZM56.631 69.8784L58.0085 59.9737C52.5383 59.213 47.4871 63.0307 46.7263 68.5009L56.631 69.8784ZM76.9823 64.8481L75.6048 74.7527C81.075 75.5135 86.1262 71.6957 86.8869 66.2255L76.9823 64.8481ZM30.7131 58.4134L20.8084 57.036C20.0477 62.5062 23.8654 67.5573 29.3356 68.3181L30.7131 58.4134ZM36.0752 19.8563L37.4527 9.95163C31.9825 9.19089 26.9313 13.0087 26.1706 18.4789L36.0752 19.8563ZM82.3444 26.291L92.2491 27.6684C93.0098 22.1982 89.1921 17.147 83.7218 16.3863L82.3444 26.291ZM43.02 66.2909L52.351 67.5885L55.1059 47.7792L45.7749 46.4815L43.02 66.2909ZM52.2937 67.5804C54.1032 67.8427 55.9467 67.7453 57.7184 67.2937L52.7785 47.9134C53.5573 47.7148 54.3677 47.672 55.1631 47.7873L52.2937 67.5804ZM57.7184 67.2937C59.4902 66.8421 61.1554 66.0452 62.6185 64.9487L50.6245 48.9442C51.2677 48.4622 51.9997 48.1119 52.7785 47.9134L57.7184 67.2937ZM62.6511 64.9241L78.3744 53.0404L66.3152 37.085L50.5919 48.9687L62.6511 64.9241ZM78.3981 53.0224C81.3196 50.8006 83.2432 47.5131 83.7487 43.8778L63.9394 41.1229C64.1616 39.5248 65.0072 38.0796 66.2915 37.1029L78.3981 53.0224ZM83.7487 43.8778C84.2543 40.2424 83.3008 36.5548 81.0964 33.6202L65.1053 45.6321C64.1363 44.342 63.7171 42.721 63.9394 41.1229L83.7487 43.8778ZM81.0534 33.5633L73.0093 23.012L57.1043 35.1375L65.1483 45.6889L81.0534 33.5633ZM73.0165 23.0213C70.7947 20.0999 67.5071 18.1764 63.8719 17.6708L61.117 37.4802C59.519 37.2579 58.0738 36.4124 57.0972 35.1282L73.0165 23.0213ZM63.8719 17.6708C60.2366 17.1653 56.549 18.1188 53.6143 20.3231L65.626 36.3143C64.336 37.2833 62.715 37.7024 61.117 37.4802L63.8719 17.6708ZM53.5906 20.341L37.8673 32.2247L49.9265 48.1802L65.6498 36.2964L53.5906 20.341ZM37.9485 32.164C35.0025 34.344 33.0372 37.5998 32.4808 41.2222L52.2489 44.2589C52.0043 45.8514 51.1403 47.2826 49.8453 48.2409L37.9485 32.164ZM32.4601 41.3631L31.1732 50.6168L50.9826 53.3717L52.2695 44.118L32.4601 41.3631ZM31.1732 50.6168C30.6657 54.2664 31.6287 57.968 33.8505 60.9075L49.8057 48.848C50.7823 50.1402 51.2057 51.7674 50.9826 53.3717L31.1732 50.6168ZM33.8505 60.9075C36.0722 63.8469 39.3706 65.7834 43.02 66.2909L45.7749 46.4815C47.3791 46.7046 48.8291 47.5559 49.8057 48.848L33.8505 60.9075ZM55.8449 53.368L67.204 44.8862L55.238 28.8608L43.8788 37.3426L55.8449 53.368ZM53.2434 42.9032L56.5629 47.2952L72.5182 35.2357L69.1986 30.8438L53.2434 42.9032ZM58.542 33.2643L47.2215 41.7515L59.2185 57.7537L70.5391 49.2665L58.542 33.2643ZM54.5974 39.8479L50.7417 39.3117L47.9868 59.1211L51.8425 59.6573L54.5974 39.8479ZM59.2822 50.4947L59.7798 46.6336L39.9439 44.077L39.4463 47.938L59.2822 50.4947ZM89.927 56.5521L86.0712 56.0158L83.3163 75.8252L87.1721 76.3614L89.927 56.5521ZM94.5985 67.298L99.9606 28.7409L80.1513 25.986L74.7891 64.5431L94.5985 67.298ZM88.6785 37.2681L92.5342 37.8043L95.2891 17.995L91.4334 17.4587L88.6785 37.2681ZM92.5342 37.8043C96.1837 38.3118 99.8853 37.3489 102.825 35.1272L90.7656 19.1718C92.0577 18.1951 93.6849 17.7719 95.2891 17.995L92.5342 37.8043ZM102.825 35.1272C105.764 32.9055 107.701 29.6071 108.208 25.9576L88.399 23.2027C88.6221 21.5984 89.4734 20.1484 90.7656 19.1718L102.825 35.1272ZM108.208 25.9576C108.716 22.3081 107.753 18.6064 105.531 15.667L89.5759 27.7264C88.5992 26.4342 88.1759 24.807 88.399 23.2027L108.208 25.9576ZM105.531 15.667C103.309 12.7275 100.011 10.7911 96.3616 10.2835L93.6067 30.0929C92.0025 29.8698 90.5525 29.0186 89.5759 27.7264L105.531 15.667ZM96.3616 10.2835L26.9578 0.631544L24.2029 20.4409L93.6067 30.0929L96.3616 10.2835ZM26.9578 0.631544C23.3084 0.124014 19.6067 1.08698 16.6673 3.30866L28.7265 19.2641C27.4343 20.2407 25.8072 20.664 24.2029 20.4409L26.9578 0.631544ZM16.6673 3.30866C13.7278 5.53034 11.7913 8.82874 11.2837 12.4783L31.0931 15.2332C30.87 16.8375 30.0187 18.2874 28.7265 19.2641L16.6673 3.30866ZM11.2837 12.4783C10.7762 16.1278 11.7392 19.8294 13.9609 22.7689L29.9162 10.7094C30.8928 12.0016 31.3162 13.6288 31.0931 15.2332L11.2837 12.4783ZM13.9609 22.7689C16.1827 25.7083 19.481 27.6448 23.1305 28.1523L25.8854 8.34296C27.4896 8.56606 28.9395 9.4173 29.9162 10.7094L13.9609 22.7689ZM23.1305 28.1523L26.9863 28.6885L29.7412 8.87919L25.8854 8.34296L23.1305 28.1523ZM18.459 17.4064L13.0969 55.9635L32.9062 58.7184L38.2684 20.1613L18.459 17.4064ZM24.379 47.4363L20.5232 46.9001L17.7684 66.7094L21.6241 67.2456L24.379 47.4363ZM20.5232 46.9001C16.8738 46.3925 13.1722 47.3555 10.2327 49.5772L22.2919 65.5326C20.9998 66.5092 19.3726 66.9325 17.7684 66.7094L20.5232 46.9001ZM10.2327 49.5772C7.29323 51.7989 5.35669 55.0973 4.84915 58.7468L24.6585 61.5017C24.4354 63.106 23.5841 64.556 22.2919 65.5326L10.2327 49.5772ZM4.84915 58.7468C4.34161 62.3963 5.30465 66.098 7.52637 69.0374L23.4816 56.978C24.4583 58.2701 24.8816 59.8973 24.6585 61.5017L4.84915 58.7468ZM7.52637 69.0374C9.74808 71.9768 13.0465 73.9133 16.6959 74.4208L19.4508 54.6115C21.0551 54.8346 22.505 55.6858 23.4816 56.978L7.52637 69.0374ZM16.6959 74.4208L47.542 78.7106L50.2969 58.9013L19.4508 54.6115L16.6959 74.4208ZM39.0148 67.4285L38.3982 71.8626L58.2075 74.6174L58.8242 70.1834L39.0148 67.4285ZM44.0008 64.2127L24.8484 73.34L33.4526 91.3946L52.6049 82.2673L44.0008 64.2127ZM25.1086 73.2206C22.3189 74.4533 20.0123 76.5698 18.5449 79.2435L36.0777 88.8664C35.4326 90.0418 34.4187 90.9722 33.1923 91.5141L25.1086 73.2206ZM18.5449 79.2435C17.0774 81.9173 16.5305 84.9996 16.9887 88.015L36.7618 85.0105C36.9632 86.3361 36.7228 87.6911 36.0777 88.8664L18.5449 79.2435ZM16.9887 88.015C17.4469 91.0303 18.8846 93.8111 21.0801 95.9283L34.9633 81.5319C35.9283 82.4626 36.5604 83.685 36.7618 85.0105L16.9887 88.015ZM21.0801 95.9283C23.2755 98.0455 26.1066 99.3813 29.1365 99.7298L31.4218 79.8608C32.7537 80.014 33.9982 80.6012 34.9633 81.5319L21.0801 95.9283ZM28.7886 99.6836C31.6136 100.109 34.5011 99.6388 37.0447 98.3378L27.9372 80.5318C29.118 79.9278 30.4583 79.7093 31.7697 79.907L28.7886 99.6836ZM36.8027 98.4575L51.3276 91.5164L42.7042 73.471L28.1793 80.412L36.8027 98.4575ZM37.1112 81.1163L36.3337 86.707L56.1431 89.4619L56.9206 83.8711L37.1112 81.1163ZM36.3337 86.707C35.8262 90.3566 36.7892 94.0582 39.011 96.9977L54.9662 84.9382C55.9429 86.2304 56.3662 87.8576 56.1431 89.4619L36.3337 86.707ZM39.011 96.9977C41.2327 99.9371 44.5311 101.874 48.1805 102.381L50.9354 82.5717C52.5396 82.7948 53.9896 83.6461 54.9662 84.9382L39.011 96.9977ZM48.1805 102.381C51.83 102.889 55.5316 101.926 58.4711 99.704L46.4118 83.7486C47.704 82.7719 49.3312 82.3486 50.9354 82.5717L48.1805 102.381ZM58.4711 99.704C61.4105 97.4823 63.3471 94.1839 63.8546 90.5344L44.0453 87.7795C44.2684 86.1752 45.1197 84.7252 46.4118 83.7486L58.4711 99.704ZM63.8546 90.5344L64.6321 84.9436L44.8228 82.1887L44.0453 87.7795L63.8546 90.5344ZM48.1174 91.07L60.1972 101.711L73.4173 86.7033L61.3375 76.0623L48.1174 91.07ZM59.997 101.53C62.0891 103.475 64.7386 104.716 67.5727 105.077L70.1009 85.2377C71.4165 85.4054 72.6464 85.9813 73.6175 86.8845L59.997 101.53ZM67.5358 105.073C70.4788 105.459 73.4682 104.892 76.0658 103.456L66.3881 85.9532C67.53 85.3218 68.8441 85.0728 70.1377 85.2425L67.5358 105.073ZM76.0658 103.456C78.6635 102.02 80.7328 99.789 81.9705 97.0911L63.7924 88.7511C64.3365 87.5651 65.2462 86.5846 66.3881 85.9532L76.0658 103.456ZM81.9705 97.0911C83.2083 94.3932 83.5495 91.3698 82.944 88.4639L63.3645 92.5436C63.0983 91.2661 63.2483 89.937 63.7924 88.7511L81.9705 97.0911ZM82.944 88.4639C82.3385 85.558 80.8182 82.9225 78.606 80.9435L65.2714 95.8495C64.299 94.9796 63.6307 93.821 63.3645 92.5436L82.944 88.4639ZM78.5408 80.8856L62.6057 66.8787L49.4016 81.9004L65.3367 95.9074L78.5408 80.8856ZM65.9083 75.767L66.5357 71.2558L46.7263 68.5009L46.099 73.0121L65.9083 75.767ZM55.2536 79.7831L86.0997 84.0728L88.8546 64.2635L58.0085 59.9737L55.2536 79.7831ZM86.0997 84.0728C89.7491 84.5804 93.4507 83.6174 96.3902 81.3957L84.331 65.4403C85.6232 64.4637 87.2503 64.0404 88.8546 64.2635L86.0997 84.0728ZM96.3902 81.3957C99.3297 79.174 101.266 75.8756 101.774 72.2261L81.9644 69.4712C82.1875 67.8669 83.0388 66.4169 84.331 65.4403L96.3902 81.3957ZM101.774 72.2261C102.281 68.5766 101.318 64.875 99.0966 61.9355L83.1413 73.9949C82.1647 72.7028 81.7413 71.0755 81.9644 69.4712L101.774 72.2261ZM99.0966 61.9355C96.8748 58.996 93.5764 57.0596 89.927 56.5521L87.1721 76.3614C85.5679 76.1383 84.118 75.2871 83.1413 73.9949L99.0966 61.9355ZM78.3597 54.9434L32.0905 48.5087L29.3356 68.3181L75.6048 74.7527L78.3597 54.9434ZM40.6178 59.7909L45.9799 21.2338L26.1706 18.4789L20.8084 57.036L40.6178 59.7909ZM34.6978 29.761L80.967 36.1956L83.7218 16.3863L37.4527 9.95163L34.6978 29.761ZM72.4397 24.9135L67.0776 63.4706L86.8869 66.2255L92.2491 27.6684L72.4397 24.9135Z" fill="white" mask="url(#path-1-outside-1_346_346)"/>
</g>
<defs>
<filter id="filter0_d_346_346" x="0.716797" y="0.499023" width="111.624" height="112.692" filterUnits="userSpaceOnUse" color-interpolation-filters="sRGB">
<feFlood flood-opacity="0" result="BackgroundImageFix"/>
<feColorMatrix in="SourceAlpha" type="matrix" values="0 0 0 0 0 0 0 0 0 0 0 0 0 0 0 0 0 0 127 0" result="hardAlpha"/>
<feOffset dy="4"/>
<feGaussianBlur stdDeviation="2"/>
<feComposite in2="hardAlpha" operator="out"/>
<feColorMatrix type="matrix" values="0 0 0 0 0 0 0 0 0 0 0 0 0 0 0 0 0 0 0.25 0"/>
<feBlend mode="normal" in2="BackgroundImageFix" result="effect1_dropShadow_346_346"/>
<feBlend mode="normal" in="SourceGraphic" in2="effect1_dropShadow_346_346" result="shape"/>
</filter>
</defs>
</svg>
