<svg width="104" height="92" viewBox="0 0 104 92" fill="none" xmlns="http://www.w3.org/2000/svg">
<g filter="url(#filter0_d_346_345)">
<path d="M88.357 41.3296L85.2711 38.4015L57.5449 11.8655L57.149 11.7643C56.9526 11.6132 56.7424 11.4814 56.5212 11.3704L55.8374 11.1956L55.1895 11.0301C54.9305 11.0183 54.6709 11.0301 54.4137 11.0652L54.0178 10.964L16.9594 20.9428C16.3241 21.1197 15.7454 21.4638 15.2822 21.94C14.819 22.4161 14.488 23.0073 14.3229 23.6533C14.1578 24.2992 14.1646 24.9767 14.3425 25.6167C14.5204 26.2567 14.8631 26.8363 15.3356 27.2964L23.0096 34.6258L18.5862 51.9338C17.8436 54.8391 18.2691 57.9162 19.769 60.488C21.2689 63.0599 23.7203 64.9159 26.5839 65.6478L55.377 73.0065C58.2407 73.7384 61.282 73.2862 63.832 71.7494C66.3819 70.2125 68.2316 67.7169 68.9741 64.8117L73.3976 47.5037L81.6411 45.2537L78.9721 55.6969C78.7246 56.6653 78.8664 57.691 79.3663 58.5483C79.8663 59.4056 80.6834 60.0243 81.638 60.2682C82.5925 60.5122 83.6063 60.3615 84.4563 59.8492C85.3063 59.3369 85.9228 58.505 86.1703 57.5366L89.3806 44.9755C89.5449 44.3282 89.5367 43.6495 89.3568 43.0089C89.1769 42.3683 88.8319 41.7887 88.357 41.3296ZM61.7758 62.972C61.5283 63.9404 60.9118 64.7723 60.0618 65.2845C59.2118 65.7968 58.198 65.9476 57.2435 65.7036L28.4504 58.3448C27.4958 58.1009 26.6787 57.4822 26.1787 56.6249C25.6788 55.7676 25.5369 54.7419 25.7844 53.7735L29.172 40.5186L43.0711 53.7958L43.555 54.1529L43.8789 54.2357C44.1679 54.3502 44.4702 54.4275 44.7787 54.4657C45.0677 54.5802 45.37 54.6574 45.6785 54.6956L46.0024 54.7784C46.2039 54.7864 46.4055 54.7589 46.5983 54.6973L65.1634 49.7171L61.7758 62.972ZM46.7105 46.9071L25.3346 26.4287L53.9149 18.7177L75.2907 39.1961L46.7105 46.9071Z" fill="#F3701F"/>
<path d="M91.8322 37.7348L91.7986 37.7026L88.7283 34.7892L88.7127 34.7745L61.0021 8.25325C60.4992 7.77198 59.9028 7.40228 59.2519 7.16587C59.0919 7.07264 58.9289 6.98438 58.7631 6.90122C58.4429 6.74059 58.1064 6.61483 57.7593 6.52613L57.0754 6.35136L56.4276 6.18578C56.0963 6.10112 55.7573 6.05066 55.4157 6.0352C55.2145 6.02608 55.0131 6.02352 54.812 6.02749C54.1158 5.91548 53.4019 5.95175 52.7177 6.13598L15.6594 16.1148L15.6181 16.1261C14.1242 16.5421 12.7733 17.3483 11.6981 18.4537C10.6233 19.5586 9.85927 20.9258 9.47864 22.4152C9.098 23.9045 9.11233 25.4707 9.52516 26.9558C9.93814 28.4415 10.7365 29.797 11.8477 30.8789L11.8822 30.9121L17.4411 36.2215L13.7419 50.6957C12.6767 54.8634 13.2829 59.2912 15.4498 63.0069C17.6185 66.7256 21.1746 69.426 25.3458 70.4921L54.139 77.8508C58.3102 78.9169 62.7259 78.2538 66.4129 76.0317C70.097 73.8114 72.7533 70.2174 73.8184 66.0497L75.0783 61.1201C76.2499 63.0971 78.1578 64.5395 80.3999 65.1125C82.662 65.6907 85.0502 65.3291 87.0373 64.1315L84.4563 59.8492L87.0373 64.1315C89.0213 62.9357 90.4445 61.0055 91.0146 58.7747L94.2249 46.2136L94.227 46.2054C94.6058 44.7128 94.5881 43.1439 94.1707 41.6573C93.7531 40.1701 92.9491 38.8146 91.8322 37.7348ZM65.4334 36.6769L48.132 41.3448L35.192 28.9479L52.4933 24.28L65.4334 36.6769ZM50.5152 58.8233L58.2024 56.7612L57.2364 60.5411L50.5152 58.8233ZM31.8996 50.0389L37.6547 55.5365L30.9336 53.8188L31.8996 50.0389Z" stroke="white" stroke-width="10" stroke-linejoin="round"/>
</g>
<defs>
<filter id="filter0_d_346_345" x="0.204102" y="0.963989" width="103.294" height="90.385" filterUnits="userSpaceOnUse" color-interpolation-filters="sRGB">
<feFlood flood-opacity="0" result="BackgroundImageFix"/>
<feColorMatrix in="SourceAlpha" type="matrix" values="0 0 0 0 0 0 0 0 0 0 0 0 0 0 0 0 0 0 127 0" result="hardAlpha"/>
<feOffset dy="4"/>
<feGaussianBlur stdDeviation="2"/>
<feComposite in2="hardAlpha" operator="out"/>
<feColorMatrix type="matrix" values="0 0 0 0 0 0 0 0 0 0 0 0 0 0 0 0 0 0 0.25 0"/>
<feBlend mode="normal" in2="BackgroundImageFix" result="effect1_dropShadow_346_345"/>
<feBlend mode="normal" in="SourceGraphic" in2="effect1_dropShadow_346_345" result="shape"/>
</filter>
</defs>
</svg>
