<svg width="49" height="49" viewBox="0 0 49 49" fill="none" xmlns="http://www.w3.org/2000/svg">
<g filter="url(#filter0_d_510_290)">
<path d="M30.8175 29.9041L28.4074 27.5117C29.3429 26.3443 29.7959 24.8627 29.6734 23.3713C29.5508 21.88 28.8619 20.4923 27.7484 19.4937C26.6348 18.495 25.1813 17.9613 23.6866 18.0022C22.1919 18.0431 20.7697 18.6556 19.7124 19.7137C18.6551 20.7718 18.0431 22.1951 18.0022 23.6909C17.9613 25.1867 18.4946 26.6414 19.4925 27.7558C20.4904 28.8702 21.877 29.5596 23.3672 29.6822C24.8575 29.8049 26.338 29.3515 27.5044 28.4153L29.895 30.8077C29.9554 30.8686 30.0273 30.917 30.1064 30.95C30.1856 30.983 30.2705 31 30.3562 31C30.442 31 30.5269 30.983 30.6061 30.95C30.6852 30.917 30.7571 30.8686 30.8175 30.8077C30.9346 30.6865 31 30.5245 31 30.3559C31 30.1873 30.9346 30.0253 30.8175 29.9041ZM23.8601 28.4153C22.9607 28.4153 22.0816 28.1484 21.3338 27.6484C20.586 27.1483 20.0031 26.4376 19.6589 25.6061C19.3148 24.7745 19.2247 23.8595 19.4002 22.9767C19.5756 22.094 20.0087 21.2831 20.6447 20.6467C21.2806 20.0103 22.0909 19.5768 22.973 19.4012C23.8551 19.2257 24.7694 19.3158 25.6003 19.6602C26.4312 20.0046 27.1414 20.5879 27.641 21.3363C28.1407 22.0847 28.4074 22.9645 28.4074 23.8646C28.4074 25.0715 27.9283 26.229 27.0755 27.0824C26.2227 27.9359 25.0661 28.4153 23.8601 28.4153Z" class="secondary-color"/>
<path d="M30.8175 29.9041L28.4074 27.5117C29.3429 26.3443 29.7959 24.8627 29.6734 23.3713C29.5508 21.88 28.8619 20.4923 27.7484 19.4937C26.6348 18.495 25.1813 17.9613 23.6866 18.0022C22.1919 18.0431 20.7697 18.6556 19.7124 19.7137C18.6551 20.7718 18.0431 22.1951 18.0022 23.6909C17.9613 25.1867 18.4946 26.6414 19.4925 27.7558C20.4904 28.8702 21.877 29.5596 23.3672 29.6822C24.8575 29.8049 26.338 29.3515 27.5044 28.4153L29.895 30.8077C29.9554 30.8686 30.0273 30.917 30.1064 30.95C30.1856 30.983 30.2705 31 30.3562 31C30.442 31 30.5269 30.983 30.6061 30.95C30.6852 30.917 30.7571 30.8686 30.8175 30.8077C30.9346 30.6865 31 30.5245 31 30.3559C31 30.1873 30.9346 30.0253 30.8175 29.9041ZM23.8601 28.4153C22.9607 28.4153 22.0816 28.1484 21.3338 27.6484C20.586 27.1483 20.0031 26.4376 19.6589 25.6061C19.3148 24.7745 19.2247 23.8595 19.4002 22.9767C19.5756 22.094 20.0087 21.2831 20.6447 20.6467C21.2806 20.0103 22.0909 19.5768 22.973 19.4012C23.8551 19.2257 24.7694 19.3158 25.6003 19.6602C26.4312 20.0046 27.1414 20.5879 27.641 21.3363C28.1407 22.0847 28.4074 22.9645 28.4074 23.8646C28.4074 25.0715 27.9283 26.229 27.0755 27.0824C26.2227 27.9359 25.0661 28.4153 23.8601 28.4153Z" class="secondary-color"/>
</g>
<defs>
<filter id="filter0_d_510_290" x="0.5" y="0.5" width="48" height="48" filterUnits="userSpaceOnUse" color-interpolation-filters="sRGB">
<feFlood flood-opacity="0" result="BackgroundImageFix"/>
<feColorMatrix in="SourceAlpha" type="matrix" values="0 0 0 0 0 0 0 0 0 0 0 0 0 0 0 0 0 0 127 0" result="hardAlpha"/>
<feOffset/>
<feGaussianBlur stdDeviation="8.5"/>
<feComposite in2="hardAlpha" operator="out"/>
<feColorMatrix type="matrix" values="0 0 0 0 0 0 0 0 0 0 0 0 0 0 0 0 0 0 0.15 0"/>
<feBlend mode="normal" in2="BackgroundImageFix" result="effect1_dropShadow_510_290"/>
<feBlend mode="normal" in="SourceGraphic" in2="effect1_dropShadow_510_290" result="shape"/>
</filter>
</defs>
</svg>
