<svg width="230" height="232" viewBox="0 0 230 232" fill="none" xmlns="http://www.w3.org/2000/svg">
<g filter="url(#filter0_d_521_174)">
<path d="M115.622 176.703C115.499 183.001 120.534 188.299 126.774 187.432C133.72 186.467 140.509 184.496 146.923 181.563C156.807 177.043 165.546 170.356 172.493 161.998C179.439 153.641 184.415 143.826 187.052 133.283C189.688 122.739 189.917 111.738 187.721 101.094C185.525 90.4502 180.962 80.4373 174.368 71.7978C167.775 63.1584 159.321 56.1142 149.634 51.1876C139.947 46.261 129.275 43.5785 118.41 43.339C111.359 43.1836 104.343 44.0596 97.5828 45.9224C91.5097 47.5957 88.9821 54.4535 91.5875 60.1889C94.1929 65.9242 100.96 68.3158 107.139 67.0866C110.672 66.3837 114.283 66.0656 117.907 66.1455C125.349 66.3096 132.658 68.1469 139.293 71.5211C145.928 74.8954 151.718 79.7201 156.234 85.6374C160.75 91.5547 163.875 98.4126 165.379 105.703C166.883 112.993 166.726 120.528 164.921 127.749C163.115 134.97 159.707 141.693 154.949 147.417C150.191 153.141 144.206 157.721 137.436 160.817C134.139 162.325 130.698 163.461 127.175 164.214C121.014 165.53 115.746 170.404 115.622 176.703Z" class="secondary-color"/>
</g>
<g filter="url(#filter1_d_521_174)">
<path d="M116 49.4459C116 42.5722 110.394 36.8999 103.605 37.9784C93.9816 39.5072 84.6874 42.8094 76.2077 47.7536C64.1289 54.7964 54.1357 64.9187 47.2485 77.0869C40.3614 89.255 36.8271 103.033 37.0065 117.014C37.186 130.995 41.0728 144.678 48.27 156.665C55.4672 168.652 65.7169 178.515 77.9725 185.245C90.228 191.976 104.05 195.333 118.028 194.974C132.005 194.615 145.637 190.553 157.531 183.203C165.881 178.042 173.164 171.391 179.038 163.616C183.181 158.131 180.809 150.516 174.743 147.285C168.676 144.054 161.23 146.483 156.7 151.653C153.169 155.685 149.043 159.186 144.445 162.028C136.299 167.062 126.962 169.845 117.389 170.09C107.815 170.336 98.3484 168.037 89.9544 163.427C81.5604 158.817 74.5402 152.062 69.6108 143.852C64.6813 135.642 62.0192 126.27 61.8963 116.694C61.7734 107.119 64.1941 97.682 68.9112 89.3478C73.6283 81.0137 80.4728 74.0808 88.7457 69.2571C93.4152 66.5345 98.4453 64.5388 103.663 63.3169C110.356 61.7497 116 56.3196 116 49.4459Z" class="primary-color"/>
</g>
<g filter="url(#filter2_d_521_174)">
<circle cx="115.727" cy="115.726" r="62.872" fill="white"/>
</g>
<g filter="url(#filter3_d_521_174)">
<path d="M74.7369 135.226H70.8959L75.2235 121.922H80.0888L84.4164 135.226H80.5753L77.7073 125.586H77.6049L74.7369 135.226ZM74.0199 129.977H81.2411V132.68H74.0199V129.977Z" class="primary-color"/>
<path d="M97.5735 126.911H93.9629C93.9373 126.608 93.869 126.333 93.7581 126.086C93.6514 125.839 93.502 125.627 93.3099 125.45C93.1221 125.268 92.8938 125.129 92.6249 125.034C92.3561 124.934 92.0509 124.884 91.7095 124.884C91.112 124.884 90.6063 125.032 90.1923 125.326C89.7826 125.621 89.471 126.043 89.2576 126.593C89.0485 127.143 88.9439 127.803 88.9439 128.574C88.9439 129.388 89.0506 130.07 89.264 130.62C89.4817 131.166 89.7954 131.578 90.2051 131.855C90.6148 132.128 91.1077 132.264 91.6839 132.264C92.0125 132.264 92.307 132.223 92.5673 132.141C92.8277 132.054 93.0539 131.93 93.2459 131.77C93.438 131.61 93.5937 131.417 93.7132 131.192C93.837 130.963 93.9202 130.705 93.9629 130.419L97.5735 130.445C97.5308 131.008 97.375 131.582 97.1062 132.166C96.8373 132.747 96.4553 133.284 95.9603 133.778C95.4695 134.267 94.8613 134.661 94.1358 134.96C93.4102 135.259 92.5673 135.408 91.6071 135.408C90.4035 135.408 89.3238 135.146 88.3678 134.622C87.4161 134.098 86.6628 133.327 86.108 132.309C85.5574 131.292 85.2821 130.047 85.2821 128.574C85.2821 127.093 85.5638 125.846 86.1272 124.832C86.6905 123.815 87.4502 123.046 88.4062 122.526C89.3622 122.002 90.4291 121.74 91.6071 121.74C92.435 121.74 93.1968 121.855 93.8925 122.085C94.5881 122.314 95.1984 122.65 95.7234 123.091C96.2483 123.529 96.6708 124.068 96.9909 124.709C97.311 125.35 97.5052 126.084 97.5735 126.911Z" class="primary-color"/>
<path d="M99.4587 135.226V121.922H108.908V124.832H103.018V127.119H108.421V130.029H103.018V132.316H108.882V135.226H99.4587Z" class="primary-color"/>
<path d="M110.943 135.226V121.922H116.603C117.576 121.922 118.427 122.102 119.157 122.461C119.887 122.821 120.454 123.338 120.86 124.014C121.265 124.689 121.468 125.499 121.468 126.443C121.468 127.396 121.259 128.2 120.841 128.853C120.427 129.507 119.844 130.001 119.093 130.335C118.346 130.668 117.473 130.835 116.475 130.835H113.094V128.028H115.758C116.176 128.028 116.532 127.977 116.827 127.873C117.125 127.764 117.354 127.593 117.512 127.359C117.674 127.126 117.755 126.82 117.755 126.443C117.755 126.062 117.674 125.753 117.512 125.514C117.354 125.272 117.125 125.094 116.827 124.982C116.532 124.865 116.176 124.806 115.758 124.806H114.503V135.226H110.943ZM118.626 129.12L121.903 135.226H118.037L114.836 129.12H118.626Z" class="primary-color"/>
<path d="M122.897 124.832V121.922H134.292V124.832H130.349V135.226H126.84V124.832H122.897Z" class="primary-color"/>
<path d="M147.987 128.574C147.987 130.055 147.703 131.305 147.136 132.322C146.568 133.336 145.802 134.105 144.837 134.629C143.873 135.148 142.797 135.408 141.611 135.408C140.416 135.408 139.336 135.146 138.372 134.622C137.411 134.094 136.647 133.323 136.08 132.309C135.516 131.292 135.235 130.047 135.235 128.574C135.235 127.093 135.516 125.846 136.08 124.832C136.647 123.815 137.411 123.046 138.372 122.526C139.336 122.002 140.416 121.74 141.611 121.74C142.797 121.74 143.873 122.002 144.837 122.526C145.802 123.046 146.568 123.815 147.136 124.832C147.703 125.846 147.987 127.093 147.987 128.574ZM144.325 128.574C144.325 127.777 144.221 127.106 144.012 126.56C143.807 126.01 143.502 125.595 143.096 125.313C142.695 125.027 142.2 124.884 141.611 124.884C141.022 124.884 140.525 125.027 140.119 125.313C139.718 125.595 139.413 126.01 139.204 126.56C138.999 127.106 138.897 127.777 138.897 128.574C138.897 129.371 138.999 130.044 139.204 130.594C139.413 131.14 139.718 131.556 140.119 131.842C140.525 132.123 141.022 132.264 141.611 132.264C142.2 132.264 142.695 132.123 143.096 131.842C143.502 131.556 143.807 131.14 144.012 130.594C144.221 130.044 144.325 129.371 144.325 128.574Z" class="primary-color"/>
<path d="M156.972 126.08C156.938 125.647 156.778 125.309 156.492 125.066C156.21 124.824 155.781 124.702 155.205 124.702C154.838 124.702 154.537 124.748 154.302 124.839C154.072 124.925 153.901 125.045 153.79 125.196C153.679 125.348 153.622 125.521 153.617 125.716C153.609 125.876 153.636 126.021 153.701 126.151C153.769 126.277 153.875 126.391 154.021 126.495C154.166 126.595 154.351 126.686 154.578 126.768C154.804 126.851 155.073 126.924 155.384 126.989L156.46 127.223C157.185 127.379 157.806 127.585 158.323 127.84C158.839 128.096 159.261 128.397 159.59 128.743C159.919 129.085 160.16 129.471 160.313 129.899C160.471 130.328 160.552 130.796 160.557 131.303C160.552 132.177 160.337 132.918 159.91 133.524C159.483 134.13 158.873 134.592 158.079 134.908C157.29 135.224 156.34 135.382 155.231 135.382C154.091 135.382 153.097 135.211 152.247 134.869C151.402 134.527 150.745 134.001 150.276 133.29C149.81 132.576 149.576 131.662 149.571 130.549H152.951C152.973 130.956 153.073 131.298 153.252 131.575C153.432 131.853 153.683 132.063 154.008 132.205C154.336 132.348 154.727 132.42 155.179 132.42C155.559 132.42 155.877 132.372 156.133 132.277C156.389 132.182 156.583 132.05 156.716 131.881C156.848 131.712 156.916 131.519 156.921 131.303C156.916 131.099 156.85 130.921 156.722 130.77C156.598 130.614 156.394 130.475 156.108 130.354C155.822 130.228 155.435 130.112 154.949 130.003L153.643 129.717C152.482 129.462 151.567 129.035 150.897 128.438C150.231 127.836 149.9 127.015 149.904 125.976C149.9 125.131 150.122 124.393 150.57 123.761C151.022 123.124 151.648 122.628 152.446 122.273C153.248 121.918 154.168 121.74 155.205 121.74C156.263 121.74 157.179 121.92 157.951 122.279C158.724 122.639 159.319 123.146 159.737 123.8C160.16 124.449 160.373 125.209 160.378 126.08H156.972Z" class="primary-color"/>
</g>
<g filter="url(#filter4_d_521_174)">
<path d="M79.2795 115.79C78.2506 115.79 77.2645 115.625 76.3213 115.297C75.3781 114.962 74.539 114.432 73.804 113.707C73.0691 112.977 72.4903 112.021 72.0677 110.84C71.6451 109.653 71.4368 108.207 71.4429 106.502C71.4491 104.961 71.6389 103.579 72.0125 102.356C72.3861 101.126 72.919 100.082 73.6111 99.2231C74.3093 98.3646 75.1423 97.7101 76.11 97.2596C77.0838 96.8029 78.1709 96.5746 79.3714 96.5746C80.6882 96.5746 81.8488 96.8303 82.8533 97.3418C83.8639 97.8471 84.6723 98.529 85.2787 99.3875C85.885 100.24 86.2433 101.19 86.3536 102.237H81.8795C81.7447 101.646 81.4477 101.199 80.9883 100.894C80.5351 100.584 79.9961 100.429 79.3714 100.429C78.2199 100.429 77.3594 100.925 76.7898 101.917C76.2263 102.91 75.9385 104.237 75.9262 105.899H76.0457C76.3029 105.339 76.6735 104.858 77.1573 104.456C77.6412 104.054 78.1954 103.747 78.8202 103.534C79.451 103.314 80.1186 103.205 80.8229 103.205C81.9499 103.205 82.9452 103.464 83.8088 103.981C84.6723 104.499 85.3491 105.208 85.8391 106.109C86.3291 107.004 86.571 108.03 86.5649 109.187C86.571 110.49 86.2648 111.64 85.6462 112.639C85.0276 113.631 84.1701 114.405 83.0738 114.959C81.9836 115.513 80.7188 115.79 79.2795 115.79ZM79.252 112.319C79.8093 112.319 80.3085 112.188 80.7495 111.927C81.1904 111.665 81.5365 111.309 81.7876 110.858C82.0387 110.408 82.1612 109.899 82.1551 109.333C82.1612 108.761 82.0387 108.252 81.7876 107.808C81.5426 107.363 81.1996 107.01 80.7586 106.748C80.3238 106.487 79.8246 106.356 79.2611 106.356C78.8508 106.356 78.468 106.432 78.1128 106.584C77.7575 106.736 77.4482 106.949 77.1849 107.223C76.9276 107.491 76.7255 107.808 76.5785 108.173C76.4315 108.532 76.355 108.922 76.3488 109.342C76.355 109.896 76.4836 110.398 76.7347 110.849C76.9858 111.299 77.3288 111.659 77.7637 111.927C78.1985 112.188 78.6946 112.319 79.252 112.319Z" class="primary-color"/>
<path d="M89.426 115.534L97.0145 100.593V100.474H88.1398V96.8303H101.718V100.502L94.1022 115.534H89.426Z" class="primary-color"/>
<path d="M105.085 112.977L105.002 113.991C104.929 114.831 104.778 115.65 104.552 116.447C104.331 117.251 104.096 117.972 103.844 118.612C103.593 119.251 103.394 119.747 103.247 120.1H100.418C100.516 119.747 100.647 119.251 100.813 118.612C100.984 117.972 101.143 117.251 101.29 116.447C101.437 115.644 101.52 114.828 101.539 114L101.557 112.977H105.085Z" class="primary-color"/>
<path d="M114.581 115.79C113.148 115.79 111.877 115.546 110.769 115.059C109.666 114.566 108.796 113.887 108.159 113.022C107.522 112.158 107.198 111.162 107.186 110.036H111.761C111.779 110.444 111.911 110.806 112.156 111.123C112.401 111.433 112.735 111.677 113.157 111.854C113.58 112.03 114.061 112.118 114.6 112.118C115.139 112.118 115.613 112.024 116.024 111.835C116.44 111.64 116.765 111.376 116.997 111.041C117.23 110.7 117.343 110.31 117.337 109.872C117.343 109.433 117.218 109.044 116.961 108.703C116.703 108.362 116.339 108.097 115.867 107.908C115.402 107.719 114.851 107.625 114.214 107.625H112.386V104.41H114.214C114.771 104.41 115.261 104.319 115.684 104.136C116.112 103.954 116.446 103.698 116.685 103.369C116.924 103.034 117.04 102.651 117.034 102.219C117.04 101.798 116.939 101.43 116.731 101.114C116.529 100.791 116.244 100.541 115.877 100.365C115.515 100.188 115.096 100.1 114.618 100.1C114.116 100.1 113.659 100.188 113.249 100.365C112.845 100.541 112.523 100.791 112.284 101.114C112.046 101.436 111.92 101.811 111.908 102.237H107.562C107.575 101.123 107.887 100.142 108.499 99.2961C109.112 98.4438 109.945 97.7771 110.998 97.2961C112.058 96.8151 113.264 96.5746 114.618 96.5746C115.965 96.5746 117.151 96.809 118.173 97.2778C119.196 97.7466 119.992 98.3859 120.562 99.1957C121.132 99.9994 121.416 100.91 121.416 101.926C121.423 102.98 121.077 103.847 120.378 104.529C119.686 105.211 118.795 105.631 117.705 105.789V105.936C119.163 106.106 120.262 106.575 121.003 107.342C121.75 108.109 122.121 109.068 122.115 110.219C122.115 111.303 121.793 112.264 121.15 113.105C120.513 113.939 119.625 114.596 118.486 115.077C117.353 115.552 116.051 115.79 114.581 115.79Z" class="primary-color"/>
<path d="M124.962 115.534L132.551 100.593V100.474H123.676V96.8303H137.254V100.502L129.638 115.534H124.962Z" class="primary-color"/>
<path d="M149.771 112.027V111.041C149.771 110.274 149.936 109.564 150.267 108.913C150.604 108.261 151.091 107.738 151.728 107.342C152.365 106.946 153.143 106.748 154.061 106.748C154.999 106.748 155.786 106.946 156.423 107.342C157.066 107.732 157.549 108.252 157.874 108.904C158.205 109.549 158.37 110.261 158.37 111.041V112.027C158.37 112.794 158.205 113.503 157.874 114.155C157.543 114.806 157.056 115.33 156.413 115.726C155.77 116.122 154.986 116.319 154.061 116.319C153.13 116.319 152.347 116.122 151.71 115.726C151.073 115.33 150.589 114.806 150.258 114.155C149.933 113.503 149.771 112.794 149.771 112.027ZM152.702 111.041V112.027C152.702 112.417 152.797 112.791 152.987 113.15C153.183 113.51 153.541 113.689 154.061 113.689C154.594 113.689 154.953 113.516 155.136 113.169C155.32 112.815 155.412 112.435 155.412 112.027V111.041C155.412 110.633 155.323 110.249 155.146 109.89C154.974 109.525 154.613 109.342 154.061 109.342C153.547 109.342 153.192 109.525 152.996 109.89C152.8 110.249 152.702 110.633 152.702 111.041ZM140.014 101.324V100.337C140.014 99.5579 140.183 98.8456 140.52 98.2002C140.863 97.5488 141.353 97.0282 141.99 96.6385C142.627 96.2428 143.398 96.0449 144.305 96.0449C145.242 96.0449 146.029 96.2428 146.666 96.6385C147.309 97.0282 147.796 97.5488 148.127 98.2002C148.457 98.8456 148.623 99.5579 148.623 100.337V101.324C148.623 102.103 148.454 102.815 148.117 103.461C147.787 104.106 147.3 104.62 146.657 105.004C146.014 105.388 145.23 105.579 144.305 105.579C143.38 105.579 142.596 105.385 141.953 104.995C141.316 104.605 140.832 104.088 140.501 103.442C140.177 102.797 140.014 102.091 140.014 101.324ZM142.973 100.337V101.324C142.973 101.732 143.068 102.112 143.257 102.465C143.453 102.812 143.803 102.986 144.305 102.986C144.844 102.986 145.202 102.812 145.38 102.465C145.563 102.112 145.655 101.732 145.655 101.324V100.337C145.655 99.9293 145.569 99.5458 145.398 99.1865C145.227 98.8212 144.862 98.6386 144.305 98.6386C143.79 98.6386 143.438 98.8243 143.248 99.1957C143.064 99.5671 142.973 99.9476 142.973 100.337ZM141.402 115.534L154.337 96.8303H156.845L143.91 115.534H141.402Z" class="primary-color"/>
</g>
<defs>
<filter id="filter0_d_521_174" x="53.5681" y="6.32129" width="172.646" height="218.204" filterUnits="userSpaceOnUse" color-interpolation-filters="sRGB">
<feFlood flood-opacity="0" result="BackgroundImageFix"/>
<feColorMatrix in="SourceAlpha" type="matrix" values="0 0 0 0 0 0 0 0 0 0 0 0 0 0 0 0 0 0 127 0" result="hardAlpha"/>
<feOffset/>
<feGaussianBlur stdDeviation="18.5"/>
<feComposite in2="hardAlpha" operator="out"/>
<feColorMatrix type="matrix" values="0 0 0 0 0.905882 0 0 0 0 0.709804 0 0 0 0 0.376471 0 0 0 0.3 0"/>
<feBlend mode="normal" in2="BackgroundImageFix" result="effect1_dropShadow_521_174"/>
<feBlend mode="normal" in="SourceGraphic" in2="effect1_dropShadow_521_174" result="shape"/>
</filter>
<filter id="filter1_d_521_174" x="0" y="0.846191" width="218.115" height="231.154" filterUnits="userSpaceOnUse" color-interpolation-filters="sRGB">
<feFlood flood-opacity="0" result="BackgroundImageFix"/>
<feColorMatrix in="SourceAlpha" type="matrix" values="0 0 0 0 0 0 0 0 0 0 0 0 0 0 0 0 0 0 127 0" result="hardAlpha"/>
<feOffset/>
<feGaussianBlur stdDeviation="18.5"/>
<feComposite in2="hardAlpha" operator="out"/>
<feColorMatrix type="matrix" values="0 0 0 0 0 0 0 0 0 0.517442 0 0 0 0 1 0 0 0 0.25 0"/>
<feBlend mode="normal" in2="BackgroundImageFix" result="effect1_dropShadow_521_174"/>
<feBlend mode="normal" in="SourceGraphic" in2="effect1_dropShadow_521_174" result="shape"/>
</filter>
<filter id="filter2_d_521_174" x="2.85468" y="2.85449" width="225.744" height="225.744" filterUnits="userSpaceOnUse" color-interpolation-filters="sRGB">
<feFlood flood-opacity="0" result="BackgroundImageFix"/>
<feColorMatrix in="SourceAlpha" type="matrix" values="0 0 0 0 0 0 0 0 0 0 0 0 0 0 0 0 0 0 127 0" result="hardAlpha"/>
<feOffset/>
<feGaussianBlur stdDeviation="25"/>
<feComposite in2="hardAlpha" operator="out"/>
<feColorMatrix type="matrix" values="0 0 0 0 1 0 0 0 0 1 0 0 0 0 1 0 0 0 1 0"/>
<feBlend mode="normal" in2="BackgroundImageFix" result="effect1_dropShadow_521_174"/>
<feBlend mode="normal" in="SourceGraphic" in2="effect1_dropShadow_521_174" result="shape"/>
</filter>
<filter id="filter3_d_521_174" x="1.89587" y="52.7402" width="227.661" height="151.668" filterUnits="userSpaceOnUse" color-interpolation-filters="sRGB">
<feFlood flood-opacity="0" result="BackgroundImageFix"/>
<feColorMatrix in="SourceAlpha" type="matrix" values="0 0 0 0 0 0 0 0 0 0 0 0 0 0 0 0 0 0 127 0" result="hardAlpha"/>
<feOffset/>
<feGaussianBlur stdDeviation="34.5"/>
<feComposite in2="hardAlpha" operator="out"/>
<feColorMatrix type="matrix" values="0 0 0 0 0 0 0 0 0 0 0 0 0 0 0 0 0 0 0.25 0"/>
<feBlend mode="normal" in2="BackgroundImageFix" result="effect1_dropShadow_521_174"/>
<feBlend mode="normal" in="SourceGraphic" in2="effect1_dropShadow_521_174" result="shape"/>
</filter>
<filter id="filter4_d_521_174" x="2.44281" y="27.0449" width="224.927" height="162.055" filterUnits="userSpaceOnUse" color-interpolation-filters="sRGB">
<feFlood flood-opacity="0" result="BackgroundImageFix"/>
<feColorMatrix in="SourceAlpha" type="matrix" values="0 0 0 0 0 0 0 0 0 0 0 0 0 0 0 0 0 0 127 0" result="hardAlpha"/>
<feOffset/>
<feGaussianBlur stdDeviation="34.5"/>
<feComposite in2="hardAlpha" operator="out"/>
<feColorMatrix type="matrix" values="0 0 0 0 0 0 0 0 0 0 0 0 0 0 0 0 0 0 0.25 0"/>
<feBlend mode="normal" in2="BackgroundImageFix" result="effect1_dropShadow_521_174"/>
<feBlend mode="normal" in="SourceGraphic" in2="effect1_dropShadow_521_174" result="shape"/>
</filter>
</defs>
</svg>
