<svg width="482" height="129" viewBox="0 0 482 129" fill="none" xmlns="http://www.w3.org/2000/svg">
<path d="M73.7546 21.9588C73.5126 22.0803 73.5731 22.2627 73.936 22.5057C73.936 22.7488 73.8755 23.0527 73.7546 23.4173C73.7546 23.6604 73.6941 23.8427 73.5731 23.9642C73.5731 24.0858 73.6336 24.1465 73.7546 24.1465H73.936C73.6941 24.9973 73.3312 26.3342 72.8474 28.1573C72.4845 29.9804 72.0611 31.4389 71.5773 32.5328C69.0372 37.1513 66.739 40.7975 64.6827 43.4714C64.1988 44.079 63.6545 44.869 63.0497 45.8414C62.4449 46.8137 62.0216 47.4214 61.7796 47.6645C61.2958 48.0291 60.9934 48.3937 60.8725 48.7583C60.8725 48.8798 60.812 48.8798 60.691 48.7583C60.2072 49.6091 59.4814 50.156 58.5138 50.3991C59.1186 50.8853 58.8766 51.6145 57.788 52.5868C57.5461 52.7084 57.3042 53.0122 57.0623 53.4984C56.8203 53.9845 56.5179 54.2884 56.1551 54.4099C55.1874 55.3822 52.9497 57.9953 49.4419 62.2492C45.9341 66.3816 43.031 69.3593 40.7328 71.1824C40.37 71.547 39.8861 72.0332 39.2813 72.6409C38.7975 73.2486 38.3741 73.7348 38.0113 74.0994C37.6484 74.464 37.225 74.8286 36.7412 75.1932C36.2574 75.4363 35.7735 75.6186 35.2897 75.7402C35.0478 76.1048 34.8059 76.5302 34.5639 77.0163C34.443 77.381 34.2615 77.6848 34.0196 77.9279C33.8987 78.0494 33.6567 78.171 33.2939 78.2925C32.3262 79.6294 31.0561 80.8448 29.4837 81.9387C27.9112 83.0326 26.7016 83.9441 25.8549 84.6733C25.734 84.7949 25.6735 84.8557 25.6735 84.8557L26.5807 84.3087C27.4274 83.5795 28.0322 83.1541 28.3951 83.0326L28.2136 83.3972C26.6411 85.2203 25.7944 85.828 25.6735 85.2203C25.3106 85.2203 25.1292 85.2811 25.1292 85.4026C25.1292 85.1595 25.1896 85.3418 25.3106 85.9495L24.0405 86.3141C23.7986 86.3141 23.6172 86.3141 23.4962 86.3141C23.8591 86.8003 23.9196 87.1649 23.6777 87.408C23.5567 87.6511 23.1938 87.9549 22.589 88.3195C22.1052 88.5626 21.8633 88.6842 21.8633 88.6842C21.3794 88.9272 21.198 89.1703 21.319 89.4134C21.4399 89.6565 21.4399 89.778 21.319 89.778C20.7142 90.0211 20.2303 90.2642 19.8675 90.5073C19.6255 90.6288 19.4441 90.8111 19.3231 91.0542C19.3231 91.1757 19.2627 91.358 19.1417 91.6011C19.0208 91.7227 18.8393 91.8442 18.5974 91.9657C17.9926 92.4519 17.1459 93.2419 16.0573 94.3358C15.0896 95.3081 14.3638 95.9158 13.88 96.1589C11.8237 97.2527 9.88837 100.048 8.07399 104.545C7.95303 104.545 8.07399 103.694 8.43687 101.993V100.534C8.43687 100.656 8.37639 100.899 8.25543 101.264C8.13447 101.75 8.01351 102.054 7.89255 102.175C7.40872 102.904 7.22728 103.634 7.34824 104.363C7.4692 103.998 7.59016 103.816 7.71112 103.816L7.52968 104.91C7.28776 104.91 7.04584 104.727 6.80393 104.363C6.32009 104.971 5.83626 105.092 5.35242 104.727C5.1105 104.484 5.1105 104.241 5.35242 103.998C5.1105 103.755 4.86859 103.755 4.62667 103.998C4.62667 104.241 4.50571 104.424 4.26379 104.545C4.02188 104.667 3.90092 104.727 3.90092 104.727C3.53804 104.849 3.3566 104.971 3.3566 105.092C3.23564 105.214 3.17517 105.274 3.17517 105.274C3.17517 105.153 3.11469 105.153 2.99373 105.274C2.75181 105.396 2.57037 105.396 2.44941 105.274C2.32845 105.639 2.2075 105.882 2.08654 106.004C1.96558 106.247 1.84462 106.125 1.72366 105.639V105.092C1.6027 105.214 1.48174 105.335 1.36079 105.457C1.48174 105.335 1.54222 105.274 1.54222 105.274H1.72366L1.36079 105.457L0.635033 106.004C0.514074 106.004 0.514074 105.882 0.635033 105.639L0.272157 105.821C-0.453595 105.821 0.272157 104.606 2.44941 102.175C2.2075 102.661 2.08654 102.965 2.08654 103.087C1.96558 103.087 1.96558 103.147 2.08654 103.269C2.44941 102.297 2.93325 101.385 3.53804 100.534C4.14283 99.562 4.62667 98.7112 4.98955 97.982C5.1105 97.7389 5.17098 96.8881 5.17098 95.4296C5.05002 93.8496 5.05002 92.2088 5.17098 90.5073C5.29194 88.6842 5.59434 87.7726 6.07817 87.7726C5.83626 87.2865 5.7153 86.9826 5.7153 86.8611C5.7153 86.7395 5.89674 86.7395 6.25961 86.8611C5.4129 86.4965 5.29194 85.6457 5.89674 84.3087C6.13865 83.8226 6.38057 83.6403 6.62249 83.7618C6.25961 82.911 6.38057 81.5133 6.98536 79.5687C7.34824 78.5964 7.7716 77.1379 8.25543 75.1932C8.61831 73.2486 8.9207 72.0332 9.16262 71.5471C9.40454 71.7901 9.5255 72.0332 9.5255 72.2763C9.76741 72.0332 9.88837 71.7293 9.88837 71.3647C10.0093 70.8786 10.0698 70.6355 10.0698 70.6355C10.1908 70.514 10.3722 70.514 10.6141 70.6355C10.6141 70.3924 10.5536 70.2101 10.4327 70.0886C10.4327 69.967 10.4327 69.8455 10.4327 69.724C10.7956 69.967 11.098 69.7239 11.3399 68.9947C11.7028 67.4147 11.7028 66.3816 11.3399 65.8954C11.3399 62.2492 12.0656 58.4207 13.5171 54.4099C13.6381 53.3161 13.8195 52.5868 14.0614 52.2222C14.1824 51.8576 14.2429 51.493 14.2429 51.1283C14.3638 50.6422 14.4848 50.2776 14.6058 50.0345C14.8477 49.6699 15.0291 48.7583 15.1501 47.2998C15.392 45.8414 15.5734 45.0513 15.6944 44.9298C16.0573 42.7421 16.7225 39.4605 17.6902 35.0851C18.174 33.262 18.416 32.2289 18.416 31.9858L18.2345 32.1682C18.4764 31.8035 18.5974 31.4389 18.5974 31.0743C18.7184 30.7097 18.7788 30.4058 18.7788 30.1627C18.8998 29.9197 19.0208 29.7981 19.1417 29.7981C19.0208 29.0689 19.2627 27.732 19.8675 25.7873C20.5932 23.8427 20.7747 22.5665 20.4118 21.9588C20.4118 22.445 19.9279 22.3234 18.9603 21.5942C18.5974 21.3511 18.3555 21.2903 18.2345 21.4119C17.8716 21.4119 17.6297 21.4119 17.5088 21.4119C17.5088 21.2903 17.5088 21.2296 17.5088 21.2296C16.5411 22.0803 15.8758 22.2627 15.5129 21.7765C15.1501 21.2903 14.7872 21.108 14.4243 21.2296C13.9405 21.3511 13.6986 21.4119 13.6986 21.4119C13.6986 21.2903 13.759 20.9865 13.88 20.5003L13.6986 20.1357C13.6986 20.1357 13.6381 20.1357 13.5171 20.1357C12.9123 19.7711 12.6099 19.8319 12.6099 20.318C12.1261 20.0749 12.0051 19.8319 12.2471 19.5888C12.489 19.2242 12.7309 19.0418 12.9728 19.0418L12.7914 18.8595L12.4285 19.0418C12.3075 18.6772 12.3075 18.2518 12.4285 17.7657C12.5495 17.2795 12.7309 16.9149 12.9728 16.6718C13.3357 16.4287 13.6381 16.4287 13.88 16.6718C14.1219 16.4287 14.0614 16.3072 13.6986 16.3072C13.4567 16.0641 13.3357 15.9426 13.3357 15.9426C13.5776 15.3349 13.9405 14.9095 14.4243 14.6664C14.9082 14.4233 15.3315 14.241 15.6944 14.1195C16.0573 13.9979 16.2992 13.8156 16.4201 13.5726C16.5411 13.3295 16.904 13.2687 17.5088 13.3902C18.1136 13.3902 18.4764 13.0864 18.5974 12.4787C19.4441 11.9925 20.7747 11.6279 22.589 11.3848C24.5244 11.1418 25.6735 10.8987 26.0364 10.6556C26.7621 11.1418 27.3064 11.0202 27.6693 10.291C27.7903 10.6556 28.1531 10.7164 28.7579 10.4733C29.2418 10.3517 29.5442 10.3517 29.6651 10.4733C29.7861 10.3517 30.0885 10.2302 30.5723 10.1087C31.1771 9.86559 31.7214 9.68328 32.2052 9.56174C32.6891 9.31866 32.9915 9.19711 33.1124 9.19711C33.2334 9.31866 33.4148 9.50097 33.6567 9.74405C34.0196 9.98712 34.2011 9.92635 34.2011 9.56174C34.322 9.92635 34.5035 9.98712 34.7454 9.74405C35.5921 9.74405 36.9226 9.56174 38.737 9.19711C40.5514 8.8325 41.5795 8.65019 41.8215 8.65019C42.4263 8.40711 42.9101 8.34633 43.273 8.46787C43.7568 8.46787 44.1197 8.46787 44.3616 8.46787C44.7245 8.46787 44.9059 8.28557 44.9059 7.92095C52.1634 8.04249 57.3647 8.34634 60.5096 8.8325C61.3563 9.07558 62.2635 9.44019 63.2311 9.92635C64.3198 10.4125 65.3479 10.9594 66.3156 11.5671C67.4042 12.0533 68.3719 12.4179 69.2186 12.661C70.5491 13.2687 71.6378 14.1803 72.4845 15.3957C73.3312 16.6111 73.6941 17.8265 73.5731 19.0418C73.5731 19.2849 73.6336 19.7103 73.7546 20.318C73.8755 20.8042 73.936 21.1688 73.936 21.4119C73.936 21.5334 73.8755 21.7157 73.7546 21.9588ZM13.5171 16.6718V16.8541C13.6381 16.8541 13.6381 16.7934 13.5171 16.6718ZM0.635033 105.092C0.635033 105.214 0.755992 105.031 0.997909 104.545H1.17935C1.17935 104.545 0.997909 104.727 0.635033 105.092ZM3.71948 101.628C3.59852 101.871 3.47756 102.114 3.3566 102.357L3.90092 101.993L3.71948 101.628ZM3.3566 102.904C3.23564 102.783 3.17517 102.783 3.17517 102.904H3.3566ZM1.72366 104.18L1.36079 105.092L1.54222 104.727C1.9051 104.12 2.02606 103.816 1.9051 103.816C1.78414 103.816 1.72366 103.937 1.72366 104.18ZM3.71948 102.54C2.50989 103.269 1.96558 103.937 2.08654 104.545C2.2075 104.667 2.32845 104.667 2.44941 104.545L2.63085 104.363C2.87277 104.363 3.11469 104.241 3.3566 103.998C3.59852 103.634 3.84044 103.39 4.08236 103.269C4.20331 103.026 4.26379 102.904 4.26379 102.904C3.659 103.512 3.3566 103.816 3.3566 103.816C3.3566 103.694 3.53804 103.33 3.90092 102.722L3.71948 102.54ZM4.08236 103.816C4.08236 103.816 4.14283 103.755 4.26379 103.634C4.38475 103.512 4.38475 103.39 4.26379 103.269C3.90092 103.512 3.53804 103.816 3.17517 104.18L2.99373 104.727C3.23564 104.727 3.59852 104.424 4.08236 103.816ZM4.62667 101.81C4.62667 101.81 4.68715 101.75 4.80811 101.628H4.62667V101.81ZM6.98536 104.18V104.363C6.98536 104.363 6.98536 104.302 6.98536 104.18ZM7.34824 104.91C7.34824 104.788 7.34824 104.727 7.34824 104.727V104.91ZM8.61831 102.175C8.37639 102.297 8.37639 102.357 8.61831 102.357C8.73926 102.236 8.73926 102.175 8.61831 102.175ZM11.8842 66.4424C11.8842 66.3208 11.8842 66.2601 11.8842 66.2601H11.7028L11.8842 66.4424ZM11.7028 97.0704C11.9447 97.0704 12.0656 97.0704 12.0656 97.0704H11.7028ZM29.4837 50.0345L29.8466 49.8522C29.8466 49.8522 29.7256 49.9129 29.4837 50.0345ZM29.6651 50.2168C29.6651 50.2168 29.6046 50.2168 29.4837 50.2168H29.6651ZM24.9477 73.5525C25.0687 73.5525 25.1292 73.5525 25.1292 73.5525H24.9477ZM27.4879 68.8124C27.6088 69.0555 27.6693 69.177 27.6693 69.177C27.7903 69.0555 27.7298 68.9339 27.4879 68.8124ZM28.3951 81.5741C28.3951 81.6956 28.3951 81.7564 28.3951 81.7564V81.5741ZM28.9394 67.9008V68.0832C29.0603 68.0832 29.0603 68.0224 28.9394 67.9008ZM58.3323 51.1283V51.3106C58.4533 51.3106 58.4533 51.2499 58.3323 51.1283ZM59.2395 23.4173C59.3605 23.4173 59.3605 23.2957 59.2395 23.0527C59.1186 21.7157 58.9371 21.0473 58.6952 21.0473C58.4533 19.9534 58.4533 19.4065 58.6952 19.4065L59.2395 20.318L59.4209 20.1357C59.5419 20.0142 59.6024 19.8926 59.6024 19.7711C59.6024 19.4065 59.421 19.1634 59.0581 19.0418C58.9371 19.0418 58.8766 19.0418 58.8766 19.0418C58.6347 18.9203 58.3323 18.738 57.9694 18.4949H57.6066C57.7275 18.6165 57.1227 18.3734 55.7922 17.7657C55.3084 17.5226 55.006 17.4618 54.885 17.5834C54.764 17.3403 54.4616 17.3403 53.9778 17.5834C53.1311 17.8265 51.982 18.0695 50.5305 18.3126C49.1999 18.5557 48.2323 18.738 47.6275 18.8595C47.1436 18.9811 46.176 19.1026 44.7245 19.2242C43.273 19.3457 42.1843 19.3457 41.4586 19.2242C41.0957 19.3457 40.7933 19.5888 40.5514 19.9534C40.4304 20.1965 40.3095 20.6219 40.1885 21.2296C40.1885 21.8373 40.128 22.2019 40.0071 22.3234C40.0071 22.8096 39.8861 23.2957 39.6442 23.7819C39.4023 24.2681 39.2208 24.6327 39.0999 24.8758C39.0999 24.9973 39.2208 25.2404 39.4628 25.605C38.737 28.2789 37.5879 31.5605 36.0154 35.4497C35.5316 36.422 34.9873 37.6374 34.3825 39.0959C33.8987 40.4329 33.4148 41.709 32.931 42.9244C32.4472 44.1398 31.9633 45.2337 31.4795 46.206C31.2376 46.5706 31.2376 46.996 31.4795 47.4822C31.1166 47.7252 30.8747 48.0898 30.7537 48.576C30.028 48.6975 29.7861 49.0622 30.028 49.6699C30.2699 50.0345 30.2699 50.3383 30.028 50.5814C30.028 50.8245 29.8466 50.8245 29.4837 50.5814C28.9998 50.7029 28.7579 50.3991 28.7579 49.6699C28.7579 48.8191 28.9394 48.0899 29.3022 47.4822C29.1813 47.2391 29.0603 47.3606 28.9394 47.8468C28.6974 48.2114 28.637 48.3937 28.7579 48.3937C28.637 48.6368 28.4555 48.8799 28.2136 49.1229C28.0927 49.366 27.9717 49.5483 27.8507 49.6699C27.7298 49.7914 27.7298 49.9737 27.8507 50.2168C27.9717 50.2168 28.1531 50.2776 28.3951 50.3991V51.1283C28.516 51.0068 28.5765 51.0068 28.5765 51.1283C28.6974 51.3714 28.5765 51.6145 28.2136 51.8576C28.3346 51.6145 28.3346 51.4322 28.2136 51.3106C28.0927 51.1891 27.9717 51.1891 27.8507 51.3106C27.2459 51.4322 27.4274 51.736 28.3951 52.2222L24.4034 62.0669C24.4034 62.0669 24.5848 61.8239 24.9477 61.3377C25.0687 61.0946 25.1292 60.9123 25.1292 60.7908V60.6084C25.2501 60.3654 25.3711 60.1223 25.492 59.8792C25.613 59.7577 25.6735 59.6969 25.6735 59.6969C25.9154 59.0892 26.0968 58.6638 26.2178 58.4207C26.3388 58.4207 26.4597 58.6031 26.5807 58.9677V59.15C26.4597 57.813 26.7016 56.8407 27.3064 56.233C27.5483 57.2053 27.2459 58.6031 26.3992 60.4262C25.5525 62.1277 25.0687 63.1608 24.9477 63.5254C24.4639 64.4977 24.1615 65.227 24.0405 65.7131C23.9196 65.9562 23.8591 66.1385 23.8591 66.2601L23.6777 66.0778V66.807C22.8309 68.387 21.9238 70.5747 20.9561 73.3701C20.8351 73.7348 20.5327 74.5248 20.0489 75.7402C19.4441 77.6848 19.2627 78.6571 19.5046 78.6571C20.7142 76.7125 22.3471 74.9502 24.4034 73.3701C24.1615 72.0332 24.6453 71.2432 25.8549 71.0001C25.9759 71.0001 26.0968 70.8786 26.2178 70.6355C26.3388 70.2709 26.3992 69.967 26.3992 69.724C26.7621 69.8455 26.9435 69.7847 26.9435 69.5416C26.9435 69.177 27.0645 68.9947 27.3064 68.9947C27.4274 68.6301 27.6693 68.2655 28.0322 67.9008C28.395 67.5362 28.6974 67.2931 28.9394 67.1716C29.3022 66.9285 29.6046 66.7462 29.8466 66.6247C30.2094 66.5031 30.3909 66.4424 30.3909 66.4424L30.028 66.0778C29.907 65.8347 29.9675 65.6524 30.2094 65.5308C30.3304 65.6524 30.4513 65.7739 30.5723 65.8954C31.0561 65.4093 31.9028 64.5585 33.1124 63.3431C34.443 62.0062 35.3502 60.9123 35.834 60.0615C36.3178 59.4538 36.4993 59.15 36.3783 59.15C36.3783 59.0284 36.1969 59.0284 35.834 59.15C35.4711 58.7854 35.6526 58.2384 36.3783 57.5092C37.225 56.7799 37.8298 56.5976 38.1927 56.9623V56.5976C37.8298 56.233 38.1322 55.6253 39.0999 54.7745C40.1885 53.8022 40.8538 53.3768 41.0957 53.4984C42.3053 51.0676 43.3334 49.366 44.1802 48.3937C44.3011 48.3937 44.3616 48.3329 44.3616 48.2114C44.4826 48.0899 44.6035 47.9683 44.7245 47.8468C46.4179 45.5375 47.446 44.5044 47.8089 44.7475C48.0508 43.8967 49.2604 42.0129 51.4377 39.0959C51.5586 39.0959 51.6191 39.0352 51.6191 38.9136C51.861 38.549 52.7077 37.2121 54.1592 34.9028C55.7317 32.472 56.8808 30.4058 57.6066 28.7043C58.4533 27.0027 58.9976 25.2404 59.2395 23.4173ZM59.6024 23.7819C59.7233 23.5388 59.7838 23.1742 59.7838 22.688C59.9048 22.2019 59.9653 21.9588 59.9653 21.9588C59.9653 21.7157 59.8443 21.4726 59.6024 21.2296C59.4814 21.108 59.4209 21.0473 59.4209 21.0473L59.6024 22.5057C59.7233 22.7488 59.7233 23.1134 59.6024 23.5996C59.6024 23.7211 59.6024 23.7819 59.6024 23.7819ZM61.0539 47.6645V48.0291C61.0539 47.9075 61.0539 47.786 61.0539 47.6645Z" fill="#0093CE"/>
<path d="M131.588 42.3768C131.225 42.7414 131.225 43.1061 131.588 43.4707C131.709 43.5922 131.769 43.653 131.769 43.653C132.011 45.8407 131.89 50.1553 131.406 56.597C131.165 57.6908 131.044 58.4808 131.044 58.967C130.802 59.8178 130.56 60.7293 130.318 61.7016C130.197 62.5524 130.076 63.4032 129.955 64.254C129.834 64.9832 129.713 65.6517 129.592 66.2594C129.471 66.8671 129.229 67.7179 128.866 68.8117C128.624 69.9056 128.443 70.6956 128.322 71.1817C128.201 72.8833 127.657 75.1926 126.689 78.1095C125.721 80.9049 125.177 82.7888 125.056 83.7611C124.814 84.1257 124.754 84.4296 124.875 84.6727C124.875 84.9158 124.693 85.0373 124.33 85.0373C124.693 86.2527 124.33 87.5289 123.242 88.8658C123 89.2304 122.818 89.2912 122.697 89.0481C122.818 90.0204 122.697 90.5674 122.335 90.6889C121.609 90.6889 121.367 90.142 121.609 89.0481C121.73 88.9266 121.79 88.7443 121.79 88.5012C120.944 89.352 120.278 91.2966 119.794 94.3351C119.673 94.8213 119.492 95.3074 119.25 95.7936C119.129 96.2797 119.008 96.7051 118.887 97.0697C118.766 97.4344 118.645 97.7382 118.524 97.9813C118.403 98.3459 118.282 98.7713 118.162 99.2575C118.162 99.7436 118.101 100.047 117.98 100.169C117.859 100.534 117.678 100.959 117.436 101.445C117.315 101.931 117.194 102.296 117.073 102.539C116.952 102.904 116.891 103.147 116.891 103.268C116.77 104.362 116.952 104.909 117.436 104.909C117.799 105.031 117.98 105.152 117.98 105.274C117.859 105.517 117.678 105.942 117.436 106.55C115.984 111.655 114.775 114.875 113.807 116.212C112.597 118.886 111.811 121.135 111.448 122.958C110.964 124.538 110.602 125.328 110.36 125.328C110.36 125.692 110.239 126.118 109.997 126.604V126.969C109.997 127.333 109.936 127.637 109.815 127.88C109.815 127.88 109.755 127.88 109.634 127.88C109.634 127.88 109.634 127.941 109.634 128.062C109.755 128.062 109.755 128.062 109.634 128.062C109.029 128.792 108.727 129.095 108.727 128.974C108.848 128.974 108.908 128.913 108.908 128.792C108.666 128.792 108.485 128.549 108.364 128.062C108.485 127.941 108.545 127.819 108.545 127.698C108.545 127.455 108.606 126.604 108.727 125.145C108.848 123.322 108.969 122.411 109.09 122.411C109.211 122.411 109.271 122.532 109.271 122.775C109.876 119.737 109.815 118.278 109.09 118.4C108.848 118.522 108.545 119.068 108.182 120.041C107.82 119.433 107.638 119.312 107.638 119.676C107.638 119.798 107.638 119.98 107.638 120.223V120.77C107.517 121.135 107.517 121.803 107.638 122.775C107.638 123.383 107.638 123.991 107.638 124.599C107.638 125.085 107.578 125.328 107.457 125.328V126.057C107.336 125.935 107.275 125.692 107.275 125.328C107.275 125.206 107.154 125.206 106.912 125.328C106.67 125.449 106.549 125.206 106.549 124.599C106.549 124.355 106.489 124.234 106.368 124.234C105.763 119.129 106.066 111.898 107.275 102.539C107.638 100.837 107.88 99.9867 108.001 99.9867C108.001 100.108 107.94 100.716 107.82 101.81C107.82 102.661 107.82 103.147 107.82 103.268C107.94 103.147 108.001 103.025 108.001 102.904C108.001 102.782 108.001 102.721 108.001 102.721C108.001 102.6 108.303 101.384 108.908 99.0751L108.727 98.7105C108.243 98.2244 108.001 97.7382 108.001 97.2521C108.122 96.6444 108.303 95.9151 108.545 95.0643C108.787 94.2136 108.908 93.6666 108.908 93.4236L109.09 92.6943C107.517 96.3405 104.856 99.9259 101.106 103.451C97.3566 106.854 94.3326 107.279 92.0344 104.727C92.1554 104.484 92.4578 104.362 92.9416 104.362C93.1835 104.362 93.1835 104.241 92.9416 103.998C92.4578 103.998 92.0344 103.815 91.6716 103.451C91.3087 102.964 90.9458 102.782 90.5829 102.904V103.268C89.9781 103.39 89.8572 103.572 90.2201 103.815C90.7039 104.058 90.8853 104.241 90.7644 104.362C91.1272 104.241 91.3087 104.241 91.3087 104.362C90.9458 104.727 90.6434 104.97 90.4015 105.091C90.1596 105.213 89.9177 105.274 89.6757 105.274C89.5548 105.152 89.2524 105.031 88.7685 104.909C88.4057 104.788 88.1033 104.666 87.8614 104.544C87.3775 105.152 86.5308 105.638 85.3212 106.003C84.2326 106.246 83.6278 106.368 83.5068 106.368C83.3859 105.76 83.023 105.699 82.4182 106.185C81.8134 106.671 81.4506 106.914 81.3296 106.914C80.3619 106.671 79.3338 106.671 78.2451 106.914C77.2775 107.036 76.3703 107.036 75.5236 106.914C74.6769 106.671 74.193 106.064 74.0721 105.091C73.7092 105.091 73.1649 105.031 72.4391 104.909C71.7134 104.666 71.1691 104.484 70.8062 104.362C70.5643 104.119 70.5643 103.754 70.8062 103.268C70.2014 102.904 69.6571 102.418 69.1732 101.81C68.6894 101.081 68.387 100.534 68.2661 100.169C68.0241 99.8044 67.7822 99.1967 67.5403 98.3459C67.1774 97.3736 66.996 96.7659 66.996 96.5228C66.996 96.0367 66.8146 95.3682 66.4517 94.5174C66.0888 93.5451 65.9074 92.9374 65.9074 92.6943C66.0283 92.0866 65.9678 91.2966 65.7259 90.3243C65.484 89.352 65.3631 88.6835 65.3631 88.3189C65.3631 87.7112 65.3026 86.7389 65.1816 85.4019C65.0607 83.9434 65.0002 82.9103 65.0002 82.3026C65.1211 81.5734 65.1816 80.6619 65.1816 79.568C65.1816 78.3526 65.1816 77.441 65.1816 76.8333C65.1816 76.7118 65.3026 76.408 65.5445 75.9218C65.6655 75.3141 65.605 75.0102 65.3631 75.0102C66.4517 67.4748 68.0846 61.5193 70.2619 57.1439C70.3828 56.9008 70.5038 56.7185 70.6248 56.597C70.8667 56.3539 70.9876 56.1716 70.9876 56.05C71.2295 55.1992 71.411 54.6523 71.5319 54.4092C71.7739 53.68 72.1367 52.8292 72.6206 51.8569C73.2254 50.763 73.5882 50.0338 73.7092 49.6692C74.0721 49.3046 74.3745 48.8184 74.6164 48.2107C74.9793 47.4815 75.2212 46.8738 75.3421 46.3876C75.5841 45.7799 75.8865 45.233 76.2493 44.7468C76.6122 44.1391 76.9751 43.653 77.338 43.2884C77.9428 43.1668 78.1242 42.9238 77.8823 42.5591C77.7613 42.316 77.7613 42.1337 77.8823 42.0122C78.2451 41.4045 78.3661 41.0399 78.2451 40.9184C79.4547 39.5814 80.7853 38.5483 82.2368 37.8191C83.6883 36.9683 84.7769 37.0898 85.5027 38.1837C85.7446 37.8191 85.9865 37.576 86.2284 37.4545C86.5913 37.2114 86.8937 37.0898 87.1356 37.0898C87.3775 37.0898 87.4985 37.1506 87.4985 37.2722C87.6194 37.2722 87.7404 37.3329 87.8614 37.4545C87.9823 37.576 88.0428 37.6368 88.0428 37.6368C88.1638 37.6368 88.2242 37.5152 88.2242 37.2722H88.4057C88.5266 37.0291 88.7685 36.9683 89.1314 37.0898C89.4943 37.2114 89.6757 37.1506 89.6757 36.9075C89.9177 37.0291 90.1596 37.3937 90.4015 38.0014C90.6434 38.6091 90.8248 38.9129 90.9458 38.9129C91.4296 39.156 91.7925 39.4599 92.0344 39.8245C92.3973 40.1891 92.5788 40.493 92.5788 40.736C92.6997 40.9791 92.7602 41.3437 92.7602 41.8299C92.7602 42.3161 92.7602 42.6199 92.7602 42.7414C92.6392 44.3215 92.3368 46.1445 91.853 48.2107C91.3692 50.2769 91.0668 51.7961 90.9458 52.7685C90.462 53.8623 90.2201 55.3816 90.2201 57.3262C90.2201 59.2708 90.0386 60.4862 89.6757 60.9724C89.6757 61.2155 89.6757 61.337 89.6757 61.337H89.8572C90.2201 61.7016 90.2805 61.9447 90.0386 62.0663C90.0386 62.4309 89.9781 63.0993 89.8572 64.0717C89.7362 64.9224 89.6757 65.4694 89.6757 65.7124C88.829 72.6402 88.7081 77.441 89.3129 80.1149C89.4338 80.2365 89.5548 80.8442 89.6757 81.938C89.7967 84.0042 89.9781 85.0373 90.2201 85.0373C90.341 85.0373 90.5829 84.6119 90.9458 83.7611C91.3087 83.7611 91.732 83.3965 92.2159 82.6673C92.5788 82.1811 92.8207 81.9988 92.9416 82.1203C93.0626 81.7557 93.1231 81.5734 93.1231 81.5734C93.244 81.3303 93.3045 81.2696 93.3045 81.3911C93.4255 81.3911 93.4255 81.3303 93.3045 81.2088C93.1835 80.9657 93.3045 80.8442 93.6674 80.8442C94.1512 80.7226 94.4536 80.6011 94.5746 80.4795H94.756C94.877 80.358 94.9979 80.358 95.1189 80.4795C95.7237 79.3857 96.4494 78.4741 97.2961 77.7449C97.4171 77.5018 97.4171 77.5626 97.2961 77.9272C97.2961 78.1703 97.4171 78.2311 97.659 78.1095C98.3848 77.0157 99.171 76.1041 100.018 75.3749C100.502 75.2533 100.804 74.8887 100.925 74.281C101.046 73.6733 100.985 73.2479 100.743 73.0048C101.227 72.8833 101.53 72.701 101.651 72.4579C101.772 72.2148 101.711 72.0325 101.469 71.911C101.348 71.7894 101.409 71.6679 101.651 71.5464C102.376 71.3033 102.8 70.6956 102.921 69.7233C103.163 68.6294 103.405 68.0217 103.646 67.9002C104.009 67.7786 104.13 67.5963 104.009 67.3532C104.13 66.8671 104.433 66.9278 104.917 67.5355C104.796 67.0494 104.735 66.6848 104.735 66.4417C104.856 66.1986 104.977 65.9555 105.098 65.7124C105.34 65.4694 105.461 65.2871 105.461 65.1655C105.461 65.044 105.582 64.8617 105.824 64.6186C106.187 64.3755 106.368 64.1932 106.368 64.0717C106.489 63.9501 106.489 63.7678 106.368 63.5247C106.973 63.5247 107.215 63.0993 107.094 62.2486C110.602 57.6301 112.718 54.5916 113.444 53.1331C113.323 52.6469 113.505 51.9784 113.988 51.1277C114.472 50.2769 114.956 49.73 115.44 49.4869C117.254 45.8407 119.129 44.0784 121.065 44.1999C120.944 43.9568 120.944 43.7745 121.065 43.653C121.306 43.4099 121.548 43.2276 121.79 43.1061C122.153 42.863 122.395 42.6807 122.516 42.5591C124.209 40.493 125.479 39.4599 126.326 39.4599C126.084 39.3383 125.903 39.2776 125.782 39.2776C125.661 39.156 125.54 39.0953 125.419 39.0953C127.233 38.7306 128.866 39.2168 130.318 40.5537L130.499 40.3714C130.499 40.493 130.56 40.6145 130.681 40.736C130.802 40.8576 130.923 41.1007 131.044 41.4653C131.165 41.7084 131.225 41.9514 131.225 42.1945C131.346 42.3161 131.467 42.3768 131.588 42.3768ZM98.2033 31.0736L98.3848 30.709C98.3848 30.709 98.4452 30.6482 98.5662 30.5267C98.6872 30.2836 98.8081 29.9798 98.9291 29.6151C99.171 29.2505 99.3524 28.9467 99.4734 28.7036L99.6548 28.1567C99.7758 28.0351 99.8363 27.9744 99.8363 27.9744C99.8363 27.8528 99.7758 27.7313 99.6548 27.6097C99.6548 27.4882 99.7758 27.3059 100.018 27.0628C100.018 26.9413 100.018 26.8197 100.018 26.6982C99.7758 27.549 99.5943 27.6705 99.4734 27.0628C99.3524 26.5766 99.5943 26.212 100.199 25.9689L100.381 26.3336L100.743 24.6928C101.106 24.2066 101.53 23.842 102.014 23.5989C102.618 23.3558 103.163 22.9305 103.646 22.3228C103.767 21.9581 104.009 21.6543 104.372 21.4112C104.856 21.0466 105.34 20.7427 105.824 20.4997C106.429 20.135 107.033 19.7704 107.638 19.4058C108.243 18.9196 108.666 18.3727 108.908 17.765C109.029 17.6435 109.332 17.2181 109.815 16.4888C110.42 15.6381 111.025 14.9696 111.63 14.4834C112.235 13.9973 112.839 13.7542 113.444 13.7542C113.323 13.5111 113.323 13.3288 113.444 13.2073C113.565 13.0857 113.807 12.9034 114.17 12.6603C114.533 12.4172 114.835 12.1742 115.077 11.9311C115.077 11.8095 115.077 11.7488 115.077 11.7488C115.682 10.898 116.77 9.98645 118.343 9.01413C120.036 8.04181 121.488 7.43411 122.697 7.19104C123.423 6.82641 124.209 6.6441 125.056 6.6441C126.024 6.6441 126.931 6.6441 127.778 6.6441C128.624 6.52256 129.471 6.27948 130.318 5.91486C130.439 6.15795 130.923 6.15795 131.769 5.91486C132.737 5.55025 133.16 5.97564 133.039 7.19104C133.16 7.19104 133.342 7.19104 133.584 7.19104C134.43 8.16336 134.491 9.25722 133.765 10.4726C133.16 11.5665 132.072 12.478 130.499 13.2073C129.29 14.9088 127.717 16.0634 125.782 16.6711C124.814 18.6158 123 19.9527 120.339 20.682C120.218 21.1681 119.915 21.6543 119.432 22.1404C118.948 22.5051 118.222 22.9912 117.254 23.5989C116.408 24.0851 115.742 24.5105 115.258 24.8751C115.258 24.8751 115.138 24.9966 114.896 25.2397C114.775 25.4828 114.593 25.6651 114.351 25.7866C114.109 25.9082 113.807 25.9689 113.444 25.9689C113.081 25.9689 112.537 26.212 111.811 26.6982C111.085 27.0628 110.299 27.4274 109.452 27.792C108.727 28.0351 108.001 28.0959 107.275 27.9744C107.275 28.2174 106.973 28.4605 106.368 28.7036H106.187L106.368 28.8859L105.642 29.0682C105.158 29.3113 104.493 29.6151 103.646 29.9798C102.8 30.2228 102.074 30.4659 101.469 30.709C101.469 30.8305 101.348 30.9521 101.106 31.0736C100.864 31.1952 100.622 31.3167 100.381 31.4382C100.139 31.5598 100.018 31.6813 100.018 31.8029V31.9852C99.4129 31.9852 99.05 31.9244 98.9291 31.8029C98.9291 31.6813 99.1105 31.499 99.4734 31.2559C99.7153 30.8913 99.9572 30.6482 100.199 30.5267C100.078 30.6482 99.7153 30.8305 99.1105 31.0736C98.5057 31.1952 98.2033 31.1952 98.2033 31.0736ZM104.009 21.9581C104.009 21.9581 104.009 21.8974 104.009 21.7758V21.9581ZM91.4901 40.9184C91.4901 40.7968 91.4296 40.6145 91.3087 40.3714L91.1272 40.1891L91.4901 40.9184ZM92.7602 102.357C92.3973 102.843 92.4578 103.147 92.9416 103.268C93.4255 103.39 93.6674 103.268 93.6674 102.904C93.6674 102.661 93.5464 102.478 93.3045 102.357C93.0626 102.235 92.8811 102.235 92.7602 102.357ZM104.009 68.994L103.828 69.1763C103.949 69.0548 104.009 68.994 104.009 68.994ZM109.452 85.4019L109.271 85.5842C109.392 85.5842 109.452 85.5235 109.452 85.4019ZM108.908 125.875L108.727 126.057C108.848 126.057 108.908 125.996 108.908 125.875ZM108.727 128.245C108.969 128.366 109.09 128.427 109.09 128.427L108.727 128.245ZM108.908 127.698C108.908 127.698 108.908 127.759 108.908 127.88C108.908 127.88 108.908 127.819 108.908 127.698ZM109.271 127.151C109.271 127.029 109.271 126.908 109.271 126.786C109.392 126.543 109.513 126.482 109.634 126.604C109.634 126.604 109.634 126.3 109.634 125.692C109.513 125.814 109.332 126.239 109.09 126.969C109.09 127.09 109.09 127.151 109.09 127.151C109.09 127.151 109.15 127.151 109.271 127.151ZM110.541 83.0319L110.36 83.3965C110.481 83.275 110.541 83.1534 110.541 83.0319ZM109.997 77.5626C109.876 77.9272 109.876 78.1095 109.997 78.1095C110.118 78.1095 110.239 77.988 110.36 77.7449C110.602 77.3803 110.662 77.198 110.541 77.198L109.997 77.5626ZM112.537 114.025C112.658 114.146 112.718 114.146 112.718 114.025H112.537ZM111.63 114.389C112.355 112.566 112.779 111.533 112.9 111.29C113.021 109.71 112.718 109.953 111.993 112.019C111.993 112.141 111.932 112.323 111.811 112.566L111.63 113.113C111.509 113.113 111.448 113.174 111.448 113.295C111.327 113.417 111.327 113.538 111.448 113.66V114.571L111.63 114.389ZM112.9 87.225C113.021 87.3465 113.081 87.4073 113.081 87.4073L112.9 87.225ZM113.081 77.7449C113.323 77.3803 113.323 77.198 113.081 77.198C113.081 77.5626 113.081 77.7449 113.081 77.7449ZM113.081 86.1311C113.081 86.2527 113.081 86.3135 113.081 86.3135C113.202 86.3135 113.263 86.3135 113.263 86.3135C113.263 86.1919 113.202 86.1311 113.081 86.1311ZM113.081 84.1258C113.202 84.1258 113.263 84.1258 113.263 84.1258H113.081ZM116.891 60.0609C117.012 60.0609 117.073 60.0001 117.073 59.8785C117.194 59.757 117.133 59.5747 116.891 59.3316C116.77 58.967 116.891 58.7239 117.254 58.6024C117.133 58.4808 117.012 58.3593 116.891 58.2377C116.77 58.1162 116.71 57.9947 116.71 57.8731C116.71 57.7516 116.831 57.6908 117.073 57.6908C116.831 57.5693 116.589 57.5693 116.347 57.6908C116.226 57.8124 116.045 58.0554 115.803 58.4201C115.682 58.7847 115.561 59.1493 115.44 59.5139C115.319 59.757 115.198 60.0608 115.077 60.4255C114.956 60.6685 114.835 60.7901 114.714 60.7901C114.23 61.8839 113.444 63.3424 112.355 65.1655C111.388 66.9886 110.662 68.3863 110.178 69.3586C109.815 70.331 109.755 70.8171 109.997 70.8171C110.239 70.4525 110.844 69.4194 111.811 67.7179C112.779 66.0163 113.444 64.8617 113.807 64.254C113.444 67.0494 112.839 68.6294 111.993 68.994C111.63 69.3586 111.388 69.7233 111.267 70.0879C111.267 70.4525 111.267 70.7563 111.267 70.9994C111.267 71.121 111.327 71.3033 111.448 71.5464C111.569 71.7894 111.63 71.911 111.63 71.911C111.146 72.2756 110.904 72.701 110.904 73.1871C111.025 73.4302 110.783 73.6733 110.178 73.9164C109.815 73.9164 109.755 74.0379 109.997 74.281C109.997 74.281 110.057 74.281 110.178 74.281C110.299 74.281 110.36 74.4025 110.36 74.6456C110.36 74.8887 110.299 75.1926 110.178 75.5572C110.057 75.9218 109.997 76.0433 109.997 75.9218C109.997 76.0433 110.178 76.1649 110.541 76.2864C110.904 76.2864 110.904 76.4687 110.541 76.8333C110.662 77.0764 110.904 76.8941 111.267 76.2864C111.509 75.8003 111.63 75.5572 111.63 75.5572C112.114 74.5849 112.476 73.9164 112.718 73.5518C112.839 73.3087 113.021 72.9441 113.263 72.4579C113.505 71.8502 113.686 71.4856 113.807 71.3641C114.412 70.3917 114.714 69.6625 114.714 69.1763C116.166 67.8394 116.529 66.8063 115.803 66.0771C115.682 66.0771 115.621 66.0771 115.621 66.0771C115.379 65.4694 115.319 64.8617 115.44 64.254C115.682 63.5247 115.924 62.7955 116.166 62.0663C116.529 61.2155 116.77 60.547 116.891 60.0609ZM118.524 53.3154V53.4977C118.645 53.3762 118.645 53.3154 118.524 53.3154ZM118.887 52.4038C119.008 52.2823 119.069 52.2215 119.069 52.2215L118.887 52.4038ZM119.25 47.8461C119.129 47.9676 119.129 48.0284 119.25 48.0284V47.8461ZM122.879 88.5012V88.6835C123.121 88.562 123.121 88.5012 122.879 88.5012ZM130.499 41.4653C130.499 41.5868 130.499 41.6476 130.499 41.6476C130.62 41.6476 130.62 41.5868 130.499 41.4653C130.499 41.3437 130.439 41.2222 130.318 41.1007L130.499 41.4653Z" fill="#0093CE"/>
<path d="M203.746 6.82641C204.109 7.06949 204.109 7.55565 203.746 8.28489C203.504 9.01413 203.384 9.37875 203.384 9.37875C202.9 10.9588 202.658 11.7488 202.658 11.7488C202.537 12.1134 202.295 12.7211 201.932 13.5719C201.69 14.3011 201.509 14.9088 201.388 15.395C201.267 15.7596 201.206 16.0027 201.206 16.1242C201.206 16.2457 201.146 16.4281 201.025 16.6711C200.904 16.9142 200.783 17.1573 200.662 17.4004C200.662 17.5219 200.662 17.5827 200.662 17.5827C200.541 17.7042 200.48 17.765 200.48 17.765C200.601 17.765 200.662 17.8258 200.662 17.9473C200.541 18.4335 200.48 18.7981 200.48 19.0412H200.299C200.299 19.2842 200.239 19.6489 200.118 20.135C199.997 20.4996 199.936 20.682 199.936 20.682C199.573 22.262 199.029 24.0851 198.303 26.1513C197.698 28.0959 197.154 29.6151 196.67 30.709C196.186 31.6813 195.4 33.3829 194.312 35.8137C193.223 38.2445 192.618 39.5814 192.497 39.8245C192.013 40.4322 191.651 41.2222 191.409 42.1945C191.288 43.1668 191.046 43.8353 190.683 44.1999C190.441 44.5645 190.259 45.0507 190.139 45.6584C190.018 46.2661 189.836 46.6915 189.594 46.9345C189.11 47.7853 188.627 48.8184 188.143 50.0338C187.78 51.1277 187.356 52.1 186.873 52.9508C186.51 53.68 185.905 54.3485 185.058 54.9562C185.421 55.5639 185.482 56.05 185.24 56.4146C184.998 56.7793 184.695 57.0223 184.333 57.1439C183.97 57.9947 183.365 59.2708 182.518 60.9724C181.671 62.5524 181.127 63.5247 180.885 63.8894C180.522 64.6186 180.159 65.4086 179.797 66.2594C179.555 66.9886 179.252 67.6571 178.889 68.2648C178.527 68.7509 177.982 69.2979 177.256 69.9056C177.015 70.9994 176.531 72.1541 175.805 73.3695C175.2 74.4633 174.353 75.7395 173.265 77.198C172.176 78.6564 171.45 79.6288 171.088 80.1149C170.604 81.0872 170.301 81.6949 170.18 81.938C170.059 82.1811 169.697 82.8496 169.092 83.9434C168.608 84.9158 168.245 85.5842 168.003 85.9488C167.761 86.3135 167.277 86.9212 166.552 87.7719C165.947 88.6227 165.402 89.2304 164.919 89.595C164.556 89.9596 164.011 90.385 163.286 90.8712C162.681 91.3574 162.076 91.6612 161.471 91.7828C160.867 91.9043 160.141 91.9651 159.294 91.9651C158.568 91.9651 157.782 91.8435 156.935 91.6004C156.572 91.6004 156.028 91.6612 155.302 91.7828C152.883 92.0258 150.706 92.2081 148.771 92.3297C146.956 92.4512 145.384 92.0258 144.053 91.0535C142.723 89.9597 141.816 88.1973 141.332 85.7665C140.606 84.065 140.122 82.1811 139.88 80.1149C139.759 78.0487 139.638 75.9218 139.517 73.7341C139.517 71.5464 139.396 69.784 139.154 68.4471C139.396 68.3256 139.457 68.0217 139.336 67.5355C139.215 66.9278 139.215 66.5632 139.336 66.4417C139.215 66.1986 139.154 65.8948 139.154 65.5301C139.154 65.044 139.154 64.6794 139.154 64.4363C139.154 64.1932 139.094 64.1324 138.973 64.254C138.973 55.26 139.154 47.9676 139.517 42.3768C139.517 42.3768 139.699 40.5537 140.062 36.9075C140.062 36.1783 140.545 33.6867 141.513 29.4328C141.513 29.0682 141.574 28.7644 141.695 28.5213C141.695 28.5213 141.695 28.4605 141.695 28.339C141.936 27.6097 142.239 26.6374 142.602 25.422C142.965 24.0851 143.328 22.9912 143.69 22.1404C144.053 21.1681 144.537 20.3781 145.142 19.7704C145.263 19.1627 146.17 19.0412 147.863 19.4058C149.194 19.0412 150.585 19.2235 152.037 19.9527L152.218 20.4996C152.702 20.3781 153.186 20.3173 153.669 20.3173C154.153 20.1958 154.577 20.1958 154.94 20.3173C155.423 20.4389 155.968 20.6212 156.572 20.8643C157.177 21.1073 157.601 21.2897 157.843 21.4112C158.205 21.5327 158.629 21.7758 159.113 22.1404C159.717 22.3835 160.08 22.5658 160.201 22.6874C160.443 22.5658 160.625 22.6266 160.746 22.8697C160.987 22.9912 161.108 23.1735 161.108 23.4166C161.108 23.5381 161.108 23.7205 161.108 23.9635C161.229 24.2066 161.411 24.4497 161.653 24.6928C161.895 24.9359 162.016 25.2397 162.016 25.6043C162.258 25.9689 162.439 26.5159 162.56 27.2451C162.802 27.8528 162.923 28.2782 162.923 28.5213C162.923 28.5213 163.104 29.1897 163.467 30.5267C163.83 31.7421 163.951 32.6536 163.83 33.2613C164.435 36.786 164.616 44.8076 164.374 57.3262C164.616 57.2047 165.04 56.597 165.644 55.5031C166.249 54.4092 166.794 53.9838 167.277 54.2269C167.519 53.7408 167.701 53.3761 167.822 53.1331C167.943 52.7685 168.003 52.4038 168.003 52.0392C168.124 51.6746 168.245 51.31 168.366 50.9454C168.729 50.8238 168.971 50.8238 169.092 50.9454C169.092 51.0669 169.152 51.1277 169.273 51.1277C169.394 51.0061 169.455 50.8846 169.455 50.763C169.455 50.1553 169.636 49.4869 169.999 48.7576C170.12 48.2715 170.362 47.8461 170.725 47.4815C171.208 46.9953 171.511 46.5699 171.632 46.2053C171.753 45.9622 172.176 45.233 172.902 44.0176C173.749 42.8022 174.232 42.0122 174.353 41.6476C174.595 41.0399 174.898 40.5537 175.261 40.1891C175.744 39.8245 176.047 39.3991 176.168 38.9129C176.168 38.7914 176.228 38.6091 176.349 38.366C176.47 38.0014 176.591 37.7583 176.712 37.6368C176.954 37.5152 177.256 37.4545 177.619 37.4545C177.861 36.9683 178.043 36.4214 178.164 35.8137C178.406 35.206 178.587 34.7806 178.708 34.5375C178.95 34.1729 179.252 33.9906 179.615 33.9906C180.583 31.4382 181.853 29.3721 183.425 27.792C183.667 27.0628 183.97 26.8197 184.333 27.0628C184.453 27.1843 184.574 27.1843 184.695 27.0628C185.663 25.9689 186.086 25.1182 185.965 24.5105C186.328 24.3889 186.51 24.2066 186.51 23.9635C186.51 23.7205 186.51 23.4774 186.51 23.2343C187.236 23.1128 187.719 22.7481 187.961 22.1404C188.203 21.5327 188.445 21.1681 188.687 21.0466C189.171 20.5604 189.715 19.9527 190.32 19.2235C190.925 18.3727 191.469 17.8865 191.953 17.765C192.316 17.765 192.376 17.6435 192.134 17.4004C191.892 17.0358 192.013 16.7927 192.497 16.6711C192.739 16.4281 193.102 15.9419 193.586 15.2127C194.07 14.4834 194.554 13.8757 195.037 13.3896C195.521 12.7819 195.945 12.4172 196.307 12.2957C196.67 11.4449 196.912 11.3234 197.033 11.9311C197.033 11.4449 197.577 10.4726 198.666 9.01412C198.787 8.77105 199.029 8.52797 199.392 8.28489C199.392 8.04181 199.573 7.73796 199.936 7.37333L200.118 7.00872C200.36 7.00872 200.783 6.88718 201.388 6.6441C202.113 6.6441 202.537 6.70487 202.658 6.82641C202.779 6.94795 202.658 7.2518 202.295 7.73796C202.053 8.22412 201.932 8.58874 201.932 8.83181L202.295 8.10257C202.537 7.61641 202.718 7.31256 202.839 7.19103C203.081 7.06949 203.202 6.94795 203.202 6.82641H203.384C203.384 6.82641 203.444 6.82641 203.565 6.82641C203.686 6.82641 203.746 6.82641 203.746 6.82641ZM148.952 20.3173C149.073 20.1958 149.073 20.135 148.952 20.135C148.831 20.2566 148.831 20.3173 148.952 20.3173ZM169.817 81.3911V81.2088C169.817 81.3303 169.817 81.3911 169.817 81.3911Z" fill="#0093CE"/>
<path d="M225.519 52.0399L225.7 52.2222C225.7 55.7469 224.975 59.2107 223.523 62.6138C222.072 66.26 220.439 70.2101 218.624 74.464C216.81 78.7179 214.875 83.1541 212.818 87.7726C210.762 92.3911 209.129 96.2196 207.919 99.2581C206.952 101.932 205.803 103.998 204.472 105.457C203.625 107.158 202.658 108.677 201.569 110.014C200.601 111.23 199.936 111.594 199.573 111.108C199.331 111.23 199.392 111.351 199.755 111.473C199.997 111.716 200.057 111.838 199.936 111.838L198.848 112.384L199.21 112.567C199.452 112.567 199.452 112.749 199.21 113.114C198.969 113.357 198.727 113.661 198.485 114.025C198.364 114.39 198.364 114.633 198.485 114.754C198.122 114.633 197.94 114.815 197.94 115.301C198.061 115.544 197.819 115.605 197.215 115.484C196.731 115.241 196.489 114.937 196.489 114.572C196.489 114.208 196.489 113.964 196.489 113.843C196.368 113.843 196.247 113.964 196.126 114.208H195.945C195.461 114.694 195.219 114.937 195.219 114.937C195.219 114.815 195.098 114.815 194.856 114.937C194.735 115.058 194.735 114.937 194.856 114.572C194.493 114.694 194.191 114.39 193.949 113.661C193.465 111.838 193.525 110.379 194.13 109.285C193.767 109.164 193.646 108.921 193.767 108.556C193.767 108.07 193.707 107.766 193.586 107.644C193.223 105.457 193.223 102.236 193.586 97.982C193.586 97.7389 193.646 97.3743 193.767 96.8881C193.888 96.2804 194.009 95.7943 194.13 95.4296C194.13 95.065 194.13 94.7612 194.13 94.5181C194.372 92.695 194.735 91.2365 195.219 90.1426C195.219 88.9272 195.461 87.1649 195.945 84.8557C196.428 82.4249 196.67 80.7841 196.67 79.9333C196.791 79.0825 196.912 78.3533 197.033 77.7456C197.154 77.1379 197.275 76.4694 197.396 75.7402C197.517 75.0109 197.638 74.4032 197.759 73.9171C197.759 73.5524 197.88 72.884 198.122 71.9117C198.364 70.9393 198.424 70.2101 198.303 69.7239L198.485 69.5416C198.727 68.8124 198.969 67.4755 199.21 65.5308C199.573 63.4646 199.876 62.1277 200.118 61.52V61.3377C200.964 55.6253 202.174 51.1891 203.746 48.0291C203.625 47.9075 203.686 47.7252 203.928 47.4822C204.049 47.4822 204.109 47.2391 204.109 46.7529H204.291C204.533 46.5098 204.775 46.0844 205.016 45.4767C205.379 44.7475 205.682 44.3221 205.924 44.2006C206.287 43.7144 206.649 43.1675 207.012 42.5598C207.496 41.9521 207.98 41.4052 208.464 40.919C209.069 40.4329 209.613 40.2506 210.097 40.3721C210.581 40.3721 211.004 40.7975 211.367 41.6483C211.73 41.2836 212.093 41.1013 212.455 41.1013C212.939 41.1013 213.302 41.1621 213.544 41.2836C213.786 41.2836 214.149 41.4052 214.633 41.6483C215.237 41.8913 215.54 42.0129 215.54 42.0129C215.903 42.1344 216.387 42.256 216.991 42.3775C217.717 42.499 218.261 42.6206 218.624 42.7421C219.108 42.8636 219.531 43.1675 219.894 43.6537C220.136 44.1398 220.257 44.2006 220.257 43.836C220.257 43.5929 220.257 43.4106 220.257 43.289C220.62 43.4106 220.802 43.4714 220.802 43.4714C220.923 43.4714 221.043 43.5929 221.164 43.836C221.285 44.079 221.406 44.2613 221.527 44.3829L221.709 44.2006V44.0183C222.918 44.7475 223.523 45.1729 223.523 45.2944C224.249 46.0237 224.612 47.2391 224.612 48.9406C224.733 50.6422 225.035 51.6753 225.519 52.0399ZM197.396 107.644C197.517 107.28 197.577 107.037 197.577 106.915C197.336 107.158 197.275 107.401 197.396 107.644ZM197.759 109.103C197.88 109.103 197.94 109.042 197.94 108.921L197.759 109.103ZM198.122 108.009C198.001 108.252 198.001 108.374 198.122 108.374C198.243 108.131 198.243 108.009 198.122 108.009ZM198.303 109.285C198.303 109.407 198.364 109.407 198.485 109.285H198.303ZM199.392 107.097C199.271 107.219 199.21 107.462 199.21 107.827C199.21 108.07 199.21 108.313 199.21 108.556C199.21 108.799 199.15 108.981 199.029 109.103C199.15 109.346 199.331 109.103 199.573 108.374C199.815 106.794 199.997 105.943 200.118 105.821C199.634 105.943 199.392 106.368 199.392 107.097ZM199.029 107.827C198.908 107.948 198.848 108.009 198.848 108.009L199.029 107.827ZM200.118 109.832C200.36 109.467 200.48 109.164 200.48 108.921C200.601 108.677 200.662 108.556 200.662 108.556C200.42 108.556 200.118 108.799 199.755 109.285C199.634 109.771 199.392 109.954 199.029 109.832C198.787 109.589 198.666 109.467 198.666 109.467C198.666 109.589 198.787 109.711 199.029 109.832C199.513 110.318 199.876 110.318 200.118 109.832ZM237.675 21.9588C237.917 22.3234 237.675 23.6604 236.95 25.9696C236.95 26.2127 236.889 26.6989 236.768 27.4281C236.647 28.1573 236.466 28.8258 236.224 29.4335C236.103 29.9197 235.982 30.2843 235.861 30.5274C235.619 32.9582 234.228 35.3282 231.688 37.6374C230.236 38.8528 229.45 38.9744 229.329 38.0021C229.329 39.4605 228.845 39.8252 227.878 39.0959C227.757 39.0959 227.696 39.1567 227.696 39.2782C227.817 39.3998 227.938 39.5213 228.059 39.6429C228.059 39.7644 228.12 39.8859 228.241 40.0075V40.1898C227.999 40.4329 227.696 40.6152 227.333 40.7367C227.091 40.8583 226.85 40.919 226.608 40.919C226.366 40.7975 226.063 40.7367 225.7 40.7367C225.458 40.6152 225.277 40.4936 225.156 40.3721C224.551 40.9798 223.826 41.3444 222.979 41.4659C222.253 41.5875 221.769 41.2836 221.527 40.5544C221.406 40.1898 221.346 40.1898 221.346 40.5544C221.346 40.5544 221.346 40.6152 221.346 40.7367L220.983 41.1013C220.741 40.6152 220.136 39.8252 219.169 38.7313C218.322 37.6374 217.778 36.8474 217.536 36.3613C216.931 36.2397 216.387 36.3613 215.903 36.7259C215.177 36.8474 214.814 36.6044 214.814 35.9967C214.209 36.1182 214.088 35.6928 214.451 34.7205C214.693 34.2343 214.814 33.9913 214.814 33.9913C214.451 34.3559 214.33 34.4166 214.451 34.1736L214.27 33.9913V34.1736C214.028 34.2951 213.846 34.4774 213.725 34.7205C213.725 34.842 213.665 34.9636 213.544 35.0851C213.423 35.0851 213.363 35.1459 213.363 35.2674C213.242 35.7536 212.879 35.6928 212.274 35.0851C212.153 34.842 212.032 34.7205 211.911 34.7205C211.79 34.5989 211.73 34.3559 211.73 33.9913L211.548 33.8089C211.185 33.3228 211.125 32.9582 211.367 32.7151C211.246 32.7151 211.064 32.7759 210.822 32.8974C210.702 32.2897 210.641 31.8035 210.641 31.4389C210.641 31.0743 210.641 30.7704 210.641 30.5274C210.52 30.0412 210.641 29.4943 211.004 28.8866C211.367 28.1573 211.609 27.6712 211.73 27.4281C211.851 27.0635 211.73 26.6989 211.367 26.3342C211.851 25.8481 212.455 24.9365 213.181 23.5996C213.907 22.1411 214.512 21.2296 214.996 20.8649C215.358 21.108 215.54 21.1688 215.54 21.0473C215.661 20.9257 215.782 20.7434 215.903 20.5003C216.145 20.1357 216.326 19.9534 216.447 19.9534C216.568 20.1965 216.628 20.3788 216.628 20.5003C216.991 20.2572 217.294 19.9534 217.536 19.5888C217.899 19.2242 218.14 18.9811 218.261 18.8595C218.382 18.738 218.503 18.6772 218.624 18.6772C218.866 18.5557 219.048 18.5557 219.169 18.6772C219.411 18.7988 219.713 19.1026 220.076 19.5888C220.076 19.3457 220.257 19.2849 220.62 19.4065C220.983 19.4065 221.164 19.1634 221.164 18.6772C221.406 18.3126 221.588 18.2518 221.709 18.4949C221.951 18.4949 222.314 18.4949 222.797 18.4949C223.281 18.4949 223.523 18.4949 223.523 18.4949C223.523 18.3734 223.584 18.3126 223.705 18.3126C223.342 17.8264 223.342 17.5834 223.705 17.5834L225.882 18.8595C225.156 18.8595 224.975 19.0418 225.337 19.4065C225.458 19.4065 225.519 19.4672 225.519 19.5888C225.64 19.5888 225.882 19.3457 226.245 18.8595C226.487 18.1303 227.152 18.2518 228.241 19.2242L228.422 18.8595C228.785 18.6165 229.027 18.6772 229.148 19.0418C229.148 18.6772 229.39 18.4341 229.873 18.3126C230.357 18.1911 230.841 18.1303 231.325 18.1303C231.93 18.1303 232.293 18.1303 232.414 18.1303C232.414 18.0088 232.474 18.0088 232.595 18.1303C234.167 18.6165 235.498 19.2849 236.587 20.1357C236.95 20.6219 237.191 21.0473 237.312 21.4119C237.312 21.1688 237.312 20.9257 237.312 20.6826C237.554 20.9257 237.675 21.2296 237.675 21.5942C237.675 21.8373 237.675 21.9588 237.675 21.9588ZM219.713 38.9136C219.713 38.6705 219.713 38.4882 219.713 38.3667C219.471 38.2452 219.29 38.2452 219.169 38.3667C219.29 38.4882 219.471 38.6705 219.713 38.9136Z" fill="#0093CE"/>
<path d="M304.221 17.2192C303.979 17.3408 304.039 17.5231 304.402 17.7662C304.402 18.0092 304.341 18.3131 304.221 18.6777C304.221 18.9208 304.16 19.1031 304.039 19.2246C304.039 19.3462 304.1 19.4069 304.221 19.4069H304.402C304.16 20.2577 303.797 21.5947 303.313 23.4178C302.95 25.2409 302.527 26.6993 302.043 27.7932C299.503 32.4117 297.205 36.0579 295.149 38.7318C294.665 39.3395 294.12 40.1295 293.516 41.1018C292.911 42.0741 292.488 42.6818 292.246 42.9249C291.762 43.2895 291.459 43.6541 291.338 44.0187C291.338 44.1403 291.278 44.1403 291.157 44.0187C290.673 44.8695 289.947 45.4164 288.98 45.6595C289.585 46.1457 289.343 46.8749 288.254 47.8472C288.012 47.9688 287.77 48.2726 287.528 48.7588C287.286 49.2449 286.984 49.5488 286.621 49.6703C285.653 50.6426 283.416 53.2557 279.908 57.5096C276.4 61.642 273.497 64.6197 271.199 66.4428C270.836 66.8074 270.352 67.2936 269.747 67.9013C269.263 68.509 268.84 68.9952 268.477 69.3598C268.114 69.7244 267.691 70.089 267.207 70.4536C266.723 70.6967 266.24 70.879 265.756 71.0006C265.514 71.3652 265.272 71.7906 265.03 72.2767C264.909 72.6413 264.728 72.9452 264.486 73.1883C264.365 73.3098 264.123 73.4314 263.76 73.5529C262.792 74.8898 261.522 76.1052 259.95 77.1991C258.377 78.293 257.168 79.2045 256.321 79.9337C256.2 80.0553 256.139 80.1161 256.139 80.1161L257.047 79.5691C257.893 78.8399 258.498 78.4145 258.861 78.293L258.68 78.6576C257.107 80.4807 256.26 81.0884 256.139 80.4807C255.777 80.4807 255.595 80.5415 255.595 80.663C255.595 80.4199 255.656 80.6022 255.777 81.2099L254.507 81.5745C254.265 81.5745 254.083 81.5745 253.962 81.5745C254.325 82.0607 254.386 82.4253 254.144 82.6684C254.023 82.9115 253.66 83.2153 253.055 83.5799C252.571 83.823 252.329 83.9446 252.329 83.9446C251.845 84.1876 251.664 84.4307 251.785 84.6738C251.906 84.9169 251.906 85.0384 251.785 85.0384C251.18 85.2815 250.696 85.5246 250.333 85.7677C250.092 85.8892 249.91 86.0715 249.789 86.3146C249.789 86.4361 249.729 86.6184 249.608 86.8615C249.487 86.9831 249.305 87.1046 249.063 87.2261C248.459 87.7123 247.612 88.5023 246.523 89.5962C245.556 90.5685 244.83 91.1762 244.346 91.4193C242.29 92.5131 240.354 95.3085 238.54 99.8055C238.419 99.8055 238.54 98.9547 238.903 97.2532V95.7947C238.903 95.9162 238.842 96.1593 238.721 96.5239C238.6 97.0101 238.479 97.3139 238.359 97.4355C237.875 98.1647 237.693 98.894 237.814 99.6232C237.935 99.2586 238.056 99.0763 238.177 99.0763L237.996 100.17C237.754 100.17 237.512 99.9878 237.27 99.6232C236.786 100.231 236.302 100.352 235.818 99.9878C235.576 99.7447 235.576 99.5017 235.818 99.2586C235.576 99.0155 235.335 99.0155 235.093 99.2586C235.093 99.5017 234.972 99.684 234.73 99.8055C234.488 99.9271 234.367 99.9878 234.367 99.9878C234.004 100.109 233.823 100.231 233.823 100.352C233.702 100.474 233.641 100.535 233.641 100.535C233.641 100.413 233.581 100.413 233.46 100.535C233.218 100.656 233.036 100.656 232.915 100.535C232.794 100.899 232.673 101.142 232.553 101.264C232.432 101.507 232.311 101.386 232.19 100.899V100.352C232.069 100.474 231.948 100.596 231.827 100.717C231.948 100.596 232.008 100.535 232.008 100.535H232.19L231.827 100.717L231.101 101.264C230.98 101.264 230.98 101.142 231.101 100.899L230.738 101.082C230.012 101.082 230.738 99.8663 232.915 97.4355C232.673 97.9216 232.553 98.2255 232.553 98.347C232.432 98.347 232.432 98.4078 232.553 98.5293C232.915 97.557 233.399 96.6455 234.004 95.7947C234.609 94.8224 235.093 93.9716 235.456 93.2424C235.576 92.9993 235.637 92.1485 235.637 90.69C235.516 89.11 235.516 87.4692 235.637 85.7677C235.758 83.9446 236.06 83.033 236.544 83.033C236.302 82.5469 236.181 82.243 236.181 82.1215C236.181 81.9999 236.363 81.9999 236.726 82.1215C235.879 81.7569 235.758 80.9061 236.363 79.5691C236.605 79.083 236.847 78.9007 237.088 79.0222C236.726 78.1714 236.847 76.7737 237.451 74.8291C237.814 73.8568 238.238 72.3983 238.721 70.4536C239.084 68.509 239.387 67.2936 239.629 66.8074C239.871 67.0505 239.991 67.2936 239.991 67.5367C240.233 67.2936 240.354 66.9897 240.354 66.6251C240.475 66.139 240.536 65.8959 240.536 65.8959C240.657 65.7744 240.838 65.7744 241.08 65.8959C241.08 65.6528 241.02 65.4705 240.899 65.349C240.899 65.2274 240.899 65.1059 240.899 64.9843C241.262 65.2274 241.564 64.9843 241.806 64.2551C242.169 62.6751 242.169 61.642 241.806 61.1558C241.806 57.5096 242.532 53.6811 243.983 49.6703C244.104 48.5765 244.285 47.8472 244.527 47.4826C244.648 47.118 244.709 46.7534 244.709 46.3887C244.83 45.9026 244.951 45.538 245.072 45.2949C245.314 44.9303 245.495 44.0188 245.616 42.5603C245.858 41.1018 246.039 40.3118 246.16 40.1903C246.523 38.0025 247.189 34.721 248.156 30.3455C248.64 28.5224 248.882 27.4893 248.882 27.2463L248.7 27.4286C248.942 27.064 249.063 26.6993 249.063 26.3347C249.184 25.9701 249.245 25.6662 249.245 25.4232C249.366 25.1801 249.487 25.0585 249.608 25.0585C249.487 24.3293 249.729 22.9924 250.333 21.0477C251.059 19.1031 251.241 17.8269 250.878 17.2192C250.878 17.7054 250.394 17.5838 249.426 16.8546C249.063 16.6115 248.821 16.5508 248.7 16.6723C248.338 16.6723 248.096 16.6723 247.975 16.6723C247.975 16.5508 247.975 16.49 247.975 16.49C247.007 17.3408 246.342 17.5231 245.979 17.0369C245.616 16.5508 245.253 16.3684 244.89 16.49C244.406 16.6115 244.165 16.6723 244.165 16.6723C244.165 16.5508 244.225 16.2469 244.346 15.7607L244.165 15.3961C244.165 15.3961 244.104 15.3961 243.983 15.3961C243.378 15.0315 243.076 15.0923 243.076 15.5784C242.592 15.3354 242.471 15.0923 242.713 14.8492C242.955 14.4846 243.197 14.3023 243.439 14.3023L243.257 14.12L242.894 14.3023C242.774 13.9376 242.774 13.5123 242.894 13.0261C243.015 12.5399 243.197 12.1753 243.439 11.9322C243.802 11.6892 244.104 11.6892 244.346 11.9322C244.588 11.6892 244.527 11.5676 244.165 11.5676C243.923 11.3245 243.802 11.203 243.802 11.203C244.044 10.5953 244.406 10.1699 244.89 9.92683C245.374 9.68375 245.797 9.50144 246.16 9.3799C246.523 9.25836 246.765 9.07605 246.886 8.83298C247.007 8.58989 247.37 8.52912 247.975 8.65066C248.58 8.65066 248.942 8.34681 249.063 7.73911C249.91 7.25295 251.241 6.88833 253.055 6.64526C254.99 6.40218 256.139 6.1591 256.502 5.91601C257.228 6.40217 257.772 6.28064 258.135 5.5514C258.256 5.91601 258.619 5.97678 259.224 5.73371C259.708 5.61217 260.01 5.61217 260.131 5.73371C260.252 5.61217 260.554 5.49063 261.038 5.36908C261.643 5.126 262.187 4.9437 262.671 4.82216C263.155 4.57907 263.457 4.45753 263.578 4.45753C263.699 4.57908 263.881 4.76139 264.123 5.00447C264.486 5.24754 264.667 5.18677 264.667 4.82216C264.788 5.18677 264.969 5.24754 265.211 5.00447C266.058 5.00447 267.389 4.82215 269.203 4.45753C271.017 4.09292 272.046 3.91061 272.287 3.91061C272.892 3.66753 273.376 3.60675 273.739 3.72829C274.223 3.72829 274.586 3.72829 274.828 3.72829C275.19 3.72829 275.372 3.54598 275.372 3.18137C282.629 3.30291 287.831 3.60676 290.976 4.09292C291.822 4.33599 292.729 4.70061 293.697 5.18677C294.786 5.67293 295.814 6.21986 296.782 6.82756C297.87 7.31372 298.838 7.67834 299.685 7.92142C301.015 8.52912 302.104 9.44068 302.95 10.6561C303.797 11.8715 304.16 13.0869 304.039 14.3023C304.039 14.5454 304.1 14.9707 304.221 15.5784C304.341 16.0646 304.402 16.4292 304.402 16.6723C304.402 16.7938 304.341 16.9761 304.221 17.2192ZM243.983 11.9322V12.1145C244.104 12.1145 244.104 12.0538 243.983 11.9322ZM231.101 100.352C231.101 100.474 231.222 100.292 231.464 99.8055H231.645C231.645 99.8055 231.464 99.9878 231.101 100.352ZM234.185 96.8886C234.064 97.1316 233.944 97.3747 233.823 97.6178L234.367 97.2532L234.185 96.8886ZM233.823 98.1647C233.702 98.0432 233.641 98.0432 233.641 98.1647H233.823ZM232.19 99.4409L231.827 100.352L232.008 99.9878C232.371 99.3801 232.492 99.0763 232.371 99.0763C232.25 99.0763 232.19 99.1978 232.19 99.4409ZM234.185 97.8001C232.976 98.5293 232.432 99.1978 232.553 99.8055C232.673 99.9271 232.794 99.9271 232.915 99.8055L233.097 99.6232C233.339 99.6232 233.581 99.5017 233.823 99.2586C234.065 98.894 234.306 98.6509 234.548 98.5293C234.669 98.2863 234.73 98.1647 234.73 98.1647C234.125 98.7724 233.823 99.0763 233.823 99.0763C233.823 98.9547 234.004 98.5901 234.367 97.9824L234.185 97.8001ZM234.548 99.0763C234.548 99.0763 234.609 99.0155 234.73 98.894C234.851 98.7724 234.851 98.6509 234.73 98.5293C234.367 98.7724 234.004 99.0763 233.641 99.4409L233.46 99.9878C233.702 99.9878 234.064 99.684 234.548 99.0763ZM235.093 97.0709C235.093 97.0709 235.153 97.0101 235.274 96.8886H235.093V97.0709ZM237.451 99.4409V99.6232C237.451 99.6232 237.451 99.5624 237.451 99.4409ZM237.814 100.17C237.814 100.049 237.814 99.9878 237.814 99.9878V100.17ZM239.084 97.4355C238.842 97.557 238.842 97.6178 239.084 97.6178C239.205 97.4963 239.205 97.4355 239.084 97.4355ZM242.35 61.7028C242.35 61.5812 242.35 61.5205 242.35 61.5205H242.169L242.35 61.7028ZM242.169 92.3308C242.411 92.3308 242.532 92.3308 242.532 92.3308H242.169ZM259.95 45.2949L260.313 45.1126C260.313 45.1126 260.192 45.1734 259.95 45.2949ZM260.131 45.4772C260.131 45.4772 260.071 45.4772 259.95 45.4772H260.131ZM255.414 68.8129C255.535 68.8129 255.595 68.8129 255.595 68.8129H255.414ZM257.954 64.0728C258.075 64.3159 258.135 64.4374 258.135 64.4374C258.256 64.3159 258.196 64.1943 257.954 64.0728ZM258.861 76.8345C258.861 76.956 258.861 77.0168 258.861 77.0168V76.8345ZM259.405 63.1612V63.3435C259.526 63.3435 259.526 63.2828 259.405 63.1612ZM288.798 46.3887V46.5711C288.919 46.5711 288.919 46.5103 288.798 46.3887ZM289.706 18.6777C289.826 18.6777 289.826 18.5562 289.706 18.3131C289.585 16.9761 289.403 16.3077 289.161 16.3077C288.919 15.2138 288.919 14.6669 289.161 14.6669L289.706 15.5784L289.887 15.3961C290.008 15.2746 290.068 15.153 290.068 15.0315C290.068 14.6669 289.887 14.4238 289.524 14.3023C289.403 14.3023 289.343 14.3023 289.343 14.3023C289.101 14.1807 288.798 13.9984 288.435 13.7553H288.073C288.194 13.8769 287.589 13.6338 286.258 13.0261C285.774 12.783 285.472 12.7222 285.351 12.8438C285.23 12.6007 284.928 12.6007 284.444 12.8438C283.597 13.0869 282.448 13.3299 280.996 13.573C279.666 13.8161 278.698 13.9984 278.093 14.12C277.61 14.2415 276.642 14.363 275.19 14.4846C273.739 14.6061 272.65 14.6061 271.925 14.4846C271.562 14.6061 271.259 14.8492 271.017 15.2138C270.896 15.4569 270.775 15.8823 270.655 16.49C270.655 17.0977 270.594 17.4623 270.473 17.5838C270.473 18.07 270.352 18.5562 270.11 19.0423C269.868 19.5285 269.687 19.8931 269.566 20.1362C269.566 20.2577 269.687 20.5008 269.929 20.8654C269.203 23.5393 268.054 26.8209 266.481 30.7102C265.998 31.6825 265.453 32.8979 264.848 34.3563C264.365 35.6933 263.881 36.9695 263.397 38.1849C262.913 39.4002 262.429 40.4941 261.945 41.4664C261.704 41.831 261.704 42.2564 261.945 42.7426C261.583 42.9857 261.341 43.3503 261.22 43.8364C260.494 43.958 260.252 44.3226 260.494 44.9303C260.736 45.2949 260.736 45.5987 260.494 45.8418C260.494 46.0849 260.313 46.0849 259.95 45.8418C259.466 45.9634 259.224 45.6595 259.224 44.9303C259.224 44.0795 259.405 43.3503 259.768 42.7426C259.647 42.4995 259.526 42.621 259.405 43.1072C259.163 43.4718 259.103 43.6541 259.224 43.6541C259.103 43.8972 258.922 44.1403 258.68 44.3834C258.559 44.6264 258.438 44.8087 258.317 44.9303C258.196 45.0518 258.196 45.2341 258.317 45.4772C258.438 45.4772 258.619 45.538 258.861 45.6595V46.3887C258.982 46.2672 259.042 46.2672 259.042 46.3887C259.163 46.6318 259.042 46.8749 258.68 47.118C258.801 46.8749 258.801 46.6926 258.68 46.5711C258.559 46.4495 258.438 46.4495 258.317 46.5711C257.712 46.6926 257.893 46.9964 258.861 47.4826L254.869 57.3273C254.869 57.3273 255.051 57.0843 255.414 56.5981C255.535 56.355 255.595 56.1727 255.595 56.0512V55.8688C255.716 55.6258 255.837 55.3827 255.958 55.1396C256.079 55.0181 256.139 54.9573 256.139 54.9573C256.381 54.3496 256.563 53.9242 256.684 53.6811C256.805 53.6811 256.926 53.8634 257.047 54.2281V54.4104C256.926 53.0734 257.168 52.1011 257.772 51.4934C258.014 52.4657 257.712 53.8634 256.865 55.6865C256.018 57.3881 255.535 58.4212 255.414 58.7858C254.93 59.7581 254.627 60.4874 254.507 60.9735C254.386 61.2166 254.325 61.3989 254.325 61.5205L254.144 61.3381V62.0674C253.297 63.6474 252.39 65.8351 251.422 68.6305C251.301 68.9952 250.999 69.7852 250.515 71.0006C249.91 72.9452 249.729 73.9175 249.971 73.9175C251.18 71.9729 252.813 70.2106 254.869 68.6305C254.627 67.2936 255.111 66.5036 256.321 66.2605C256.442 66.2605 256.563 66.139 256.684 65.8959C256.805 65.5313 256.865 65.2274 256.865 64.9843C257.228 65.1059 257.41 65.0451 257.41 64.802C257.41 64.4374 257.53 64.2551 257.772 64.2551C257.893 63.8905 258.135 63.5259 258.498 63.1612C258.861 62.7966 259.163 62.5535 259.405 62.432C259.768 62.1889 260.071 62.0066 260.313 61.8851C260.675 61.7635 260.857 61.7028 260.857 61.7028L260.494 61.3381C260.373 61.0951 260.434 60.9128 260.675 60.7912C260.796 60.9128 260.917 61.0343 261.038 61.1558C261.522 60.6697 262.369 59.8189 263.578 58.6035C264.909 57.2666 265.816 56.1727 266.3 55.3219C266.784 54.7142 266.965 54.4104 266.844 54.4104C266.844 54.2888 266.663 54.2888 266.3 54.4104C265.937 54.0457 266.119 53.4988 266.844 52.7696C267.691 52.0403 268.296 51.858 268.659 52.2227V51.858C268.296 51.4934 268.598 50.8857 269.566 50.0349C270.654 49.0626 271.32 48.6372 271.562 48.7588C272.771 46.328 273.799 44.6264 274.646 43.6541C274.767 43.6541 274.828 43.5934 274.828 43.4718C274.949 43.3503 275.069 43.2287 275.19 43.1072C276.884 40.7979 277.912 39.7649 278.275 40.0079C278.517 39.1572 279.726 37.2733 281.904 34.3563C282.025 34.3563 282.085 34.2956 282.085 34.174C282.327 33.8094 283.174 32.4725 284.625 30.1632C286.198 27.7324 287.347 25.6662 288.073 23.9647C288.919 22.2631 289.464 20.5008 289.706 18.6777ZM290.068 19.0423C290.189 18.7992 290.25 18.4346 290.25 17.9485C290.371 17.4623 290.431 17.2192 290.431 17.2192C290.431 16.9761 290.31 16.7331 290.068 16.49C289.947 16.3684 289.887 16.3077 289.887 16.3077L290.068 17.7662C290.189 18.0092 290.189 18.3739 290.068 18.86C290.068 18.9816 290.068 19.0423 290.068 19.0423ZM291.52 42.9249V43.2895C291.52 43.168 291.52 43.0464 291.52 42.9249Z" fill="#0093CE"/>
<path d="M348.446 68.2659C348.567 68.3875 348.688 68.509 348.809 68.6306L348.99 68.9952C349.716 70.2106 349.293 70.8183 347.72 70.8183C346.511 70.8183 345.845 70.5752 345.724 70.089H344.273C344.394 70.2106 344.575 70.2714 344.817 70.2714C344.938 70.3929 345.059 70.4537 345.18 70.4537C345.664 70.6967 346.027 71.0006 346.269 71.3652C346.511 71.6083 346.571 71.9121 346.45 72.2768C346.45 72.5198 346.39 72.8845 346.269 73.3706C346.269 73.8568 346.269 74.2214 346.269 74.4645C345.059 74.7076 343.124 74.5253 340.463 73.9176C339.616 74.5253 338.648 74.7683 337.56 74.6468C336.471 74.5252 335.564 74.5252 334.838 74.6468C334.112 74.6468 333.81 75.0114 333.931 75.7407C333.689 76.956 333.508 77.6853 333.387 77.9284C333.387 78.5361 333.326 79.083 333.205 79.5692C333.084 79.9338 333.024 80.1768 333.024 80.2984C332.54 81.6353 332.298 82.3038 332.298 82.3038C332.298 83.2761 332.177 84.4307 331.935 85.7677C331.693 86.9831 331.572 87.6516 331.572 87.7731C329.274 98.9548 328.065 104.971 327.944 105.822C327.097 109.346 326.613 111.17 326.492 111.291H326.311V111.656L325.948 112.75C326.069 112.75 326.19 112.567 326.311 112.203C326.432 112.446 326.371 112.81 326.129 113.296C326.008 113.661 325.948 113.843 325.948 113.843L325.766 113.479L325.585 113.661C325.343 113.904 325.282 113.722 325.403 113.114C325.524 112.506 325.585 112.203 325.585 112.203C325.343 112.324 325.161 112.932 325.04 114.026C324.92 114.998 324.799 115.484 324.678 115.484C324.678 115.606 324.678 115.788 324.678 116.031V116.578H324.496C324.375 116.943 324.254 117.125 324.133 117.125C324.496 117.247 324.496 117.429 324.133 117.672C323.891 117.915 323.77 118.158 323.77 118.401L323.408 120.224V120.042C323.287 120.285 323.166 120.71 323.045 121.318C322.924 121.683 322.863 121.865 322.863 121.865V120.771L322.682 120.953H322.5L322.138 121.136C321.533 120.042 321.17 118.583 321.049 116.76C321.049 114.937 320.928 113.661 320.686 112.932C320.444 110.501 320.444 107.949 320.686 105.275C320.565 104.303 320.565 103.513 320.686 102.905C320.686 100.839 320.867 98.2255 321.23 95.0655C321.23 95.0655 321.291 94.5793 321.412 93.607C321.533 93.4855 321.593 93.3639 321.593 93.2424C321.351 92.9993 321.23 92.8778 321.23 92.8778C321.23 92.1485 321.291 90.9939 321.412 89.4139C321.654 87.8339 321.775 86.8615 321.775 86.4969C321.654 85.7677 321.593 85.2207 321.593 84.8561C321.714 84.37 321.775 83.8231 321.775 83.2154C321.896 82.6077 321.956 82.1823 321.956 81.9392C321.835 81.3315 321.956 79.9945 322.319 77.9284C322.803 75.4976 322.803 74.2214 322.319 74.0999C322.077 74.0999 321.775 74.2214 321.412 74.4645C320.928 74.586 319.234 74.6468 316.331 74.6468C313.549 74.5252 311.917 74.7076 311.433 75.1937C311.191 75.1937 310.707 75.1937 309.981 75.1937C309.376 75.0722 308.893 75.0114 308.53 75.0114C308.288 75.0114 307.925 75.0722 307.441 75.1937C306.957 75.3153 306.534 75.4976 306.171 75.7407C306.292 76.1053 306.171 76.3483 305.808 76.4699C305.445 76.5914 305.264 76.7737 305.264 77.0168C305.264 77.3814 305.445 77.5638 305.808 77.5638C305.929 77.9284 305.869 78.1107 305.627 78.1107C305.506 77.9891 305.445 77.9284 305.445 77.9284C305.566 78.0499 305.566 78.3538 305.445 78.8399C305.324 79.2045 305.264 79.4476 305.264 79.5692C305.143 79.6907 304.961 80.0553 304.719 80.663C304.478 81.1492 304.236 81.6353 303.994 82.1215C303.752 82.6077 303.57 82.8507 303.449 82.8507C303.328 82.9723 303.207 83.1546 303.087 83.3977L302.724 83.9446C302.482 84.3092 302.421 84.5523 302.542 84.6738C302.905 84.3092 303.087 84.1877 303.087 84.3092C302.966 84.5523 302.542 85.2815 301.816 86.4969C301.575 86.74 301.03 87.2262 300.184 87.9554C300.304 87.9554 300.365 88.0162 300.365 88.1377C300.365 88.1377 300.425 88.1985 300.546 88.32C300.667 88.5631 300.607 88.6239 300.365 88.5023C300.244 88.9885 299.639 89.9608 298.551 91.4193C298.913 91.5408 298.913 91.9055 298.551 92.5132C298.188 92.9993 297.704 93.607 297.099 94.3363C296.494 95.0655 296.131 95.6732 296.01 96.1593C295.889 96.2809 295.829 96.2201 295.829 95.977L296.555 94.5186C296.676 94.0324 296.736 93.7893 296.736 93.7893C296.736 93.6678 296.676 93.607 296.555 93.607C296.313 94.3363 296.131 94.5186 296.01 94.1539C295.769 94.8832 295.527 95.4909 295.285 95.977C295.164 96.0986 295.224 95.7947 295.466 95.0655C295.466 94.8224 295.466 94.7009 295.466 94.7009V94.5186C295.224 95.0047 295.103 95.3086 295.103 95.4301L294.922 95.6124C295.043 95.3693 294.982 95.187 294.74 95.0655C294.619 94.8224 294.619 94.5793 294.74 94.3363C294.861 93.9716 294.922 93.6678 294.922 93.4247C295.043 93.0601 295.103 92.817 295.103 92.6954C295.103 92.5739 295.103 92.4524 295.103 92.3308C295.103 92.0878 295.164 91.7231 295.285 91.237C295.406 91.1154 295.406 91.4193 295.285 92.1485V92.3308L294.922 92.1485C294.801 92.5131 294.74 92.3916 294.74 91.7839C294.861 91.6624 294.861 91.3585 294.74 90.8724C294.74 90.2647 294.801 89.9 294.922 89.7785C295.164 89.4139 295.285 88.867 295.285 88.1377C295.406 87.4085 295.527 86.8615 295.648 86.4969C295.769 86.0108 296.071 85.95 296.555 86.3146C296.434 85.5854 296.313 85.2815 296.192 85.4031C296.071 85.7677 296.01 85.8892 296.01 85.7677L296.192 83.9446C296.313 83.823 296.373 83.7015 296.373 83.58C296.494 83.3369 296.555 83.033 296.555 82.6684C296.676 82.3038 296.736 82.0607 296.736 81.9392C296.978 81.2099 297.099 80.7845 297.099 80.663C297.22 80.2984 297.401 79.7515 297.643 79.0222C297.885 78.293 298.006 77.8068 298.006 77.5638V76.1053C297.16 76.4699 295.95 76.7737 294.378 77.0168C292.805 77.1384 291.777 77.2599 291.293 77.3814C291.051 77.503 290.749 77.6245 290.386 77.7461C290.144 77.7461 289.902 77.7461 289.66 77.7461C289.297 77.7461 288.995 77.7461 288.753 77.7461C288.511 77.7461 288.33 77.8068 288.209 77.9284C288.088 78.0499 288.027 78.1714 288.027 78.293C287.785 77.9284 287.543 77.8068 287.301 77.9284C287.06 78.0499 286.878 77.9284 286.757 77.5638V78.1107C286.515 78.1107 286.273 78.1714 286.031 78.293C285.668 78.4145 285.427 78.5361 285.306 78.6576C285.185 78.6576 285.064 78.5361 284.943 78.293L284.761 78.1107L284.943 77.7461C284.459 77.7461 284.277 77.8676 284.398 78.1107C284.398 78.2322 284.277 78.2322 284.036 78.1107C283.794 78.1107 283.733 78.0499 283.854 77.9284C283.854 77.6853 283.673 77.6245 283.31 77.7461C283.31 77.9891 282.947 78.1107 282.221 78.1107C281.737 78.2322 281.435 78.293 281.314 78.293C281.072 78.4145 281.072 78.4753 281.314 78.4753L282.221 78.293C282.947 78.4145 282.765 78.5968 281.677 78.8399L280.77 79.0222C280.649 79.0222 280.407 79.0222 280.044 79.0222C279.802 79.1438 279.621 79.2045 279.5 79.2045C279.137 79.3261 278.774 79.4476 278.411 79.5692C278.048 79.5692 277.746 79.6299 277.504 79.7515C277.262 79.7515 277.02 79.8122 276.778 79.9338C276.536 79.9338 276.355 79.9338 276.234 79.9338C275.992 79.8122 275.871 79.6299 275.871 79.3868C275.871 79.3868 275.629 79.3868 275.145 79.3868C275.266 79.0222 275.508 78.8399 275.871 78.8399C275.992 78.8399 276.052 78.7184 276.052 78.4753C275.206 78.8399 274.843 79.083 274.964 79.2045C274.722 78.8399 274.964 78.5361 275.689 78.293C276.294 78.1714 276.597 78.1107 276.597 78.1107C276.959 77.503 277.262 77.1384 277.504 77.0168C277.746 76.7737 277.988 76.8953 278.229 77.3814C278.109 77.0168 278.169 76.7737 278.411 76.6522C278.653 76.4091 278.713 76.2268 278.592 76.1053C279.318 75.7406 280.286 75.1937 281.495 74.4645C282.584 73.6137 283.673 72.8845 284.761 72.2768C285.85 71.6691 286.818 71.2437 287.664 71.0006L287.846 71.1829C287.967 71.3044 288.148 71.3652 288.39 71.3652C288.511 71.2437 288.632 71.0614 288.753 70.8183C288.753 70.6967 288.813 70.636 288.934 70.636L288.753 70.4537C288.995 70.3321 289.297 70.2714 289.66 70.2714C289.902 70.1498 290.144 70.089 290.386 70.089C290.628 70.089 290.809 70.0283 290.93 69.9067C291.172 69.7852 291.293 69.6029 291.293 69.3598C292.14 69.1167 292.563 68.9952 292.563 68.9952C292.442 69.2383 292.442 69.4206 292.563 69.5421C292.684 69.5421 292.805 69.4206 292.926 69.1775C293.168 69.1775 293.41 69.056 293.652 68.8129C294.015 68.4483 294.257 68.4483 294.378 68.8129C295.345 68.2052 296.01 67.9013 296.373 67.9013C296.615 67.9013 297.16 67.7798 298.006 67.5367C298.853 67.1721 299.337 66.9898 299.458 66.9898C299.579 66.9898 299.881 67.0505 300.365 67.1721C300.849 66.5644 301.212 65.5313 301.454 64.0728C301.816 62.6143 302.058 61.8243 302.179 61.7028C302.542 60.1228 303.328 57.0843 304.538 52.5873C304.901 52.1011 305.022 51.7365 304.901 51.4934C305.022 51.3719 305.324 50.5819 305.808 49.1234C305.808 49.0019 305.808 48.9411 305.808 48.9411C305.687 48.4549 305.869 48.2119 306.352 48.2119C306.473 48.0903 306.534 47.8472 306.534 47.4826C306.534 47.3611 306.534 47.2395 306.534 47.118C306.655 46.9964 306.655 46.5711 306.534 45.8418C306.534 44.991 306.594 44.3834 306.715 44.0188C306.957 43.5326 307.139 42.9857 307.26 42.378C307.381 41.7703 307.502 41.2234 307.622 40.7372C307.743 40.1295 307.864 39.7041 307.985 39.461C308.227 39.0964 308.409 38.4887 308.53 37.6379C308.772 36.6656 308.893 36.1187 308.893 35.9971C311.07 30.0417 312.461 25.8486 313.066 23.4178C313.187 23.2962 313.247 22.9316 313.247 22.3239C313.368 21.7162 313.489 21.2908 313.61 21.0477C313.852 20.6831 314.033 20.3185 314.154 19.9539C314.396 19.5893 314.517 19.407 314.517 19.407C314.638 19.2854 314.699 19.1639 314.699 19.0423C314.82 18.9208 314.88 18.6169 314.88 18.1308C315.001 18.0092 315.061 17.9485 315.061 17.9485C315.908 16.7331 316.815 16.2469 317.783 16.49C324.436 17.0977 328.548 17.9485 330.121 19.0423C330.363 18.9208 330.605 18.9816 330.847 19.2246C331.209 19.4677 331.391 19.5893 331.391 19.5893C332.479 19.4677 333.81 19.7108 335.382 20.3185C336.955 20.197 338.104 21.0477 338.83 22.8708C339.556 24.6939 339.918 26.8209 339.918 29.2517C339.918 31.5609 339.797 33.7486 339.556 35.8148C339.314 37.881 339.072 39.1572 338.83 39.6433C338.951 39.5218 339.011 39.5218 339.011 39.6433L338.648 45.2949C338.406 47.6042 338.104 49.8526 337.741 52.0403C337.499 54.1065 337.257 55.565 337.015 56.4158C336.894 57.145 336.834 57.9958 336.834 58.9681C336.834 59.8189 336.894 60.3051 337.015 60.4266C337.136 60.5482 337.439 60.852 337.923 61.3382C338.527 61.7028 339.132 61.9459 339.737 62.0674C340.342 62.1889 341.249 62.6751 342.459 63.5259C343.789 64.2551 345.12 65.1059 346.45 66.0782C346.813 66.1998 347.115 66.4428 347.357 66.8075C347.599 67.0505 347.781 67.3544 347.902 67.719C348.144 67.9621 348.325 68.1444 348.446 68.2659ZM276.597 78.1107C276.597 78.1107 276.536 78.1107 276.415 78.1107L276.778 78.293L276.959 78.1107L277.141 77.9284L276.597 78.1107ZM276.415 78.6576C276.415 78.5361 276.415 78.4753 276.415 78.4753V78.6576ZM278.411 78.8399C278.411 78.9615 278.653 78.9615 279.137 78.8399C278.895 78.8399 278.653 78.8399 278.411 78.8399ZM276.052 79.2045C276.173 79.4476 277.02 79.2045 278.592 78.4753L279.318 78.1107H279.137C278.532 78.2322 277.988 78.4145 277.504 78.6576C276.899 78.9007 276.415 79.083 276.052 79.2045ZM280.225 77.9284L280.044 78.1107C280.165 78.1107 280.225 78.0499 280.225 77.9284ZM280.951 77.5638C281.072 77.5638 281.495 77.4422 282.221 77.1991C282.826 76.9561 283.128 76.8345 283.128 76.8345L280.951 77.5638ZM291.837 69.5421C291.716 69.6637 291.656 69.7244 291.656 69.7244L291.837 69.5421ZM298.369 76.8345L298.551 77.0168C298.672 76.8953 298.672 76.8345 298.551 76.8345C298.43 76.713 298.369 76.713 298.369 76.8345ZM298.006 79.7515C298.006 79.5084 298.006 79.5692 298.006 79.9338L297.825 80.663C297.825 81.0276 297.825 81.0884 297.825 80.8453C297.946 80.3592 298.006 79.9945 298.006 79.7515ZM296.918 89.2316L296.736 88.867V89.0493L296.918 89.2316ZM296.01 89.5962C296.01 89.5962 296.01 89.5354 296.01 89.4139V89.5962ZM296.192 92.5132C296.192 92.9993 296.192 93.2424 296.192 93.2424C296.192 93.2424 296.252 93.1208 296.373 92.8778C296.494 92.6347 296.494 92.5132 296.373 92.5132C296.252 92.3916 296.192 92.3916 296.192 92.5132ZM295.466 92.8778C295.587 92.5131 295.769 92.2701 296.01 92.1485C296.252 91.9054 296.373 91.7839 296.373 91.7839V91.4193C296.131 91.5408 296.071 91.4193 296.192 91.0547C296.192 90.9331 296.252 90.7508 296.373 90.5077L295.466 92.8778ZM296.555 90.3254C296.555 90.447 296.555 90.5077 296.555 90.5077V90.3254ZM297.28 91.9662C297.28 91.9662 297.341 91.8447 297.462 91.6016C297.583 91.237 297.643 91.0547 297.643 91.0547L297.28 91.237L297.099 92.3308L297.28 91.9662ZM298.188 92.1485V92.3308C298.188 92.3308 298.188 92.2701 298.188 92.1485ZM297.825 91.9662C297.704 92.4524 297.825 92.3308 298.188 91.6016C298.309 91.4801 298.43 91.3585 298.551 91.237C298.793 90.6293 298.913 90.3862 298.913 90.5077C299.034 90.0216 298.853 90.1431 298.369 90.8724C298.006 91.6016 297.825 91.9662 297.825 91.9662ZM299.276 75.923C299.276 75.923 299.276 75.9837 299.276 76.1053V75.923ZM301.816 84.8561C301.816 84.8561 301.877 84.7954 301.998 84.6738C302.119 84.1877 301.998 84.2484 301.635 84.8561C301.393 85.3423 301.212 85.5854 301.091 85.5854C301.091 85.95 301.151 86.0715 301.272 85.95L301.454 85.7677C301.575 85.4031 301.695 85.16 301.816 85.0385C301.816 84.9169 301.816 84.8561 301.816 84.8561ZM302.361 83.7623V83.9446C302.361 83.9446 302.361 83.8838 302.361 83.7623ZM303.268 75.923V76.8345L303.449 76.4699C303.57 75.9837 303.57 75.8014 303.449 75.923C303.328 75.923 303.268 75.923 303.268 75.923ZM303.631 78.1107C303.631 78.1107 303.631 78.1714 303.631 78.293C303.752 78.4145 303.812 78.4753 303.812 78.4753C303.812 78.2322 303.752 78.1107 303.631 78.1107ZM304.175 77.3814V77.5638C304.296 77.4422 304.296 77.3814 304.175 77.3814ZM304.175 76.6522C304.296 76.6522 304.357 76.6522 304.357 76.6522C304.357 76.6522 304.357 76.5914 304.357 76.4699L304.175 76.6522ZM305.445 75.7407C304.84 75.6191 304.599 75.9837 304.719 76.8345C304.719 77.4422 304.901 77.3207 305.264 76.4699C305.385 76.1053 305.445 75.8622 305.445 75.7407ZM307.985 64.4374C307.864 64.559 307.864 64.6198 307.985 64.6198V64.4374ZM322.319 113.479C322.319 113.6 322.319 113.661 322.319 113.661V113.479ZM322.138 117.49C322.138 117.368 322.198 117.186 322.319 116.943L322.5 116.578C322.5 116.213 322.44 115.666 322.319 114.937V114.573C322.319 114.694 322.319 114.937 322.319 115.302C322.319 115.545 322.258 115.788 322.138 116.031C322.138 116.153 322.138 116.153 322.138 116.031C322.017 115.423 321.956 114.816 321.956 114.208C321.956 114.33 321.956 114.512 321.956 114.755C321.956 115.363 321.896 115.666 321.775 115.666C321.775 115.788 321.775 116.031 321.775 116.396C321.896 116.639 321.956 116.882 321.956 117.125C322.077 117.368 322.138 117.49 322.138 117.49ZM323.77 110.926C323.77 111.048 323.77 111.109 323.77 111.109C323.891 111.352 323.952 111.291 323.952 110.926V110.38L323.77 110.926ZM323.952 114.026V113.661C323.831 113.783 323.831 113.904 323.952 114.026ZM322.863 76.1053H323.589C323.347 75.9837 323.105 75.9837 322.863 76.1053ZM318.69 61.5205C319.053 61.2774 319.537 61.1559 320.142 61.1559C320.746 61.0343 321.23 60.9736 321.593 60.9736C322.077 60.852 322.379 60.6697 322.5 60.4266C322.621 60.062 322.742 57.3881 322.863 52.405C322.984 50.7034 323.045 49.1234 323.045 47.6649C323.045 46.2064 323.045 44.4442 323.045 42.378C322.561 42.9857 322.138 43.7757 321.775 44.748C321.412 45.5988 321.049 46.5103 320.686 47.4826C320.444 48.3334 320.142 49.0018 319.779 49.488C318.932 50.9465 318.448 51.858 318.327 52.2227L317.964 52.5873L317.783 52.7696C317.662 53.1342 317.602 53.3773 317.602 53.4988C317.481 54.1065 316.755 55.8081 315.424 58.6035C313.973 61.5205 313.428 62.979 313.791 62.979C313.912 62.979 314.094 62.8574 314.336 62.6143C314.699 62.4928 314.94 62.432 315.061 62.432C315.182 62.432 315.303 62.4928 315.424 62.6143C315.545 62.7359 315.727 62.8574 315.969 62.979C315.969 62.7359 316.332 62.432 317.057 62.0674C317.783 61.7028 318.327 61.5205 318.69 61.5205ZM323.045 119.86V120.589C323.045 120.346 323.045 120.103 323.045 119.86ZM323.045 114.026C322.682 115.363 322.621 116.153 322.863 116.396L323.226 115.849C323.105 115.241 323.045 114.633 323.045 114.026ZM323.408 103.452C323.287 103.573 323.287 103.695 323.408 103.816C323.529 103.816 323.589 103.816 323.589 103.816C323.589 102.723 323.529 100.778 323.408 97.9824C323.408 95.187 323.468 93.1208 323.589 91.7839C323.226 92.2701 322.984 93.4855 322.863 95.4301C322.863 97.2532 322.803 98.2863 322.682 98.5294C322.803 99.2586 322.924 100.778 323.045 103.087L323.408 103.452ZM323.589 105.275C323.71 104.789 323.71 104.424 323.589 104.181C323.468 104.424 323.468 104.667 323.589 104.91V105.275ZM323.77 117.854C323.77 117.247 323.831 116.517 323.952 115.666C324.194 114.816 324.375 114.208 324.496 113.843C324.254 113.479 324.012 114.512 323.77 116.943L323.589 118.401C323.589 118.28 323.649 118.097 323.77 117.854ZM324.859 103.816V103.999C324.859 103.999 324.859 103.938 324.859 103.816ZM325.222 106.551L325.403 106.369C325.403 106.247 325.403 105.943 325.403 105.457C325.282 106.065 325.222 106.429 325.222 106.551ZM326.673 109.833C326.552 109.954 326.492 110.136 326.492 110.38C326.492 110.258 326.552 110.076 326.673 109.833ZM327.399 107.463H327.218C327.339 107.463 327.399 107.463 327.399 107.463ZM328.125 99.0763C328.246 98.8332 328.246 98.7117 328.125 98.7117V99.0763ZM330.302 88.5023C330.302 88.3808 330.242 88.3808 330.121 88.5023H330.302ZM328.851 94.7009L328.488 96.3417L330.484 89.2316H330.302C330.181 88.7454 330 88.8062 329.758 89.4139C329.758 89.5354 329.758 89.657 329.758 89.7785V89.9608C329.516 90.0823 329.274 89.9 329.032 89.4139C328.427 89.4139 328.367 89.657 328.851 90.1431C329.335 90.3862 329.516 90.7508 329.395 91.237C329.395 91.7231 329.274 92.3916 329.032 93.2424C328.79 93.9716 328.73 94.4578 328.851 94.7009Z" fill="#0093CE"/>
<path d="M413.038 27.0628C412.917 27.549 412.494 28.339 411.768 29.4328C411.889 29.6759 411.828 29.919 411.586 30.1621C411.345 30.2836 411.103 30.4051 410.861 30.5267C410.74 30.6482 410.74 30.7698 410.861 30.8913C410.861 31.0128 410.8 31.1344 410.679 31.2559C410.316 32.2282 409.046 33.2006 406.869 34.1729C406.627 34.5375 406.264 34.9021 405.78 35.2667C405.297 35.5098 404.752 35.7529 404.147 35.996C403.664 36.239 403.24 36.4214 402.877 36.5429C402.515 36.6644 402.333 36.786 402.333 36.9075C402.212 37.0291 402.091 37.0898 401.97 37.0898C401.607 37.0898 401.184 37.1506 400.7 37.2721C400.337 37.3937 400.035 37.5152 399.793 37.6368C399.551 37.6368 399.37 37.6368 399.249 37.6368C399.128 37.6368 399.007 37.6368 398.886 37.6368C398.765 37.6368 398.644 37.6368 398.523 37.6368C398.16 37.6368 398.039 37.8191 398.16 38.1837C397.071 37.9406 397.192 37.6368 398.523 37.2721C398.765 37.2721 398.946 37.2114 399.067 37.0898C398.1 37.3329 397.434 37.2721 397.071 36.9075C397.555 37.3937 397.495 37.6975 396.89 37.8191L395.257 37.2721V37.0898L395.801 36.7252H395.438L395.257 36.5429C395.257 36.2998 395.197 36.1175 395.076 35.996C394.471 36.1175 394.168 36.0567 394.168 35.8137C393.926 36.4214 393.805 36.2998 393.805 35.449C393.685 34.5983 393.624 34.1729 393.624 34.1729V33.9906C393.745 33.9906 393.805 33.869 393.805 33.6259C393.805 33.3829 393.866 33.079 393.987 32.7144C394.108 32.3498 394.168 32.1675 394.168 32.1675C394.168 32.0459 394.108 31.9244 393.987 31.8028C392.173 32.289 390.298 33.0182 388.362 33.9906C386.548 34.8413 384.552 35.9352 382.375 37.2721C380.198 38.4875 378.686 39.3383 377.839 39.8245C377.355 39.8245 377.113 40.0068 377.113 40.3714C377.355 40.4929 377.174 40.736 376.569 41.1006C371.731 44.6253 368.404 47.6637 366.59 50.2161C365.622 51.1884 364.957 51.9784 364.594 52.5861C364.352 53.1938 364.231 53.5584 364.231 53.68C364.231 53.8015 364.654 53.9838 365.501 54.2269C366.348 54.47 366.892 54.5915 367.134 54.5915C367.618 54.1054 368.162 53.9838 368.767 54.2269C369.493 54.3485 369.916 54.3485 370.037 54.2269C370.037 54.47 370.4 54.5308 371.126 54.4092C371.368 53.8015 372.033 53.9231 373.122 54.7738C373.001 54.6523 373.001 54.5915 373.122 54.5915C373.726 54.47 374.15 54.7131 374.392 55.3208L374.573 54.9562C374.573 54.7131 374.573 54.5915 374.573 54.5915C374.815 54.47 375.178 54.5308 375.662 54.7738C376.266 54.8954 376.629 54.8954 376.75 54.7738C377.234 54.6523 377.96 54.8346 378.928 55.3208C380.016 55.6854 380.681 55.7462 380.923 55.5031C381.044 55.3815 381.165 55.5031 381.286 55.8677C381.528 56.1108 381.71 56.1108 381.831 55.8677C382.073 55.9892 382.556 56.1716 383.282 56.4146C384.008 56.5362 384.673 56.6577 385.278 56.7793C385.883 56.9008 386.427 57.0831 386.911 57.3262C387.516 57.4477 387.879 57.63 388 57.8731C388.604 57.5085 390.298 58.177 393.08 59.8785C393.443 59.8785 393.624 59.8178 393.624 59.6962C393.745 59.9393 394.41 60.4255 395.62 61.1547C396.95 61.5193 398.644 62.4309 400.7 63.8893C401.184 64.6186 401.607 65.1047 401.97 65.3478C402.212 65.7124 402.635 66.3201 403.24 67.1709C403.845 67.9002 404.268 68.5079 404.51 68.994L404.329 69.1763H404.147C403.906 69.2979 403.966 69.6017 404.329 70.0879C404.45 70.331 404.51 70.5133 404.51 70.6348C405.115 71.121 405.357 71.2425 405.236 70.9994C405.115 70.7563 404.873 70.3917 404.51 69.9056V69.7233C405.115 69.2371 405.599 69.7233 405.962 71.1817C406.325 72.0325 406.506 72.8225 406.506 73.5518C406.506 73.6733 406.506 73.7341 406.506 73.7341C406.627 73.9772 406.627 74.0987 406.506 74.0987C406.385 73.9771 406.204 73.7948 405.962 73.5518C405.962 73.7948 405.962 74.2202 405.962 74.8279C405.962 75.3141 405.962 75.6787 405.962 75.9218C405.962 76.1649 405.962 76.4079 405.962 76.651C406.083 77.6233 405.901 78.778 405.418 80.1149C404.934 81.3303 404.45 82.1203 403.966 82.4849C403.966 82.9711 403.785 83.518 403.422 84.1257C403.18 84.6119 402.877 85.0981 402.515 85.5842C402.152 86.0704 401.789 86.4958 401.426 86.8604C401.063 87.225 400.64 87.6504 400.156 88.1366C399.793 88.6227 399.491 89.0481 399.249 89.4127C398.886 89.6558 398.523 89.9596 398.16 90.3243C397.918 90.6889 397.737 90.932 397.616 91.0535C397.495 91.175 397.253 91.2966 396.89 91.4181C396.648 91.5397 396.406 91.4789 396.164 91.2358C395.559 91.8435 394.894 92.2689 394.168 92.512C393.443 92.7551 393.019 92.9374 392.898 93.0589C392.535 93.302 391.87 93.6058 390.902 93.9705C389.935 94.3351 389.088 94.6389 388.362 94.882C387.758 95.1251 387.455 95.4289 387.455 95.7936C388.302 96.1582 388.362 96.462 387.637 96.7051C387.153 97.1913 386.608 97.6167 386.004 97.9813C385.399 98.3459 384.673 98.7713 383.826 99.2574C382.98 99.6221 382.435 99.8651 382.193 99.9867C381.71 100.23 381.044 100.412 380.198 100.534C379.351 100.534 378.625 100.594 378.02 100.716C377.416 100.716 377.053 100.837 376.932 101.081C376.569 101.688 375.541 102.114 373.847 102.357C372.154 102.478 371.247 102.539 371.126 102.539C370.279 102.296 369.553 102.174 368.949 102.174C368.465 102.174 367.799 102.296 366.953 102.539C366.106 102.661 365.562 102.721 365.32 102.721C364.11 102.478 362.659 101.688 360.965 100.351C359.272 98.8928 357.82 98.2244 356.611 98.3459C356.49 98.2244 356.369 98.1636 356.248 98.1636C351.893 96.8267 349.777 95.6112 349.898 94.5174C349.656 92.2081 350.381 90.0204 352.075 87.9542C353.042 86.7388 353.647 87.0427 353.889 88.8658C353.889 88.7442 354.01 88.6835 354.252 88.6835L354.615 88.5012C354.373 88.015 354.252 87.7719 354.252 87.7719C354.373 87.6504 354.615 87.5896 354.978 87.5896C355.22 87.5896 355.401 87.5896 355.522 87.5896C354.917 87.8327 354.978 88.2581 355.703 88.8658C356.308 89.3519 356.611 89.3519 356.611 88.8658C356.611 88.7442 356.611 88.5619 356.611 88.3189C356.974 89.2912 357.76 89.7166 358.969 89.595C360.3 89.4735 360.965 88.9873 360.965 88.1366C361.086 88.1366 361.268 88.2581 361.51 88.5012C361.872 88.7442 362.114 88.9266 362.235 89.0481C362.477 89.0481 362.719 88.8658 362.961 88.5012C363.203 88.2581 363.566 88.2581 364.05 88.5012C364.171 88.5012 364.231 88.4404 364.231 88.3189C364.231 88.1973 364.231 88.0758 364.231 87.9542C365.683 88.9266 367.074 88.805 368.404 87.5896C369.13 87.3465 369.977 87.1642 370.944 87.0427C371.912 86.7996 372.698 86.6173 373.303 86.4958C373.908 86.3742 374.452 86.1919 374.936 85.9488C375.057 85.8273 375.359 85.8273 375.843 85.9488C376.327 86.0704 376.69 86.1919 376.932 86.3135C377.174 86.435 377.416 86.3742 377.658 86.1311C377.899 85.8881 377.96 85.7665 377.839 85.7665C378.323 86.0096 378.746 86.0096 379.109 85.7665C379.472 85.4019 379.835 85.3411 380.198 85.5842C379.835 84.855 379.895 84.4296 380.379 84.308C380.984 84.1865 381.165 83.8219 380.923 83.2142C380.802 82.9711 380.923 82.9103 381.286 83.0319C382.012 83.275 382.375 83.3357 382.375 83.2142C382.375 82.728 382.798 82.3634 383.645 82.1203C383.887 81.9988 384.068 81.938 384.189 81.938C388.302 79.9934 390.963 78.1703 392.173 76.4687C394.108 73.1871 394.531 70.7563 393.443 69.1763C392.354 67.4748 390.419 66.7455 387.637 66.9886C387.032 66.7455 386.246 66.5632 385.278 66.4417C384.31 66.3201 383.524 66.2594 382.919 66.2594C382.314 66.1378 382.012 65.834 382.012 65.3478C381.044 66.0771 379.169 66.3809 376.387 66.2594C373.605 66.0163 371.61 66.0163 370.4 66.2594C369.311 66.3809 368.707 66.1986 368.586 65.7124C368.344 65.5909 367.799 65.5909 366.953 65.7124C366.106 65.7124 365.562 65.5301 365.32 65.1655C364.715 64.8009 363.808 64.0717 362.598 62.9778C362.356 63.5855 362.296 63.8893 362.417 63.8893C362.538 64.0109 362.659 64.1932 362.78 64.4363C362.901 65.1655 362.356 65.2263 361.147 64.6186C359.937 64.0109 359.332 63.707 359.332 63.707C358.607 63.464 357.82 62.8562 356.974 61.8839C356.248 60.9116 355.643 60.3039 355.159 60.0608C354.917 59.5747 354.675 59.4531 354.433 59.6962C354.312 59.8178 354.192 59.8178 354.071 59.6962C353.95 59.5747 353.95 59.5139 354.071 59.5139C354.192 59.3924 354.192 59.2708 354.071 59.1493C353.708 58.9062 353.345 58.967 352.982 59.3316C352.74 59.4531 352.559 59.4531 352.438 59.3316C352.196 59.2101 352.075 58.967 352.075 58.6023C352.075 58.2377 352.075 58.0554 352.075 58.0554C351.591 58.2985 351.228 58.4201 350.986 58.4201C350.865 58.2985 350.563 58.1162 350.079 57.8731C349.716 57.5085 349.535 57.3262 349.535 57.3262C348.567 56.9616 347.841 56.5362 347.357 56.05C346.753 55.4423 346.571 54.8954 346.813 54.4092C346.571 53.8015 346.269 53.133 345.906 52.4038C345.543 51.6746 345.301 51.1276 345.18 50.763C345.18 49.5476 345.603 48.0891 346.45 46.3876C347.176 44.686 347.841 43.7137 348.446 43.4707L348.627 43.2883C348.144 43.0453 348.265 42.4376 348.99 41.4653C351.651 37.8191 354.312 34.659 356.974 31.9852C362.417 26.7589 369.251 21.8366 377.476 17.2181C377.839 17.0965 378.141 16.975 378.383 16.8534C378.625 16.7319 378.807 16.6711 378.928 16.6711C379.049 16.5496 379.169 16.4888 379.29 16.4888C381.831 14.6657 383.585 14.3619 384.552 15.5773C384.552 14.605 384.613 14.1796 384.734 14.3011C384.855 14.3011 384.915 14.2403 384.915 14.1188C386.971 12.9034 388.302 12.8426 388.907 13.9365C389.149 14.1796 389.27 14.2403 389.27 14.1188C389.27 13.8757 389.27 13.6934 389.27 13.5719C389.632 13.6934 389.995 13.7542 390.358 13.7542C390.842 13.7542 391.205 13.8149 391.447 13.9365C391.326 12.9642 391.326 12.4172 391.447 12.2957C391.568 12.1742 391.991 12.4172 392.717 13.0249C393.201 12.4172 393.987 12.4172 395.076 13.0249C396.285 13.6326 396.95 13.9973 397.071 14.1188C397.676 14.2403 398.341 14.605 399.067 15.2127C399.914 15.8204 400.821 16.185 401.789 16.3065C402.031 16.3065 402.031 16.3673 401.789 16.4888L401.426 16.6711L403.422 18.1296C403.543 18.1296 403.603 18.1296 403.603 18.1296C404.208 18.1296 404.873 18.3119 405.599 18.6765C406.446 18.9196 407.05 19.2235 407.413 19.5881C407.776 19.8312 407.958 19.9527 407.958 19.9527C408.2 20.1958 408.321 20.1958 408.321 19.9527C408.321 19.5881 408.441 19.4665 408.683 19.5881C409.288 20.0742 409.772 20.7427 410.135 21.5935C410.619 22.3227 411.103 22.6874 411.586 22.6874C412.07 24.7535 412.554 26.212 413.038 27.0628ZM350.26 93.9705C350.381 93.9705 350.381 93.8489 350.26 93.6058L350.079 93.4235L350.26 93.9705ZM381.468 85.0373C381.589 84.9157 381.589 84.855 381.468 84.855V85.0373ZM384.371 82.4849L384.552 82.3026C384.431 82.3026 384.371 82.3634 384.371 82.4849ZM386.367 96.1582C386.488 96.0366 386.488 95.9759 386.367 95.9759V96.1582ZM405.055 72.4579L405.418 72.6402C405.418 72.6402 405.357 72.6402 405.236 72.6402C405.115 72.5187 405.055 72.4579 405.055 72.4579ZM400.519 79.9326C400.519 80.1757 400.519 80.2972 400.519 80.2972L401.426 78.8387C401.426 78.7172 401.305 78.8387 401.063 79.2034C400.821 79.6895 400.64 79.9326 400.519 79.9326ZM378.565 56.05C377.96 55.9285 377.597 55.8677 377.476 55.8677L378.928 56.2323L378.565 56.05ZM376.932 55.6854H377.113C377.113 55.6854 377.053 55.6854 376.932 55.6854ZM378.746 17.5827C378.867 17.4611 378.867 17.4004 378.746 17.4004V17.5827ZM379.835 17.0357C379.835 17.0357 379.835 16.975 379.835 16.8534V17.0357ZM385.096 15.5773C385.096 15.5773 385.096 15.5165 385.096 15.395V15.5773ZM394.713 35.0844C394.834 34.9629 394.955 34.7806 395.076 34.5375C395.076 34.1729 394.955 34.1729 394.713 34.5375V35.0844ZM396.164 37.0898C396.164 37.0898 396.225 37.0898 396.346 37.0898H396.164ZM397.797 37.0898L397.616 36.9075C397.737 36.9075 397.797 36.9683 397.797 37.0898ZM406.688 24.1458C406.446 24.2674 406.325 24.3281 406.325 24.3281L407.051 24.5105L407.232 24.3281C407.111 24.3281 406.93 24.2674 406.688 24.1458Z" fill="#0093CE"/>
<path d="M431.379 98.7125C433.193 98.591 434.887 98.5302 436.459 98.5302C438.152 98.4087 439.543 98.7733 440.632 99.624C441.721 100.353 442.265 101.447 442.265 102.906C442.265 103.878 442.144 104.911 441.902 106.005C441.781 106.977 441.479 108.071 440.995 109.286C440.632 110.38 440.39 111.17 440.269 111.657C439.181 113.358 438.576 114.27 438.455 114.391C438.455 114.513 438.455 114.573 438.455 114.573C438.334 115.181 437.669 115.91 436.459 116.761C435.249 117.612 434.463 117.855 434.1 117.49C431.923 116.518 430.048 116.093 428.476 116.214C426.903 116.214 425.875 116.336 425.391 116.579C425.028 116.822 424.182 116.457 422.851 115.485C422.609 115.363 422.367 114.817 422.125 113.844C421.884 112.507 421.944 111.413 422.307 110.563C422.67 110.32 422.791 110.016 422.67 109.651C422.67 109.286 422.73 109.043 422.851 108.922C423.093 109.043 423.214 109.043 423.214 108.922C423.214 108.8 423.214 108.618 423.214 108.375C422.972 108.375 422.912 108.253 423.033 108.01C423.154 107.646 423.154 107.463 423.033 107.463C422.912 106.126 422.972 105.336 423.214 105.093L423.577 106.734C423.819 106.248 423.879 105.519 423.758 104.546C423.637 103.453 423.819 102.906 424.303 102.906L424.666 101.812C424.666 101.812 424.666 101.933 424.666 102.176C424.666 101.569 424.847 101.143 425.21 100.9C425.452 100.171 425.694 99.9887 425.936 100.353L426.117 100.171C426.48 99.8064 426.782 99.6848 427.024 99.8064C427.992 98.7125 429.443 98.3479 431.379 98.7125ZM423.577 111.11L423.396 110.927V111.11H423.577ZM482 11.7507C482 11.9938 482 12.2976 482 12.6622C481.879 12.9053 481.819 13.0876 481.819 13.2092C481.819 13.2092 481.819 13.27 481.819 13.3915C481.94 14.3638 481.879 15.3969 481.637 16.4908C481.395 17.5846 481.274 18.3139 481.274 18.6785C481.032 21.4739 480.548 23.6616 479.823 25.2416C479.581 26.0924 479.157 27.247 478.553 28.7055C477.948 30.164 477.585 31.1363 477.464 31.6225C474.561 36.6056 472.444 39.6441 471.114 40.738C470.751 41.7103 469.783 43.0472 468.211 44.7488C466.638 46.4504 465.792 47.3619 465.671 47.4834C464.945 48.4558 463.917 49.6712 462.586 51.1296C461.377 52.5881 460.469 53.682 459.865 54.4112C455.873 58.6651 453.454 61.3998 452.607 62.6152C451.639 63.8306 450.188 65.6537 448.253 68.0845C446.438 70.5153 445.531 71.7914 445.531 71.913C444.926 72.5207 444.019 73.7361 442.809 75.5592C441.721 77.2607 440.814 78.4761 440.088 79.2054C440.088 79.3269 440.088 79.3877 440.088 79.3877C439.241 80.2384 438.818 80.36 438.818 79.7523C438.576 79.5092 438.576 79.2054 438.818 78.8407C439.06 78.4761 439.362 78.0507 439.725 77.5646C440.088 76.9569 440.269 76.5922 440.269 76.4707C440.39 76.1061 440.632 75.8022 440.995 75.5592C441.479 75.3161 441.842 75.073 442.084 74.8299C442.447 74.5868 442.628 74.283 442.628 73.9184C443.112 73.6753 443.112 73.1284 442.628 72.2776C443.112 72.0345 443.293 71.6699 443.172 71.1837C443.051 70.576 442.749 70.2722 442.265 70.2722C442.265 70.0291 442.326 69.9076 442.447 69.9076C442.447 69.9076 442.447 69.6645 442.447 69.1783C442.567 68.5706 442.688 68.1452 442.809 67.9021C442.93 67.9021 442.991 67.8414 442.991 67.7198H442.628L442.447 67.9021C442.326 67.9021 442.205 68.0237 442.084 68.2668C441.963 68.5098 441.842 68.7529 441.721 68.996C441.6 69.1175 441.479 69.1783 441.358 69.1783C441.479 69.6645 441.237 70.0291 440.632 70.2722C440.148 70.5152 439.906 70.7583 439.906 71.0014C439.664 71.2445 439.483 71.4268 439.362 71.5483C439.241 71.6699 439.12 71.8522 438.999 72.0953C438.878 72.2168 438.697 72.3991 438.455 72.6422C438.455 72.3991 438.515 72.0953 438.636 71.7307L438.455 71.5483L438.092 71.913C437.971 71.913 437.971 72.0345 438.092 72.2776C438.092 72.7637 438.031 73.0676 437.911 73.1891V73.5537H438.092C437.608 74.4045 437.306 75.1338 437.185 75.7415C437.185 76.2276 437.124 76.7138 437.003 77.2C437.366 76.3492 437.669 75.863 437.911 75.7415V76.2884C437.79 77.1392 438.032 77.0176 438.636 75.9238C439.725 74.1007 440.269 73.5538 440.269 74.283C440.269 74.4045 440.269 74.5868 440.269 74.8299C439.785 76.4099 438.878 78.1723 437.548 80.1169C437.427 80.2384 437.245 80.4208 437.003 80.6638L436.64 81.2108C436.278 81.4538 436.217 81.2715 436.459 80.6638C436.701 79.57 436.822 79.0838 436.822 79.2054C436.58 79.3269 436.399 79.57 436.278 79.9346C436.52 77.99 436.399 78.0507 435.915 80.1169C435.552 81.3323 435.37 81.8792 435.37 81.7577C435.129 82.1223 434.887 82.6085 434.645 83.2162V84.857C434.887 84.3708 435.129 83.6416 435.37 82.6693L435.552 83.0339H435.733C435.854 82.6692 435.975 82.4262 436.096 82.3046C436.217 82.1831 436.278 82.1223 436.278 82.1223C436.399 82.0008 436.459 81.94 436.459 81.94L436.64 82.1223C436.64 82.2439 436.822 82.1223 437.185 81.7577C437.669 81.0285 437.971 80.7854 438.092 81.0285C438.092 80.7854 438.092 80.6031 438.092 80.4815C438.092 80.1169 438.273 80.0561 438.636 80.2992C438.999 80.5423 438.939 80.8461 438.455 81.2108C439.06 80.9677 439.181 81.15 438.818 81.7577C437.971 83.2162 437.548 83.9454 437.548 83.9454C436.338 85.2823 435.673 86.0116 435.552 86.1331C435.431 86.2547 435.37 86.2547 435.37 86.1331C435.491 86.3762 435.552 86.437 435.552 86.3154C435.673 86.1939 435.794 86.1939 435.915 86.3154C435.794 86.8016 435.612 87.1662 435.37 87.4093L435.189 87.227V87.0447L435.37 86.6801L435.189 86.4977C434.826 86.6193 434.584 86.9839 434.463 87.5916C434.463 88.0778 434.403 88.3208 434.282 88.3208L434.1 88.5032V88.6855C433.737 89.1716 433.677 89.1108 433.919 88.5032C434.766 86.437 435.068 85.4039 434.826 85.4039C435.068 85.1608 435.189 85.1 435.189 85.2216L435.37 85.0393L435.008 84.857C434.524 85.1 434.161 85.647 433.919 86.4977C433.798 86.4977 433.737 86.4977 433.737 86.4977C433.496 86.4977 433.375 86.6801 433.375 87.0447V85.5862C433.375 85.4647 433.375 85.3431 433.375 85.2216C433.496 84.857 433.556 84.6747 433.556 84.6747L433.193 85.9508L433.012 86.6801C433.012 86.6801 433.012 86.6193 433.012 86.4977C432.891 86.8624 432.83 87.227 432.83 87.5916C432.83 87.8347 432.891 87.9562 433.012 87.9562C433.133 87.9562 433.072 88.0778 432.83 88.3208C432.709 88.3208 432.649 88.1385 432.649 87.7739C432.649 87.8955 432.649 87.9562 432.649 87.9562C432.649 87.4701 432.649 86.9839 432.649 86.4977C432.649 85.8901 432.588 85.4039 432.467 85.0393C432.467 84.6747 432.528 84.3708 432.649 84.1277C432.77 83.8846 432.951 83.6416 433.193 83.3985C433.072 83.2769 433.133 83.1554 433.375 83.0339C433.254 83.0339 433.193 82.7908 433.193 82.3046C433.435 76.3492 434.161 73.5537 435.37 73.9184C435.37 73.4322 435.31 73.0676 435.189 72.8245C435.189 72.703 435.249 72.5207 435.37 72.2776C435.491 71.913 435.612 71.6091 435.733 71.366C435.854 71.123 435.915 70.9406 435.915 70.8191C436.157 70.8191 436.338 70.7583 436.459 70.6368C436.701 69.9076 436.943 69.2391 437.185 68.6314C437.548 68.0237 437.911 67.416 438.273 66.8083C438.757 66.2006 439.06 65.7752 439.181 65.5321C439.664 65.046 439.906 64.7421 439.906 64.6206C439.906 64.6206 439.967 64.499 440.088 64.2559C440.209 63.8913 440.33 63.6483 440.451 63.5267C440.572 63.2836 440.632 63.2229 440.632 63.3444C440.874 62.9798 441.116 62.5544 441.358 62.0682C441.721 61.5821 442.023 61.0959 442.265 60.6098C442.628 60.1236 442.93 59.759 443.172 59.5159C443.535 58.7867 443.958 58.1182 444.442 57.5105C445.047 56.9028 445.531 56.4774 445.894 56.2343C446.257 55.8697 446.559 55.6266 446.801 55.5051C446.68 54.7758 446.922 54.0466 447.527 53.3174C448.253 52.5881 448.857 52.2235 449.341 52.2235C449.462 52.102 449.704 51.6158 450.067 50.765C450.551 49.7927 450.974 49.185 451.337 48.9419L451.518 49.1242C451.397 49.3673 451.397 49.5496 451.518 49.6712C451.639 49.6712 451.76 49.6104 451.881 49.4889C452.849 48.5165 454.119 46.5719 455.691 43.6549C457.385 40.738 458.413 39.0364 458.776 38.5502C460.348 36.3625 462.042 33.2025 463.856 29.0701C466.517 23.9655 467.727 19.7116 467.485 16.3084C467.485 14.85 467.243 13.8777 466.759 13.3915C466.396 12.7838 465.792 12.6015 464.945 12.8446C464.219 12.9661 463.493 13.2699 462.768 13.7561C462.042 14.1207 461.195 14.6677 460.227 15.3969C459.26 16.0046 458.594 16.43 458.232 16.6731C456.659 18.01 454.18 19.8939 450.793 22.3247C447.527 24.6339 445.229 26.3963 443.898 27.6117C443.172 28.0978 442.265 28.9486 441.176 30.164C440.088 31.3794 439.181 32.1694 438.455 32.534C438.576 32.7771 438.576 33.0202 438.455 33.2633C438.334 33.5063 438.152 33.7494 437.911 33.9925C437.79 34.114 437.608 34.2963 437.366 34.5394C437.124 34.661 436.943 34.8433 436.822 35.0864C436.217 35.451 435.733 35.9371 435.37 36.5448C435.129 37.031 434.887 37.5779 434.645 38.1856C434.403 38.7933 434.1 39.2795 433.737 39.6441C433.254 40.1303 433.133 40.3733 433.375 40.3733C433.496 40.4949 433.435 40.9203 433.193 41.6495C432.951 42.3787 432.77 42.9865 432.649 43.4726C432.649 43.9588 432.891 44.3234 433.375 44.5665C433.617 44.5665 433.677 44.688 433.556 44.9311C433.435 45.0526 433.435 45.1742 433.556 45.2957C433.556 45.2957 433.798 45.478 434.282 45.8427L433.375 46.5719L432.286 46.7542L431.923 46.9365C431.439 47.3011 431.076 47.3619 430.834 47.1188C430.23 46.8757 429.383 46.6934 428.294 46.5719C427.206 46.4503 426.54 46.268 426.299 46.025C426.057 46.025 425.452 45.9642 424.484 45.8427C424.242 45.5996 423.758 45.4173 423.033 45.2957C422.307 45.0527 421.944 44.6272 421.944 44.0196C421.339 44.5057 420.976 44.688 420.855 44.5665C420.734 44.4449 420.553 44.1411 420.311 43.6549C419.948 43.0472 419.646 42.6826 419.404 42.5611C418.678 41.7103 418.436 41.0418 418.678 40.5556H418.86V40.3733C418.86 40.3733 418.799 40.3733 418.678 40.3733C418.799 40.2518 418.981 40.1303 419.222 40.0087C419.101 39.5226 418.86 39.1579 418.497 38.9149C418.134 38.6718 417.952 38.4895 417.952 38.3679C418.315 38.1249 418.436 37.3956 418.315 36.1802C418.073 34.9648 417.952 34.1748 417.952 33.8102C418.073 33.6886 418.134 33.4456 418.134 33.0809C418.255 32.8379 418.315 32.7163 418.315 32.7163C418.194 30.2855 419.162 27.247 421.218 23.6008C423.396 19.8331 425.089 18.0708 426.299 18.3139C426.54 17.3415 427.145 16.43 428.113 15.5792C429.202 14.7284 430.048 14.3638 430.653 14.4853C430.653 14.4853 430.774 14.303 431.016 13.9384C431.742 13.3307 432.165 13.0876 432.286 13.2092C432.891 13.0876 433.193 13.0269 433.193 13.0269C433.193 12.9053 433.133 12.6622 433.012 12.2976C433.737 11.4469 434.1 11.0215 434.1 11.0215C434.947 10.5353 437.911 8.52989 442.991 5.00524C443.354 5.36986 443.596 5.4914 443.717 5.36985C443.958 5.12678 444.261 4.82293 444.624 4.4583C446.317 2.99983 448.918 2.02751 452.426 1.54135C452.668 1.05519 453.03 0.812111 453.514 0.812111C453.998 0.690573 454.24 0.508262 454.24 0.265178C455.812 -0.220982 457.264 -0.0386713 458.594 0.812111C459.078 0.569035 459.623 0.569035 460.227 0.812111C460.953 1.05519 461.377 1.17673 461.497 1.17673C463.433 1.17673 464.582 1.2375 464.945 1.35904C465.55 1.72366 466.578 2.02751 468.029 2.27059C472.626 2.75675 475.529 3.6683 476.738 5.00524C477.585 5.61294 478.371 6.52448 479.097 7.73988C479.823 8.83374 480.307 9.74529 480.548 10.4745C480.911 11.0822 481.153 11.2038 481.274 10.8392C481.153 10.1099 481.214 9.86684 481.456 10.1099L482 11.7507ZM427.569 41.4672L427.387 41.2849V42.1964C427.508 41.7103 427.569 41.4672 427.569 41.4672ZM427.569 45.8427C428.052 45.3565 427.629 45.0526 426.299 44.9311C426.057 44.9311 425.815 44.9311 425.573 44.9311C425.331 44.9311 425.21 44.9311 425.21 44.9311C425.936 45.2957 426.419 45.478 426.661 45.478C426.661 45.478 426.54 45.478 426.299 45.478C426.54 45.8427 426.782 45.9034 427.024 45.6603C427.145 45.7819 427.327 45.8427 427.569 45.8427ZM429.383 46.025C429.383 46.025 429.383 45.9642 429.383 45.8427V46.025ZM429.746 46.2073L429.564 46.025C429.564 46.025 429.625 46.0857 429.746 46.2073ZM433.737 82.6693L433.556 83.7631C433.677 83.7631 433.737 83.52 433.737 83.0339V82.6693ZM433.919 85.7685L433.737 85.9508H433.556L433.737 85.7685H433.919ZM434.282 81.2108L434.463 80.8461C434.463 80.4815 434.463 80.1777 434.463 79.9346C434.342 79.6915 434.221 79.6915 434.1 79.9346C433.979 80.2992 433.919 80.5423 433.919 80.6638C434.04 80.9069 434.04 81.15 433.919 81.3931C433.919 81.5146 433.858 81.6969 433.737 81.94C433.737 82.1831 433.798 82.3046 433.919 82.3046L434.1 82.6693L434.282 82.4869C434.403 81.8792 434.403 81.4538 434.282 81.2108ZM440.995 69.5429H440.814C440.814 69.5429 440.874 69.5429 440.995 69.5429ZM442.809 70.0899V69.9076C442.809 69.9076 442.809 69.9683 442.809 70.0899ZM442.991 62.9798L443.172 62.7975C443.172 62.7975 443.112 62.8582 442.991 62.9798ZM443.354 69.7252C443.475 69.7252 443.596 69.9075 443.717 70.2722L443.354 69.7252ZM469.299 15.2146H469.118C469.118 15.2146 469.178 15.2146 469.299 15.2146ZM432.649 87.9562C432.649 88.0778 432.649 88.1385 432.649 88.1385L432.467 88.3208C432.467 88.1993 432.528 88.0778 432.649 87.9562ZM432.649 88.5032H432.467C432.467 88.5032 432.467 88.4424 432.467 88.3208C432.467 88.3208 432.467 88.3816 432.467 88.5032C432.588 88.5032 432.649 88.5032 432.649 88.5032Z" fill="#0093CE"/>
</svg>
