<svg width="38" height="36" viewBox="0 0 38 36" fill="none" xmlns="http://www.w3.org/2000/svg">
<g filter="url(#filter0_d_366_1672)">
<mask id="path-1-outside-1_366_1672" maskUnits="userSpaceOnUse" x="3.67762" y="3.66969" width="31.7744" height="29.1359" fill="black">
<rect fill="white" x="3.67762" y="3.66969" width="31.7744" height="29.1359"/>
<path d="M28.8407 17.8783C28.5528 17.9113 28.2897 18.0556 28.1091 18.2795C27.9286 18.5033 27.8455 18.7884 27.878 19.072L28.3687 23.3489C28.4012 23.6325 28.318 23.9175 28.1375 24.1414C27.957 24.3653 27.6938 24.5096 27.406 24.5426L12.2115 26.2858C11.9237 26.3188 11.6347 26.2378 11.4082 26.0607C11.1816 25.8835 11.0361 25.6246 11.0035 25.3411L9.82718 15.0873L16.9314 20.6528C17.6088 21.1781 18.4701 21.418 19.3281 21.3203C19.7627 21.2716 20.1832 21.1376 20.565 20.9264C20.9468 20.7151 21.2821 20.4309 21.5511 20.0903L22.4091 19.0386C22.5341 18.8151 22.5746 18.5554 22.5236 18.3057C22.4726 18.056 22.3333 17.8326 22.1305 17.6752C21.9277 17.5178 21.6746 17.4365 21.4161 17.446C21.1577 17.4554 20.9107 17.5549 20.7192 17.7267L19.8215 18.8155C19.6411 19.0347 19.3809 19.1757 19.0968 19.2083C18.8127 19.2409 18.5274 19.1624 18.302 18.9898L11.1845 13.4041L16.1661 12.8326C16.454 12.7996 16.7171 12.6552 16.8977 12.4314C17.0782 12.2075 17.1613 11.9224 17.1288 11.6389C17.0963 11.3553 16.9507 11.0964 16.7242 10.9193C16.4976 10.7421 16.2087 10.6611 15.9208 10.6941L10.4942 11.3167C9.63068 11.4158 8.84128 11.8487 8.29968 12.5203C7.75808 13.1919 7.50865 14.0472 7.60624 14.8979L8.83289 25.5901C8.93049 26.4408 9.36713 27.2173 10.0468 27.7488C10.7264 28.2803 11.5933 28.5233 12.4568 28.4242L27.6513 26.6811C28.5149 26.582 29.3043 26.149 29.8459 25.4774C30.3875 24.8058 30.6369 23.9506 30.5393 23.0999L30.0486 18.823C30.0161 18.5394 29.8706 18.2806 29.644 18.1034C29.4175 17.9262 29.1285 17.8452 28.8407 17.8783ZM28.8763 8.12456C28.2664 7.66535 27.524 7.40887 26.7555 7.39193C25.9871 7.37499 25.2321 7.59847 24.599 8.03029C23.8103 7.71318 22.9313 7.68685 22.1226 7.95612C21.3138 8.22539 20.6295 8.77225 20.1947 9.49669C19.76 10.2211 19.6038 11.0747 19.7548 11.9014C19.9059 12.728 20.354 13.4724 21.0172 13.9985L24.8838 16.9348C25.1142 17.1063 25.4021 17.1855 25.6899 17.1564C25.8329 17.1409 25.9714 17.0977 26.0975 17.0293C26.2236 16.9609 26.3349 16.8687 26.425 16.758L29.4766 12.9738C30.036 12.2451 30.2862 11.3312 30.1742 10.4259C30.0621 9.52069 29.5966 8.69523 28.8763 8.12456ZM27.7287 11.6361L25.3509 14.5846L22.378 12.2499C22.2382 12.1386 22.1221 12.0012 22.0363 11.8455C21.9505 11.6899 21.8967 11.5189 21.878 11.3425C21.8402 10.9862 21.9476 10.6293 22.1766 10.3502C22.4056 10.0711 22.7374 9.8927 23.099 9.85426C23.4606 9.81583 23.8225 9.92049 24.1049 10.1452C24.2173 10.2339 24.3464 10.2996 24.4849 10.3387C24.6234 10.3779 24.7685 10.3895 24.9117 10.3731C25.055 10.3567 25.1937 10.3124 25.3197 10.243C25.4457 10.1735 25.5566 10.0802 25.646 9.96842C25.8764 9.69818 26.2028 9.52487 26.5581 9.4841C26.9134 9.44334 27.2706 9.53824 27.5562 9.74928C27.8292 9.97852 28.0001 10.3042 28.0324 10.6568C28.0646 11.0093 27.9556 11.3608 27.7287 11.6361Z"/>
</mask>
<path d="M28.8407 17.8783C28.5528 17.9113 28.2897 18.0556 28.1091 18.2795C27.9286 18.5033 27.8455 18.7884 27.878 19.072L28.3687 23.3489C28.4012 23.6325 28.318 23.9175 28.1375 24.1414C27.957 24.3653 27.6938 24.5096 27.406 24.5426L12.2115 26.2858C11.9237 26.3188 11.6347 26.2378 11.4082 26.0607C11.1816 25.8835 11.0361 25.6246 11.0035 25.3411L9.82718 15.0873L16.9314 20.6528C17.6088 21.1781 18.4701 21.418 19.3281 21.3203C19.7627 21.2716 20.1832 21.1376 20.565 20.9264C20.9468 20.7151 21.2821 20.4309 21.5511 20.0903L22.4091 19.0386C22.5341 18.8151 22.5746 18.5554 22.5236 18.3057C22.4726 18.056 22.3333 17.8326 22.1305 17.6752C21.9277 17.5178 21.6746 17.4365 21.4161 17.446C21.1577 17.4554 20.9107 17.5549 20.7192 17.7267L19.8215 18.8155C19.6411 19.0347 19.3809 19.1757 19.0968 19.2083C18.8127 19.2409 18.5274 19.1624 18.302 18.9898L11.1845 13.4041L16.1661 12.8326C16.454 12.7996 16.7171 12.6552 16.8977 12.4314C17.0782 12.2075 17.1613 11.9224 17.1288 11.6389C17.0963 11.3553 16.9507 11.0964 16.7242 10.9193C16.4976 10.7421 16.2087 10.6611 15.9208 10.6941L10.4942 11.3167C9.63068 11.4158 8.84128 11.8487 8.29968 12.5203C7.75808 13.1919 7.50865 14.0472 7.60624 14.8979L8.83289 25.5901C8.93049 26.4408 9.36713 27.2173 10.0468 27.7488C10.7264 28.2803 11.5933 28.5233 12.4568 28.4242L27.6513 26.6811C28.5149 26.582 29.3043 26.149 29.8459 25.4774C30.3875 24.8058 30.6369 23.9506 30.5393 23.0999L30.0486 18.823C30.0161 18.5394 29.8706 18.2806 29.644 18.1034C29.4175 17.9262 29.1285 17.8452 28.8407 17.8783ZM28.8763 8.12456C28.2664 7.66535 27.524 7.40887 26.7555 7.39193C25.9871 7.37499 25.2321 7.59847 24.599 8.03029C23.8103 7.71318 22.9313 7.68685 22.1226 7.95612C21.3138 8.22539 20.6295 8.77225 20.1947 9.49669C19.76 10.2211 19.6038 11.0747 19.7548 11.9014C19.9059 12.728 20.354 13.4724 21.0172 13.9985L24.8838 16.9348C25.1142 17.1063 25.4021 17.1855 25.6899 17.1564C25.8329 17.1409 25.9714 17.0977 26.0975 17.0293C26.2236 16.9609 26.3349 16.8687 26.425 16.758L29.4766 12.9738C30.036 12.2451 30.2862 11.3312 30.1742 10.4259C30.0621 9.52069 29.5966 8.69523 28.8763 8.12456ZM27.7287 11.6361L25.3509 14.5846L22.378 12.2499C22.2382 12.1386 22.1221 12.0012 22.0363 11.8455C21.9505 11.6899 21.8967 11.5189 21.878 11.3425C21.8402 10.9862 21.9476 10.6293 22.1766 10.3502C22.4056 10.0711 22.7374 9.8927 23.099 9.85426C23.4606 9.81583 23.8225 9.92049 24.1049 10.1452C24.2173 10.2339 24.3464 10.2996 24.4849 10.3387C24.6234 10.3779 24.7685 10.3895 24.9117 10.3731C25.055 10.3567 25.1937 10.3124 25.3197 10.243C25.4457 10.1735 25.5566 10.0802 25.646 9.96842C25.8764 9.69818 26.2028 9.52487 26.5581 9.4841C26.9134 9.44334 27.2706 9.53824 27.5562 9.74928C27.8292 9.97852 28.0001 10.3042 28.0324 10.6568C28.0646 11.0093 27.9556 11.3608 27.7287 11.6361Z" fill="#F3701F"/>
<path d="M11.0035 25.3411L8.02308 25.683L11.0035 25.3411ZM9.82718 15.0873L11.6773 12.7257C10.725 11.9796 9.41771 11.8785 8.36203 12.4694C7.30635 13.0602 6.70884 14.2273 6.84673 15.4292L9.82718 15.0873ZM16.9314 20.6528L15.0812 23.0144C15.0851 23.0175 15.089 23.0205 15.0929 23.0235L16.9314 20.6528ZM19.3281 21.3203L18.9936 18.339L18.9887 18.3396L19.3281 21.3203ZM21.5511 20.0903L19.2265 18.194C19.2167 18.2061 19.2069 18.2183 19.1971 18.2306L21.5511 20.0903ZM22.4091 19.0386L24.7337 20.935C24.8442 20.7996 24.9426 20.6548 25.0278 20.5023L22.4091 19.0386ZM20.7192 17.7267L18.716 15.4935C18.6042 15.5938 18.5001 15.7023 18.4045 15.8182L20.7192 17.7267ZM19.8215 18.8155L17.5068 16.907L17.5051 16.909L19.8215 18.8155ZM18.302 18.9898L16.4499 21.3498C16.4591 21.357 16.4683 21.3642 16.4776 21.3713L18.302 18.9898ZM11.1845 13.4041L10.8426 10.4236C9.63398 10.5623 8.62876 11.4171 8.29772 12.5878C7.96669 13.7584 8.37539 15.0131 9.33241 15.7641L11.1845 13.4041ZM7.60624 14.8979L4.62579 15.2398L7.60624 14.8979ZM8.83289 25.5901L5.85244 25.932L8.83289 25.5901ZM12.4568 28.4242L12.7988 31.4047L12.4568 28.4242ZM27.6513 26.6811L27.9933 29.6615L27.6513 26.6811ZM30.5393 23.0999L33.5198 22.7579L30.5393 23.0999ZM24.599 8.03029L23.4798 10.8137C24.4085 11.1872 25.4624 11.0728 26.2894 10.5087L24.599 8.03029ZM21.0172 13.9985L19.1529 16.3489C19.1694 16.362 19.1861 16.3749 19.2029 16.3877L21.0172 13.9985ZM24.8838 16.9348L23.0695 19.3239C23.0771 19.3297 23.0847 19.3355 23.0923 19.3412L24.8838 16.9348ZM25.6899 17.1564L25.991 20.1413C25.999 20.1405 26.0069 20.1397 26.0149 20.1388L25.6899 17.1564ZM26.425 16.758L28.7525 18.6507L28.7602 18.6412L26.425 16.758ZM29.4766 12.9738L31.8118 14.8571C31.8269 14.8384 31.8416 14.8196 31.8562 14.8007L29.4766 12.9738ZM25.3509 14.5846L23.498 16.944C24.7892 17.958 26.6556 17.7458 27.6862 16.4678L25.3509 14.5846ZM22.378 12.2499L20.51 14.5974C20.5151 14.6014 20.5201 14.6054 20.5251 14.6093L22.378 12.2499ZM21.878 11.3425L24.8612 11.0262L21.878 11.3425ZM24.1049 10.1452L22.2368 12.4927L22.2471 12.5008L24.1049 10.1452ZM25.646 9.96842L23.3631 8.02206C23.3427 8.04598 23.3227 8.07023 23.3031 8.09479L25.646 9.96842ZM27.5562 9.74928L29.4852 7.45168C29.4377 7.41178 29.3889 7.37336 29.339 7.33648L27.5562 9.74928ZM27.7287 11.6361L25.4138 9.72787C25.4069 9.73616 25.4002 9.7445 25.3934 9.75286L27.7287 11.6361ZM28.4987 14.8978C27.4347 15.0199 26.4531 15.554 25.7739 16.3963L30.4444 20.1627C30.1262 20.5572 29.6709 20.8027 29.1826 20.8587L28.4987 14.8978ZM25.7739 16.3963C25.0933 17.2402 24.7727 18.3254 24.8976 19.4139L30.8585 18.7301C30.9183 19.2515 30.7639 19.7665 30.4444 20.1627L25.7739 16.3963ZM24.8976 19.4139L25.3882 23.6908L31.3491 23.007L30.8585 18.7301L24.8976 19.4139ZM25.3882 23.6908C25.3284 23.1694 25.4827 22.6544 25.8022 22.2582L30.4728 26.0246C31.1534 25.1807 31.474 24.0955 31.3491 23.007L25.3882 23.6908ZM25.8022 22.2582C26.1204 21.8636 26.5757 21.6182 27.0641 21.5622L27.7479 27.5231C28.812 27.401 29.7935 26.8669 30.4728 26.0246L25.8022 22.2582ZM27.0641 21.5622L11.8696 23.3053L12.5534 29.2662L27.7479 27.5231L27.0641 21.5622ZM11.8696 23.3053C12.3579 23.2493 12.857 23.3853 13.2563 23.6975L9.56004 28.4238C10.4124 29.0904 11.4894 29.3883 12.5534 29.2662L11.8696 23.3053ZM13.2563 23.6975C13.6572 24.0111 13.9242 24.4778 13.984 24.9991L8.02308 25.683C8.14796 26.7715 8.70602 27.7559 9.56004 28.4238L13.2563 23.6975ZM13.984 24.9991L12.8076 14.7453L6.84673 15.4292L8.02308 25.683L13.984 24.9991ZM7.97706 17.4488L15.0812 23.0144L18.7815 18.2912L11.6773 12.7257L7.97706 17.4488ZM15.0929 23.0235C16.394 24.0325 18.0382 24.4866 19.6675 24.3011L18.9887 18.3396C18.902 18.3495 18.8235 18.3238 18.7698 18.2821L15.0929 23.0235ZM19.6626 24.3016C20.4887 24.2089 21.2893 23.9542 22.0174 23.5514L19.1126 18.3014C19.0772 18.321 19.0366 18.3342 18.9936 18.339L19.6626 24.3016ZM22.0174 23.5514C22.7456 23.1485 23.3879 22.6047 23.9051 21.9501L19.1971 18.2306C19.1763 18.257 19.148 18.2818 19.1126 18.3014L22.0174 23.5514ZM23.8757 21.9867L24.7337 20.935L20.0845 17.1422L19.2265 18.194L23.8757 21.9867ZM25.0278 20.5023C25.5016 19.6547 25.6586 18.6628 25.4629 17.705L19.5844 18.9064C19.4907 18.4479 19.5665 17.9755 19.7904 17.5749L25.0278 20.5023ZM25.4629 17.705C25.2672 16.7475 24.7343 15.8987 23.9701 15.3054L20.2909 20.045C19.9323 19.7666 19.678 19.3646 19.5844 18.9064L25.4629 17.705ZM23.9701 15.3054C23.207 14.713 22.2628 14.4131 21.3067 14.448L21.5255 20.444C21.0863 20.46 20.6484 20.3225 20.2909 20.045L23.9701 15.3054ZM21.3067 14.448C20.3508 14.4829 19.4328 14.8505 18.716 15.4935L22.7224 19.9599C22.3887 20.2592 21.9646 20.428 21.5255 20.444L21.3067 14.448ZM18.4045 15.8182L17.5068 16.907L22.1361 20.724L23.0338 19.6352L18.4045 15.8182ZM17.5051 16.909C17.8228 16.523 18.2728 16.2831 18.7549 16.2278L19.4387 22.1887C20.4889 22.0683 21.4593 21.5463 22.1378 20.722L17.5051 16.909ZM18.7549 16.2278C19.2369 16.1725 19.7295 16.3043 20.1264 16.6083L16.4776 21.3713C17.3252 22.0206 18.3885 22.3092 19.4387 22.1887L18.7549 16.2278ZM20.1541 16.6298L13.0366 11.0441L9.33241 15.7641L16.4499 21.3498L20.1541 16.6298ZM11.5264 16.3845L16.5081 15.813L15.8242 9.85214L10.8426 10.4236L11.5264 16.3845ZM16.5081 15.813C17.5721 15.691 18.5537 15.1569 19.2329 14.3146L14.5624 10.5482C14.8806 10.1536 15.3358 9.90816 15.8242 9.85214L16.5081 15.813ZM19.2329 14.3146C19.9135 13.4707 20.2341 12.3855 20.1092 11.2969L14.1483 11.9808C14.0885 11.4594 14.2429 10.9444 14.5624 10.5482L19.2329 14.3146ZM20.1092 11.2969C19.9844 10.2084 19.4263 9.224 18.5723 8.55612L14.8761 13.2824C14.4751 12.9689 14.2082 12.5022 14.1483 11.9808L20.1092 11.2969ZM18.5723 8.55612C17.7199 7.88955 16.6429 7.59162 15.5789 7.7137L16.2627 13.6746C15.7744 13.7306 15.2753 13.5947 14.8761 13.2824L18.5723 8.55612ZM15.5789 7.7137L10.1523 8.33626L10.8361 14.2972L16.2627 13.6746L15.5789 7.7137ZM10.1523 8.33626C8.51254 8.52438 7.00471 9.3471 5.96441 10.6371L10.635 14.4036C10.6778 14.3504 10.7488 14.3072 10.8361 14.2972L10.1523 8.33626ZM5.96441 10.6371C4.92277 11.9288 4.43585 13.5841 4.62579 15.2398L10.5867 14.556C10.5814 14.5102 10.5934 14.4551 10.635 14.4036L5.96441 10.6371ZM4.62579 15.2398L5.85244 25.932L11.8133 25.2482L10.5867 14.556L4.62579 15.2398ZM5.85244 25.932C6.04239 27.5877 6.89154 29.0898 8.19864 30.112L11.8949 25.3857C11.8427 25.3449 11.8186 25.2939 11.8133 25.2482L5.85244 25.932ZM8.19864 30.112C9.50406 31.1329 11.159 31.5928 12.7988 31.4047L12.1149 25.4438C12.0276 25.4538 11.9487 25.4278 11.8949 25.3857L8.19864 30.112ZM12.7988 31.4047L27.9933 29.6615L27.3094 23.7006L12.1149 25.4438L12.7988 31.4047ZM27.9933 29.6615C29.633 29.4734 31.1408 28.6507 32.1811 27.3606L27.5106 23.5942C27.4677 23.6474 27.3967 23.6906 27.3094 23.7006L27.9933 29.6615ZM32.1811 27.3606C33.2228 26.069 33.7097 24.4136 33.5198 22.7579L27.5588 23.4418C27.5641 23.4875 27.5521 23.5427 27.5106 23.5942L32.1811 27.3606ZM33.5198 22.7579L33.0291 18.481L27.0682 19.1649L27.5588 23.4418L33.5198 22.7579ZM33.0291 18.481C32.9042 17.3925 32.3462 16.4081 31.4921 15.7402L27.7959 20.4665C27.395 20.153 27.128 19.6863 27.0682 19.1649L33.0291 18.481ZM31.4921 15.7402C30.6398 15.0737 29.5628 14.7757 28.4987 14.8978L29.1826 20.8587C28.6942 20.9147 28.1952 20.7788 27.7959 20.4665L31.4921 15.7402ZM30.6809 5.72803C29.5653 4.88797 28.2138 4.42334 26.8216 4.39266L26.6894 10.3912C26.8342 10.3944 26.9676 10.4427 27.0716 10.5211L30.6809 5.72803ZM26.8216 4.39266C25.4297 4.36198 24.0602 4.76639 22.9086 5.55188L26.2894 10.5087C26.404 10.4305 26.5444 10.388 26.6894 10.3912L26.8216 4.39266ZM25.7182 5.24688C24.2678 4.66368 22.6562 4.61654 21.1748 5.10975L23.0703 10.8025C23.2064 10.7572 23.3529 10.7627 23.4798 10.8137L25.7182 5.24688ZM21.1748 5.10975C19.693 5.60312 18.4294 6.60829 17.6224 7.95294L22.7671 11.0405C22.8296 10.9362 22.9346 10.8477 23.0703 10.8025L21.1748 5.10975ZM17.6224 7.95294C16.8147 9.29882 16.5208 10.8923 16.8037 12.4405L22.706 11.3622C22.6868 11.2571 22.7052 11.1434 22.7671 11.0405L17.6224 7.95294ZM16.8037 12.4405C17.0865 13.9885 17.9244 15.3745 19.1529 16.3489L22.8815 11.6481C22.7835 11.5704 22.7252 11.4675 22.706 11.3622L16.8037 12.4405ZM19.2029 16.3877L23.0695 19.3239L26.6981 14.5456L22.8315 11.6093L19.2029 16.3877ZM23.0923 19.3412C23.9283 19.9635 24.9638 20.2449 25.991 20.1413L25.3889 14.1716C25.8405 14.126 26.3001 14.2491 26.6752 14.5284L23.0923 19.3412ZM26.0149 20.1388C26.5442 20.0811 27.0581 19.921 27.5273 19.6666L24.6677 14.3919C24.8847 14.2743 25.1216 14.2006 25.365 14.1741L26.0149 20.1388ZM27.5273 19.6666C27.9967 19.4122 28.4135 19.0676 28.7525 18.6507L24.0974 14.8652C24.2563 14.6698 24.4506 14.5096 24.6677 14.3919L27.5273 19.6666ZM28.7602 18.6412L31.8118 14.8571L27.1413 11.0906L24.0897 14.8747L28.7602 18.6412ZM31.8562 14.8007C32.8915 13.452 33.3611 11.7508 33.1514 10.0574L27.1969 10.7945C27.2114 10.9116 27.1805 11.0381 27.0969 11.147L31.8562 14.8007ZM33.1514 10.0574C32.9418 8.36398 32.0717 6.82873 30.7392 5.77308L27.0133 10.476C27.1215 10.5617 27.1824 10.6774 27.1969 10.7945L33.1514 10.0574ZM25.3934 9.75286L23.0156 12.7014L27.6862 16.4678L30.0639 13.5193L25.3934 9.75286ZM27.2038 12.2252L24.2309 9.89053L20.5251 14.6093L23.498 16.944L27.2038 12.2252ZM24.2461 9.90248C24.4146 10.0366 24.5572 10.2043 24.6637 10.3975L19.4088 13.2935C19.6869 13.7981 20.0618 14.2407 20.51 14.5974L24.2461 9.90248ZM24.6637 10.3975C24.7702 10.5909 24.8377 10.8046 24.8612 11.0262L18.8947 11.6589C18.9556 12.2333 19.1307 12.7888 19.4088 13.2935L24.6637 10.3975ZM24.8612 11.0262C24.9089 11.4756 24.772 11.9165 24.4959 12.2531L19.8573 8.44731C19.1232 9.34205 18.7715 10.4969 18.8947 11.6589L24.8612 11.0262ZM24.4959 12.2531C24.2211 12.588 23.8314 12.7933 23.4161 12.8375L22.7819 6.87107C21.6434 6.99209 20.5901 7.55422 19.8573 8.44731L24.4959 12.2531ZM23.4161 12.8375C23.0008 12.8816 22.5763 12.7628 22.2369 12.4927L25.9729 7.79778C25.0686 7.07821 23.9205 6.75005 22.7819 6.87107L23.4161 12.8375ZM22.2471 12.5008C22.6704 12.8346 23.1542 13.0803 23.6696 13.2258L25.3003 7.45168C25.5387 7.51901 25.7641 7.6331 25.9627 7.78967L22.2471 12.5008ZM23.6696 13.2258C24.1849 13.3714 24.7231 13.4144 25.2537 13.3535L24.5698 7.39265C24.8138 7.36465 25.0619 7.38436 25.3003 7.45168L23.6696 13.2258ZM25.2537 13.3535C25.7842 13.2927 26.2987 13.1289 26.7677 12.8704L23.8717 7.61557C24.0886 7.49602 24.3258 7.42064 24.5698 7.39265L25.2537 13.3535ZM26.7677 12.8704C27.2367 12.6119 27.6523 12.2631 27.989 11.842L23.3031 8.09479C23.461 7.89733 23.6547 7.73515 23.8717 7.61557L26.7677 12.8704ZM27.9289 11.9148C27.6627 12.227 27.2934 12.4194 26.9 12.4646L26.2162 6.50365C25.1122 6.6303 24.0901 7.16934 23.3631 8.02206L27.9289 11.9148ZM26.9 12.4646C26.5067 12.5097 26.1034 12.4059 25.7734 12.1621L29.339 7.33648C28.4378 6.67056 27.3201 6.37701 26.2162 6.50365L26.9 12.4646ZM25.6272 12.0469C25.299 11.7713 25.0852 11.3715 25.0448 10.9299L31.0199 10.3837C30.9151 9.23689 30.3595 8.18572 29.4852 7.45168L25.6272 12.0469ZM25.0448 10.9299C25.0044 10.4883 25.1422 10.0574 25.4138 9.72787L30.0436 13.5443C30.769 12.6642 31.1247 11.5304 31.0199 10.3837L25.0448 10.9299Z" fill="white" mask="url(#path-1-outside-1_366_1672)"/>
</g>
<defs>
<filter id="filter0_d_366_1672" x="0.585449" y="0.390991" width="36.9746" height="35.0549" filterUnits="userSpaceOnUse" color-interpolation-filters="sRGB">
<feFlood flood-opacity="0" result="BackgroundImageFix"/>
<feColorMatrix in="SourceAlpha" type="matrix" values="0 0 0 0 0 0 0 0 0 0 0 0 0 0 0 0 0 0 127 0" result="hardAlpha"/>
<feOffset/>
<feGaussianBlur stdDeviation="2"/>
<feComposite in2="hardAlpha" operator="out"/>
<feColorMatrix type="matrix" values="0 0 0 0 0 0 0 0 0 0 0 0 0 0 0 0 0 0 0.15 0"/>
<feBlend mode="normal" in2="BackgroundImageFix" result="effect1_dropShadow_366_1672"/>
<feBlend mode="normal" in="SourceGraphic" in2="effect1_dropShadow_366_1672" result="shape"/>
</filter>
</defs>
</svg>
