<svg width="37" height="37" viewBox="0 0 37 37" fill="none" xmlns="http://www.w3.org/2000/svg">
<g filter="url(#filter0_d_366_1692)">
<path fill-rule="evenodd" clip-rule="evenodd" d="M31.7497 12.017C31.7531 12.0314 31.7564 12.0459 31.7596 12.0603C32.0168 13.2162 32.0858 14.4059 31.9639 15.5836C31.8777 16.7171 31.8158 17.1839 31.4729 19.7701L31.4579 19.8832C31.2723 21.2828 31.1506 22.0818 31.056 22.6731C31.0322 22.8216 31.0112 22.9504 30.9922 23.0673C30.9339 23.4259 30.8939 23.6725 30.8462 24.0321C30.8428 24.0575 30.8391 24.0829 30.8352 24.1082C30.649 25.2975 30.2691 26.4481 29.7105 27.5143C29.7057 27.5235 29.7009 27.5327 29.696 27.5418C29.1325 28.593 28.3472 29.5087 27.3947 30.2258C26.451 30.9647 25.3543 31.4842 24.1844 31.7462C23.0231 32.0155 21.8252 32.089 20.6398 31.9639C19.5091 31.8778 19.0404 31.8157 16.4572 31.4731L16.2311 31.4431C13.6478 31.1006 13.1792 31.0385 12.0651 30.8269C10.8861 30.6385 9.74689 30.2543 8.69445 29.6902C7.64004 29.1318 6.72126 28.3488 6.00287 27.3966C5.26321 26.4525 4.74329 25.3553 4.4811 24.1847C4.21182 23.0234 4.13828 21.8254 4.26341 20.64C4.34949 19.5093 4.41164 19.0406 4.75418 16.4574L4.78416 16.2313C5.12667 13.6481 5.18881 13.1794 5.40038 12.0653C5.58848 10.8884 5.97169 9.7509 6.53432 8.69988C7.09251 7.63807 7.88044 6.71423 8.84058 5.99553C9.78225 5.26347 10.8733 4.74698 12.0367 4.4827C13.1999 4.2123 14.3999 4.1383 15.5873 4.26365C16.718 4.34973 17.1867 4.41188 19.7699 4.75442L19.996 4.78439C22.5792 5.12691 23.0479 5.18905 24.162 5.40062C25.3389 5.58871 26.4764 5.97193 27.5274 6.53456C28.5905 7.09344 29.5153 7.88262 30.2344 8.84438C30.9599 9.78162 31.4766 10.8633 31.7497 12.017ZM25.0623 9.01599C24.59 8.84024 24.1001 8.7127 23.6003 8.63586C23.5963 8.63509 23.5923 8.63433 23.5883 8.63358C23.5586 8.62792 23.5295 8.62239 23.5008 8.61697C22.5145 8.43028 22.1083 8.37642 19.4514 8.02413C16.8132 7.67432 16.3941 7.61875 15.4084 7.54277C15.4036 7.5424 15.3988 7.54203 15.394 7.54166C15.3589 7.53897 15.3231 7.53624 15.2864 7.53348C14.4608 7.44136 13.6258 7.48836 12.816 7.6724C12.8012 7.67575 12.7865 7.67915 12.7718 7.68259C12.7484 7.68785 12.7251 7.69329 12.7019 7.69889C12.0609 7.85334 11.4583 8.13641 10.9303 8.53072C10.8973 8.55541 10.8645 8.58054 10.832 8.6061C10.8005 8.62938 10.7693 8.65303 10.7384 8.67704C10.21 9.08793 9.77338 9.60534 9.45722 10.196C9.44972 10.21 9.44229 10.224 9.43493 10.2381C9.43153 10.2444 9.42815 10.2508 9.42477 10.2571C9.02989 10.9968 8.76305 11.7981 8.63562 12.627C8.63486 12.631 8.6341 12.635 8.63334 12.639C8.62714 12.6715 8.62109 12.7034 8.61517 12.7347C8.42975 13.7151 8.3752 14.1265 8.02389 16.7759C7.67408 19.4141 7.61851 19.8332 7.54253 20.8189C7.54107 20.8379 7.53961 20.857 7.53813 20.8764C7.53651 20.8976 7.53488 20.9191 7.53324 20.9409C7.44067 21.7705 7.48859 22.6098 7.67491 23.4233C7.67737 23.4341 7.67985 23.4448 7.68236 23.4555C7.68564 23.4704 7.689 23.4852 7.69243 23.5C7.85245 24.1915 8.1644 24.839 8.60587 25.3953C8.60634 25.3959 8.60682 25.3965 8.60729 25.3972C8.62005 25.4143 8.63292 25.4313 8.6459 25.4483C9.06488 25.9951 9.59529 26.4467 10.2021 26.7733C10.214 26.7797 10.2259 26.7861 10.2379 26.7924C10.2623 26.8055 10.2868 26.8185 10.3114 26.8314C11.0359 27.2104 11.8182 27.4674 12.6268 27.5917C12.6435 27.5949 12.66 27.598 12.6763 27.6011C12.7262 27.6106 12.7746 27.6197 12.8217 27.6286C13.7417 27.8011 14.2062 27.8627 16.7757 28.2034C16.7892 28.2052 16.8027 28.207 16.816 28.2088C19.4725 28.561 19.8546 28.6114 20.8808 28.6895C20.9005 28.691 20.9205 28.6925 20.9406 28.6941C20.9447 28.6945 20.9487 28.695 20.9528 28.6954C21.7813 28.7865 22.6193 28.7375 23.4315 28.5505C23.4381 28.5489 23.4447 28.5474 23.4512 28.5459C23.4526 28.5456 23.454 28.5453 23.4553 28.5449C24.1616 28.3886 24.8231 28.0741 25.3903 27.6252C25.3919 27.6239 25.3934 27.6227 25.395 27.6214C25.4074 27.6122 25.4197 27.603 25.432 27.5937C25.9987 27.1644 26.4662 26.6177 26.8022 25.9908C26.8131 25.97 26.8239 25.9492 26.8346 25.9283C26.835 25.9275 26.8354 25.9266 26.8359 25.9258C27.2095 25.1959 27.4646 24.411 27.5914 23.6005C27.5928 23.5904 27.5941 23.5803 27.5955 23.5702C27.5986 23.5466 27.6018 23.5233 27.6049 23.5003C27.6542 23.1388 27.7002 22.856 27.7558 22.5144C27.8528 21.9176 27.9791 21.1412 28.2032 19.4516C28.5539 16.8066 28.6088 16.3922 28.6851 15.4009C28.6872 15.3734 28.6894 15.3455 28.6915 15.3171C28.6923 15.307 28.6931 15.2969 28.6938 15.2867C28.7489 14.7804 28.7537 14.2707 28.7087 13.7651C28.68 13.4437 28.6312 13.1239 28.5624 12.8077C28.5599 12.7962 28.5573 12.7848 28.5548 12.7733C28.5534 12.7674 28.552 12.7615 28.5506 12.7556C28.3912 12.093 28.0989 11.4701 27.6917 10.9245C27.6686 10.8935 27.6451 10.8628 27.6212 10.8323C27.6164 10.8258 27.6116 10.8193 27.6067 10.8128C27.1777 10.2382 26.6249 9.76736 25.9892 9.43517C25.9695 9.42459 25.9498 9.41411 25.93 9.40371C25.9272 9.40222 25.9243 9.40072 25.9215 9.39923C25.6431 9.25324 25.3561 9.12529 25.0623 9.01599ZM26.7706 13.1957C26.7685 13.1877 26.7664 13.1797 26.7643 13.1717C26.6506 12.7408 26.4456 12.3393 26.1632 11.9942C26.1601 11.9898 26.157 11.9853 26.1539 11.9809C26.1501 11.9755 26.1462 11.9702 26.1424 11.9648C26.1362 11.9561 26.1299 11.9474 26.1235 11.9388C25.8609 11.5805 25.5247 11.2826 25.1376 11.0649C25.1313 11.0614 25.125 11.0579 25.1188 11.0544C25.1024 11.0454 25.0861 11.0366 25.0696 11.0278C24.9055 10.942 24.7377 10.8644 24.5666 10.7951C24.1665 10.633 23.7489 10.5167 23.3216 10.4486C23.3 10.4451 23.2783 10.4418 23.2566 10.4386C23.2505 10.4377 23.2445 10.4368 23.2384 10.4359C23.037 10.3968 22.8611 10.3636 22.6868 10.3326C22.2791 10.26 21.8808 10.1996 21.1885 10.1047C21.0845 10.0904 20.9739 10.0754 20.8556 10.0594C20.4252 10.0013 19.8934 9.9308 19.2106 9.84026C19.2085 9.84 19.2065 9.83973 19.2045 9.83946C19.2025 9.83919 19.2005 9.83893 19.1985 9.83866C18.5127 9.74778 17.9792 9.68122 17.5476 9.63013C16.9511 9.55954 16.549 9.5185 16.2082 9.48372C15.8451 9.44665 15.5515 9.41669 15.1667 9.36566C15.1606 9.3649 15.1545 9.36415 15.1484 9.36341C15.1266 9.36077 15.1049 9.35825 15.0831 9.35586C14.4557 9.28685 13.8212 9.32012 13.2042 9.45452C13.1984 9.45616 13.1927 9.45781 13.187 9.45948C13.1824 9.46082 13.1778 9.46218 13.1732 9.46354C12.7443 9.59096 12.3468 9.80707 12.0066 10.0979C12.0001 10.1034 11.9937 10.109 11.9873 10.1145C11.9782 10.1206 11.9691 10.1267 11.9601 10.1329C11.5948 10.3824 11.2881 10.7082 11.0612 11.0879C11.0575 11.0941 11.0539 11.1002 11.0502 11.1064C11.0478 11.1105 11.0454 11.1146 11.043 11.1187C10.7458 11.6769 10.5447 12.281 10.448 12.9056C10.4446 12.9273 10.4414 12.949 10.4383 12.9707C10.4374 12.9767 10.4366 12.9828 10.4357 12.9889C10.2886 13.7466 10.2245 14.1446 10.0494 15.4442C9.99321 15.8615 9.92555 16.3717 9.84003 17.0167C9.75139 17.6852 9.68578 18.2095 9.63509 18.6359C9.5613 19.2566 9.51911 19.67 9.48348 20.0191C9.44642 20.3822 9.41646 20.6758 9.36543 21.0606C9.36481 21.0667 9.36421 21.0728 9.36361 21.0789C9.36148 21.1008 9.35948 21.1226 9.35761 21.1444C9.30342 21.7763 9.3562 22.4129 9.51389 23.0275C9.5142 23.0287 9.51451 23.03 9.51482 23.0312C9.51609 23.0371 9.51738 23.0431 9.51868 23.049C9.61323 23.4799 9.79999 23.885 10.0659 24.2366C10.0774 24.2518 10.089 24.2669 10.1008 24.2818C10.1031 24.2847 10.1053 24.2876 10.1076 24.2905C10.3722 24.6492 10.7061 24.951 11.0894 25.1781C11.0935 25.1805 11.0976 25.183 11.1017 25.1854C11.1068 25.1884 11.112 25.1914 11.1171 25.1944C11.682 25.4724 12.2879 25.657 12.9113 25.7413C12.9334 25.7443 12.9557 25.7471 12.9779 25.7499C12.9967 25.7522 13.0155 25.7544 13.0344 25.7566C13.7349 25.8926 14.128 25.9576 15.2104 26.1051C15.2716 26.1134 15.335 26.122 15.4009 26.1309C15.8257 26.1883 16.3498 26.2578 17.0219 26.3469C17.0352 26.3487 17.0487 26.3505 17.0622 26.3523C17.8286 26.4539 18.4049 26.5294 18.8615 26.5875C19.9729 26.7289 20.3747 26.7667 21.0816 26.8249C21.0897 26.8255 21.0979 26.8262 21.1061 26.8269C21.1202 26.8286 21.1343 26.8302 21.1484 26.8318C21.7761 26.903 22.4114 26.8695 23.0283 26.7327C23.0294 26.7324 23.0305 26.7321 23.0316 26.7319C23.0387 26.7302 23.0457 26.7285 23.0528 26.7268C23.4829 26.623 23.8871 26.4323 24.2406 26.1668C24.2564 26.1549 24.2721 26.1429 24.2877 26.1307C24.2881 26.1304 24.2885 26.1301 24.2889 26.1298C24.6494 25.8642 24.9483 25.5242 25.1653 25.1332C25.1681 25.1281 25.1709 25.123 25.1737 25.1179C25.1824 25.1019 25.191 25.0859 25.1995 25.0698C25.4801 24.5334 25.6735 23.956 25.7726 23.3593C25.775 23.3452 25.7773 23.3311 25.7795 23.3169C25.7836 23.2909 25.7876 23.2648 25.7914 23.2386C25.9267 22.5022 25.9948 22.106 26.161 20.8949C26.2208 20.459 26.2933 19.9176 26.3862 19.2169C26.3865 19.2148 26.3868 19.2128 26.387 19.2108C26.481 18.5021 26.5527 17.9559 26.6089 17.5166C26.6216 17.4171 26.6336 17.3231 26.6448 17.2339C26.7323 16.5379 26.7762 16.1368 26.814 15.7231C26.83 15.5478 26.845 15.3702 26.8616 15.1669C26.8624 15.1608 26.8632 15.1547 26.864 15.1486C26.8665 15.1285 26.8689 15.1084 26.8712 15.0883C26.9204 14.6572 26.9203 14.2224 26.8712 13.7924C26.8487 13.5951 26.8159 13.3989 26.7728 13.2044C26.772 13.2015 26.7713 13.1986 26.7706 13.1957ZM25.4329 13.5427C25.4337 13.5324 25.4345 13.5221 25.4351 13.5118C25.4353 13.5082 25.4355 13.5045 25.4357 13.5008C25.4362 13.4895 25.4366 13.4783 25.4369 13.467C25.4376 13.4317 25.4369 13.3966 25.4346 13.3616C25.4208 13.1469 25.3503 12.9387 25.2292 12.7586C25.2213 12.7469 25.2132 12.7353 25.2049 12.7238C25.1986 12.715 25.1921 12.7063 25.1855 12.6977C25.1823 12.6935 25.179 12.6894 25.1758 12.6852C25.1681 12.6755 25.1603 12.6658 25.1523 12.6563C25.0081 12.484 24.82 12.3558 24.6095 12.2841C24.5785 12.2736 24.547 12.2642 24.5151 12.2562C24.5026 12.253 24.4901 12.2501 24.4775 12.2473C24.4638 12.2443 24.4499 12.2415 24.436 12.239C24.4336 12.2385 24.4311 12.2381 24.4286 12.2376C24.4113 12.2346 24.3939 12.2319 24.3763 12.2296C24.3373 12.2244 24.2981 12.2211 24.2589 12.2197C24.2455 12.2192 24.2321 12.219 24.2187 12.219C24.1113 12.2187 24.0044 12.2326 23.9008 12.2603C23.8239 12.2808 23.7488 12.3089 23.6766 12.3444C23.532 12.4156 23.4036 12.5143 23.2983 12.6342C23.2457 12.694 23.1989 12.7591 23.1586 12.8287C23.0779 12.9682 23.026 13.1215 23.005 13.2798C22.9946 13.3587 22.9918 13.4388 22.997 13.5191C22.9981 13.5367 22.9997 13.5543 23.0016 13.5719C23.0076 13.6281 23.0176 13.6836 23.0313 13.7381C23.0717 13.8987 23.1445 14.0502 23.2462 14.1829C23.2463 14.1832 23.2465 14.1834 23.2467 14.1836C23.3493 14.3173 23.4779 14.4277 23.6239 14.5087C23.6716 14.5351 23.7212 14.5584 23.7724 14.5783C23.7888 14.5847 23.8054 14.5908 23.8221 14.5965C23.8982 14.6224 23.9763 14.6406 24.0553 14.6511C24.2135 14.672 24.3751 14.6619 24.5308 14.6203C24.6085 14.5996 24.6835 14.5714 24.755 14.5362C24.8982 14.4657 25.0269 14.3675 25.1333 14.2465C25.1864 14.1861 25.2331 14.1209 25.273 14.052C25.3289 13.9553 25.3714 13.8512 25.3991 13.7427C25.4015 13.7334 25.4038 13.724 25.406 13.7146C25.4146 13.6771 25.4215 13.6392 25.4266 13.6008C25.4291 13.5815 25.4312 13.5621 25.4329 13.5427ZM12.9348 18.6967C12.9637 18.9545 13.0117 19.2089 13.078 19.458C13.2543 20.1204 13.5602 20.7448 13.9814 21.2938C14.1879 21.5628 14.419 21.8098 14.671 22.0319C15.0796 22.392 15.543 22.6869 16.0448 22.9047C16.1754 22.9614 16.3087 23.0129 16.4443 23.059C16.7653 23.168 17.0945 23.245 17.4272 23.2897C17.4407 23.2915 17.4541 23.2933 17.4676 23.295C17.9381 23.3546 18.4152 23.3499 18.8858 23.2805C19.079 23.2519 19.2711 23.2125 19.4612 23.1621C19.4651 23.1611 19.4689 23.1601 19.4728 23.1591C20.1352 22.9819 20.7529 22.6769 21.2926 22.2647C21.5653 22.0565 21.8182 21.8208 22.0468 21.5604C22.2725 21.3035 22.4712 21.0263 22.641 20.7333C22.7611 20.5262 22.8667 20.3111 22.9571 20.0897C23.125 19.6788 23.2406 19.2461 23.2996 18.8014C23.3417 18.4884 23.3552 18.173 23.3403 17.859C23.334 17.7254 23.3225 17.5922 23.3059 17.4595C23.2766 17.2256 23.2315 16.9935 23.1705 16.7647C23.1581 16.7181 23.145 16.6716 23.1313 16.6254C23.0474 16.3423 22.9397 16.0673 22.8097 15.8033C22.6588 15.4972 22.4779 15.2059 22.2692 14.9338C22.2687 14.9332 22.2683 14.9327 22.2679 14.9321C21.8772 14.4234 21.3961 13.9915 20.8492 13.6578C20.8111 13.6345 20.7726 13.6117 20.7338 13.5894C20.7332 13.5891 20.7325 13.5887 20.7319 13.5883C20.5173 13.465 20.2947 13.3574 20.0659 13.2661C19.9524 13.2208 19.8374 13.1796 19.7211 13.1424C19.4216 13.0467 19.1132 12.9781 18.7998 12.9378C18.4591 12.8933 18.1166 12.8827 17.777 12.9053C17.6842 12.9115 17.5917 12.9201 17.4995 12.9312C16.9152 13.0016 16.3439 13.1706 15.8107 13.4341C15.5031 13.5861 15.2127 13.7672 14.9432 13.9742C14.4019 14.3899 13.9447 14.9099 13.6005 15.5069C13.4678 15.737 13.3534 15.9759 13.2578 16.2214C13.2305 16.2918 13.2046 16.3627 13.1803 16.4341C13.0704 16.7572 12.9925 17.0904 12.9476 17.4288C12.9026 17.7683 12.8909 18.113 12.9136 18.4581C12.9189 18.5379 12.9259 18.6175 12.9348 18.6967ZM18.5626 14.7544C18.3424 14.725 18.1188 14.7171 17.895 14.7316C17.4496 14.7603 17.0165 14.8766 16.6197 15.0715C16.4206 15.1692 16.2306 15.2868 16.0528 15.423C15.6974 15.6951 15.4013 16.0336 15.1794 16.4173C15.069 16.6083 14.9769 16.8105 14.9052 17.0214C14.7603 17.4467 14.7022 17.8944 14.7317 18.3384C14.7462 18.5568 14.7819 18.7744 14.8389 18.9879C14.9552 19.4235 15.1566 19.8292 15.4291 20.1828C15.5619 20.3551 15.7115 20.515 15.8765 20.6599C16.2156 20.9578 16.6091 21.1836 17.0329 21.3261C17.2384 21.3953 17.451 21.4448 17.668 21.4736C18.1093 21.5321 18.5577 21.5031 18.9877 21.3884C18.9913 21.3874 18.9948 21.3864 18.9984 21.3855C19.4244 21.2703 19.8239 21.0729 20.1743 20.8046C20.3527 20.6679 20.5166 20.5142 20.6639 20.3459C20.8084 20.1809 20.9368 20.0019 21.0471 19.8111C21.27 19.4259 21.4149 19.0005 21.4734 18.5593C21.4735 18.5581 21.4737 18.5569 21.4739 18.5557C21.532 18.1135 21.5021 17.6664 21.3881 17.2396C21.3512 17.1012 21.3054 16.9648 21.2509 16.8315C21.2213 16.7593 21.1893 16.6879 21.1547 16.6176C21.0567 16.4186 20.94 16.2306 20.8067 16.0561C20.8059 16.0551 20.8051 16.054 20.8043 16.053C20.6218 15.8147 20.4083 15.6014 20.1691 15.419C20.057 15.3335 19.9394 15.2548 19.8167 15.1835C19.8147 15.1824 19.8128 15.1813 19.8109 15.1802C19.4259 14.9574 19.0027 14.8137 18.5661 14.7549C18.5649 14.7547 18.5638 14.7545 18.5626 14.7544ZM18.0435 18.1934C18.0593 18.2073 18.0788 18.2161 18.0996 18.2189C18.1134 18.2207 18.1274 18.2198 18.1409 18.2162C18.1543 18.2126 18.167 18.2064 18.178 18.198C18.1891 18.1895 18.1983 18.1789 18.2053 18.1669C18.2123 18.1548 18.2168 18.1415 18.2187 18.1277C18.2214 18.1069 18.2179 18.0858 18.2087 18.067C18.1994 18.0481 18.1848 18.0325 18.1666 18.022C18.1485 18.0115 18.1276 18.0066 18.1067 18.0079C18.0858 18.0093 18.0657 18.0168 18.0491 18.0296C18.0324 18.0423 18.0199 18.0597 18.0131 18.0796C18.0064 18.0994 18.0057 18.1209 18.0111 18.1411C18.0165 18.1614 18.0278 18.1796 18.0435 18.1934Z" fill="white"/>
</g>
<path d="M24.3764 12.2295C24.137 12.1978 23.8935 12.2378 23.6767 12.3444C23.46 12.451 23.2797 12.6196 23.1587 12.8286C23.0378 13.0377 22.9815 13.278 22.9971 13.5191C23.0127 13.7601 23.0994 13.9911 23.2462 14.1829C23.3931 14.3747 23.5936 14.5186 23.8222 14.5965C24.0509 14.6743 24.2975 14.6826 24.5309 14.6203C24.7643 14.558 24.974 14.4279 25.1334 14.2464C25.2928 14.065 25.3949 13.8403 25.4266 13.6008C25.4692 13.2797 25.3825 12.9549 25.1855 12.6977C24.9886 12.4405 24.6975 12.2721 24.3764 12.2295ZM28.6939 15.2866C28.7853 14.4469 28.7383 13.5979 28.5549 12.7733C28.3875 12.0665 28.069 11.4042 27.6213 10.8323C27.1902 10.2489 26.6322 9.7711 25.9893 9.43516C25.2443 9.03469 24.4364 8.76437 23.6004 8.63585C22.5389 8.4335 22.1958 8.38802 19.4515 8.02412C16.7071 7.66023 16.364 7.61474 15.2865 7.53347C14.4459 7.43968 13.5955 7.49011 12.7718 7.68259C12.0645 7.84203 11.4018 8.15756 10.8321 8.6061C10.2487 9.03714 9.77095 9.59522 9.43501 10.2381C9.03454 10.9831 8.76422 11.791 8.6357 12.627C8.43335 13.6885 8.38787 14.0315 8.02397 16.7759C7.66008 19.5203 7.61459 19.8633 7.53332 20.9409C7.43953 21.7815 7.48996 22.6319 7.68244 23.4555C7.83923 24.1638 8.15503 24.8271 8.60595 25.3953C9.03905 25.9768 9.59665 26.4541 10.238 26.7924C10.983 27.1928 11.7909 27.4632 12.6269 27.5917C13.6883 27.794 14.0314 27.8395 16.7758 28.2034C19.5202 28.5673 19.8632 28.6128 20.9407 28.6941C21.7813 28.7878 22.6318 28.7374 23.4554 28.5449C24.1636 28.3881 24.8269 28.0723 25.3951 27.6214C25.9785 27.1881 26.459 26.6313 26.8023 25.9907C27.1943 25.2425 27.4609 24.435 27.5915 23.6005C27.7333 22.531 27.8394 22.196 28.2033 19.4516C28.5671 16.7072 28.6126 16.3642 28.6939 15.2866ZM25.7914 23.2386C25.6992 23.8781 25.499 24.4973 25.1996 25.0698C24.9802 25.4875 24.6689 25.85 24.289 26.1298C23.9175 26.4199 23.4873 26.6256 23.0283 26.7326C22.3976 26.8726 21.7476 26.9044 21.1062 26.8269C20.0905 26.7435 19.7159 26.7041 17.0623 26.3523C14.4087 26.0004 14.0354 25.9509 13.0345 25.7566C12.3678 25.6809 11.7192 25.4907 11.1172 25.1944C10.7223 24.9655 10.3786 24.6578 10.1077 24.2905C9.81578 23.9219 9.61291 23.491 9.5149 23.0312C9.34949 22.3882 9.29892 21.7211 9.36551 21.0606C9.49929 20.0516 9.48826 19.6703 9.84011 17.0167C10.192 14.3632 10.2415 13.9898 10.4358 12.9889C10.5271 12.3347 10.7327 11.7017 11.0431 11.1187C11.2772 10.7164 11.6002 10.3729 11.9874 10.1145C12.3399 9.80826 12.7553 9.58297 13.2042 9.45452C13.8487 9.31414 14.5123 9.28409 15.1668 9.36566C16.1757 9.49944 16.5571 9.4884 19.2106 9.84026C21.8642 10.1921 22.2375 10.2416 23.2385 10.4359C23.878 10.5282 24.4971 10.7283 25.0697 11.0278C25.5056 11.2588 25.8804 11.59 26.1633 11.9942C26.4528 12.348 26.661 12.7611 26.7729 13.2044C26.9156 13.8485 26.9457 14.5125 26.8617 15.1669C26.7784 16.1826 26.739 16.5572 26.3871 19.2108C26.0353 21.8644 25.9757 22.2363 25.7914 23.2386ZM18.7999 12.9378C17.7764 12.8041 16.7362 12.9768 15.8107 13.4341C14.8853 13.8913 14.1162 14.6126 13.6005 15.5069C13.0849 16.4011 12.8459 17.4281 12.9137 18.4581C12.9815 19.4881 13.3531 20.4749 13.9815 21.2938C14.61 22.1127 15.467 22.727 16.4444 23.059C17.4218 23.3909 18.4757 23.4258 19.4728 23.1591C20.47 22.8923 21.3658 22.336 22.0469 21.5604C22.7281 20.7848 23.164 19.8247 23.2997 18.8014C23.3913 18.1206 23.3474 17.4285 23.1706 16.7647C22.9938 16.101 22.6874 15.4787 22.2692 14.9338C21.8511 14.3889 21.3293 13.932 20.7339 13.5894C20.1385 13.2469 19.4812 13.0254 18.7999 12.9378ZM17.6681 21.4736C17.0036 21.3855 16.3801 21.1023 15.8766 20.6599C15.373 20.2174 15.0119 19.6356 14.839 18.9879C14.6661 18.3403 14.6892 17.6559 14.9052 17.0213C15.1213 16.3868 15.5207 15.8305 16.0529 15.423C16.585 15.0154 17.2261 14.7748 17.8951 14.7316C18.564 14.6883 19.2307 14.8444 19.811 15.1802C20.3912 15.5159 20.8588 16.0161 21.1547 16.6175C21.4507 17.219 21.5616 17.8947 21.4735 18.5593C21.415 19.0005 21.2701 19.4259 21.0472 19.8111C20.8243 20.1964 20.5277 20.5339 20.1744 20.8046C19.821 21.0752 19.4178 21.2735 18.9878 21.3883C18.5578 21.5031 18.1093 21.5321 17.6681 21.4736Z" fill="#F3701F"/>
<defs>
<filter id="filter0_d_366_1692" x="0.204102" y="0.204468" width="35.8184" height="35.8186" filterUnits="userSpaceOnUse" color-interpolation-filters="sRGB">
<feFlood flood-opacity="0" result="BackgroundImageFix"/>
<feColorMatrix in="SourceAlpha" type="matrix" values="0 0 0 0 0 0 0 0 0 0 0 0 0 0 0 0 0 0 127 0" result="hardAlpha"/>
<feOffset/>
<feGaussianBlur stdDeviation="2"/>
<feComposite in2="hardAlpha" operator="out"/>
<feColorMatrix type="matrix" values="0 0 0 0 0 0 0 0 0 0 0 0 0 0 0 0 0 0 0.15 0"/>
<feBlend mode="normal" in2="BackgroundImageFix" result="effect1_dropShadow_366_1692"/>
<feBlend mode="normal" in="SourceGraphic" in2="effect1_dropShadow_366_1692" result="shape"/>
</filter>
</defs>
</svg>
