<svg width="36" height="36" viewBox="0 0 36 36" fill="none" xmlns="http://www.w3.org/2000/svg">
<g filter="url(#filter0_d_366_1691)">
<path fill-rule="evenodd" clip-rule="evenodd" d="M26.0857 16.0954C26.1937 16.1064 26.301 16.1231 26.4072 16.1456C27.7981 16.4399 29.0499 17.2035 29.9451 18.3146C30.8409 19.4265 31.3229 20.8167 31.3011 22.2485C31.3008 22.2666 31.3003 22.2846 31.2998 22.3026L31.1973 25.3981C31.1972 25.4009 31.1971 25.4036 31.197 25.4064C31.1711 26.2775 30.959 27.1322 30.5759 27.9141C30.1915 28.6984 29.6445 29.3902 28.973 29.9454L28.9684 29.9491C27.8011 30.9104 26.3226 31.4084 24.8158 31.3569C24.8151 31.3569 24.8144 31.3568 24.8137 31.3568L24.4196 31.3438C24.2969 31.3397 24.1747 31.3282 24.0534 31.3093C19.0185 30.5251 14.3845 28.1047 10.8856 24.4232C7.3893 20.7446 5.22571 16.0158 4.74338 10.9807C4.65309 10.1039 4.75369 9.21839 5.03801 8.38428C5.32429 7.54442 5.78949 6.77809 6.39973 6.13656C7.00987 5.49514 7.75047 4.99366 8.56982 4.664C9.38401 4.33642 10.2583 4.18556 11.1343 4.22038L14.2506 4.32351C15.7035 4.35663 17.1028 4.89813 18.1986 5.85939C19.3015 6.82696 20.0256 8.15801 20.2305 9.61653C20.2364 9.65803 20.2413 9.69964 20.2454 9.74134C20.2607 9.89606 20.2817 10.0403 20.3063 10.1662L20.3065 10.1672C20.3712 10.499 20.4581 10.8264 20.5667 11.1473L20.5731 11.1665C20.9719 12.3714 20.9057 13.6805 20.3878 14.8389C20.2987 15.0382 20.1974 15.2303 20.0849 15.4146C20.1613 15.5021 20.2393 15.5883 20.3189 15.6732C20.3974 15.7553 20.4773 15.836 20.5585 15.9152C20.7618 15.8093 20.9727 15.7166 21.1902 15.6382C22.3729 15.2116 23.6719 15.2326 24.84 15.6968C24.852 15.7016 24.864 15.7064 24.8759 15.7114C25.1837 15.8382 25.5005 15.943 25.8238 16.0247L25.843 16.0296C25.8894 16.0416 25.9322 16.0532 25.9675 16.0629L26.0595 16.0882C26.0692 16.0909 26.0779 16.0933 26.0857 16.0954ZM19.9986 19.3777C19.4322 18.9785 18.8993 18.534 18.4056 18.0486C18.3083 17.953 18.2125 17.8558 18.1183 17.7571C18.0189 17.6512 17.9213 17.5438 17.8256 17.4348C17.8203 17.4287 17.815 17.4227 17.8097 17.4166C17.7947 17.3994 17.7797 17.3822 17.7648 17.3649C17.5062 17.0659 17.262 16.7552 17.033 16.434C16.8661 16.1999 16.7071 15.9601 16.5566 15.7151C16.4881 15.6038 16.4214 15.4914 16.3565 15.3779C16.2786 15.2419 16.2032 15.1044 16.1304 14.9654C16.1243 14.9537 16.1182 14.9421 16.1121 14.9304L16.5622 14.6547C16.5817 14.646 16.6011 14.6371 16.6203 14.6278C16.7223 14.5788 16.8195 14.522 16.9113 14.4581C17.22 14.243 17.4664 13.9479 17.6211 13.6019C17.8304 13.1337 17.8571 12.6055 17.696 12.1187C17.6938 12.1121 17.6915 12.1055 17.6893 12.0988C17.5429 11.6634 17.4249 11.2191 17.3361 10.7687C17.3354 10.7649 17.3346 10.7611 17.3339 10.7573C17.3332 10.754 17.3326 10.7506 17.3319 10.7473C17.2889 10.5271 17.2558 10.2977 17.2324 10.0683C17.2314 10.0583 17.2304 10.0483 17.2294 10.0383C17.2244 10.0027 17.2188 9.96733 17.2126 9.93209C17.0904 9.2391 16.734 8.60607 16.2 8.13761C16.1863 8.12559 16.1725 8.1137 16.1586 8.10194C15.6196 7.64539 14.9404 7.38216 14.2315 7.35488C14.2161 7.35429 14.2008 7.35381 14.1854 7.35344C14.1798 7.3533 14.1742 7.35318 14.1685 7.35308L11.0223 7.24895C10.5963 7.2309 10.1714 7.29855 9.77333 7.44752C9.74913 7.45657 9.72503 7.46593 9.70104 7.47558C9.30365 7.63547 8.94383 7.87391 8.64351 8.17603C8.63291 8.18669 8.62238 8.19744 8.61193 8.20826C8.60646 8.21393 8.60101 8.21961 8.59558 8.22531C8.28961 8.54698 8.05652 8.92934 7.91175 9.34695C7.91001 9.35199 7.90828 9.35703 7.90656 9.36207C7.7623 9.78529 7.71195 10.2343 7.75893 10.6786C7.75896 10.6789 7.759 10.6792 7.75903 10.6795C7.76001 10.6898 7.761 10.7002 7.762 10.7105C8.18289 15.06 10.0542 19.1494 13.0823 22.3354C13.0974 22.3513 13.1125 22.3671 13.1276 22.383C16.1575 25.5499 20.1637 27.6363 24.5198 28.3148L24.9183 28.328C25.2227 28.3385 25.5243 28.3053 25.8144 28.2313C26.2286 28.1257 26.6194 27.937 26.9613 27.6739C26.9658 27.6704 26.9703 27.6669 26.9748 27.6634C26.9974 27.6458 27.0198 27.6279 27.0419 27.6096C27.3554 27.3504 27.6145 27.0335 27.8051 26.6769C27.8221 26.6451 27.8386 26.6129 27.8545 26.5805C28.0329 26.2163 28.1376 25.8215 28.163 25.4183C28.1634 25.413 28.1637 25.4076 28.164 25.4023C28.1657 25.3722 28.167 25.3422 28.1679 25.3121L28.2708 22.2023C28.271 22.1909 28.2711 22.1795 28.2711 22.1681C28.274 21.4666 28.0369 20.7843 27.5982 20.2323C27.5939 20.2268 27.5895 20.2214 27.5852 20.216C27.1488 19.6744 26.5429 19.2925 25.864 19.1296C25.836 19.1229 25.808 19.1165 25.7798 19.1106C25.7655 19.1101 25.7511 19.1093 25.7367 19.1083C25.5673 19.0964 25.3941 19.0485 25.2241 19.0016C25.1762 18.9884 25.1285 18.9752 25.0813 18.9629C25.0681 18.9596 25.0549 18.9562 25.0418 18.9529C25.0406 18.9526 25.0394 18.9523 25.0383 18.9519C24.5893 18.8364 24.1491 18.6898 23.7208 18.5132C23.6907 18.5012 23.6603 18.49 23.6298 18.4794C23.1731 18.3218 22.6745 18.3245 22.2185 18.489C21.8735 18.6134 21.5703 18.8241 21.3365 19.0974C21.3283 19.107 21.3201 19.1167 21.3121 19.1265C21.2619 19.1873 21.2152 19.251 21.1721 19.3174C21.1444 19.3601 21.1182 19.404 21.0937 19.4488C21.0909 19.4538 21.0883 19.4587 21.0856 19.4637L20.8394 19.9225C20.7891 19.8926 20.7389 19.8624 20.689 19.8318C20.5503 19.7468 20.4132 19.6593 20.278 19.5692C20.184 19.5066 20.0908 19.4428 19.9986 19.3777ZM13.7476 13.8359C13.7926 13.7581 13.8478 13.6863 13.9119 13.6223C14.009 13.5252 14.1246 13.448 14.2521 13.3953L15.7426 12.7701C15.7421 12.7686 15.7416 12.7672 15.7411 12.7657C15.7405 12.764 15.7399 12.7623 15.7393 12.7606C15.5582 12.2337 15.4158 11.6946 15.3134 11.1474C15.313 11.1456 15.3126 11.1437 15.3123 11.1419C15.3122 11.1416 15.3122 11.1414 15.3121 11.1412C15.2604 10.8721 15.2185 10.6002 15.1865 10.3253C15.1856 10.3178 15.1847 10.3102 15.1838 10.3026C15.18 10.2819 15.1756 10.2613 15.1706 10.2409C15.1184 10.0295 15.0001 9.83911 14.8318 9.69723C14.8306 9.69623 14.8294 9.69524 14.8282 9.69425C14.6418 9.53845 14.4062 9.45173 14.1622 9.44903L11.0159 9.3449C10.9949 9.34423 10.9739 9.34419 10.9529 9.34476C10.9464 9.34494 10.9399 9.34518 10.9334 9.34548C10.8125 9.35103 10.6933 9.37722 10.5812 9.42309C10.5534 9.43444 10.5262 9.44693 10.4997 9.46053C10.3945 9.5144 10.2991 9.58562 10.2177 9.6713C10.2018 9.68868 10.1866 9.70651 10.1719 9.72477C10.0907 9.82582 10.0276 9.94002 9.9853 10.0625C9.98446 10.0649 9.98363 10.0674 9.98281 10.0698C9.94145 10.1924 9.92172 10.3209 9.92432 10.4499C9.92448 10.4577 9.92472 10.4656 9.92505 10.4734C9.92559 10.4865 9.92636 10.4995 9.92736 10.5126C10.0347 11.6876 10.2604 12.842 10.5972 13.9599C10.6399 14.1016 10.6844 14.2427 10.7306 14.3832C10.8886 14.8632 11.0672 15.3359 11.266 15.8002C11.2667 15.8019 11.2675 15.8037 11.2682 15.8054C12.0662 17.6676 13.1874 19.393 14.5943 20.8984C14.6112 20.9165 14.6282 20.9346 14.6452 20.9527C16.0745 22.4692 17.7522 23.7142 19.5946 24.6435C19.6317 24.6623 19.6688 24.6808 19.7061 24.6993C20.2105 24.9493 20.727 25.1758 21.254 25.3779C22.3265 25.789 23.4421 26.0988 24.5865 26.2998C24.6667 26.3138 24.7469 26.3274 24.8274 26.3404C24.8341 26.3415 24.8408 26.3426 24.8475 26.3436C24.8927 26.3506 24.9381 26.3547 24.9836 26.3561C24.9846 26.3561 24.9855 26.3561 24.9865 26.3562C25.0942 26.3592 25.202 26.3467 25.3065 26.319C25.4561 26.2792 25.5956 26.2091 25.7161 26.113C25.7338 26.0986 25.751 26.0837 25.7676 26.0682C25.7686 26.0674 25.7695 26.0665 25.7705 26.0656C25.8609 25.9812 25.9355 25.8815 25.9907 25.7709C26.0046 25.743 26.0173 25.7146 26.0286 25.6857C26.0707 25.5777 26.0944 25.4634 26.0984 25.3473L26.1845 22.1125C26.1969 21.8896 26.1361 21.669 26.012 21.4834C26.002 21.4685 25.9917 21.4539 25.9809 21.4395C25.9063 21.3395 25.8147 21.2543 25.7111 21.1873C25.6135 21.1241 25.5051 21.0769 25.3902 21.0486C25.3837 21.0474 25.3771 21.0462 25.3706 21.045C25.1096 20.998 24.8518 20.9423 24.5973 20.8781C24.5932 20.877 24.589 20.876 24.5848 20.8749C24.5718 20.8716 24.5589 20.8683 24.5459 20.865C24.0164 20.7276 23.4953 20.5606 22.9851 20.3645C22.9772 20.3615 22.9693 20.3584 22.9613 20.3553C22.9424 20.348 22.9235 20.3407 22.9046 20.3333L22.2064 21.763C22.1437 21.8855 22.057 21.9945 21.9513 22.0837C21.8607 22.1601 21.7577 22.2206 21.6468 22.2627C21.6284 22.2697 21.6097 22.2762 21.5908 22.2822C21.332 22.3774 21.0456 22.368 20.7937 22.2558C20.4491 22.0828 20.1124 21.8974 19.784 21.7001C18.6175 20.9996 17.5571 20.1503 16.6279 19.1788C16.6244 19.1752 16.621 19.1715 16.6175 19.1679C16.6051 19.1549 16.5927 19.1419 16.5804 19.1289C15.6654 18.1635 14.8792 17.079 14.246 15.9008C14.046 15.5286 13.8613 15.147 13.6925 14.7569C13.6385 14.6311 13.6101 14.4961 13.6089 14.3595C13.6078 14.2229 13.634 14.0875 13.686 13.961C13.7037 13.9179 13.7243 13.8761 13.7476 13.8359Z" fill="white"/>
</g>
<path d="M25.7803 19.1105C25.5496 19.1028 25.3108 19.0223 25.0818 18.9628C24.6179 18.8456 24.1632 18.6953 23.7213 18.5131C23.2405 18.322 22.7054 18.3134 22.2189 18.4889C21.7324 18.6644 21.3289 19.0115 21.0861 19.4636L20.8399 19.9224C19.837 19.327 18.9214 18.5983 18.1188 17.7569C17.3224 16.9098 16.6474 15.9587 16.1126 14.9303L16.5626 14.6546C17.0351 14.445 17.4122 14.07 17.6215 13.6018C17.8309 13.1336 17.8576 12.6053 17.6965 12.1186C17.5446 11.6699 17.423 11.2117 17.3324 10.7472C17.2875 10.5174 17.2534 10.2776 17.2299 10.0381C17.1267 9.30379 16.7616 8.62978 16.2005 8.1375C15.6393 7.64521 14.9189 7.367 14.169 7.35296L11.0228 7.24884C10.5709 7.22969 10.1203 7.30698 9.70151 7.47547C9.28276 7.64395 8.90572 7.89966 8.59606 8.2252C8.2864 8.55074 8.05139 8.93846 7.90703 9.36196C7.76267 9.78547 7.71235 10.2348 7.7595 10.6794C8.1745 15.0405 10.0475 19.1417 13.0828 22.3353C16.118 25.5289 20.1424 27.6328 24.5203 28.3147L24.9188 28.3279C25.6922 28.3546 26.4481 28.0989 27.0424 27.6095C27.3839 27.3272 27.6608 26.9764 27.8549 26.5803C28.049 26.1843 28.1559 25.752 28.1683 25.3119L28.2713 22.2022C28.2822 21.4818 28.0399 20.7797 27.5856 20.2159C27.1313 19.652 26.4933 19.2613 25.7803 19.1105ZM26.0989 25.3472C26.0938 25.4944 26.0571 25.6388 25.9912 25.7708C25.9253 25.9028 25.8316 26.0194 25.7166 26.1128C25.5961 26.209 25.4566 26.2791 25.307 26.3189C25.1574 26.3586 25.0011 26.367 24.848 26.3435C20.9368 25.7158 17.3473 23.8191 14.6457 20.9526C11.9441 18.0861 10.2842 14.4129 9.92783 10.5125C9.91616 10.3601 9.93587 10.207 9.98577 10.0624C10.0357 9.91778 10.1147 9.7847 10.2181 9.67119C10.3201 9.56387 10.444 9.47926 10.5816 9.42298C10.7193 9.3667 10.8675 9.34005 11.0164 9.34479L14.1626 9.44891C14.4067 9.45162 14.6422 9.53834 14.8287 9.69414C15.0152 9.84994 15.1409 10.0651 15.1843 10.3025C15.2169 10.5872 15.2601 10.8688 15.3138 11.1473C15.4169 11.6978 15.5604 12.2401 15.7431 12.77L14.2525 13.3952C14.1251 13.4479 14.0095 13.5251 13.9124 13.6222C13.8152 13.7192 13.7384 13.8343 13.6865 13.9609C13.6345 14.0874 13.6083 14.2228 13.6094 14.3594C13.6105 14.496 13.6389 14.631 13.693 14.7568C15.0966 18.0022 17.6105 20.6569 20.7942 22.2557C21.0461 22.3678 21.3325 22.3773 21.5912 22.2821C21.7235 22.2402 21.8461 22.1727 21.9518 22.0836C22.0575 21.9944 22.1442 21.8854 22.2069 21.7629L22.9051 20.3332C23.4409 20.5428 23.989 20.7203 24.5464 20.8648C24.824 20.9363 25.1054 20.9975 25.3907 21.0484C25.6276 21.1069 25.8364 21.2451 25.9814 21.4393C26.1264 21.6335 26.1983 21.8716 26.1849 22.1124L26.0989 25.3472Z" fill="#F3701F"/>
<defs>
<filter id="filter0_d_366_1691" x="0.711426" y="0.215454" width="34.5903" height="35.145" filterUnits="userSpaceOnUse" color-interpolation-filters="sRGB">
<feFlood flood-opacity="0" result="BackgroundImageFix"/>
<feColorMatrix in="SourceAlpha" type="matrix" values="0 0 0 0 0 0 0 0 0 0 0 0 0 0 0 0 0 0 127 0" result="hardAlpha"/>
<feOffset/>
<feGaussianBlur stdDeviation="2"/>
<feComposite in2="hardAlpha" operator="out"/>
<feColorMatrix type="matrix" values="0 0 0 0 0 0 0 0 0 0 0 0 0 0 0 0 0 0 0.15 0"/>
<feBlend mode="normal" in2="BackgroundImageFix" result="effect1_dropShadow_366_1691"/>
<feBlend mode="normal" in="SourceGraphic" in2="effect1_dropShadow_366_1691" result="shape"/>
</filter>
</defs>
</svg>
