<svg width="17" height="13" viewBox="0 0 17 13" fill="none" xmlns="http://www.w3.org/2000/svg">
<path id="Vector" d="M15.9028 0.887876C15.7952 0.778432 15.6671 0.691564 15.526 0.632282C15.3848 0.573001 15.2335 0.54248 15.0806 0.54248C14.9277 0.54248 14.7763 0.573001 14.6352 0.632282C14.4941 0.691564 14.366 0.778432 14.2583 0.887876L5.63055 9.59872L2.00573 5.93222C1.89394 5.82335 1.76199 5.73775 1.6174 5.68029C1.4728 5.62284 1.3184 5.59466 1.16301 5.59737C1.00761 5.60008 0.854272 5.63363 0.711736 5.69609C0.5692 5.75855 0.440261 5.84871 0.332282 5.96142C0.224304 6.07412 0.139399 6.20717 0.0824167 6.35296C0.0254339 6.49875 -0.00251138 6.65443 0.000177094 6.81111C0.00286556 6.96779 0.036135 7.1224 0.0980854 7.26611C0.160036 7.40983 0.249454 7.53983 0.361235 7.6487L4.80831 12.1326C4.91597 12.242 5.04405 12.3289 5.18518 12.3882C5.3263 12.4474 5.47767 12.478 5.63055 12.478C5.78344 12.478 5.93481 12.4474 6.07593 12.3882C6.21705 12.3289 6.34514 12.242 6.4528 12.1326L15.9028 2.60436C16.0204 2.49501 16.1142 2.3623 16.1784 2.21459C16.2425 2.06688 16.2757 1.90737 16.2757 1.74612C16.2757 1.58486 16.2425 1.42535 16.1784 1.27764C16.1142 1.12993 16.0204 0.99722 15.9028 0.887876Z" fill="white"/>
</svg>
