<svg width="236" height="252" viewBox="0 0 236 252" fill="none" xmlns="http://www.w3.org/2000/svg">
<path d="M127.487 246.682L76.1524 248.776L32.0446 251.888C5.75502 253.744 -7.76618 221.067 12.1479 203.804L15.684 200.738C28.0029 190.059 26.3325 170.473 12.3833 162.034C2.19247 155.869 -1.94197 143.167 2.66721 132.184L7.05274 121.735C12.8384 107.949 28.0731 100.727 42.4075 104.976C65.6576 111.867 86.7413 89.1524 78.1404 66.4792L77.2462 64.122C74.2198 56.1438 74.6669 47.2636 78.4795 39.6298L86.3399 23.891C94.1212 8.31047 110.555 -1.01387 127.921 0.298591L139.913 1.20494C163.194 2.9644 177.907 27.0166 168.873 48.5445C160.061 69.5409 173.843 93.124 196.461 95.7527L201.761 96.3688C230.44 99.7018 245.205 132.413 228.734 156.125L189.484 212.633C175.291 233.066 152.345 245.668 127.487 246.682Z" class="primary-color"/>
</svg>
