<svg width="424" height="339" viewBox="0 0 424 339" fill="none" xmlns="http://www.w3.org/2000/svg">
<path d="M118.356 61.0349L178.845 61.2694C193.385 61.3258 206.998 54.1359 215.148 42.095L232.987 15.7429C252.962 -13.7666 299.113 2.00583 296.85 37.5684C295.456 59.4675 314.34 77.2253 336.112 74.4895L361.036 71.3578C408.147 65.4382 440.623 117.358 414.687 157.13L383.025 205.681C371.066 224.019 350.477 234.871 328.59 234.372L271.521 233.073C244.131 232.45 227.447 262.995 242.774 285.703C261.116 312.878 233.858 347.609 203.104 336.252L59.013 283.045C31.4487 272.867 11.2926 248.91 5.97919 220.011L2.2739 199.858C-3.97522 165.87 5.04603 130.854 26.9399 104.116C49.3705 76.7233 82.9516 60.8977 118.356 61.0349Z" class="primary-color"/>
</svg>
