<svg width="325" height="255" viewBox="0 0 325 255" fill="none" xmlns="http://www.w3.org/2000/svg">
<path d="M95.9491 39.63L141.844 42.7424C152.876 43.4905 163.556 38.6943 170.326 29.9516L185.142 10.8176C201.734 -10.6088 235.994 3.60023 232.551 30.4798C230.431 47.032 243.901 61.4249 260.557 60.4049L279.625 59.2373C315.666 57.0302 337.794 98.009 316.18 126.935L289.796 162.245C279.831 175.582 263.679 182.819 247.092 181.379L203.844 177.625C183.087 175.823 168.944 198.195 179.474 216.173C192.076 237.686 169.704 262.722 146.915 252.611L40.1416 205.24C19.7161 196.179 5.58141 177.019 2.95086 154.829L1.11649 139.355C-1.97729 113.257 6.56787 87.1204 24.4809 67.8907C42.8329 48.1896 69.0863 37.8082 95.9491 39.63Z" class="secondary-color"/>
</svg>
