<svg width="692" height="553" viewBox="0 0 692 553" fill="none" xmlns="http://www.w3.org/2000/svg">
<path d="M193.433 99.4366L292.129 99.8192C315.853 99.9112 338.064 88.1799 351.363 68.5336L380.468 25.5365C413.06 -22.612 488.363 3.12283 484.67 61.1479C482.396 96.8791 513.207 125.853 548.732 121.39L589.398 116.28C666.266 106.621 719.255 191.335 676.936 256.228L625.275 335.446C605.763 365.366 572.169 383.073 536.458 382.26L443.342 380.14C398.651 379.123 371.43 428.961 396.438 466.013C426.365 510.351 381.891 567.02 331.71 548.491L96.607 461.676C51.6322 445.068 18.7449 405.979 10.0753 358.826L4.02969 325.945C-6.16658 270.489 8.55275 213.355 44.2756 169.729C80.874 125.034 135.666 99.2126 193.433 99.4366Z" class="secondary-color"/>
</svg>
