<svg width="75" height="75" viewBox="0 0 55 55" fill="none" xmlns="http://www.w3.org/2000/svg">
<g filter="url(#filter0_bd_485_182)">
<circle cx="27.5" cy="27.5" r="12.5" fill="#FBFBFB" fill-opacity="0.4" shape-rendering="crispEdges"/>
</g>
<g filter="url(#filter1_d_485_182)">
<path d="M30.9512 26.5356L26.7109 22.2959C26.618 22.2022 26.5076 22.1279 26.3857 22.0771C26.2639 22.0264 26.133 22 26.001 22C25.869 22 25.7386 22.0264 25.6167 22.0771C25.4948 22.1279 25.384 22.2022 25.291 22.2959C25.1048 22.4833 25 22.7368 25 23.001C25 23.2652 25.1048 23.5182 25.291 23.7056L28.8311 27.2456L25.291 30.7856C25.1048 30.973 25 31.2265 25 31.4907C25 31.7549 25.1048 32.0084 25.291 32.1958C25.3845 32.2885 25.4954 32.3619 25.6172 32.4116C25.739 32.4614 25.8694 32.4866 26.001 32.4858C26.1326 32.4866 26.2629 32.4614 26.3848 32.4116C26.5066 32.3619 26.6175 32.2885 26.7109 32.1958L30.9512 27.9556C31.0449 27.8626 31.1192 27.7522 31.1699 27.6304C31.2207 27.5085 31.2471 27.3776 31.2471 27.2456C31.2471 27.1136 31.2207 26.9832 31.1699 26.8613C31.1192 26.7395 31.0449 26.6286 30.9512 26.5356Z" class="primary-color"/>
</g>
<defs>
<filter id="filter0_bd_485_182" x="0" y="0" width="55" height="55" filterUnits="userSpaceOnUse" color-interpolation-filters="sRGB">
<feFlood flood-opacity="0" result="BackgroundImageFix"/>
<feGaussianBlur in="BackgroundImageFix" stdDeviation="5"/>
<feComposite in2="SourceAlpha" operator="in" result="effect1_backgroundBlur_485_182"/>
<feColorMatrix in="SourceAlpha" type="matrix" values="0 0 0 0 0 0 0 0 0 0 0 0 0 0 0 0 0 0 127 0" result="hardAlpha"/>
<feOffset/>
<feGaussianBlur stdDeviation="7.5"/>
<feComposite in2="hardAlpha" operator="out"/>
<feColorMatrix type="matrix" values="0 0 0 0 0 0 0 0 0 0 0 0 0 0 0 0 0 0 0.1 0"/>
<feBlend mode="normal" in2="effect1_backgroundBlur_485_182" result="effect2_dropShadow_485_182"/>
<feBlend mode="normal" in="SourceGraphic" in2="effect2_dropShadow_485_182" result="shape"/>
</filter>
<filter id="filter1_d_485_182" x="17" y="14" width="22.2471" height="26.4858" filterUnits="userSpaceOnUse" color-interpolation-filters="sRGB">
<feFlood flood-opacity="0" result="BackgroundImageFix"/>
<feColorMatrix in="SourceAlpha" type="matrix" values="0 0 0 0 0 0 0 0 0 0 0 0 0 0 0 0 0 0 127 0" result="hardAlpha"/>
<feOffset/>
<feGaussianBlur stdDeviation="4"/>
<feComposite in2="hardAlpha" operator="out"/>
<feColorMatrix type="matrix" values="0 0 0 0 0 0 0 0 0 0 0 0 0 0 0 0 0 0 0.25 0"/>
<feBlend mode="normal" in2="BackgroundImageFix" result="effect1_dropShadow_485_182"/>
<feBlend mode="normal" in="SourceGraphic" in2="effect1_dropShadow_485_182" result="shape"/>
</filter>
</defs>
</svg>
