<svg width="619" height="991" viewBox="0 0 619 991" fill="none" xmlns="http://www.w3.org/2000/svg">
<path d="M150.999 45.1355L167.066 47.9945C221.687 57.7139 274.963 25.1117 291.166 -27.9482L294.315 -38.2572C311.936 -95.9598 376.815 -124.826 431.838 -100.075C496.753 -70.8738 511.471 15.5675 459.041 63.7107L430.079 90.3045C391.156 126.045 401.648 189.973 449.953 211.397L459.738 215.737C488.884 228.663 503.361 261.684 493.121 291.879C483.713 319.622 495.131 350.155 520.435 364.917L536.653 374.378C572.176 395.102 587.659 438.365 573.35 476.922L535.618 578.597C521.796 615.844 538.693 657.482 574.562 674.563C625.656 698.896 633.724 768.281 589.577 803.688L531.479 850.284L358.144 961.073C285.735 1007.35 191.032 997.917 129.181 938.256C57.283 868.904 53.1203 755.105 119.759 680.686L135.264 663.37C219.925 568.824 201.94 421.352 97.0379 349.925L76.0512 335.635C41.7774 312.298 18.1718 276.308 10.4228 235.574L2.73671 195.171C-14.0297 107.036 62.6704 29.4182 150.999 45.1355Z" fill="#F3701F"/>
</svg>
