<svg width="676" height="874" viewBox="0 0 676 874" fill="none" xmlns="http://www.w3.org/2000/svg">
<path d="M61.3685 442.631L146.077 342.861C166.439 318.879 173.517 286.33 164.953 256.058L146.212 189.805C125.225 115.615 215.659 61.2296 271.353 114.548C305.649 147.382 361.358 140.887 387.181 101.045L416.742 55.4353C472.618 -30.7758 603.806 -12.1416 633.465 86.2193L669.671 206.292C683.346 251.644 672.603 300.842 641.269 336.366L559.566 428.993C520.353 473.449 547.642 543.636 606.586 549.928C677.121 557.457 696.598 650.978 634.934 686.04L346.027 850.31C290.759 881.735 223.019 881.693 167.79 850.201L129.276 828.241C64.3215 791.203 18.9524 727.463 5.22685 653.961C-8.83512 578.658 11.7881 501.027 61.3685 442.631Z" class="primary-color"/>
</svg>
