<svg width="19" height="19" viewBox="0 0 19 19" fill="none" xmlns="http://www.w3.org/2000/svg">
<path d="M17.7613 16.5668L14.6097 13.4383C15.833 11.9118 16.4255 9.97425 16.2652 8.02403C16.1049 6.07381 15.204 4.25917 13.7479 2.95324C12.2917 1.6473 10.3909 0.949341 8.43633 1.00287C6.48174 1.05639 4.62193 1.85733 3.2393 3.24101C1.85668 4.62468 1.05635 6.4859 1.00286 8.44198C0.949379 10.3981 1.64681 12.3003 2.95175 13.7576C4.25669 15.2148 6.06996 16.1164 8.0187 16.2768C9.96744 16.4372 11.9035 15.8443 13.4289 14.62L16.555 17.7485C16.634 17.8282 16.7279 17.8915 16.8315 17.9346C16.935 17.9778 17.046 18 17.1582 18C17.2703 18 17.3813 17.9778 17.4849 17.9346C17.5884 17.8915 17.6823 17.8282 17.7613 17.7485C17.9144 17.59 18 17.3782 18 17.1577C18 16.9372 17.9144 16.7254 17.7613 16.5668V16.5668ZM8.66321 14.62C7.48711 14.62 6.33742 14.271 5.35953 13.6171C4.38164 12.9632 3.61947 12.0338 3.16939 10.9464C2.71932 9.85897 2.60156 8.66243 2.831 7.50805C3.06045 6.35368 3.6268 5.29331 4.45842 4.46105C5.29005 3.62879 6.34961 3.06202 7.50311 2.8324C8.65661 2.60278 9.85225 2.72062 10.9388 3.17104C12.0254 3.62146 12.9541 4.38421 13.6075 5.36284C14.2609 6.34148 14.6097 7.49204 14.6097 8.66903C14.6097 10.2473 13.9832 11.761 12.868 12.877C11.7528 13.993 10.2403 14.62 8.66321 14.62V14.62Z" class="test-secondary-color"/>
</svg>
