<svg width="1920" height="1080" viewBox="0 0 2220 1300" fill="none" xmlns="http://www.w3.org/2000/svg">
<path d="M1005.11 681.885L1056.79 664.43C1076.15 657.892 1092.1 643.888 1101.08 625.535C1119.62 587.644 1165.31 571.881 1203.27 590.282L1229.44 602.969C1260.46 618.008 1282.21 647.224 1287.71 681.258L1314.46 846.662C1325.78 916.636 1295.64 986.847 1237.11 1026.84C1202.86 1050.25 1161.67 1061.32 1120.3 1058.23L1008.28 1049.86C932.496 1044.2 870.312 987.644 857.501 912.738C851.341 876.718 857.278 839.671 874.385 807.379L888.205 781.292C913.033 734.428 954.869 698.855 1005.11 681.885Z" class="secondary-color"/>
<path d="M1085.16 24.3969L1172.39 53.9193C1193.36 61.0157 1216.49 57.2005 1234.07 43.7448L1272.54 14.2961C1315.63 -18.681 1374.67 26.3623 1354.24 76.6261C1341.66 107.578 1360.36 142.333 1393.12 148.886L1430.63 156.389C1501.52 170.57 1523.37 261.215 1466.72 306.136L1397.58 360.972C1371.46 381.684 1336.49 387.422 1305.12 376.143L1223.34 346.733C1184.08 332.618 1145.25 368.679 1156.43 408.867C1169.81 456.958 1113.69 493.963 1074.76 462.724L892.347 316.369C857.452 288.372 839.903 244.051 846.173 199.755L850.545 168.865C857.919 116.768 887.84 70.5538 932.357 42.5053C977.965 13.7693 1034.09 7.11728 1085.16 24.3969Z" class="primary-color"/>
<path d="M123.727 370.905L128.02 365.925C144.398 346.925 168.239 336 193.324 336H211.703C239.236 336 266.016 344.995 287.966 361.617L354.158 411.742C376.036 428.309 399.673 442.415 424.641 453.803L465.891 472.618C519.237 496.951 565.615 534.296 600.766 581.224L626.994 616.241C633.38 624.767 641.167 632.147 650.023 638.066C716.686 682.624 700.665 784.802 623.565 806.819L340.283 887.714C305.634 897.608 268.648 895.403 235.42 881.46C146.452 844.128 111.188 736.643 160.749 653.861L171.372 636.117C174.156 631.467 177.422 627.123 181.116 623.157C217.04 584.577 204.614 522.14 156.656 500.255L151.548 497.924C102.264 475.434 88.3565 411.937 123.727 370.905Z" class="primary-color"/>
<path d="M259.512 57.7937L349.924 63.925C371.656 65.3988 392.695 55.9505 406.032 38.7278L435.219 1.03472C467.903 -41.1743 535.394 -13.1831 528.612 39.7683C524.436 72.3753 550.971 100.729 583.783 98.7193L621.344 96.4191C692.343 92.0713 735.934 172.797 693.357 229.779L641.381 299.34C621.75 325.613 589.931 339.87 557.257 337.033L472.06 329.637C431.17 326.087 403.308 370.159 424.053 405.574C448.877 447.954 404.807 497.274 359.912 477.356L149.575 384.038C109.337 366.187 81.4927 328.444 76.3106 284.73L72.697 254.247C66.6024 202.836 83.436 151.347 118.724 113.466C154.876 74.6557 206.594 54.2049 259.512 57.7937Z" class="secondary-color"/>
<path d="M1337.77 823.495L1430.38 823.854C1452.64 823.941 1473.48 812.933 1485.96 794.499L1513.27 754.154C1543.85 708.976 1614.51 733.124 1611.04 787.569C1608.91 821.096 1637.82 848.282 1671.15 844.094L1709.31 839.299C1781.44 830.237 1831.16 909.724 1791.45 970.614L1742.97 1044.94C1724.67 1073.02 1693.14 1089.63 1659.64 1088.87L1572.27 1086.88C1530.33 1085.93 1504.79 1132.69 1528.26 1167.46C1556.34 1209.06 1514.61 1262.23 1467.52 1244.85L1246.92 1163.39C1204.72 1147.8 1173.86 1111.13 1165.73 1066.88L1160.06 1036.03C1150.49 983.995 1164.3 930.386 1197.82 889.451C1232.16 847.514 1283.57 823.285 1337.77 823.495Z" class="primary-color"/>
<path d="M1681.78 168.939L1694.7 171.236C1738.47 179.018 1781.17 152.894 1794.17 110.374L1796.69 102.108C1810.83 55.8756 1862.85 32.7655 1906.95 52.5823C1958.97 75.9615 1970.82 145.262 1928.79 183.817L1905.59 205.1C1874.38 233.734 1882.79 284.984 1921.51 302.144L1929.38 305.631C1952.73 315.978 1964.33 342.433 1956.12 366.619C1948.58 388.844 1957.73 413.307 1978.01 425.125L1991.03 432.717C2019.52 449.318 2031.93 484.001 2020.45 514.906L1990.21 596.307C1979.12 626.158 1992.67 659.535 2021.43 673.216C2062.39 692.703 2068.85 748.326 2033.45 776.69L1986.88 814.004L1847.76 902.844C1789.75 939.885 1713.91 932.329 1664.35 884.57C1606.66 828.974 1603.32 737.688 1656.79 678.026L1669.14 664.25C1737.01 588.527 1722.6 470.346 1638.52 413.152L1621.64 401.668C1594.16 382.977 1575.23 354.139 1569.02 321.496L1562.89 289.297C1549.43 218.61 1610.93 156.345 1681.78 168.939Z" class="secondary-color"/>
</svg>
