<svg width="50" height="46" viewBox="0 0 50 46" fill="none" xmlns="http://www.w3.org/2000/svg">
<g filter="url(#filter0_d_366_1552)">
<path fill-rule="evenodd" clip-rule="evenodd" d="M33.7878 29.4653C33.6307 29.3513 33.4527 29.2694 33.2639 29.2244C33.1826 29.2049 33.1 29.1925 33.0169 29.1871C32.9072 29.18 32.7968 29.1852 32.6877 29.2027L15.1998 31.9061C14.8133 31.9658 14.4189 31.8696 14.1033 31.6385C14.1033 31.6385 14.1034 31.6386 14.1033 31.6385C13.7878 31.4075 13.577 31.0605 13.5172 30.6741L11.2644 16.101C11.2047 15.7145 11.3009 15.3201 11.5319 15.0046C11.5319 15.0046 11.5319 15.0046 11.5319 15.0046C11.763 14.689 12.1099 14.4782 12.4964 14.4184L32.899 11.2644C33.2855 11.2047 33.6799 11.3009 33.9955 11.532C34.311 11.763 34.5219 12.11 34.5816 12.4965L37.6432 32.3012L33.7878 29.4653ZM15.6504 34.8207C14.4909 34.9999 13.3077 34.7112 12.361 34.0181C12.361 34.0181 12.361 34.0181 12.361 34.0181C11.4144 33.325 10.7818 32.2841 10.6026 31.1246L8.34975 16.5516C8.17051 15.3921 8.45923 14.2089 9.15238 13.2622C9.15238 13.2622 9.15239 13.2622 9.15238 13.2622C9.84554 12.3156 10.8864 11.6831 12.0459 11.5038L32.4484 8.34984C33.608 8.17059 34.7912 8.4593 35.7378 9.15244C36.6845 9.84559 37.317 10.8864 37.4963 12.0459L41.1007 35.3628C41.1438 35.6507 41.1006 35.9449 40.9767 36.2084C40.8528 36.4718 40.6537 36.6927 40.4045 36.8432C40.2441 36.9515 40.0606 37.0207 39.8687 37.0454C39.6771 37.0761 39.4813 37.0688 39.2925 37.0237C39.1037 36.9786 38.9257 36.8967 38.7687 36.7827L32.5408 32.2096L15.6504 34.8207ZM31.4866 36.5175L16.2762 38.8688C14.043 39.214 11.7642 38.658 9.94104 37.3231C8.11786 35.9881 6.89965 33.9836 6.55444 31.7504L4.30163 17.1774C3.95641 14.9442 4.51247 12.6654 5.84745 10.8422C7.18242 9.01907 9.18697 7.8009 11.4201 7.45569L31.8227 4.30171C34.0558 3.9565 36.3346 4.51252 38.1578 5.84747C39.981 7.18243 41.1992 9.18696 41.5444 11.4201L45.1489 34.737L45.1519 34.7572C45.3145 35.845 45.1515 36.9565 44.6834 37.9518C44.2296 38.9166 43.5088 39.7302 42.6074 40.2969C41.9572 40.7173 41.2231 40.9912 40.4561 41.0994C39.752 41.2043 39.034 41.1733 38.3411 41.0079C37.628 40.8376 36.9555 40.5282 36.3622 40.0975L36.3443 40.0844L31.4866 36.5175ZM32.3872 25.1135L30.934 15.7131L28.8194 16.04C28.8424 16.1465 28.8623 16.254 28.879 16.3623L29.5549 20.7342C29.6722 21.4935 29.6303 22.2608 29.4402 22.9901C29.8416 23.628 30.1133 24.3468 30.2307 25.1061C30.2474 25.2143 30.2609 25.3228 30.2712 25.4314L32.0536 25.1558C32.1645 25.1384 32.2757 25.1242 32.3872 25.1135ZM22.5921 21.8105C22.6518 22.197 22.8627 22.544 23.1782 22.775C23.4938 23.0061 23.8882 23.1023 24.2747 23.0426C24.6612 22.9828 25.0081 22.772 25.2392 22.4564C25.4702 22.1409 25.5665 21.7465 25.5067 21.36L24.8309 16.9881C24.8139 16.8782 24.7847 16.7716 24.7444 16.6699C24.6429 16.4137 24.4706 16.189 24.2448 16.0236C23.9292 15.7925 23.5348 15.6963 23.1483 15.756C22.7618 15.8158 22.4148 16.0266 22.1838 16.3422C22.0184 16.5681 21.9221 16.8343 21.9026 17.1092C21.8949 17.2183 21.8993 17.3288 21.9162 17.4386L22.5921 21.8105ZM17.8276 17.7392C17.8379 17.8477 17.8514 17.9561 17.8681 18.0644L18.544 22.4363C18.6613 23.1956 18.933 23.9144 19.3345 24.5523C19.3272 24.5803 19.3201 24.6084 19.3132 24.6366C19.1128 25.4579 19.1027 26.3106 19.2794 27.1306L17.1648 27.4574L15.713 18.066L17.8276 17.7392ZM26.1962 26.0613C26.204 25.9519 26.1995 25.8414 26.1826 25.7319C26.1677 25.6357 26.1435 25.542 26.1106 25.4519C26.0114 25.1799 25.8335 24.941 25.5964 24.7674C25.5964 24.7674 25.5964 24.7674 25.5964 24.7674C25.3594 24.5939 25.0778 24.4964 24.7886 24.4839C24.6928 24.4798 24.5961 24.485 24.5 24.4999C24.3077 24.5296 24.1241 24.5969 23.9594 24.697C23.8773 24.7469 23.7998 24.805 23.7283 24.8706C23.5849 25.0022 23.4697 25.1601 23.3884 25.3348C23.3478 25.422 23.3157 25.5133 23.2926 25.6076C23.2465 25.7967 23.2385 25.992 23.2679 26.1825C23.2826 26.2775 23.3066 26.3713 23.3399 26.4624C23.3445 26.4752 23.3494 26.488 23.3544 26.5006C23.4567 26.7586 23.6297 26.9827 23.8541 27.1469C23.8541 27.1469 23.8541 27.147 23.8541 27.1469C23.8568 27.149 23.8596 27.151 23.8623 27.153C24.096 27.3215 24.3739 27.418 24.6619 27.4304C24.7589 27.4346 24.8555 27.4292 24.9505 27.4145C25.141 27.385 25.3248 27.3184 25.4911 27.2173C25.574 27.1669 25.6514 27.1087 25.7222 27.0437C25.7908 26.9807 25.8534 26.9114 25.909 26.8366C25.9683 26.7567 26.0197 26.6706 26.0621 26.5795C26.1031 26.4915 26.1351 26.4001 26.1578 26.3068C26.1775 26.2261 26.1903 26.144 26.1962 26.0613Z" fill="white"/>
</g>
<path d="M32.4484 8.34987L12.0458 11.5038C10.8863 11.6831 9.84546 12.3156 9.1523 13.2622C8.45914 14.2089 8.17043 15.3921 8.34967 16.5516L10.6025 31.1246C10.7817 32.2842 11.4142 33.325 12.3609 34.0181C13.3075 34.7113 14.4908 35 15.6503 34.8207L32.5407 32.2097L38.7686 36.7827C38.9256 36.8967 39.1036 36.9786 39.2924 37.0237C39.4812 37.0688 39.677 37.0761 39.8686 37.0454C40.0605 37.0208 40.244 36.9515 40.4044 36.8432C40.6536 36.6927 40.8527 36.4719 40.9766 36.2084C41.1005 35.945 41.1437 35.6507 41.1007 35.3628L37.4962 12.0459C37.3169 10.8864 36.6844 9.84562 35.7378 9.15247C34.7911 8.45932 33.6079 8.17062 32.4484 8.34987ZM37.6431 32.3013L33.7877 29.4654C33.6306 29.3514 33.4526 29.2695 33.2638 29.2244C33.0751 29.1793 32.8793 29.1719 32.6876 29.2027L15.1997 31.9061C14.8132 31.9659 14.4188 31.8696 14.1033 31.6386C13.7877 31.4075 13.5769 31.0606 13.5171 30.6741L11.2643 16.101C11.2046 15.7145 11.3008 15.3201 11.5319 15.0046C11.7629 14.689 12.1099 14.4782 12.4964 14.4184L32.8989 11.2645C33.2854 11.2047 33.6798 11.301 33.9954 11.532C34.3109 11.7631 34.5218 12.11 34.5815 12.4965L37.6431 32.3013ZM24.4999 24.4999C24.2117 24.5445 23.9431 24.6735 23.7282 24.8707C23.5133 25.0678 23.3617 25.3243 23.2926 25.6077C23.2234 25.891 23.2399 26.1885 23.3398 26.4625C23.4397 26.7365 23.6187 26.9747 23.854 27.147C24.0893 27.3193 24.3704 27.4179 24.6618 27.4305C24.9532 27.443 25.2417 27.3688 25.491 27.2174C25.7402 27.0659 25.939 26.8439 26.062 26.5795C26.1851 26.3151 26.227 26.0201 26.1825 25.7319C26.1227 25.3454 25.9119 24.9985 25.5963 24.7674C25.2808 24.5364 24.8864 24.4401 24.4999 24.4999ZM23.1482 15.7561C22.7617 15.8158 22.4148 16.0267 22.1837 16.3422C21.9526 16.6578 21.8564 17.0522 21.9162 17.4387L22.592 21.8106C22.6517 22.1971 22.8626 22.544 23.1781 22.7751C23.4937 23.0061 23.8881 23.1023 24.2746 23.0426C24.6611 22.9828 25.008 22.772 25.2391 22.4565C25.4702 22.1409 25.5664 21.7465 25.5066 21.36L24.8308 16.9881C24.7711 16.6016 24.5602 16.2547 24.2447 16.0236C23.9291 15.7926 23.5347 15.6963 23.1482 15.7561Z" fill="#0093CE"/>
<defs>
<filter id="filter0_d_366_1552" x="0.20166" y="0.20166" width="49.0117" height="44.9585" filterUnits="userSpaceOnUse" color-interpolation-filters="sRGB">
<feFlood flood-opacity="0" result="BackgroundImageFix"/>
<feColorMatrix in="SourceAlpha" type="matrix" values="0 0 0 0 0 0 0 0 0 0 0 0 0 0 0 0 0 0 127 0" result="hardAlpha"/>
<feOffset/>
<feGaussianBlur stdDeviation="2"/>
<feComposite in2="hardAlpha" operator="out"/>
<feColorMatrix type="matrix" values="0 0 0 0 0 0 0 0 0 0 0 0 0 0 0 0 0 0 0.15 0"/>
<feBlend mode="normal" in2="BackgroundImageFix" result="effect1_dropShadow_366_1552"/>
<feBlend mode="normal" in="SourceGraphic" in2="effect1_dropShadow_366_1552" result="shape"/>
</filter>
</defs>
</svg>
