<svg width="40" height="41" viewBox="0 0 40 41" fill="none" xmlns="http://www.w3.org/2000/svg">
<g filter="url(#filter0_d_366_1553)">
<mask id="path-1-outside-1_366_1553" maskUnits="userSpaceOnUse" x="3.96109" y="3.95613" width="32.4281" height="33.4149" fill="black">
<rect fill="white" x="3.96109" y="3.95613" width="32.4281" height="33.4149"/>
<path d="M25.2312 11.1254C25.5605 11.3041 25.9482 11.3471 26.3096 11.2451C26.6711 11.1431 26.9771 10.9043 27.1607 10.5808C27.3126 10.3084 27.5519 10.0933 27.841 9.96935C28.1302 9.84539 28.4529 9.81953 28.7585 9.89583C29.0641 9.97213 29.3353 10.1463 29.5296 10.3909C29.724 10.6356 29.8304 10.937 29.8322 11.2478C29.8371 11.62 29.6918 11.979 29.4282 12.2457C29.1646 12.5124 28.8044 12.665 28.4268 12.67C28.0492 12.6749 27.689 12.8275 27.4255 13.0942C27.1619 13.3609 27.0166 13.7199 27.0214 14.0921C27.0263 14.4644 27.1809 14.8194 27.4514 15.0791C27.7218 15.3389 28.0859 15.482 28.4635 15.4771C29.2131 15.4668 29.9469 15.2622 30.591 14.8839C31.2352 14.5056 31.7671 13.9668 32.1332 13.3217C32.4994 12.6766 32.6869 11.948 32.677 11.209C32.667 10.47 32.4599 9.74661 32.0766 9.11161C31.6932 8.47662 31.147 7.95234 30.4929 7.59146C29.8387 7.23059 29.0997 7.04582 28.3501 7.05572C27.6005 7.06563 26.8666 7.26986 26.2222 7.6479C25.5779 8.02593 25.0458 8.56446 24.6793 9.20936C24.5872 9.37078 24.5285 9.54855 24.5064 9.73243C24.4844 9.91631 24.4994 10.1027 24.5507 10.2807C24.602 10.4588 24.6885 10.6252 24.8053 10.7701C24.9221 10.9151 25.0668 11.0358 25.2312 11.1254ZM31.4839 21.0529C31.1096 21.0099 30.7332 21.1151 30.4372 21.3453C30.1413 21.5754 29.9499 21.9118 29.9051 22.2808C29.6374 24.6639 28.495 26.8687 26.6932 28.4798C24.8914 30.0909 22.5545 30.9972 20.1226 31.0279L12.1639 31.1318L13.0774 30.2074C13.3392 29.9409 13.4834 29.5833 13.4785 29.2125C13.4737 28.8417 13.3202 28.4879 13.0516 28.2284C11.6454 26.8725 10.6779 25.1367 10.2708 23.2394C9.86366 21.3421 10.0352 19.3683 10.7639 17.5666C11.4925 15.7648 12.7456 14.2158 14.3654 13.1145C15.9851 12.0132 17.899 11.409 19.8661 11.3779C20.2437 11.373 20.6039 11.2204 20.8674 10.9537C21.131 10.687 21.2763 10.328 21.2715 9.95576C21.2666 9.58351 21.112 9.22846 20.8415 8.96873C20.5711 8.70899 20.207 8.56585 19.8294 8.57078C17.4223 8.61211 15.0755 9.32104 13.0577 10.6164C11.04 11.9117 9.43296 13.741 8.42076 15.8948C7.40856 18.0485 7.03214 20.4396 7.3346 22.794C7.63707 25.1484 8.6062 27.371 10.131 29.207L7.72714 31.5968C7.53217 31.7968 7.40161 32.0492 7.35196 32.3221C7.3023 32.5951 7.33577 32.8764 7.44813 33.1306C7.55829 33.3855 7.74254 33.6026 7.97765 33.7544C8.21277 33.9062 8.48824 33.986 8.76934 33.9837L20.1593 33.835C23.2793 33.7947 26.2777 32.6335 28.5919 30.5693C30.9061 28.505 32.3771 25.6796 32.729 22.6229C32.7527 22.4391 32.7392 22.2525 32.6893 22.0738C32.6394 21.8952 32.5541 21.728 32.4383 21.5821C32.3226 21.4361 32.1787 21.3142 32.0148 21.2234C31.851 21.1326 31.6706 21.0746 31.4839 21.0529ZM29.0241 16.9718C28.7634 16.8622 28.4755 16.8317 28.1971 16.8844L27.9419 16.9719L27.6873 17.1016L27.4761 17.2869C27.3497 17.4179 27.2502 17.5717 27.183 17.7399C27.1011 17.9161 27.0645 18.1094 27.0764 18.3028C27.0747 18.4901 27.111 18.6757 27.1832 18.8489C27.259 19.0164 27.3674 19.1676 27.5023 19.294C27.637 19.4223 27.7961 19.5232 27.9705 19.5907C28.1449 19.6583 28.3311 19.6913 28.5185 19.6878C28.8961 19.6829 29.2563 19.5303 29.5198 19.2636C29.7834 18.9968 29.9287 18.6379 29.9239 18.2656C29.9263 18.0815 29.8849 17.8993 29.803 17.7338C29.6456 17.3985 29.3684 17.1322 29.0243 16.9859L29.0241 16.9718Z"/>
</mask>
<path d="M25.2312 11.1254C25.5605 11.3041 25.9482 11.3471 26.3096 11.2451C26.6711 11.1431 26.9771 10.9043 27.1607 10.5808C27.3126 10.3084 27.5519 10.0933 27.841 9.96935C28.1302 9.84539 28.4529 9.81953 28.7585 9.89583C29.0641 9.97213 29.3353 10.1463 29.5296 10.3909C29.724 10.6356 29.8304 10.937 29.8322 11.2478C29.8371 11.62 29.6918 11.979 29.4282 12.2457C29.1646 12.5124 28.8044 12.665 28.4268 12.67C28.0492 12.6749 27.689 12.8275 27.4255 13.0942C27.1619 13.3609 27.0166 13.7199 27.0214 14.0921C27.0263 14.4644 27.1809 14.8194 27.4514 15.0791C27.7218 15.3389 28.0859 15.482 28.4635 15.4771C29.2131 15.4668 29.9469 15.2622 30.591 14.8839C31.2352 14.5056 31.7671 13.9668 32.1332 13.3217C32.4994 12.6766 32.6869 11.948 32.677 11.209C32.667 10.47 32.4599 9.74661 32.0766 9.11161C31.6932 8.47662 31.147 7.95234 30.4929 7.59146C29.8387 7.23059 29.0997 7.04582 28.3501 7.05572C27.6005 7.06563 26.8666 7.26986 26.2222 7.6479C25.5779 8.02593 25.0458 8.56446 24.6793 9.20936C24.5872 9.37078 24.5285 9.54855 24.5064 9.73243C24.4844 9.91631 24.4994 10.1027 24.5507 10.2807C24.602 10.4588 24.6885 10.6252 24.8053 10.7701C24.9221 10.9151 25.0668 11.0358 25.2312 11.1254ZM31.4839 21.0529C31.1096 21.0099 30.7332 21.1151 30.4372 21.3453C30.1413 21.5754 29.9499 21.9118 29.9051 22.2808C29.6374 24.6639 28.495 26.8687 26.6932 28.4798C24.8914 30.0909 22.5545 30.9972 20.1226 31.0279L12.1639 31.1318L13.0774 30.2074C13.3392 29.9409 13.4834 29.5833 13.4785 29.2125C13.4737 28.8417 13.3202 28.4879 13.0516 28.2284C11.6454 26.8725 10.6779 25.1367 10.2708 23.2394C9.86366 21.3421 10.0352 19.3683 10.7639 17.5666C11.4925 15.7648 12.7456 14.2158 14.3654 13.1145C15.9851 12.0132 17.899 11.409 19.8661 11.3779C20.2437 11.373 20.6039 11.2204 20.8674 10.9537C21.131 10.687 21.2763 10.328 21.2715 9.95576C21.2666 9.58351 21.112 9.22846 20.8415 8.96873C20.5711 8.70899 20.207 8.56585 19.8294 8.57078C17.4223 8.61211 15.0755 9.32104 13.0577 10.6164C11.04 11.9117 9.43296 13.741 8.42076 15.8948C7.40856 18.0485 7.03214 20.4396 7.3346 22.794C7.63707 25.1484 8.6062 27.371 10.131 29.207L7.72714 31.5968C7.53217 31.7968 7.40161 32.0492 7.35196 32.3221C7.3023 32.5951 7.33577 32.8764 7.44813 33.1306C7.55829 33.3855 7.74254 33.6026 7.97765 33.7544C8.21277 33.9062 8.48824 33.986 8.76934 33.9837L20.1593 33.835C23.2793 33.7947 26.2777 32.6335 28.5919 30.5693C30.9061 28.505 32.3771 25.6796 32.729 22.6229C32.7527 22.4391 32.7392 22.2525 32.6893 22.0738C32.6394 21.8952 32.5541 21.728 32.4383 21.5821C32.3226 21.4361 32.1787 21.3142 32.0148 21.2234C31.851 21.1326 31.6706 21.0746 31.4839 21.0529ZM29.0241 16.9718C28.7634 16.8622 28.4755 16.8317 28.1971 16.8844L27.9419 16.9719L27.6873 17.1016L27.4761 17.2869C27.3497 17.4179 27.2502 17.5717 27.183 17.7399C27.1011 17.9161 27.0645 18.1094 27.0764 18.3028C27.0747 18.4901 27.111 18.6757 27.1832 18.8489C27.259 19.0164 27.3674 19.1676 27.5023 19.294C27.637 19.4223 27.7961 19.5232 27.9705 19.5907C28.1449 19.6583 28.3311 19.6913 28.5185 19.6878C28.8961 19.6829 29.2563 19.5303 29.5198 19.2636C29.7834 18.9968 29.9287 18.6379 29.9239 18.2656C29.9263 18.0815 29.8849 17.8993 29.803 17.7338C29.6456 17.3985 29.3684 17.1322 29.0243 16.9859L29.0241 16.9718Z" fill="#F3701F"/>
<path d="M25.2312 11.1254L23.7955 13.7596L23.8002 13.7621L25.2312 11.1254ZM27.1607 10.5808L29.7697 12.0617C29.7734 12.0551 29.7772 12.0484 29.7809 12.0417L27.1607 10.5808ZM29.8322 11.2478L26.8323 11.2657C26.8323 11.2728 26.8324 11.2799 26.8325 11.287L29.8322 11.2478ZM28.4635 15.4771L28.5026 18.4768L28.5045 18.4768L28.4635 15.4771ZM24.6793 9.20936L27.2854 10.6954L27.2876 10.6915L24.6793 9.20936ZM29.9051 22.2808L26.927 21.919C26.9259 21.928 26.9249 21.9369 26.9238 21.9459L29.9051 22.2808ZM20.1226 31.0279L20.0847 28.0281L20.0834 28.0281L20.1226 31.0279ZM12.1639 31.1318L10.0301 29.0231C9.17442 29.8889 8.9268 31.1859 9.40328 32.3061C9.87976 33.4262 10.9859 34.1474 12.2031 34.1315L12.1639 31.1318ZM13.0774 30.2074L15.2113 32.3161L15.2175 32.3098L13.0774 30.2074ZM13.4785 29.2125L16.4783 29.1733L13.4785 29.2125ZM13.0516 28.2284L15.1361 26.0708L15.1339 26.0687L13.0516 28.2284ZM19.8661 11.3779L19.8269 8.37816L19.8187 8.37829L19.8661 11.3779ZM19.8294 8.57078L19.7902 5.57101L19.7779 5.57122L19.8294 8.57078ZM10.131 29.207L12.2461 31.3346C13.3474 30.2396 13.4311 28.4852 12.4389 27.2904L10.131 29.207ZM7.72714 31.5968L5.61204 29.4693C5.60103 29.4802 5.5901 29.4913 5.57926 29.5024L7.72714 31.5968ZM7.44813 33.1306L10.202 31.9406C10.1987 31.9329 10.1954 31.9253 10.192 31.9176L7.44813 33.1306ZM8.76934 33.9837L8.79374 36.9836C8.79866 36.9836 8.80358 36.9835 8.8085 36.9835L8.76934 33.9837ZM20.1593 33.835L20.1205 30.8353L20.1201 30.8353L20.1593 33.835ZM32.729 22.6229L29.7535 22.2403C29.7519 22.2535 29.7502 22.2666 29.7487 22.2798L32.729 22.6229ZM29.0241 16.9718L32.0239 16.9327C32.0083 15.7397 31.2872 14.6693 30.1875 14.2066L29.0241 16.9718ZM28.1971 16.8844L27.6395 13.9366C27.4983 13.9633 27.3593 14.0002 27.2234 14.0468L28.1971 16.8844ZM27.9419 16.9719L26.9682 14.1343C26.8353 14.18 26.7057 14.2348 26.5805 14.2986L27.9419 16.9719ZM27.6873 17.1016L26.3259 14.4283C26.1036 14.5415 25.8964 14.6819 25.7089 14.8464L27.6873 17.1016ZM27.4761 17.2869L25.4977 15.0316C25.4351 15.0866 25.3748 15.1441 25.3169 15.2041L27.4761 17.2869ZM27.183 17.7399L29.9034 19.0045C29.9266 18.9547 29.9484 18.9042 29.9688 18.8531L27.183 17.7399ZM27.0764 18.3028L30.0763 18.3301C30.0769 18.2594 30.075 18.1887 30.0707 18.1181L27.0764 18.3028ZM27.1832 18.8489L24.4142 20.0033C24.4258 20.0312 24.4378 20.0588 24.4503 20.0863L27.1832 18.8489ZM27.5023 19.294L29.5715 17.1218C29.5656 17.1161 29.5596 17.1105 29.5536 17.1049L27.5023 19.294ZM28.5185 19.6878L28.4793 16.6881C28.4736 16.6881 28.4679 16.6882 28.4622 16.6883L28.5185 19.6878ZM29.9239 18.2656L26.9241 18.2264C26.9238 18.2525 26.9238 18.2787 26.9241 18.3048L29.9239 18.2656ZM29.803 17.7338L27.0873 19.0086C27.096 19.0271 27.1049 19.0455 27.114 19.0638L29.803 17.7338ZM29.0243 16.9859L26.0245 17.025C26.0401 18.2138 26.7561 19.2812 27.8501 19.7465L29.0243 16.9859ZM23.8002 13.7621C24.8188 14.3149 26.0125 14.4462 27.1246 14.1323L25.4947 8.3579C25.8838 8.24808 26.3022 8.2933 26.6622 8.48866L23.8002 13.7621ZM27.1246 14.1323C28.2375 13.8182 29.1921 13.0792 29.7697 12.0617L24.5517 9.09981C24.762 8.7293 25.1048 8.46797 25.4947 8.3579L27.1246 14.1323ZM29.7809 12.0417C29.6068 12.354 29.3376 12.5918 29.023 12.7267L26.659 7.21202C25.7661 7.5948 25.0183 8.26276 24.5405 9.11982L29.7809 12.0417ZM29.023 12.7267C28.709 12.8613 28.3612 12.8888 28.0317 12.8065L29.4852 6.98518C28.5445 6.75031 27.5514 6.82949 26.659 7.21202L29.023 12.7267ZM28.0317 12.8065C27.7018 12.7241 27.4007 12.5341 27.1804 12.2568L31.8788 8.52513C31.2699 7.75848 30.4263 7.22016 29.4852 6.98518L28.0317 12.8065ZM27.1804 12.2568C26.9596 11.9787 26.8345 11.6302 26.8323 11.2657L32.8322 11.2299C32.8263 10.2438 32.4883 9.29257 31.8788 8.52513L27.1804 12.2568ZM26.8325 11.287C26.8268 10.8497 26.998 10.4368 27.2944 10.137L31.562 14.3544C32.3855 13.5212 32.8474 12.3904 32.832 11.2086L26.8325 11.287ZM27.2944 10.137C27.5893 9.83858 27.9834 9.67549 28.3877 9.67021L28.466 15.6697C29.6255 15.6546 30.74 15.1863 31.562 14.3544L27.2944 10.137ZM28.3877 9.67021C27.2282 9.68535 26.1136 10.1536 25.2916 10.9855L29.5593 15.2029C29.2644 15.5013 28.8703 15.6644 28.466 15.6697L28.3877 9.67021ZM25.2916 10.9855C24.4681 11.8187 24.0062 12.9495 24.0217 14.1313L30.0212 14.0529C30.0269 14.4902 29.8556 14.9031 29.5593 15.2029L25.2916 10.9855ZM24.0217 14.1313C24.0371 15.313 24.5284 16.4314 25.3733 17.2429L29.5294 12.9154C29.8335 13.2074 30.0154 13.6157 30.0212 14.0529L24.0217 14.1313ZM25.3733 17.2429C26.2168 18.0529 27.3432 18.492 28.5026 18.4768L28.4243 12.4773C28.8286 12.4721 29.2268 12.6248 29.5294 12.9154L25.3733 17.2429ZM28.5045 18.4768C29.7725 18.4595 31.0159 18.1135 32.1104 17.4707L29.0717 12.2971C28.8778 12.411 28.6538 12.4742 28.4224 12.4774L28.5045 18.4768ZM32.1104 17.4707C33.2051 16.8278 34.1143 15.909 34.7423 14.8026L29.5242 11.8408C29.4199 12.0246 29.2653 12.1834 29.0717 12.2971L32.1104 17.4707ZM34.7423 14.8026C35.3704 13.6959 35.6938 12.4424 35.6767 11.1686L29.6772 11.2494C29.68 11.4536 29.6283 11.6574 29.5242 11.8408L34.7423 14.8026ZM35.6767 11.1686C35.6595 9.89475 35.3025 8.65043 34.6448 7.56104L29.5083 10.6622C29.6174 10.8428 29.6745 11.0452 29.6772 11.2494L35.6767 11.1686ZM34.6448 7.56104C33.9872 6.47196 33.0537 5.57799 31.9421 4.96471L29.0437 10.2182C29.2403 10.3267 29.3991 10.4813 29.5083 10.6622L34.6448 7.56104ZM31.9421 4.96471C30.8307 4.35157 29.5784 4.03923 28.3105 4.05598L28.3897 10.0555C28.6211 10.0524 28.8468 10.1096 29.0437 10.2182L31.9421 4.96471ZM28.3105 4.05598C27.0425 4.07274 25.7989 4.41807 24.7042 5.06035L27.7403 10.2354C27.9343 10.1217 28.1584 10.0585 28.3897 10.0555L28.3105 4.05598ZM24.7042 5.06035C23.6091 5.7028 22.6995 6.62112 22.071 7.7272L27.2876 10.6915C27.392 10.5078 27.5467 10.3491 27.7403 10.2354L24.7042 5.06035ZM22.0732 7.72335C21.7836 8.23113 21.5977 8.79244 21.5278 9.37495L27.4851 10.0899C27.4593 10.3047 27.3908 10.5104 27.2854 10.6954L22.0732 7.72335ZM21.5278 9.37495C21.4579 9.9575 21.5056 10.5478 21.6679 11.1111L27.4335 9.45038C27.4932 9.65756 27.5108 9.87511 27.4851 10.0899L21.5278 9.37495ZM21.6679 11.1111C21.8302 11.6744 22.1032 12.1979 22.4692 12.6522L27.1415 8.88799C27.2739 9.05236 27.3738 9.24328 27.4335 9.45038L21.6679 11.1111ZM22.4692 12.6522C22.8351 13.1064 23.2864 13.4821 23.7955 13.7596L26.6668 8.49118C26.8473 8.58953 27.0091 8.72371 27.1415 8.88799L22.4692 12.6522ZM31.8258 18.0724C30.6759 17.9405 29.5146 18.2623 28.5955 18.9771L32.279 23.7134C31.9517 23.9679 31.5433 24.0794 31.1421 24.0333L31.8258 18.0724ZM28.5955 18.9771C27.6748 19.6931 27.0691 20.7488 26.927 21.919L32.8832 22.6425C32.8307 23.0749 32.6077 23.4577 32.279 23.7134L28.5955 18.9771ZM26.9238 21.9459C26.7392 23.5898 25.9504 25.1197 24.6936 26.2434L28.6929 30.7162C31.0397 28.6177 32.5356 25.7381 32.8863 22.6157L26.9238 21.9459ZM24.6936 26.2434C23.4357 27.3682 21.7969 28.0065 20.0847 28.0281L20.1605 34.0276C23.3121 33.9878 26.3472 32.8137 28.6929 30.7162L24.6936 26.2434ZM20.0834 28.0281L12.1247 28.132L12.2031 34.1315L20.1618 34.0276L20.0834 28.0281ZM14.2977 33.2405L15.2113 32.3161L10.9436 28.0987L10.0301 29.0231L14.2977 33.2405ZM15.2175 32.3098C16.0354 31.4772 16.4936 30.3504 16.4783 29.1733L10.4788 29.2516C10.4731 28.8161 10.643 28.4047 10.9373 28.105L15.2175 32.3098ZM16.4783 29.1733C16.4629 27.9961 15.9754 26.8817 15.1361 26.0708L10.9671 30.3859C10.665 30.094 10.4845 29.6872 10.4788 29.2516L16.4783 29.1733ZM15.1339 26.0687C14.1542 25.1241 13.485 23.9198 13.204 22.61L7.33752 23.8688C7.87068 26.3535 9.13667 28.621 10.9693 30.388L15.1339 26.0687ZM13.204 22.61C12.923 21.3005 13.041 19.9376 13.5451 18.6913L7.98269 16.4418C7.02944 18.799 6.80431 21.3838 7.33752 23.8688L13.204 22.61ZM13.5451 18.6913C14.0493 17.4445 14.9193 16.3656 16.0521 15.5954L12.6786 10.6336C10.572 12.0659 8.93576 14.0852 7.98269 16.4418L13.5451 18.6913ZM16.0521 15.5954C17.1855 14.8248 18.5291 14.3994 19.9134 14.3775L19.8187 8.37829C17.269 8.41856 14.7847 9.20162 12.6786 10.6336L16.0521 15.5954ZM19.9052 14.3777C21.0647 14.3625 22.1792 13.8942 23.0013 13.0624L18.7336 8.84495C19.0285 8.54654 19.4226 8.38345 19.8269 8.37817L19.9052 14.3777ZM23.0013 13.0624C23.8247 12.2291 24.2866 11.0984 24.2712 9.91659L18.2717 9.99492C18.266 9.55766 18.4373 9.14481 18.7336 8.84495L23.0013 13.0624ZM24.2712 9.91659C24.2558 8.73483 23.7645 7.6165 22.9196 6.80501L18.7635 11.1324C18.4594 10.8404 18.2774 10.4322 18.2717 9.99492L24.2712 9.91659ZM22.9196 6.80501C22.0761 5.99494 20.9497 5.55589 19.7902 5.57103L19.8686 11.5705C19.4643 11.5758 19.066 11.4231 18.7635 11.1324L22.9196 6.80501ZM19.7779 5.57122C16.8162 5.62207 13.9256 6.49424 11.437 8.09181L14.6784 13.1409C16.2253 12.1478 18.0285 11.6021 19.8809 11.5703L19.7779 5.57122ZM11.437 8.09181C8.94811 9.68963 6.95986 11.9501 5.70566 14.6187L11.1359 17.1708C11.9061 15.532 13.1319 14.1338 14.6784 13.1409L11.437 8.09181ZM5.70566 14.6187C4.45127 17.2878 3.98365 20.254 4.35906 23.1762L10.3101 22.4117C10.0806 20.6251 10.3659 18.8092 11.1359 17.1708L5.70566 14.6187ZM4.35906 23.1762C4.73445 26.0983 5.93679 28.8523 7.82302 31.1237L12.4389 27.2904C11.2756 25.8896 10.5397 24.1985 10.3101 22.4117L4.35906 23.1762ZM8.01585 27.0795L5.61204 29.4693L9.84225 33.7243L12.2461 31.3346L8.01585 27.0795ZM5.57926 29.5024C4.97027 30.1269 4.55769 30.9205 4.40039 31.7852L10.3035 32.859C10.2455 33.1778 10.0941 33.4666 9.87503 33.6912L5.57926 29.5024ZM4.40039 31.7852C4.24305 32.6502 4.3495 33.541 4.70429 34.3436L10.192 31.9176C10.322 32.2118 10.3616 32.54 10.3035 32.859L4.40039 31.7852ZM4.69424 34.3206C5.04191 35.1252 5.62042 35.8034 6.3503 36.2747L9.60501 31.2341C9.86465 31.4018 10.0747 31.6459 10.202 31.9406L4.69424 34.3206ZM6.3503 36.2747C7.0797 36.7456 7.9298 36.9907 8.79374 36.9836L8.74493 30.9838C9.04667 30.9814 9.34584 31.0668 9.60501 31.2341L6.3503 36.2747ZM8.8085 36.9835L20.1984 36.8348L20.1201 30.8353L8.73017 30.984L8.8085 36.9835ZM20.198 36.8348C24.0363 36.7852 27.7313 35.3569 30.5889 32.808L26.5949 28.3305C24.8241 29.91 22.5224 30.8042 20.1205 30.8353L20.198 36.8348ZM30.5889 32.808C33.4475 30.2582 35.2726 26.7601 35.7094 22.966L29.7487 22.2798C29.4817 24.599 28.3647 26.7518 26.5949 28.3305L30.5889 32.808ZM35.7045 23.0056C35.7794 22.4232 35.7365 21.832 35.5787 21.2668L29.7999 22.8808C29.7418 22.6729 29.7259 22.455 29.7535 22.2403L35.7045 23.0056ZM35.5787 21.2668C35.4209 20.7017 35.1518 20.1755 34.7889 19.718L30.0878 23.4462C29.9565 23.2806 29.8579 23.0886 29.7999 22.8808L35.5787 21.2668ZM34.7889 19.718C34.4261 19.2605 33.9772 18.8811 33.4696 18.5997L30.5601 23.8471C30.3801 23.7473 30.2191 23.6117 30.0878 23.4462L34.7889 19.718ZM33.4696 18.5997C32.9621 18.3183 32.4051 18.1398 31.8307 18.073L31.1372 24.0328C30.9361 24.0094 30.74 23.9468 30.5601 23.8471L33.4696 18.5997ZM30.1875 14.2066C29.3824 13.8679 28.4959 13.7747 27.6395 13.9366L28.7546 19.8321C28.455 19.8888 28.1444 19.8564 27.8608 19.7371L30.1875 14.2066ZM27.2234 14.0468L26.9682 14.1343L28.9156 19.8095L29.1708 19.722L27.2234 14.0468ZM26.5805 14.2986L26.3259 14.4283L29.0486 19.7749L29.3033 19.6453L26.5805 14.2986ZM25.7089 14.8464L25.4977 15.0316L29.4544 19.5421L29.6656 19.3568L25.7089 14.8464ZM25.3169 15.2041C24.9222 15.6132 24.6092 16.0959 24.3971 16.6267L29.9688 18.8531C29.8911 19.0475 29.7772 19.2225 29.6352 19.3697L25.3169 15.2041ZM24.4625 16.4753C24.1707 17.103 24.0393 17.7944 24.0821 18.4875L30.0707 18.1181C30.0896 18.4245 30.0314 18.7292 29.9034 19.0045L24.4625 16.4753ZM24.0765 18.2755C24.0711 18.869 24.1863 19.4566 24.4142 20.0033L29.9522 17.6945C30.0357 17.8948 30.0783 18.1111 30.0763 18.3301L24.0765 18.2755ZM24.4503 20.0863C24.6895 20.6146 25.0302 21.0887 25.451 21.4831L29.5536 17.1049C29.7047 17.2465 29.8286 17.4182 29.9161 17.6115L24.4503 20.0863ZM25.4331 21.4661C25.8535 21.8667 26.3478 22.1793 26.8864 22.388L29.0546 16.7935C29.2445 16.8671 29.4205 16.9779 29.5715 17.1218L25.4331 21.4661ZM26.8864 22.388C27.4249 22.5967 27.9985 22.6981 28.5747 22.6873L28.4622 16.6883C28.6637 16.6845 28.8649 16.7199 29.0546 16.7935L26.8864 22.388ZM28.5576 22.6875C29.7171 22.6724 30.8316 22.2041 31.6537 21.3723L27.386 17.1548C27.6809 16.8564 28.075 16.6933 28.4793 16.6881L28.5576 22.6875ZM31.6537 21.3723C32.4771 20.539 32.939 19.4082 32.9236 18.2265L26.9241 18.3048C26.9184 17.8676 27.0897 17.4547 27.386 17.1548L31.6537 21.3723ZM32.9236 18.3049C32.9322 17.6448 32.7838 16.9935 32.492 16.4037L27.114 19.0638C26.986 18.8051 26.9203 18.5181 26.9241 18.2264L32.9236 18.3049ZM32.5187 16.459C32.0444 15.4486 31.2145 14.6573 30.1985 14.2252L27.8501 19.7465C27.5223 19.6071 27.2468 19.3484 27.0873 19.0086L32.5187 16.459ZM32.024 16.9467L32.0239 16.9327L26.0244 17.011L26.0245 17.025L32.024 16.9467Z" fill="white" mask="url(#path-1-outside-1_366_1553)"/>
</g>
<defs>
<filter id="filter0_d_366_1553" x="0.23291" y="0.0554199" width="39.5073" height="40.9285" filterUnits="userSpaceOnUse" color-interpolation-filters="sRGB">
<feFlood flood-opacity="0" result="BackgroundImageFix"/>
<feColorMatrix in="SourceAlpha" type="matrix" values="0 0 0 0 0 0 0 0 0 0 0 0 0 0 0 0 0 0 127 0" result="hardAlpha"/>
<feOffset/>
<feGaussianBlur stdDeviation="2"/>
<feComposite in2="hardAlpha" operator="out"/>
<feColorMatrix type="matrix" values="0 0 0 0 0 0 0 0 0 0 0 0 0 0 0 0 0 0 0.15 0"/>
<feBlend mode="normal" in2="BackgroundImageFix" result="effect1_dropShadow_366_1553"/>
<feBlend mode="normal" in="SourceGraphic" in2="effect1_dropShadow_366_1553" result="shape"/>
</filter>
</defs>
</svg>
