<svg width="43" height="43" viewBox="0 0 43 43" fill="none" xmlns="http://www.w3.org/2000/svg">
<g filter="url(#filter0_d_366_1374)">
<path fill-rule="evenodd" clip-rule="evenodd" d="M11.3418 19.7366C11.0513 19.683 10.7511 19.7488 10.5073 19.9193C10.2634 20.0899 10.0959 20.3513 10.0416 20.6461L8.40227 29.5378C8.34793 29.8326 8.41121 30.1365 8.5782 30.3828C8.74519 30.6292 9.00221 30.7976 9.29271 30.8512L13.6741 31.6589C13.9646 31.7125 14.2648 31.6468 14.5087 31.4762C14.7525 31.3056 14.92 31.0442 14.9744 30.7494L16.6137 21.8577C16.668 21.563 16.6047 21.259 16.4377 21.0127C16.2707 20.7664 16.0137 20.5979 15.7232 20.5443L11.3418 19.7366ZM14.218 22.5653L12.0273 22.1614L10.7979 28.8302L12.9886 29.2341L14.218 22.5653ZM15.3132 35.0549C14.582 35.2898 13.7954 35.3455 13.0208 35.2027L8.63937 34.395C7.39217 34.165 6.29946 33.4432 5.59555 32.405C4.89304 31.3688 4.63392 30.1025 4.85849 28.8844L6.49777 19.9928C6.72234 18.7747 7.41598 17.6841 8.44181 16.9665C9.46968 16.2475 10.7479 15.9629 11.9952 16.1928L16.1188 16.953L17.7195 8.27077C17.9441 7.05268 18.6377 5.96207 19.6635 5.24452C20.6914 4.52553 21.9697 4.24087 23.2169 4.4708L27.5983 5.27857C28.8455 5.5085 29.9382 6.23028 30.6421 7.26854C31.3446 8.30473 31.6038 9.571 31.3792 10.7891L30.5981 15.0255L34.7218 15.7858C35.969 16.0157 37.0617 16.7375 37.7657 17.7757C38.4682 18.8119 38.7273 20.0782 38.5027 21.2963L36.0438 34.6338C35.8192 35.8519 35.1256 36.9425 34.0997 37.6601C33.0719 38.379 31.7936 38.6637 30.5464 38.4338L26.165 37.626C25.3904 37.4832 24.6753 37.1506 24.076 36.6704C23.3448 36.9054 22.5582 36.9611 21.7836 36.8182L17.4022 36.0105C16.6275 35.8677 15.9125 35.5351 15.3132 35.0549ZM22.4369 33.2745C22.7274 33.328 23.0276 33.2623 23.2715 33.0917C23.5153 32.9211 23.6828 32.6597 23.7372 32.3649L27.8354 10.1357C27.8897 9.84097 27.8265 9.53699 27.6595 9.29068C27.4925 9.04437 27.2355 8.87591 26.945 8.82235L22.5635 8.01459C22.273 7.96103 21.9728 8.02676 21.729 8.19733C21.4852 8.3679 21.3176 8.62933 21.2633 8.92411L17.1651 31.1533C17.1107 31.4481 17.174 31.7521 17.341 31.9984C17.508 32.2447 17.765 32.4131 18.0555 32.4667L22.4369 33.2745ZM19.5607 30.4457L21.7514 30.8496L25.4398 10.8433L23.2491 10.4394L19.5607 30.4457ZM29.6871 18.5218C29.3966 18.4682 29.0964 18.534 28.8525 18.7045C28.6087 18.8751 28.4412 19.1365 28.3868 19.4313L25.9279 32.7688C25.8735 33.0636 25.9368 33.3676 26.1038 33.6139C26.2708 33.8602 26.5278 34.0287 26.8183 34.0822L31.1997 34.89C31.4902 34.9435 31.7904 34.8778 32.0343 34.7072C32.2781 34.5367 32.4457 34.2752 32.5 33.9805L34.9589 20.643C35.0133 20.3482 34.95 20.0442 34.783 19.7979C34.616 19.5516 34.359 19.3831 34.0685 19.3296L29.6871 18.5218ZM28.3235 32.0612L30.5142 32.4651L32.5633 21.3505L30.3726 20.9466L28.3235 32.0612Z" fill="white"/>
</g>
<path d="M15.7229 20.5445L11.3415 19.7367C11.051 19.6832 10.7508 19.7489 10.507 19.9195C10.2631 20.09 10.0956 20.3515 10.0412 20.6462L8.40196 29.5379C8.34761 29.8327 8.4109 30.1367 8.57789 30.383C8.74488 30.6293 9.0019 30.7978 9.2924 30.8513L13.6738 31.6591C13.9643 31.7126 14.2645 31.6469 14.5084 31.4763C14.7522 31.3058 14.9197 31.0443 14.9741 30.7496L16.6134 21.8579C16.6677 21.5631 16.6044 21.2591 16.4374 21.0128C16.2704 20.7665 16.0134 20.598 15.7229 20.5445ZM12.9883 29.2342L10.7976 28.8303L12.027 22.1616L14.2177 22.5655L12.9883 29.2342ZM34.0682 19.3297L29.6868 18.5219C29.3963 18.4684 29.0961 18.5341 28.8522 18.7047C28.6084 18.8752 28.4409 19.1367 28.3865 19.4315L25.9276 32.769C25.8732 33.0637 25.9365 33.3677 26.1035 33.614C26.2705 33.8603 26.5275 34.0288 26.818 34.0824L31.1994 34.8901C31.4899 34.9437 31.7901 34.878 32.034 34.7074C32.2778 34.5368 32.4453 34.2754 32.4997 33.9806L34.9586 20.6431C35.013 20.3483 34.9497 20.0443 34.7827 19.798C34.6157 19.5517 34.3587 19.3833 34.0682 19.3297ZM30.5139 32.4653L28.3232 32.0614L30.3723 20.9468L32.563 21.3507L30.5139 32.4653ZM26.9446 8.82249L22.5632 8.01473C22.2727 7.96117 21.9725 8.02691 21.7287 8.19748C21.4848 8.36804 21.3173 8.62947 21.263 8.92425L17.1648 31.1534C17.1104 31.4482 17.1737 31.7522 17.3407 31.9985C17.5077 32.2448 17.7647 32.4133 18.0552 32.4668L22.4366 33.2746C22.7271 33.3282 23.0273 33.2624 23.2712 33.0919C23.515 32.9213 23.6825 32.6599 23.7369 32.3651L27.8351 10.1359C27.8894 9.84112 27.8262 9.53714 27.6592 9.29083C27.4922 9.04452 27.2352 8.87605 26.9446 8.82249ZM21.7511 30.8497L19.5604 30.4459L23.2488 10.4396L25.4395 10.8435L21.7511 30.8497Z" fill="#F3701F"/>
<defs>
<filter id="filter0_d_366_1374" x="0.779785" y="0.392822" width="41.8018" height="42.1189" filterUnits="userSpaceOnUse" color-interpolation-filters="sRGB">
<feFlood flood-opacity="0" result="BackgroundImageFix"/>
<feColorMatrix in="SourceAlpha" type="matrix" values="0 0 0 0 0 0 0 0 0 0 0 0 0 0 0 0 0 0 127 0" result="hardAlpha"/>
<feOffset/>
<feGaussianBlur stdDeviation="2"/>
<feComposite in2="hardAlpha" operator="out"/>
<feColorMatrix type="matrix" values="0 0 0 0 0 0 0 0 0 0 0 0 0 0 0 0 0 0 0.15 0"/>
<feBlend mode="normal" in2="BackgroundImageFix" result="effect1_dropShadow_366_1374"/>
<feBlend mode="normal" in="SourceGraphic" in2="effect1_dropShadow_366_1374" result="shape"/>
</filter>
</defs>
</svg>
