<svg width="35" height="32" viewBox="0 0 35 32" fill="none" xmlns="http://www.w3.org/2000/svg">
<g filter="url(#filter0_d_366_1337)">
<path fill-rule="evenodd" clip-rule="evenodd" d="M11.8329 22.2342C11.5938 22.277 11.3475 22.2229 11.1482 22.0841C11.1482 22.0841 11.1482 22.0841 11.1482 22.0841C10.9489 21.9452 10.8129 21.7328 10.7701 21.4937L9.15898 12.4774C9.11625 12.2382 9.17026 11.9919 9.30913 11.7926C9.30913 11.7926 9.30913 11.7926 9.30913 11.7926C9.44801 11.5933 9.66038 11.4573 9.89952 11.4146L22.5226 9.15895C22.7617 9.11622 23.008 9.17023 23.2073 9.3091C23.4066 9.44798 23.5426 9.66034 23.5853 9.89946L25.7749 22.1527L23.3396 20.4479C23.2404 20.3794 23.1287 20.3311 23.0108 20.3059C22.9833 20.3 22.9556 20.2954 22.9277 20.292C22.8363 20.2811 22.7436 20.284 22.6527 20.3008L11.8329 22.2342ZM22.4871 17.8264C22.4661 17.8284 22.4451 17.8307 22.4241 17.8332L22.4752 17.7598L22.4871 17.8264ZM15.785 12.2826C15.609 12.2815 15.433 12.2969 15.2594 12.3287C15.1272 12.353 14.9963 12.3868 14.8679 12.4302C14.388 12.5921 13.9622 12.8801 13.6341 13.262C13.5843 13.32 13.5366 13.3802 13.4914 13.4425C13.491 13.443 13.4906 13.4436 13.4902 13.4441C13.4879 13.4474 13.4856 13.4506 13.4832 13.4538C13.2766 13.7507 13.1328 14.0823 13.056 14.4287C12.9782 14.7797 12.9693 15.1459 13.0337 15.5067C13.0982 15.8674 13.2334 16.2079 13.4279 16.5102C13.6199 16.8086 13.8697 17.0698 14.1664 17.2768L17.182 19.4175C17.281 19.4871 17.3927 19.5363 17.5107 19.5624C17.6288 19.5886 17.7508 19.5911 17.8699 19.5698C17.9889 19.5486 18.1025 19.5039 18.2042 19.4385C18.3059 19.3731 18.3937 19.2882 18.4624 19.1887L20.5581 16.1811C20.5616 16.1761 20.565 16.1711 20.5684 16.1661C20.5699 16.164 20.5713 16.1619 20.5728 16.1598C20.7796 15.8566 20.9216 15.518 20.9941 15.1649C21.0637 14.8266 21.0695 14.4749 21.0076 14.1283C21.0049 14.1133 21.0021 14.0983 20.9992 14.0833C20.929 13.7252 20.7889 13.388 20.5902 13.0894C20.4015 12.8057 20.1598 12.5569 19.875 12.3582C19.8629 12.3498 19.8507 12.3414 19.8385 12.3332C19.8379 12.3328 19.8374 12.3324 19.8368 12.332C19.7631 12.2824 19.6873 12.2364 19.6098 12.1941C19.1867 11.9638 18.7098 11.8452 18.2247 11.8522C18.0864 11.8542 17.9491 11.8663 17.8138 11.8883C17.6433 11.9161 17.4759 11.9595 17.3138 12.0177C17.298 12.0234 17.2822 12.0293 17.2664 12.0352C17.2111 12.0563 17.1564 12.0791 17.1024 12.1036C16.9222 12.1854 16.7503 12.2864 16.5897 12.4056C16.3964 12.3465 16.1984 12.3087 15.9992 12.2922C15.9456 12.2877 15.8919 12.2848 15.8382 12.2835C15.8205 12.283 15.8027 12.2827 15.785 12.2826ZM17.6845 13.8811C17.6318 13.9279 17.5842 13.9809 17.543 14.0395C17.5428 14.0398 17.5426 14.0401 17.5424 14.0404C17.5412 14.0422 17.54 14.0439 17.5387 14.0457C17.4859 14.121 17.4222 14.1877 17.3498 14.2439C17.3287 14.2602 17.3068 14.2757 17.2843 14.2902C17.2628 14.304 17.2408 14.3169 17.2183 14.3288C17.1966 14.3403 17.1745 14.351 17.152 14.3607C17.0873 14.3886 17.0195 14.409 16.9499 14.4215C16.8802 14.4339 16.8096 14.4382 16.7393 14.4344C16.7148 14.4331 16.6903 14.4308 16.666 14.4275C16.6408 14.4241 16.6157 14.4196 16.5908 14.4141C16.5646 14.4083 16.5387 14.4014 16.5132 14.3933C16.4258 14.3658 16.3429 14.3252 16.2674 14.2729C16.2656 14.2717 16.2638 14.2704 16.2621 14.2692C16.2618 14.269 16.2615 14.2688 16.2612 14.2686C16.196 14.2235 16.1258 14.1876 16.0525 14.161C15.9024 14.1067 15.7394 14.092 15.5796 14.1206C15.5352 14.1285 15.4917 14.1397 15.4495 14.1538C15.265 14.2157 15.1038 14.3351 14.9907 14.4964C14.9897 14.4978 14.9887 14.4993 14.9877 14.5008C14.9824 14.5083 14.9773 14.5159 14.9723 14.5236C14.9125 14.6156 14.8696 14.7177 14.8458 14.825C14.8197 14.9431 14.8172 15.0652 14.8384 15.1842C14.8597 15.3032 14.9043 15.4168 14.9697 15.5185C15.0326 15.6163 15.1135 15.7012 15.2081 15.7687C15.2104 15.7703 15.2128 15.772 15.2151 15.7736C15.2163 15.7745 15.2175 15.7753 15.2187 15.7761C15.219 15.7763 15.2193 15.7765 15.2195 15.7767L17.4726 17.3466L19.0425 15.0935C19.0427 15.0933 19.0429 15.093 19.0431 15.0927C19.0456 15.0892 19.048 15.0856 19.0505 15.0821C19.1158 14.986 19.1623 14.8784 19.1874 14.7649C19.2103 14.6617 19.2151 14.5556 19.2018 14.451C19.1998 14.4359 19.1975 14.4208 19.1948 14.4057C19.1736 14.2867 19.1289 14.1731 19.0635 14.0714C19.0049 13.9803 18.9307 13.9004 18.8444 13.8353C18.8442 13.8352 18.8441 13.8351 18.8439 13.835C18.834 13.8275 18.8239 13.8203 18.8137 13.8132C18.6479 13.6984 18.4499 13.6422 18.2506 13.6513C18.2108 13.6531 18.1709 13.6575 18.1312 13.6646C17.9639 13.6945 17.8096 13.7701 17.6845 13.8811ZM18.2931 14.5668L18.2923 14.5662L18.2931 14.5668ZM13.0297 19.5057L12.9151 19.4243L12.9327 19.523L13.0297 19.5057ZM12.1551 24.0375C11.4378 24.1657 10.6988 24.0037 10.1009 23.587C10.1009 23.587 10.1009 23.5871 10.1009 23.587C9.50299 23.1704 9.09504 22.5333 8.96685 21.8159L7.35569 12.7996C7.2275 12.0822 7.38954 11.3433 7.80617 10.7454C7.80616 10.7454 7.80617 10.7454 7.80617 10.7454C8.2228 10.1475 8.8599 9.73953 9.57728 9.61134L22.2003 7.35568C22.9177 7.22748 23.6567 7.38952 24.2546 7.80614C24.8525 8.22276 25.2604 8.85984 25.3886 9.57723L27.9665 24.0034C27.9974 24.1816 27.9749 24.3649 27.9018 24.5303C27.8287 24.6957 27.7083 24.8357 27.5557 24.9328C27.4577 25.0024 27.3448 25.0481 27.226 25.0661C27.1074 25.088 26.9857 25.0863 26.8679 25.0611C26.75 25.0358 26.6383 24.9876 26.5391 24.9191L22.6052 22.1701L12.1551 24.0375ZM22.0294 24.7877L12.5906 26.4744C11.2269 26.7181 9.82227 26.4101 8.68568 25.6181C7.54909 24.8261 6.77365 23.6151 6.52997 22.2514L4.9188 13.2351C4.67512 11.8714 4.98315 10.4667 5.77513 9.33013C6.5671 8.19355 7.77814 7.41813 9.14183 7.17445L21.7649 4.91879C23.1286 4.67511 24.5332 4.98312 25.6698 5.77508C26.8064 6.56704 27.5818 7.77807 27.8255 9.14177L30.4034 23.5679L30.4055 23.5801C30.52 24.2398 30.4367 24.9186 30.166 25.531C29.9035 26.1248 29.4763 26.6304 28.9356 26.9882C28.5461 27.2533 28.1034 27.4304 27.6383 27.5071C27.2112 27.5811 26.7737 27.5725 26.3495 27.4817C25.9131 27.3882 25.4994 27.2095 25.1322 26.9559L25.1211 26.9482L22.0294 24.7877Z" fill="white"/>
</g>
<path d="M16.5894 12.4057C16.027 12.2336 15.4248 12.2422 14.8676 12.4302C14.3104 12.6182 13.8261 12.9762 13.483 13.4539C13.067 14.0516 12.9054 14.7899 13.0335 15.5067C13.1615 16.2235 13.5689 16.8602 14.1661 17.2768L17.1818 19.4176C17.2807 19.4871 17.3924 19.5363 17.5105 19.5625C17.6285 19.5886 17.7506 19.5911 17.8696 19.5699C17.9886 19.5486 18.1023 19.504 18.204 19.4386C18.3057 19.3732 18.3934 19.2883 18.4621 19.1888L20.5578 16.1812C20.9737 15.5835 21.1354 14.8452 21.0073 14.1284C20.8792 13.4115 20.4719 12.7749 19.8747 12.3582C19.3912 12.0207 18.8139 11.8437 18.2244 11.8522C17.6349 11.8607 17.0629 12.0543 16.5894 12.4057ZM19.0422 15.0936L17.4723 17.3466L15.2193 15.7767C15.1198 15.708 15.0349 15.6203 14.9695 15.5186C14.9041 15.4169 14.8594 15.3032 14.8382 15.1842C14.8169 15.0652 14.8194 14.9431 14.8455 14.8251C14.8717 14.707 14.9209 14.5953 14.9905 14.4964C15.1294 14.2983 15.3411 14.1632 15.5793 14.1206C15.8175 14.0781 16.0629 14.1315 16.2618 14.2692C16.3607 14.3388 16.4724 14.388 16.5905 14.4141C16.7085 14.4403 16.8306 14.4428 16.9496 14.4215C17.0687 14.4003 17.1823 14.3556 17.284 14.2902C17.3857 14.2248 17.4734 14.1399 17.5421 14.0404C17.6811 13.8423 17.8927 13.7072 18.1309 13.6647C18.3691 13.6221 18.6145 13.6755 18.8135 13.8133C18.9129 13.882 18.9978 13.9697 19.0633 14.0714C19.1287 14.1731 19.1733 14.2867 19.1946 14.4058C19.2158 14.5248 19.2133 14.6468 19.1872 14.7649C19.161 14.8829 19.1118 14.9947 19.0422 15.0936ZM22.2001 7.35571L9.57701 9.61137C8.85962 9.73956 8.22253 10.1475 7.8059 10.7454C7.38927 11.3433 7.22723 12.0822 7.35542 12.7996L8.96658 21.816C9.09477 22.5334 9.5027 23.1704 10.1006 23.5871C10.6985 24.0037 11.4375 24.1657 12.1549 24.0375L22.605 22.1702L26.5388 24.9191C26.638 24.9876 26.7497 25.0359 26.8676 25.0611C26.9855 25.0863 27.1072 25.0881 27.2257 25.0662C27.3445 25.0481 27.4574 25.0024 27.5554 24.9328C27.708 24.8358 27.8284 24.6957 27.9015 24.5303C27.9746 24.3649 27.9971 24.1816 27.9662 24.0034L25.3884 9.57726C25.2602 8.85988 24.8523 8.2228 24.2543 7.80618C23.6564 7.38956 22.9175 7.22752 22.2001 7.35571ZM25.7746 22.1527L23.3393 20.4479C23.2401 20.3794 23.1284 20.3312 23.0105 20.3059C22.8926 20.2807 22.771 20.2789 22.6524 20.3008L11.8326 22.2343C11.5935 22.277 11.3472 22.223 11.1479 22.0841C10.9486 21.9452 10.8126 21.7329 10.7699 21.4937L9.15871 12.4774C9.11598 12.2383 9.17 11.992 9.30887 11.7927C9.44775 11.5933 9.66011 11.4574 9.89925 11.4146L22.5223 9.15898C22.7614 9.11625 23.0078 9.17026 23.2071 9.30914C23.4064 9.44801 23.5423 9.66037 23.5851 9.8995L25.7746 22.1527Z" fill="#0093CE"/>
<defs>
<filter id="filter0_d_366_1337" x="0.837402" y="0.837402" width="33.6182" height="30.7195" filterUnits="userSpaceOnUse" color-interpolation-filters="sRGB">
<feFlood flood-opacity="0" result="BackgroundImageFix"/>
<feColorMatrix in="SourceAlpha" type="matrix" values="0 0 0 0 0 0 0 0 0 0 0 0 0 0 0 0 0 0 127 0" result="hardAlpha"/>
<feOffset/>
<feGaussianBlur stdDeviation="2"/>
<feComposite in2="hardAlpha" operator="out"/>
<feColorMatrix type="matrix" values="0 0 0 0 0 0 0 0 0 0 0 0 0 0 0 0 0 0 0.15 0"/>
<feBlend mode="normal" in2="BackgroundImageFix" result="effect1_dropShadow_366_1337"/>
<feBlend mode="normal" in="SourceGraphic" in2="effect1_dropShadow_366_1337" result="shape"/>
</filter>
</defs>
</svg>
