<svg width="21" height="23" viewBox="0 0 21 23" fill="none" xmlns="http://www.w3.org/2000/svg">
<path d="M20.8335 17.7105L17.6748 12.1848C18.3212 10.9823 18.6579 9.6341 18.6539 8.26488C18.6539 6.0729 17.7943 3.97069 16.2642 2.42073C14.7341 0.870761 12.6588 0 10.4949 0C8.33094 0 6.25565 0.870761 4.72553 2.42073C3.19541 3.97069 2.3358 6.0729 2.3358 8.26488C2.33178 9.6341 2.66852 10.9823 3.31488 12.1848L0.156164 17.7105C0.0536639 17.8903 -0.000201954 18.0943 5.68978e-07 18.302C0.000203092 18.5096 0.0544666 18.7136 0.157317 18.8932C0.260167 19.0728 0.407966 19.2218 0.585803 19.3251C0.763639 19.4284 0.965223 19.4823 1.17022 19.4815H4.51543L6.21718 22.386C6.27454 22.4823 6.34519 22.5697 6.42698 22.6458C6.64305 22.8567 6.93113 22.9752 7.23123 22.9764H7.39441C7.57038 22.952 7.73852 22.8872 7.88598 22.7869C8.03345 22.6866 8.15635 22.5536 8.24529 22.3978L10.4949 18.4779L12.7444 22.4332C12.8347 22.5868 12.9581 22.7175 13.1055 22.8157C13.2529 22.9139 13.4204 22.9769 13.5953 23H13.7585C14.0626 23.0018 14.3554 22.8832 14.5744 22.6694C14.6528 22.5977 14.7196 22.514 14.7725 22.4214L16.4743 19.5169H19.8195C20.0249 19.5177 20.2268 19.4636 20.4049 19.3599C20.583 19.2562 20.7309 19.1068 20.8335 18.9266C20.9425 18.7429 21 18.5327 21 18.3185C21 18.1043 20.9425 17.8941 20.8335 17.7105ZM7.21957 19.5169L6.18221 17.7577C6.08006 17.5831 5.93523 17.4382 5.7617 17.3369C5.58816 17.2355 5.39177 17.1812 5.19147 17.1791H3.17501L4.84179 14.251C5.98957 15.3714 7.43616 16.1266 9.00291 16.4235L7.21957 19.5169ZM10.4949 14.1684C9.34221 14.1684 8.21544 13.8221 7.25705 13.1734C6.29865 12.5248 5.55168 11.6028 5.11058 10.524C4.66948 9.44532 4.55407 8.25833 4.77894 7.11317C5.00381 5.968 5.55886 4.9161 6.37391 4.09049C7.18895 3.26487 8.22739 2.70262 9.35789 2.47483C10.4884 2.24704 11.6602 2.36395 12.7251 2.81077C13.79 3.25759 14.7002 4.01426 15.3406 4.98508C15.981 5.9559 16.3228 7.09728 16.3228 8.26488C16.3228 9.83058 15.7087 11.3322 14.6158 12.4393C13.5229 13.5464 12.0405 14.1684 10.4949 14.1684ZM15.7982 17.1791C15.5979 17.1812 15.4016 17.2355 15.228 17.3369C15.0545 17.4382 14.9096 17.5831 14.8075 17.7577L13.7701 19.5169L11.9985 16.3881C13.5597 16.0851 15.0009 15.3305 16.1479 14.2156L17.8147 17.1437L15.7982 17.1791Z"/>
</svg>
