<svg width="21" height="21" viewBox="0 0 21 21" fill="none" xmlns="http://www.w3.org/2000/svg">
<path d="M19.542 18.051C20.1997 17.1694 20.651 16.1513 20.8627 15.072C21.0744 13.9926 21.041 12.8795 20.765 11.8148C20.489 10.7501 19.9774 9.76091 19.2681 8.92031C18.5588 8.07972 17.6698 7.40914 16.6666 6.95807C16.4481 5.7009 15.946 4.51009 15.1983 3.4761C14.4507 2.44211 13.4772 1.59215 12.3518 0.990799C11.2264 0.389453 9.97881 0.0525429 8.70373 0.00566763C7.42865 -0.0412077 6.15967 0.203185 4.99319 0.720277C3.82671 1.23737 2.79344 2.01355 1.97188 2.98986C1.15032 3.96616 0.56209 5.11689 0.251887 6.35461C-0.0583169 7.59234 -0.0823332 8.88449 0.181663 10.1329C0.445659 11.3813 0.990721 12.5531 1.77543 13.5592L0.316747 15.0075C0.171132 15.1551 0.0724913 15.3425 0.0332704 15.5461C-0.00595061 15.7497 0.016006 15.9603 0.0963696 16.1514C0.175097 16.3431 0.30879 16.5072 0.480601 16.6229C0.652411 16.7387 0.854651 16.8011 1.06183 16.8021H7.033C7.62765 18.0558 8.56519 19.1155 9.73708 19.8584C10.909 20.6013 12.2673 20.9971 13.6548 21H19.9513C20.1585 20.999 20.3607 20.9366 20.5325 20.8208C20.7043 20.705 20.838 20.541 20.9168 20.3493C20.9971 20.1582 21.0191 19.9476 20.9799 19.744C20.9406 19.5404 20.842 19.353 20.6964 19.2054L19.542 18.051ZM6.30891 13.6537C6.31035 14.0051 6.33841 14.356 6.39286 14.7032H3.59092L3.95822 14.3463C4.05658 14.2488 4.13465 14.1327 4.18793 14.0048C4.2412 13.8769 4.26863 13.7398 4.26863 13.6012C4.26863 13.4627 4.2412 13.3255 4.18793 13.1976C4.13465 13.0697 4.05658 12.9537 3.95822 12.8561C3.37008 12.2744 2.90382 11.5812 2.58669 10.8172C2.26956 10.0532 2.10793 9.23357 2.11125 8.40634C2.11125 6.73631 2.77463 5.13469 3.95545 3.9538C5.13627 2.77292 6.73781 2.1095 8.40774 2.1095C9.71078 2.10167 10.9835 2.50241 12.047 3.25539C13.1106 4.00836 13.9114 5.07571 14.3369 6.30739C14.1061 6.30739 13.8857 6.30739 13.6548 6.30739C11.7066 6.30739 9.8381 7.08138 8.46048 8.45908C7.08285 9.83677 6.30891 11.7053 6.30891 13.6537ZM17.3697 18.9011L17.4222 18.9535H13.6548C12.441 18.9514 11.2655 18.5284 10.3285 17.7567C9.39153 16.985 8.75108 15.9123 8.51624 14.7214C8.28141 13.5304 8.46672 12.2949 9.04062 11.2252C9.61451 10.1556 10.5415 9.31802 11.6636 8.8552C12.7857 8.39237 14.0336 8.33293 15.1947 8.687C16.3557 9.04106 17.3581 9.78673 18.031 10.797C18.704 11.8072 19.0059 13.0196 18.8853 14.2274C18.7647 15.4353 18.2291 16.564 17.3697 17.4213C17.172 17.6151 17.0589 17.8791 17.0549 18.1559C17.0555 18.2948 17.0836 18.4321 17.1377 18.56C17.1917 18.688 17.2706 18.8039 17.3697 18.9011Z"/>
</svg>
