<svg width="21" height="24" viewBox="0 0 21 24" fill="none" xmlns="http://www.w3.org/2000/svg">
<path d="M19.8333 7.22008L12.8334 0.915623C12.1917 0.325982 11.361 0 10.5 0C9.63912 0 8.80841 0.325982 8.16672 0.915623L1.16677 7.22008C0.796201 7.56056 0.50049 7.97824 0.299326 8.44531C0.0981609 8.91237 -0.00384129 9.41811 0.000110592 9.92884V20.4043C0.000110592 21.3579 0.368857 22.2725 1.02523 22.9468C1.6816 23.6212 2.57183 24 3.50009 24H17.5C18.4282 24 19.3185 23.6212 19.9748 22.9468C20.6312 22.2725 21 21.3579 21 20.4043V9.91685C21.0023 9.40814 20.8995 8.90471 20.6983 8.43984C20.4972 7.97496 20.2024 7.55922 19.8333 7.22008ZM12.8334 21.6029H8.16672V15.61C8.16672 15.2922 8.28964 14.9873 8.50843 14.7625C8.72722 14.5378 9.02396 14.4115 9.33338 14.4115H11.6667C11.9761 14.4115 12.2729 14.5378 12.4916 14.7625C12.7104 14.9873 12.8334 15.2922 12.8334 15.61V21.6029ZM18.6666 20.4043C18.6666 20.7222 18.5437 21.027 18.3249 21.2518C18.1061 21.4766 17.8094 21.6029 17.5 21.6029H15.1667V15.61C15.1667 14.6564 14.7979 13.7418 14.1416 13.0675C13.4852 12.3932 12.5949 12.0143 11.6667 12.0143H9.33338C8.40513 12.0143 7.51489 12.3932 6.85852 13.0675C6.20215 13.7418 5.8334 14.6564 5.8334 15.61V21.6029H3.50009C3.19067 21.6029 2.89392 21.4766 2.67513 21.2518C2.45634 21.027 2.33343 20.7222 2.33343 20.4043V9.91685C2.33364 9.74667 2.36912 9.57849 2.43751 9.4235C2.50591 9.2685 2.60565 9.13025 2.73009 9.01793L9.73004 2.72546C9.94294 2.5333 10.2166 2.42733 10.5 2.42733C10.7834 2.42733 11.0571 2.5333 11.27 2.72546L18.27 9.01793C18.3944 9.13025 18.4942 9.2685 18.5626 9.4235C18.631 9.57849 18.6664 9.74667 18.6666 9.91685V20.4043Z"/>
</svg>
