<svg width="21" height="19" viewBox="0 0 21 19" fill="none" xmlns="http://www.w3.org/2000/svg">
<path d="M11.3715 11.0306C11.2754 10.8869 11.1457 10.7691 10.9937 10.6877C10.8418 10.6063 10.6722 10.5638 10.5 10.5638C10.3278 10.5638 10.1582 10.6063 10.0063 10.6877C9.85428 10.7691 9.72455 10.8869 9.6285 11.0306L5.4285 17.3639C5.33634 17.5244 5.28783 17.7064 5.28783 17.8917C5.28783 18.077 5.33634 18.259 5.4285 18.4194C5.51067 18.5843 5.63436 18.7247 5.78726 18.8265C5.94017 18.9284 6.11695 18.9882 6.3 19H14.7C14.8899 18.9995 15.0762 18.9472 15.2389 18.8487C15.4016 18.7502 15.5347 18.6091 15.624 18.4406C15.7083 18.2755 15.7478 18.091 15.7386 17.9057C15.7294 17.7204 15.6718 17.5408 15.5715 17.385L11.3715 11.0306ZM8.2635 16.8889L10.5 13.5111L12.7365 16.8889H8.2635ZM17.85 0H3.15C2.31457 0 1.51335 0.33363 0.922614 0.927495C0.331874 1.52136 0 2.32681 0 3.16667V12.6667C0 13.5065 0.331874 14.312 0.922614 14.9058C1.51335 15.4997 2.31457 15.8333 3.15 15.8333H4.0425C4.32098 15.8333 4.58805 15.7221 4.78496 15.5242C4.98188 15.3262 5.0925 15.0577 5.0925 14.7778C5.0925 14.4978 4.98188 14.2293 4.78496 14.0314C4.58805 13.8334 4.32098 13.7222 4.0425 13.7222H3.15C2.87152 13.7222 2.60445 13.611 2.40754 13.4131C2.21062 13.2151 2.1 12.9466 2.1 12.6667V3.16667C2.1 2.88672 2.21062 2.61823 2.40754 2.42028C2.60445 2.22232 2.87152 2.11111 3.15 2.11111H17.85C18.1285 2.11111 18.3955 2.22232 18.5925 2.42028C18.7894 2.61823 18.9 2.88672 18.9 3.16667V12.6667C18.9 12.9466 18.7894 13.2151 18.5925 13.4131C18.3955 13.611 18.1285 13.7222 17.85 13.7222H16.9575C16.679 13.7222 16.412 13.8334 16.215 14.0314C16.0181 14.2293 15.9075 14.4978 15.9075 14.7778C15.9075 15.0577 16.0181 15.3262 16.215 15.5242C16.412 15.7221 16.679 15.8333 16.9575 15.8333H17.85C18.6854 15.8333 19.4866 15.4997 20.0774 14.9058C20.6681 14.312 21 13.5065 21 12.6667V3.16667C21 2.32681 20.6681 1.52136 20.0774 0.927495C19.4866 0.33363 18.6854 0 17.85 0Z"/>
</svg>
