<svg width="11" height="14" viewBox="0 0 11 14" fill="none" xmlns="http://www.w3.org/2000/svg">
<path d="M11 7C11 6.81435 10.9276 6.6363 10.7986 6.50503C10.6697 6.37375 10.4948 6.3 10.3125 6.3H5.09437L6.67562 4.697C6.73973 4.63173 6.79057 4.55425 6.82527 4.46897C6.85996 4.3837 6.87781 4.2923 6.87781 4.2C6.87781 4.1077 6.85996 4.0163 6.82527 3.93103C6.79057 3.84575 6.73973 3.76827 6.67562 3.703C6.61152 3.63773 6.53542 3.58596 6.45167 3.55064C6.36792 3.51532 6.27815 3.49714 6.1875 3.49714C6.09685 3.49714 6.00708 3.51532 5.92333 3.55064C5.83958 3.58596 5.76348 3.63773 5.69938 3.703L2.94937 6.503C2.88678 6.56957 2.83772 6.64807 2.805 6.734C2.73624 6.90442 2.73624 7.09558 2.805 7.266C2.83772 7.35193 2.88678 7.43043 2.94937 7.497L5.69938 10.297C5.76329 10.3626 5.83933 10.4147 5.9231 10.4502C6.00688 10.4858 6.09674 10.5041 6.1875 10.5041C6.27826 10.5041 6.36812 10.4858 6.4519 10.4502C6.53567 10.4147 6.61171 10.3626 6.67562 10.297C6.74006 10.2319 6.79121 10.1545 6.82611 10.0692C6.86102 9.9839 6.87899 9.89241 6.87899 9.8C6.87899 9.70759 6.86102 9.6161 6.82611 9.5308C6.79121 9.44549 6.74006 9.36807 6.67562 9.303L5.09437 7.7H10.3125C10.4948 7.7 10.6697 7.62625 10.7986 7.49497C10.9276 7.3637 11 7.18565 11 7ZM8.9375 0H2.0625C1.51549 0 0.990886 0.221249 0.604092 0.615076C0.217299 1.0089 0 1.54305 0 2.1V11.9C0 12.457 0.217299 12.9911 0.604092 13.3849C0.990886 13.7788 1.51549 14 2.0625 14H8.9375C9.48451 14 10.0091 13.7788 10.3959 13.3849C10.7827 12.9911 11 12.457 11 11.9V9.8C11 9.61435 10.9276 9.4363 10.7986 9.30503C10.6697 9.17375 10.4948 9.1 10.3125 9.1C10.1302 9.1 9.95529 9.17375 9.82636 9.30503C9.69743 9.4363 9.625 9.61435 9.625 9.8V11.9C9.625 12.0857 9.55257 12.2637 9.42364 12.395C9.29471 12.5263 9.11984 12.6 8.9375 12.6H2.0625C1.88016 12.6 1.7053 12.5263 1.57636 12.395C1.44743 12.2637 1.375 12.0857 1.375 11.9V2.1C1.375 1.91435 1.44743 1.7363 1.57636 1.60503C1.7053 1.47375 1.88016 1.4 2.0625 1.4H8.9375C9.11984 1.4 9.29471 1.47375 9.42364 1.60503C9.55257 1.7363 9.625 1.91435 9.625 2.1V4.2C9.625 4.38565 9.69743 4.5637 9.82636 4.69497C9.95529 4.82625 10.1302 4.9 10.3125 4.9C10.4948 4.9 10.6697 4.82625 10.7986 4.69497C10.9276 4.5637 11 4.38565 11 4.2V2.1C11 1.54305 10.7827 1.0089 10.3959 0.615076C10.0091 0.221249 9.48451 0 8.9375 0Z" class="primary-color" opacity="0.8"/>
</svg>
