<svg width="21" height="23" viewBox="0 0 21 23" fill="none" xmlns="http://www.w3.org/2000/svg">
<path d="M18.375 0H5.25C3.85761 0 2.52226 0.484642 1.53769 1.34731C0.553123 2.20998 0 3.38 0 4.6V18.4C0 19.62 0.553123 20.79 1.53769 21.6527C2.52226 22.5154 3.85761 23 5.25 23H18.375C19.0712 23 19.7389 22.7577 20.2312 22.3263C20.7234 21.895 21 21.31 21 20.7V2.3C21 1.69 20.7234 1.10499 20.2312 0.673654C19.7389 0.242321 19.0712 0 18.375 0ZM2.625 4.6C2.625 3.99 2.90156 3.40499 3.39384 2.97365C3.88613 2.54232 4.55381 2.3 5.25 2.3H18.375V13.8H5.25C4.32474 13.8034 3.41774 14.0259 2.625 14.444V4.6ZM5.25 20.7C4.55381 20.7 3.88613 20.4577 3.39384 20.0263C2.90156 19.595 2.625 19.01 2.625 18.4C2.625 17.79 2.90156 17.205 3.39384 16.7737C3.88613 16.3423 4.55381 16.1 5.25 16.1H18.375V20.7H5.25ZM7.875 6.9H13.125C13.4731 6.9 13.8069 6.77884 14.0531 6.56317C14.2992 6.34751 14.4375 6.055 14.4375 5.75C14.4375 5.445 14.2992 5.15249 14.0531 4.93683C13.8069 4.72116 13.4731 4.6 13.125 4.6H7.875C7.5269 4.6 7.19306 4.72116 6.94692 4.93683C6.70078 5.15249 6.5625 5.445 6.5625 5.75C6.5625 6.055 6.70078 6.34751 6.94692 6.56317C7.19306 6.77884 7.5269 6.9 7.875 6.9Z"/>
</svg>
