<svg width="100%" height="100%" viewBox="0 0 21 24" fill="none" xmlns="http://www.w3.org/2000/svg">
<path d="M1.5 16.5C1.10218 16.5 0.720645 16.658 0.43934 16.9393C0.158036 17.2206 0 17.6022 0 18V22.5C0 22.8978 0.158036 23.2794 0.43934 23.5607C0.720645 23.842 1.10218 24 1.5 24C1.89782 24 2.27936 23.842 2.56066 23.5607C2.84196 23.2794 3 22.8978 3 22.5V18C3 17.6022 2.84196 17.2206 2.56066 16.9393C2.27936 16.658 1.89782 16.5 1.5 16.5ZM7.5 12C7.10218 12 6.72064 12.158 6.43934 12.4393C6.15804 12.7206 6 13.1022 6 13.5V22.5C6 22.8978 6.15804 23.2794 6.43934 23.5607C6.72064 23.842 7.10218 24 7.5 24C7.89782 24 8.27936 23.842 8.56066 23.5607C8.84196 23.2794 9 22.8978 9 22.5V13.5C9 13.1022 8.84196 12.7206 8.56066 12.4393C8.27936 12.158 7.89782 12 7.5 12ZM19.5 0C19.1022 0 18.7206 0.158036 18.4393 0.43934C18.158 0.720645 18 1.10218 18 1.5V22.5C18 22.8978 18.158 23.2794 18.4393 23.5607C18.7206 23.842 19.1022 24 19.5 24C19.8978 24 20.2794 23.842 20.5607 23.5607C20.842 23.2794 21 22.8978 21 22.5V1.5C21 1.10218 20.842 0.720645 20.5607 0.43934C20.2794 0.158036 19.8978 0 19.5 0ZM13.5 6C13.1022 6 12.7206 6.15804 12.4393 6.43934C12.158 6.72064 12 7.10218 12 7.5V22.5C12 22.8978 12.158 23.2794 12.4393 23.5607C12.7206 23.842 13.1022 24 13.5 24C13.8978 24 14.2794 23.842 14.5607 23.5607C14.842 23.2794 15 22.8978 15 22.5V7.5C15 7.10218 14.842 6.72064 14.5607 6.43934C14.2794 6.15804 13.8978 6 13.5 6Z"/>
</svg>
