<svg width="21" height="22" viewBox="0 0 21 22" fill="none" xmlns="http://www.w3.org/2000/svg">
<path d="M21 5.76359C21.0008 5.61883 20.9743 5.47533 20.922 5.34132C20.8698 5.20731 20.7928 5.08542 20.6955 4.98265L16.2435 0.318995C16.1454 0.217053 16.029 0.136401 15.9011 0.0816639C15.7732 0.026927 15.6362 -0.000818536 15.498 1.83843e-05C15.3598 -0.000818536 15.2228 0.026927 15.0949 0.0816639C14.967 0.136401 14.8506 0.217053 14.7525 0.318995L11.781 3.43176L0.304517 15.4539C0.207202 15.5566 0.13021 15.6785 0.0779576 15.8125C0.0257049 15.9466 -0.000781386 16.09 1.755e-05 16.2348V20.8985C1.755e-05 21.1902 0.110642 21.4699 0.307555 21.6762C0.504468 21.8825 0.771539 21.9984 1.05002 21.9984H5.50201C5.64893 22.0067 5.7959 21.9827 5.93337 21.9277C6.07084 21.8728 6.19575 21.7882 6.30001 21.6794L17.7135 9.6573L20.6955 6.59953C20.7913 6.49292 20.8694 6.37023 20.9265 6.23655C20.9366 6.14888 20.9366 6.06025 20.9265 5.97257C20.9314 5.92137 20.9314 5.86978 20.9265 5.81858L21 5.76359ZM5.07151 19.7985H2.10001V16.6858L12.5265 5.76359L15.498 8.87636L5.07151 19.7985ZM16.9785 7.32547L14.007 4.2127L15.498 2.66182L18.459 5.76359L16.9785 7.32547Z"/>
</svg>
